<svg width="2000px" height="1021px"
 viewBox="0.00 0.00 1022.58 522.30" xmlns="http://www.w3.org/2000/svg" xmlns:xlink="http://www.w3.org/1999/xlink">
<g id="graph0" class="graph" transform="scale(1.0 1.0) rotate(0) translate(4 518.3)">
<title>ContextMapGraph</title>
<polygon fill="white" stroke="transparent" points="-4,4 -4,-518.3 1018.58,-518.3 1018.58,4 -4,4"/>
<!-- CustomerManagementContext -->
<g id="node1" class="node">
<title>CustomerManagementContext</title>
<polygon fill="none" stroke="black" stroke-width="2" points="195.92,-372.14 182.53,-371.85 169.29,-371.45 156.26,-370.92 143.47,-370.28 131,-369.53 118.88,-368.66 107.16,-367.69 95.89,-366.61 85.12,-365.42 74.87,-364.14 65.18,-362.76 56.09,-361.28 47.63,-359.72 39.81,-358.07 32.67,-356.35 26.22,-354.54 20.48,-352.67 15.44,-350.73 11.13,-348.73 7.54,-346.68 4.67,-344.58 2.51,-342.43 1.06,-340.25 0.32,-338.04 0.25,-335.8 0.85,-333.54 2.09,-331.27 3.96,-328.99 6.43,-326.71 9.48,-324.43 13.07,-322.17 17.19,-319.92 21.8,-317.7 26.86,-315.51 32.36,-313.35 38.26,-311.24 44.53,-309.17 51.14,-307.16 58.06,-305.2 65.27,-303.31 72.73,-301.48 80.42,-299.73 88.32,-298.06 96.4,-296.47 104.63,-294.97 113.01,-293.56 121.51,-292.25 130.1,-291.03 138.79,-289.92 147.54,-288.91 156.36,-288.02 165.22,-287.23 174.11,-286.55 183.04,-285.99 191.98,-285.55 200.94,-285.23 209.9,-285.02 218.86,-284.93 227.82,-284.97 236.76,-285.12 245.68,-285.39 254.58,-285.78 263.44,-286.29 272.27,-286.92 281.05,-287.66 289.78,-288.51 298.44,-289.47 307.02,-290.54 315.52,-291.72 323.91,-293 332.19,-294.37 340.33,-295.85 348.31,-297.41 356.12,-299.05 363.74,-300.78 371.14,-302.59 378.3,-304.47 385.19,-306.41 391.79,-308.42 398.06,-310.48 403.99,-312.6 409.54,-314.75 414.68,-316.95 419.38,-319.18 423.62,-321.43 427.36,-323.71 430.59,-326 433.26,-328.29 435.35,-330.59 436.85,-332.88 437.72,-335.16 437.95,-337.42 437.51,-339.66 436.4,-341.87 434.6,-344.04 432.09,-346.16 428.88,-348.24 424.95,-350.27 420.31,-352.23 414.96,-354.13 408.91,-355.96 402.17,-357.72 394.75,-359.39 386.67,-360.98 377.95,-362.48 368.63,-363.88 358.72,-365.19 348.27,-366.4 337.3,-367.5 325.86,-368.5 313.99,-369.39 301.74,-370.16 289.15,-370.82 276.27,-371.37 263.15,-371.8 249.85,-372.1 236.43,-372.29 222.92,-372.36 209.4,-372.31 195.92,-372.14"/>
<text text-anchor="middle" x="219.75" y="-324.84" font-family="sans-serif" font-size="16.00">CustomerManagementContext</text>
</g>
<!-- CustomerSelfServiceContext -->
<g id="node2" class="node">
<title>CustomerSelfServiceContext</title>
<polygon fill="none" stroke="black" stroke-width="2" points="366.49,-156.55 375.07,-158.68 383.19,-160.87 390.82,-163.11 397.93,-165.41 404.48,-167.75 410.44,-170.12 415.79,-172.52 420.51,-174.93 424.58,-177.35 427.97,-179.76 430.67,-182.17 432.68,-184.57 433.98,-186.94 434.57,-189.28 434.45,-191.58 433.61,-193.84 432.07,-196.05 429.83,-198.21 426.9,-200.32 423.31,-202.36 419.05,-204.33 414.17,-206.23 408.67,-208.07 402.58,-209.82 395.94,-211.5 388.77,-213.09 381.11,-214.61 372.98,-216.04 364.43,-217.38 355.49,-218.64 346.19,-219.81 336.58,-220.9 326.7,-221.9 316.57,-222.81 306.25,-223.63 295.78,-224.36 285.18,-225.01 274.49,-225.57 263.77,-226.04 253.03,-226.42 242.32,-226.71 231.66,-226.92 221.1,-227.04 210.66,-227.07 200.36,-227.01 190.25,-226.87 180.33,-226.64 170.64,-226.31 161.19,-225.91 152.01,-225.41 143.11,-224.82 134.5,-224.14 126.21,-223.38 118.25,-222.52 110.62,-221.58 103.33,-220.54 96.39,-219.42 89.82,-218.21 83.6,-216.9 77.75,-215.52 72.27,-214.04 67.16,-212.48 62.43,-210.84 58.07,-209.12 54.09,-207.31 50.48,-205.44 47.25,-203.49 44.39,-201.46 41.91,-199.38 39.81,-197.23 38.08,-195.03 36.73,-192.77 35.77,-190.47 35.18,-188.13 34.97,-185.76 35.14,-183.36 35.71,-180.94 36.66,-178.51 38,-176.08 39.73,-173.65 41.87,-171.23 44.4,-168.83 47.33,-166.46 50.67,-164.14 54.41,-161.85 58.57,-159.63 63.13,-157.46 68.11,-155.37 73.49,-153.36 79.28,-151.45 85.47,-149.62 92.07,-147.91 99.06,-146.3 106.43,-144.82 114.19,-143.46 122.31,-142.24 130.79,-141.15 139.61,-140.2 148.75,-139.4 158.2,-138.74 167.93,-138.24 177.93,-137.9 188.16,-137.71 198.6,-137.68 209.23,-137.81 220,-138.09 230.9,-138.53 241.88,-139.12 252.91,-139.86 263.96,-140.75 274.98,-141.78 285.94,-142.95 296.79,-144.25 307.5,-145.68 318.03,-147.23 328.33,-148.9 338.37,-150.67 348.1,-152.54 357.49,-154.51 366.49,-156.55"/>
<text text-anchor="middle" x="219.75" y="-181.74" font-family="sans-serif" font-size="16.00">CustomerSelfServiceContext</text>
</g>
<!-- CustomerManagementContext&#45;&gt;CustomerSelfServiceContext -->
<g id="edge1" class="edge">
<title>CustomerManagementContext&#45;&gt;CustomerSelfServiceContext</title>
<path fill="none" stroke="black" stroke-width="2" d="M219.75,-284.93C219.75,-266.59 219.75,-245.28 219.75,-227.18"/>
<text text-anchor="middle" x="235.25" y="-255.49" font-family="sans-serif" font-size="12.00"> &#160;&#160;&#160;&#160;&#160;&#160;&#160;</text>
<polygon fill="white" stroke="transparent" points="212.75,-218.18 212.75,-235.18 226.75,-235.18 226.75,-218.18 212.75,-218.18"/>
<text text-anchor="start" x="214.75" y="-223.58" font-family="sans-serif" font-size="12.00">D</text>
<polygon fill="white" stroke="transparent" points="212.75,-275.93 212.75,-292.93 226.75,-292.93 226.75,-275.93 212.75,-275.93"/>
<text text-anchor="start" x="214.75" y="-281.33" font-family="sans-serif" font-size="12.00">U</text>
</g>
<!-- PolicyManagementContext -->
<g id="node3" class="node">
<title>PolicyManagementContext</title>
<polygon fill="none" stroke="black" stroke-width="2" points="529.03,-209.72 522.27,-207.35 515.98,-204.92 510.18,-202.45 504.89,-199.94 500.16,-197.41 495.98,-194.87 492.39,-192.33 489.4,-189.79 487.02,-187.26 485.27,-184.75 484.15,-182.28 483.68,-179.84 483.85,-177.45 484.67,-175.1 486.13,-172.82 488.23,-170.6 490.96,-168.45 494.3,-166.38 498.26,-164.38 502.81,-162.47 507.92,-160.64 513.59,-158.9 519.79,-157.26 526.48,-155.71 533.65,-154.25 541.27,-152.89 549.3,-151.63 557.71,-150.46 566.47,-149.4 575.54,-148.43 584.89,-147.55 594.48,-146.78 604.28,-146.09 614.25,-145.51 624.35,-145.02 634.54,-144.62 644.8,-144.31 655.09,-144.09 665.36,-143.96 675.59,-143.91 685.75,-143.96 695.81,-144.08 705.72,-144.3 715.48,-144.59 725.04,-144.97 734.39,-145.43 743.5,-145.97 752.35,-146.59 760.91,-147.3 769.18,-148.08 777.14,-148.94 784.76,-149.88 792.04,-150.9 798.97,-152 805.53,-153.18 811.72,-154.43 817.53,-155.77 822.96,-157.18 827.99,-158.66 832.64,-160.22 836.88,-161.86 840.73,-163.57 844.19,-165.35 847.25,-167.19 849.91,-169.11 852.17,-171.08 854.05,-173.12 855.53,-175.22 856.62,-177.37 857.33,-179.57 857.65,-181.81 857.59,-184.09 857.15,-186.4 856.34,-188.74 855.14,-191.11 853.58,-193.48 851.64,-195.87 849.34,-198.25 846.67,-200.62 843.63,-202.98 840.23,-205.32 836.47,-207.62 832.35,-209.88 827.88,-212.08 823.06,-214.23 817.88,-216.31 812.37,-218.32 806.51,-220.24 800.32,-222.06 793.8,-223.79 786.96,-225.4 779.81,-226.9 772.36,-228.27 764.62,-229.51 756.59,-230.62 748.31,-231.58 739.77,-232.4 730.99,-233.06 722,-233.57 712.81,-233.93 703.45,-234.12 693.93,-234.15 684.28,-234.01 674.53,-233.72 664.69,-233.26 654.81,-232.64 644.91,-231.87 635.02,-230.94 625.16,-229.85 615.39,-228.63 605.71,-227.26 596.18,-225.75 586.82,-224.12 577.67,-222.36 568.76,-220.5 560.13,-218.52 551.81,-216.44 543.83,-214.28 536.23,-212.04 529.03,-209.72"/>
<text text-anchor="middle" x="682.75" y="-181.74" font-family="sans-serif" font-size="16.00">PolicyManagementContext</text>
</g>
<!-- CustomerManagementContext&#45;&gt;PolicyManagementContext -->
<g id="edge2" class="edge">
<title>CustomerManagementContext&#45;&gt;PolicyManagementContext</title>
<path fill="none" stroke="black" stroke-width="2" d="M330.36,-293.94C402.85,-271.84 497.33,-243.05 570.21,-220.84"/>
<text text-anchor="middle" x="481.25" y="-255.49" font-family="sans-serif" font-size="12.00"> &#160;&#160;&#160;&#160;&#160;&#160;&#160;</text>
<polygon fill="white" stroke="transparent" points="563.21,-211.84 563.21,-228.84 577.21,-228.84 577.21,-211.84 563.21,-211.84"/>
<text text-anchor="start" x="565.21" y="-217.24" font-family="sans-serif" font-size="12.00">D</text>
<polygon fill="white" stroke="transparent" points="323.36,-284.94 323.36,-301.94 337.36,-301.94 337.36,-284.94 323.36,-284.94"/>
<text text-anchor="start" x="325.36" y="-290.34" font-family="sans-serif" font-size="12.00">U</text>
</g>
<!-- DebtCollection -->
<g id="node4" class="node">
<title>DebtCollection</title>
<polygon fill="none" stroke="black" stroke-width="2" points="833.93,-0.97 841.3,-1.51 848.57,-2.16 855.69,-2.93 862.64,-3.8 869.4,-4.79 875.94,-5.88 882.22,-7.07 888.23,-8.36 893.95,-9.74 899.35,-11.22 904.42,-12.78 909.13,-14.42 913.47,-16.14 917.44,-17.93 921.01,-19.79 924.18,-21.71 926.94,-23.69 929.3,-25.72 931.24,-27.8 932.76,-29.92 933.88,-32.07 934.58,-34.25 934.89,-36.46 934.8,-38.69 934.32,-40.93 933.47,-43.17 932.26,-45.42 930.7,-47.66 928.81,-49.89 926.6,-52.11 924.08,-54.3 921.28,-56.47 918.22,-58.61 914.9,-60.7 911.36,-62.75 907.59,-64.76 903.64,-66.71 899.51,-68.6 895.21,-70.42 890.78,-72.18 886.22,-73.87 881.54,-75.47 876.77,-77 871.92,-78.43 867,-79.78 862.03,-81.03 857.01,-82.19 851.95,-83.24 846.88,-84.19 841.78,-85.04 836.68,-85.77 831.58,-86.39 826.48,-86.9 821.4,-87.29 816.33,-87.57 811.28,-87.73 806.25,-87.77 801.25,-87.69 796.29,-87.49 791.36,-87.17 786.46,-86.73 781.61,-86.17 776.8,-85.5 772.04,-84.71 767.33,-83.81 762.68,-82.79 758.09,-81.67 753.56,-80.44 749.11,-79.11 744.74,-77.68 740.46,-76.15 736.27,-74.53 732.19,-72.82 728.23,-71.03 724.39,-69.16 720.7,-67.21 717.15,-65.2 713.77,-63.13 710.56,-61 707.54,-58.83 704.74,-56.6 702.15,-54.34 699.79,-52.05 697.69,-49.74 695.85,-47.41 694.29,-45.07 693.02,-42.72 692.07,-40.38 691.43,-38.04 691.12,-35.72 691.16,-33.43 691.55,-31.17 692.3,-28.94 693.42,-26.75 694.92,-24.62 696.8,-22.54 699.06,-20.52 701.7,-18.57 704.73,-16.69 708.14,-14.9 711.91,-13.18 716.06,-11.55 720.57,-10.02 725.42,-8.58 730.6,-7.24 736.1,-6.01 741.9,-4.89 747.99,-3.88 754.33,-2.98 760.92,-2.19 767.71,-1.53 774.7,-0.98 781.84,-0.56 789.12,-0.25 796.51,-0.07 803.96,-0.01 811.47,-0.07 818.98,-0.25 826.48,-0.55 833.93,-0.97"/>
<text text-anchor="middle" x="810.75" y="-40.19" font-family="sans-serif" font-size="16.00">DebtCollection</text>
</g>
<!-- PolicyManagementContext&#45;&gt;DebtCollection -->
<g id="edge3" class="edge">
<title>PolicyManagementContext&#45;&gt;DebtCollection</title>
<path fill="none" stroke="black" stroke-width="2" d="M719.43,-144.55C736.42,-126.03 756.58,-104.06 773.62,-85.47"/>
<text text-anchor="middle" x="795.75" y="-109.39" font-family="sans-serif" font-size="12.00">Shared Kernel</text>
</g>
<!-- PrintingContext -->
<g id="node5" class="node">
<title>PrintingContext</title>
<polygon fill="none" stroke="black" stroke-width="2" points="823.08,-507.35 816.13,-506.01 809.38,-504.57 802.85,-503.04 796.59,-501.42 790.61,-499.72 784.94,-497.95 779.59,-496.1 774.6,-494.19 769.99,-492.23 765.76,-490.21 761.93,-488.15 758.53,-486.05 755.55,-483.92 753.02,-481.76 750.93,-479.58 749.29,-477.38 748.1,-475.18 747.37,-472.97 747.09,-470.77 747.26,-468.57 747.87,-466.38 748.91,-464.21 750.37,-462.06 752.24,-459.94 754.51,-457.85 757.16,-455.79 760.17,-453.78 763.53,-451.81 767.22,-449.88 771.21,-448.01 775.48,-446.19 780.02,-444.42 784.8,-442.72 789.8,-441.09 795,-439.52 800.37,-438.02 805.9,-436.6 811.55,-435.25 817.31,-433.98 823.16,-432.79 829.08,-431.69 835.05,-430.68 841.05,-429.75 847.06,-428.92 853.06,-428.18 859.05,-427.54 865,-427 870.91,-426.55 876.76,-426.21 882.53,-425.97 888.23,-425.84 893.84,-425.82 899.35,-425.9 904.76,-426.09 910.06,-426.4 915.25,-426.81 920.31,-427.34 925.25,-427.97 930.07,-428.72 934.75,-429.58 939.3,-430.54 943.72,-431.62 948,-432.8 952.14,-434.09 956.13,-435.48 959.98,-436.98 963.68,-438.57 967.22,-440.25 970.62,-442.02 973.85,-443.89 976.91,-445.83 979.81,-447.85 982.52,-449.94 985.06,-452.1 987.4,-454.32 989.55,-456.6 991.5,-458.92 993.23,-461.28 994.73,-463.68 996.01,-466.1 997.05,-468.54 997.83,-470.99 998.35,-473.45 998.61,-475.9 998.58,-478.34 998.27,-480.76 997.66,-483.15 996.74,-485.5 995.51,-487.81 993.96,-490.06 992.09,-492.25 989.89,-494.38 987.35,-496.42 984.48,-498.39 981.26,-500.27 977.72,-502.05 973.84,-503.73 969.63,-505.3 965.09,-506.76 960.24,-508.1 955.08,-509.32 949.62,-510.41 943.88,-511.38 937.87,-512.21 931.61,-512.91 925.11,-513.47 918.4,-513.9 911.5,-514.19 904.42,-514.34 897.2,-514.35 889.86,-514.23 882.43,-513.97 874.93,-513.58 867.39,-513.05 859.85,-512.4 852.33,-511.63 844.86,-510.73 837.48,-509.71 830.21,-508.58 823.08,-507.35"/>
<text text-anchor="middle" x="880.75" y="-464.95" font-family="sans-serif" font-size="16.00">PrintingContext</text>
</g>
<!-- PrintingContext&#45;&gt;CustomerManagementContext -->
<g id="edge6" class="edge">
<title>PrintingContext&#45;&gt;CustomerManagementContext</title>
<path fill="none" stroke="black" stroke-width="2" d="M776.01,-445.86C668.81,-423.47 500.89,-388.38 377.57,-362.62"/>
<text text-anchor="middle" x="586.25" y="-395.6" font-family="sans-serif" font-size="12.00"> &#160;&#160;&#160;&#160;&#160;&#160;&#160;</text>
<polygon fill="white" stroke="transparent" points="370.57,-353.62 370.57,-370.62 384.57,-370.62 384.57,-353.62 370.57,-353.62"/>
<text text-anchor="start" x="372.57" y="-359.02" font-family="sans-serif" font-size="12.00">D</text>
<polygon fill="white" stroke="transparent" points="769.01,-436.86 769.01,-453.86 783.01,-453.86 783.01,-436.86 769.01,-436.86"/>
<text text-anchor="start" x="771.01" y="-442.26" font-family="sans-serif" font-size="12.00">U</text>
</g>
<!-- PrintingContext&#45;&gt;PolicyManagementContext -->
<g id="edge4" class="edge">
<title>PrintingContext&#45;&gt;PolicyManagementContext</title>
<path fill="none" stroke="black" stroke-width="2" d="M884.64,-425.85C886.2,-385.76 882.7,-325.31 853.75,-283.09 837.17,-258.91 812.43,-240.08 786.89,-225.73"/>
<text text-anchor="middle" x="898.25" y="-325.54" font-family="sans-serif" font-size="12.00"> &#160;&#160;&#160;&#160;&#160;&#160;&#160;</text>
<polygon fill="white" stroke="transparent" points="779.89,-216.73 779.89,-233.73 793.89,-233.73 793.89,-216.73 779.89,-216.73"/>
<text text-anchor="start" x="781.89" y="-222.13" font-family="sans-serif" font-size="12.00">D</text>
<polygon fill="white" stroke="transparent" points="877.64,-416.85 877.64,-433.85 891.64,-433.85 891.64,-416.85 877.64,-416.85"/>
<text text-anchor="start" x="879.64" y="-422.25" font-family="sans-serif" font-size="12.00">U</text>
</g>
<!-- PrintingContext&#45;&gt;DebtCollection -->
<g id="edge5" class="edge">
<title>PrintingContext&#45;&gt;DebtCollection</title>
<path fill="none" stroke="black" stroke-width="2" d="M901.19,-425.91C907.87,-410.1 914.42,-391.7 917.75,-374.2 937.61,-269.96 936.83,-232.56 890.75,-136.99 881.28,-117.35 866.48,-98.62 852.18,-83.25"/>
<text text-anchor="middle" x="945.25" y="-255.49" font-family="sans-serif" font-size="12.00"> &#160;&#160;&#160;&#160;&#160;&#160;&#160;</text>
<polygon fill="white" stroke="transparent" points="845.18,-74.25 845.18,-91.25 859.18,-91.25 859.18,-74.25 845.18,-74.25"/>
<text text-anchor="start" x="847.18" y="-79.65" font-family="sans-serif" font-size="12.00">D</text>
<polygon fill="white" stroke="transparent" points="894.19,-416.91 894.19,-433.91 908.19,-433.91 908.19,-416.91 894.19,-416.91"/>
<text text-anchor="start" x="896.19" y="-422.31" font-family="sans-serif" font-size="12.00">U</text>
</g>
<!-- RiskManagementContext -->
<g id="node6" class="node">
<title>RiskManagementContext</title>
<polygon fill="none" stroke="black" stroke-width="2" points="598.71,-286.66 609.54,-285.77 620.44,-284.99 631.38,-284.34 642.31,-283.82 653.18,-283.42 663.96,-283.16 674.6,-283.04 685.08,-283.05 695.34,-283.2 705.35,-283.49 715.08,-283.92 724.5,-284.48 733.58,-285.18 742.3,-286.01 750.62,-286.98 758.54,-288.07 766.02,-289.29 773.05,-290.63 779.63,-292.09 785.74,-293.66 791.36,-295.34 796.51,-297.12 801.16,-299 805.33,-300.97 809.01,-303.02 812.2,-305.14 814.92,-307.33 817.17,-309.59 818.95,-311.89 820.28,-314.24 821.16,-316.63 821.62,-319.05 821.65,-321.49 821.29,-323.94 820.53,-326.4 819.39,-328.85 817.89,-331.29 816.04,-333.72 813.85,-336.11 811.34,-338.47 808.52,-340.8 805.41,-343.07 802.01,-345.29 798.33,-347.45 794.39,-349.54 790.19,-351.56 785.75,-353.51 781.06,-355.37 776.15,-357.14 771,-358.83 765.64,-360.42 760.06,-361.91 754.27,-363.3 748.27,-364.59 742.06,-365.77 735.66,-366.85 729.06,-367.81 722.26,-368.67 715.28,-369.42 708.12,-370.06 700.77,-370.58 693.25,-370.99 685.57,-371.3 677.72,-371.49 669.73,-371.57 661.6,-371.55 653.33,-371.42 644.96,-371.18 636.48,-370.84 627.91,-370.4 619.28,-369.85 610.6,-369.21 601.89,-368.47 593.17,-367.64 584.48,-366.71 575.83,-365.7 567.24,-364.6 558.76,-363.41 550.4,-362.14 542.2,-360.79 534.19,-359.37 526.4,-357.87 518.87,-356.3 511.62,-354.67 504.69,-352.97 498.1,-351.21 491.9,-349.39 486.12,-347.51 480.77,-345.59 475.9,-343.61 471.53,-341.6 467.69,-339.54 464.4,-337.45 461.69,-335.33 459.57,-333.18 458.06,-331.01 457.18,-328.83 456.94,-326.63 457.34,-324.42 458.4,-322.21 460.12,-320.01 462.49,-317.81 465.52,-315.63 469.2,-313.47 473.52,-311.34 478.45,-309.24 484,-307.18 490.13,-305.16 496.83,-303.2 504.06,-301.29 511.81,-299.45 520.04,-297.67 528.71,-295.97 537.79,-294.35 547.25,-292.82 557.04,-291.38 567.12,-290.04 577.46,-288.81 588,-287.68 598.71,-286.66"/>
<text text-anchor="middle" x="650.75" y="-324.84" font-family="sans-serif" font-size="16.00">RiskManagementContext</text>
</g>
<!-- RiskManagementContext&#45;&gt;PolicyManagementContext -->
<g id="edge7" class="edge">
<title>RiskManagementContext&#45;&gt;PolicyManagementContext</title>
<path fill="none" stroke="black" stroke-width="2" d="M660.88,-283C664.43,-267.33 668.43,-249.69 672.03,-233.82"/>
<text text-anchor="middle" x="708.75" y="-255.49" font-family="sans-serif" font-size="12.00">Shared Kernel</text>
</g>
</g>
</svg>
