<svg width="2000px" height="1067px"
 viewBox="0.00 0.00 1002.68 535.50" xmlns="http://www.w3.org/2000/svg" xmlns:xlink="http://www.w3.org/1999/xlink">
<g id="graph0" class="graph" transform="scale(1.0 1.0) rotate(0) translate(4 531.5)">
<title>ContextMapGraph</title>
<polygon fill="white" stroke="transparent" points="-4,4 -4,-531.5 998.68,-531.5 998.68,4 -4,4"/>
<!-- CustomerManagementContext -->
<g id="node1" class="node">
<title>CustomerManagementContext</title>
<polygon fill="none" stroke="black" stroke-width="2" points="393.7,-316.87 401.47,-319.21 408.72,-321.61 415.42,-324.06 421.54,-326.54 427.05,-329.04 431.94,-331.56 436.17,-334.09 439.73,-336.61 442.6,-339.13 444.76,-341.62 446.22,-344.09 446.95,-346.53 446.95,-348.92 446.23,-351.26 444.78,-353.55 442.61,-355.77 439.73,-357.93 436.15,-360.01 431.88,-362.02 426.94,-363.95 421.36,-365.8 415.15,-367.56 408.35,-369.23 400.97,-370.8 393.06,-372.29 384.64,-373.68 375.75,-374.97 366.43,-376.17 356.7,-377.27 346.62,-378.28 336.22,-379.19 325.53,-380.01 314.61,-380.73 303.5,-381.36 292.22,-381.89 280.83,-382.33 269.37,-382.68 257.87,-382.95 246.37,-383.12 234.91,-383.21 223.52,-383.21 212.25,-383.12 201.13,-382.95 190.18,-382.69 179.43,-382.36 168.92,-381.93 158.67,-381.43 148.71,-380.85 139.06,-380.18 129.73,-379.43 120.75,-378.61 112.13,-377.7 103.89,-376.71 96.04,-375.64 88.59,-374.49 81.56,-373.27 74.94,-371.96 68.75,-370.57 62.99,-369.11 57.66,-367.57 52.77,-365.95 48.31,-364.26 44.3,-362.5 40.72,-360.67 37.58,-358.77 34.88,-356.8 32.62,-354.78 30.79,-352.69 29.38,-350.55 28.41,-348.35 27.87,-346.12 27.75,-343.84 28.05,-341.53 28.78,-339.18 29.92,-336.82 31.48,-334.44 33.45,-332.05 35.84,-329.66 38.64,-327.28 41.84,-324.91 45.46,-322.57 49.48,-320.25 53.91,-317.98 58.74,-315.76 63.97,-313.59 69.59,-311.49 75.61,-309.46 82.01,-307.52 88.8,-305.67 95.96,-303.93 103.49,-302.29 111.37,-300.76 119.61,-299.36 128.18,-298.08 137.08,-296.95 146.28,-295.95 155.78,-295.1 165.56,-294.4 175.59,-293.85 185.85,-293.46 196.33,-293.23 206.99,-293.16 217.81,-293.26 228.76,-293.51 239.81,-293.93 250.93,-294.5 262.08,-295.24 273.24,-296.12 284.37,-297.16 295.42,-298.35 306.37,-299.67 317.17,-301.14 327.79,-302.73 338.18,-304.44 348.31,-306.27 358.14,-308.21 367.64,-310.25 376.75,-312.38 385.45,-314.59 393.7,-316.87"/>
<text text-anchor="middle" x="223.48" y="-337.86" font-family="sans-serif" font-size="16.00">CustomerManagementContext</text>
</g>
<!-- PolicyManagementContext -->
<g id="node2" class="node">
<title>PolicyManagementContext</title>
<polygon fill="none" stroke="black" stroke-width="2" points="855.8,-184.99 858.76,-187.78 861.2,-190.59 863.12,-193.39 864.5,-196.18 865.33,-198.94 865.62,-201.68 865.35,-204.37 864.53,-207.01 863.14,-209.58 861.2,-212.08 858.7,-214.5 855.65,-216.84 852.06,-219.08 847.93,-221.22 843.29,-223.25 838.13,-225.16 832.48,-226.96 826.36,-228.64 819.77,-230.2 812.76,-231.62 805.32,-232.92 797.5,-234.1 789.31,-235.14 780.78,-236.05 771.95,-236.83 762.83,-237.49 753.47,-238.02 743.88,-238.43 734.11,-238.72 724.18,-238.89 714.13,-238.95 703.99,-238.89 693.8,-238.73 683.58,-238.47 673.37,-238.1 663.2,-237.64 653.1,-237.1 643.11,-236.46 633.25,-235.74 623.56,-234.94 614.06,-234.07 604.78,-233.13 595.76,-232.12 587,-231.04 578.54,-229.9 570.41,-228.7 562.61,-227.45 555.18,-226.14 548.12,-224.77 541.46,-223.36 535.21,-221.9 529.38,-220.39 523.99,-218.83 519.05,-217.23 514.56,-215.58 510.54,-213.89 506.98,-212.16 503.89,-210.39 501.28,-208.58 499.15,-206.73 497.5,-204.84 496.32,-202.92 495.62,-200.96 495.39,-198.97 495.63,-196.95 496.33,-194.91 497.49,-192.83 499.1,-190.74 501.15,-188.63 503.64,-186.5 506.55,-184.36 509.87,-182.22 513.6,-180.08 517.73,-177.94 522.24,-175.81 527.11,-173.71 532.35,-171.62 537.94,-169.57 543.85,-167.55 550.09,-165.58 556.63,-163.66 563.47,-161.8 570.58,-160.01 577.95,-158.3 585.57,-156.67 593.42,-155.14 601.49,-153.7 609.75,-152.37 618.19,-151.16 626.8,-150.07 635.55,-149.11 644.42,-148.29 653.4,-147.61 662.47,-147.07 671.6,-146.69 680.79,-146.46 689.99,-146.39 699.2,-146.48 708.39,-146.74 717.54,-147.16 726.63,-147.75 735.63,-148.5 744.52,-149.41 753.27,-150.49 761.87,-151.73 770.28,-153.12 778.49,-154.66 786.47,-156.35 794.19,-158.17 801.63,-160.13 808.77,-162.21 815.59,-164.4 822.05,-166.71 828.15,-169.11 833.85,-171.6 839.14,-174.17 844,-176.8 848.41,-179.49 852.35,-182.22 855.8,-184.99"/>
<text text-anchor="middle" x="676.48" y="-191.37" font-family="sans-serif" font-size="16.00">PolicyManagementContext</text>
</g>
<!-- CustomerManagementContext&#45;&gt;PolicyManagementContext -->
<g id="edge1" class="edge">
<title>CustomerManagementContext&#45;&gt;PolicyManagementContext</title>
<path fill="none" stroke="black" stroke-width="2" d="M337.5,-304.29C409.84,-281.22 502.69,-251.6 572.92,-229.2"/>
<text text-anchor="middle" x="478.98" y="-265.21" font-family="sans-serif" font-size="12.00"> &#160;&#160;&#160;&#160;&#160;&#160;&#160;</text>
<polygon fill="white" stroke="transparent" points="565.92,-220.2 565.92,-237.2 579.92,-237.2 579.92,-220.2 565.92,-220.2"/>
<text text-anchor="start" x="567.92" y="-225.6" font-family="sans-serif" font-size="12.00">D</text>
<polygon fill="white" stroke="transparent" points="330.5,-295.29 330.5,-312.29 344.5,-312.29 344.5,-295.29 330.5,-295.29"/>
<text text-anchor="start" x="332.5" y="-300.69" font-family="sans-serif" font-size="12.00">U</text>
</g>
<!-- CustomerSelfServiceContext -->
<g id="node4" class="node">
<title>CustomerSelfServiceContext</title>
<polygon fill="none" stroke="black" stroke-width="2" points="418.97,-196.44 418.79,-199.32 418.08,-202.19 416.83,-205.02 415.04,-207.8 412.72,-210.53 409.87,-213.2 406.5,-215.78 402.63,-218.29 398.25,-220.69 393.38,-222.99 388.04,-225.18 382.23,-227.25 375.98,-229.2 369.29,-231.01 362.2,-232.69 354.71,-234.22 346.86,-235.62 338.65,-236.86 330.12,-237.96 321.28,-238.91 312.17,-239.7 302.8,-240.35 293.21,-240.85 283.43,-241.21 273.47,-241.42 263.37,-241.49 253.16,-241.42 242.87,-241.22 232.52,-240.9 222.15,-240.44 211.79,-239.88 201.46,-239.19 191.19,-238.41 181.02,-237.52 170.97,-236.53 161.07,-235.46 151.35,-234.3 141.84,-233.07 132.56,-231.76 123.55,-230.39 114.81,-228.95 106.39,-227.47 98.3,-225.93 90.56,-224.34 83.2,-222.71 76.24,-221.05 69.69,-219.35 63.58,-217.62 57.91,-215.86 52.71,-214.08 47.98,-212.28 43.74,-210.46 40.01,-208.62 36.78,-206.76 34.07,-204.89 31.89,-203 30.23,-201.11 29.1,-199.2 28.51,-197.29 28.45,-195.37 28.92,-193.44 29.93,-191.5 31.46,-189.56 33.51,-187.62 36.07,-185.68 39.14,-183.74 42.71,-181.81 46.76,-179.88 51.29,-177.97 56.28,-176.06 61.72,-174.17 67.59,-172.31 73.88,-170.46 80.56,-168.65 87.62,-166.87 95.05,-165.13 102.81,-163.44 110.89,-161.8 119.28,-160.21 127.93,-158.69 136.84,-157.24 145.98,-155.86 155.33,-154.57 164.85,-153.37 174.53,-152.27 184.34,-151.27 194.26,-150.38 204.25,-149.61 214.29,-148.96 224.36,-148.44 234.43,-148.05 244.48,-147.81 254.47,-147.7 264.38,-147.75 274.18,-147.94 283.85,-148.29 293.37,-148.79 302.7,-149.45 311.83,-150.27 320.72,-151.25 329.36,-152.38 337.72,-153.66 345.78,-155.1 353.52,-156.69 360.91,-158.41 367.94,-160.28 374.58,-162.28 380.82,-164.41 386.64,-166.65 392.02,-169.01 396.94,-171.47 401.41,-174.02 405.39,-176.65 408.88,-179.35 411.86,-182.11 414.34,-184.92 416.29,-187.78 417.72,-190.65 418.61,-193.54 418.97,-196.44"/>
<text text-anchor="middle" x="223.48" y="-191.37" font-family="sans-serif" font-size="16.00">CustomerSelfServiceContext</text>
</g>
<!-- CustomerManagementContext&#45;&gt;CustomerSelfServiceContext -->
<g id="edge2" class="edge">
<title>CustomerManagementContext&#45;&gt;CustomerSelfServiceContext</title>
<path fill="none" stroke="black" stroke-width="2" d="M223.48,-293.35C223.48,-276.4 223.48,-257.35 223.48,-240.65"/>
<text text-anchor="middle" x="238.98" y="-265.21" font-family="sans-serif" font-size="12.00"> &#160;&#160;&#160;&#160;&#160;&#160;&#160;</text>
<polygon fill="white" stroke="transparent" points="216.48,-231.65 216.48,-248.65 230.48,-248.65 230.48,-231.65 216.48,-231.65"/>
<text text-anchor="start" x="218.48" y="-237.05" font-family="sans-serif" font-size="12.00">D</text>
<polygon fill="white" stroke="transparent" points="216.48,-284.35 216.48,-301.35 230.48,-301.35 230.48,-284.35 216.48,-284.35"/>
<text text-anchor="start" x="218.48" y="-289.75" font-family="sans-serif" font-size="12.00">U</text>
</g>
<!-- DebtCollection -->
<g id="node3" class="node">
<title>DebtCollection</title>
<polygon fill="none" stroke="black" stroke-width="2" points="689.12,-61.08 686.9,-58.35 685,-55.6 683.42,-52.85 682.18,-50.1 681.28,-47.37 680.72,-44.67 680.52,-42 680.68,-39.37 681.19,-36.81 682.06,-34.3 683.29,-31.87 684.87,-29.52 686.8,-27.25 689.08,-25.09 691.7,-23.02 694.65,-21.05 697.92,-19.2 701.51,-17.46 705.4,-15.84 709.58,-14.33 714.03,-12.95 718.75,-11.7 723.71,-10.56 728.9,-9.55 734.3,-8.66 739.89,-7.9 745.65,-7.26 751.57,-6.73 757.62,-6.33 763.79,-6.04 770.04,-5.85 776.37,-5.78 782.74,-5.82 789.15,-5.95 795.56,-6.18 801.96,-6.51 808.33,-6.93 814.64,-7.44 820.89,-8.02 827.03,-8.69 833.07,-9.44 838.98,-10.26 844.75,-11.15 850.35,-12.11 855.78,-13.13 861.01,-14.22 866.04,-15.37 870.85,-16.58 875.44,-17.84 879.78,-19.16 883.88,-20.53 887.71,-21.95 891.29,-23.43 894.58,-24.95 897.61,-26.53 900.35,-28.15 902.8,-29.82 904.96,-31.54 906.84,-33.3 908.42,-35.11 909.71,-36.96 910.7,-38.85 911.41,-40.78 911.82,-42.75 911.95,-44.75 911.79,-46.79 911.35,-48.86 910.64,-50.96 909.65,-53.07 908.39,-55.21 906.87,-57.37 905.09,-59.53 903.05,-61.7 900.78,-63.87 898.26,-66.03 895.5,-68.18 892.53,-70.32 889.33,-72.42 885.91,-74.49 882.3,-76.52 878.48,-78.51 874.47,-80.43 870.29,-82.29 865.93,-84.08 861.4,-85.79 856.72,-87.41 851.89,-88.93 846.92,-90.35 841.82,-91.65 836.61,-92.84 831.29,-93.9 825.87,-94.83 820.37,-95.61 814.79,-96.26 809.15,-96.75 803.46,-97.09 797.73,-97.27 791.98,-97.3 786.22,-97.16 780.45,-96.85 774.71,-96.38 769,-95.75 763.34,-94.95 757.73,-94 752.21,-92.88 746.77,-91.6 741.45,-90.18 736.25,-88.61 731.18,-86.89 726.28,-85.05 721.55,-83.08 717,-80.98 712.65,-78.78 708.53,-76.48 704.63,-74.08 700.98,-71.6 697.6,-69.05 694.48,-66.44 691.65,-63.78 689.12,-61.08"/>
<text text-anchor="middle" x="799.48" y="-44.97" font-family="sans-serif" font-size="16.00">DebtCollection</text>
</g>
<!-- PolicyManagementContext&#45;&gt;DebtCollection -->
<g id="edge3" class="edge">
<title>PolicyManagementContext&#45;&gt;DebtCollection</title>
<path fill="none" stroke="black" stroke-width="2" d="M716.76,-146.89C731.05,-130.11 747.09,-111.28 761.21,-94.7"/>
<text text-anchor="middle" x="783.48" y="-118.93" font-family="sans-serif" font-size="12.00">Shared Kernel</text>
</g>
<!-- PrintingContext -->
<g id="node5" class="node">
<title>PrintingContext</title>
<polygon fill="none" stroke="black" stroke-width="2" points="840.14,-526.53 832.39,-525.99 824.76,-525.33 817.28,-524.57 809.98,-523.69 802.88,-522.71 796.02,-521.62 789.41,-520.43 783.1,-519.14 777.09,-517.75 771.42,-516.28 766.1,-514.72 761.15,-513.07 756.59,-511.36 752.42,-509.56 748.67,-507.71 745.34,-505.78 742.44,-503.81 739.97,-501.77 737.93,-499.7 736.33,-497.58 735.16,-495.43 734.41,-493.24 734.09,-491.04 734.19,-488.81 734.69,-486.57 735.58,-484.32 736.85,-482.08 738.49,-479.84 740.48,-477.6 742.8,-475.39 745.44,-473.19 748.38,-471.03 751.6,-468.89 755.09,-466.79 758.81,-464.74 762.76,-462.74 766.92,-460.79 771.26,-458.9 775.77,-457.07 780.43,-455.31 785.22,-453.63 790.13,-452.02 795.14,-450.5 800.23,-449.06 805.4,-447.72 810.62,-446.46 815.9,-445.31 821.2,-444.25 826.54,-443.3 831.89,-442.46 837.25,-441.73 842.61,-441.1 847.96,-440.6 853.3,-440.2 858.63,-439.93 863.93,-439.77 869.21,-439.73 874.46,-439.81 879.68,-440.01 884.86,-440.33 890,-440.77 895.09,-441.32 900.15,-442 905.15,-442.78 910.09,-443.69 914.98,-444.7 919.8,-445.82 924.56,-447.05 929.23,-448.39 933.82,-449.82 938.32,-451.35 942.71,-452.97 947,-454.68 951.16,-456.47 955.19,-458.34 959.08,-460.28 962.8,-462.29 966.36,-464.36 969.72,-466.49 972.89,-468.67 975.84,-470.89 978.56,-473.15 981.03,-475.44 983.24,-477.76 985.17,-480.09 986.81,-482.43 988.14,-484.78 989.15,-487.12 989.82,-489.45 990.14,-491.77 990.1,-494.07 989.69,-496.33 988.9,-498.56 987.72,-500.74 986.15,-502.88 984.18,-504.96 981.8,-506.97 979.03,-508.92 975.85,-510.8 972.27,-512.6 968.3,-514.32 963.94,-515.94 959.21,-517.48 954.12,-518.91 948.67,-520.25 942.89,-521.48 936.8,-522.61 930.41,-523.62 923.74,-524.52 916.83,-525.3 909.69,-525.97 902.36,-526.51 894.85,-526.94 887.2,-527.24 879.45,-527.43 871.61,-527.49 863.73,-527.43 855.84,-527.25 847.96,-526.95 840.14,-526.53"/>
<text text-anchor="middle" x="864.48" y="-479.7" font-family="sans-serif" font-size="16.00">PrintingContext</text>
</g>
<!-- PrintingContext&#45;&gt;CustomerManagementContext -->
<g id="edge6" class="edge">
<title>PrintingContext&#45;&gt;CustomerManagementContext</title>
<path fill="none" stroke="black" stroke-width="2" d="M766.08,-461.04C661.32,-438.18 494.29,-401.74 373.2,-375.32"/>
<text text-anchor="middle" x="596.98" y="-411.91" font-family="sans-serif" font-size="12.00"> &#160;&#160;&#160;&#160;&#160;&#160;&#160;</text>
<polygon fill="white" stroke="transparent" points="366.2,-366.32 366.2,-383.32 380.2,-383.32 380.2,-366.32 366.2,-366.32"/>
<text text-anchor="start" x="368.2" y="-371.72" font-family="sans-serif" font-size="12.00">D</text>
<polygon fill="white" stroke="transparent" points="759.08,-452.04 759.08,-469.04 773.08,-469.04 773.08,-452.04 759.08,-452.04"/>
<text text-anchor="start" x="761.08" y="-457.44" font-family="sans-serif" font-size="12.00">U</text>
</g>
<!-- PrintingContext&#45;&gt;PolicyManagementContext -->
<g id="edge4" class="edge">
<title>PrintingContext&#45;&gt;PolicyManagementContext</title>
<path fill="none" stroke="black" stroke-width="2" d="M868.42,-439.65C870.02,-398.6 866.54,-336.61 837.48,-292.81 822.07,-269.59 799,-251.09 775.1,-236.77"/>
<text text-anchor="middle" x="881.98" y="-338.56" font-family="sans-serif" font-size="12.00"> &#160;&#160;&#160;&#160;&#160;&#160;&#160;</text>
<polygon fill="white" stroke="transparent" points="768.1,-227.77 768.1,-244.77 782.1,-244.77 782.1,-227.77 768.1,-227.77"/>
<text text-anchor="start" x="770.1" y="-233.17" font-family="sans-serif" font-size="12.00">D</text>
<polygon fill="white" stroke="transparent" points="861.42,-430.65 861.42,-447.65 875.42,-447.65 875.42,-430.65 861.42,-430.65"/>
<text text-anchor="start" x="863.42" y="-436.05" font-family="sans-serif" font-size="12.00">U</text>
</g>
<!-- PrintingContext&#45;&gt;DebtCollection -->
<g id="edge5" class="edge">
<title>PrintingContext&#45;&gt;DebtCollection</title>
<path fill="none" stroke="black" stroke-width="2" d="M885.51,-440.02C891.98,-424.79 898.25,-407.24 901.48,-390.51 922.22,-283.4 919.06,-246.1 874.48,-146.53 865.89,-127.33 852.72,-108.5 839.81,-92.64"/>
<text text-anchor="middle" x="927.98" y="-265.21" font-family="sans-serif" font-size="12.00"> &#160;&#160;&#160;&#160;&#160;&#160;&#160;</text>
<polygon fill="white" stroke="transparent" points="832.81,-83.64 832.81,-100.64 846.81,-100.64 846.81,-83.64 832.81,-83.64"/>
<text text-anchor="start" x="834.81" y="-89.04" font-family="sans-serif" font-size="12.00">D</text>
<polygon fill="white" stroke="transparent" points="878.51,-431.02 878.51,-448.02 892.51,-448.02 892.51,-431.02 878.51,-431.02"/>
<text text-anchor="start" x="880.51" y="-436.42" font-family="sans-serif" font-size="12.00">U</text>
</g>
<!-- RiskManagementContext -->
<g id="node6" class="node">
<title>RiskManagementContext</title>
<polygon fill="none" stroke="black" stroke-width="2" points="810.74,-327.14 814.67,-329.83 818.12,-332.54 821.08,-335.26 823.53,-337.98 825.46,-340.7 826.86,-343.39 827.72,-346.06 828.03,-348.69 827.79,-351.27 827,-353.79 825.65,-356.25 823.75,-358.63 821.3,-360.93 818.31,-363.15 814.78,-365.27 810.73,-367.29 806.17,-369.21 801.11,-371.03 795.56,-372.73 789.56,-374.31 783.11,-375.78 776.25,-377.14 768.99,-378.37 761.35,-379.48 753.38,-380.48 745.08,-381.35 736.51,-382.11 727.67,-382.75 718.61,-383.28 709.35,-383.69 699.93,-384 690.38,-384.2 680.74,-384.29 671.03,-384.28 661.29,-384.18 651.54,-383.98 641.83,-383.69 632.18,-383.31 622.62,-382.84 613.19,-382.29 603.91,-381.67 594.8,-380.97 585.9,-380.19 577.23,-379.34 568.82,-378.43 560.68,-377.44 552.84,-376.4 545.31,-375.28 538.12,-374.11 531.28,-372.88 524.8,-371.59 518.7,-370.24 513,-368.84 507.69,-367.38 502.8,-365.86 498.32,-364.29 494.26,-362.67 490.63,-360.99 487.43,-359.27 484.67,-357.49 482.33,-355.67 480.43,-353.8 478.97,-351.88 477.93,-349.92 477.32,-347.92 477.13,-345.87 477.36,-343.8 478.01,-341.69 479.06,-339.55 480.52,-337.38 482.37,-335.2 484.61,-333 487.23,-330.79 490.22,-328.57 493.58,-326.36 497.29,-324.15 501.35,-321.96 505.75,-319.79 510.48,-317.65 515.52,-315.54 520.88,-313.49 526.53,-311.48 532.47,-309.53 538.69,-307.66 545.18,-305.86 551.92,-304.15 558.9,-302.53 566.11,-301.01 573.54,-299.6 581.18,-298.31 589,-297.15 597,-296.11 605.15,-295.21 613.45,-294.46 621.87,-293.85 630.41,-293.4 639.03,-293.1 647.72,-292.96 656.46,-292.99 665.23,-293.18 674.01,-293.53 682.77,-294.05 691.5,-294.74 700.17,-295.58 708.76,-296.59 717.24,-297.76 725.58,-299.08 733.77,-300.55 741.78,-302.16 749.58,-303.91 757.15,-305.79 764.46,-307.79 771.48,-309.91 778.2,-312.13 784.59,-314.45 790.62,-316.85 796.27,-319.34 801.52,-321.89 806.35,-324.49 810.74,-327.14"/>
<text text-anchor="middle" x="646.48" y="-337.86" font-family="sans-serif" font-size="16.00">RiskManagementContext</text>
</g>
<!-- RiskManagementContext&#45;&gt;PolicyManagementContext -->
<g id="edge7" class="edge">
<title>RiskManagementContext&#45;&gt;PolicyManagementContext</title>
<path fill="none" stroke="black" stroke-width="2" d="M656.39,-292.95C660.08,-275.19 664.23,-255.2 667.8,-238.01"/>
<text text-anchor="middle" x="703.48" y="-265.21" font-family="sans-serif" font-size="12.00">Shared Kernel</text>
</g>
</g>
</svg>
