<svg width="2000px" height="1061px"
 viewBox="0.00 0.00 1021.68 542.44" xmlns="http://www.w3.org/2000/svg" xmlns:xlink="http://www.w3.org/1999/xlink">
<g id="graph0" class="graph" transform="scale(1.0 1.0) rotate(0) translate(4 538.44)">
<title>ContextMapGraph</title>
<polygon fill="white" stroke="transparent" points="-4,4 -4,-538.44 1017.68,-538.44 1017.68,4 -4,4"/>
<!-- CustomerManagementContext -->
<g id="node1" class="node">
<title>CustomerManagementContext</title>
<polygon fill="none" stroke="black" stroke-width="2" points="399.27,-319.59 406.25,-322.05 412.69,-324.57 418.57,-327.11 423.87,-329.69 428.55,-332.28 432.59,-334.88 435.99,-337.48 438.71,-340.06 440.75,-342.62 442.09,-345.15 442.73,-347.65 442.66,-350.1 441.89,-352.5 440.4,-354.83 438.2,-357.1 435.31,-359.3 431.73,-361.42 427.48,-363.45 422.56,-365.4 417.01,-367.26 410.84,-369.03 404.07,-370.7 396.74,-372.27 388.87,-373.74 380.5,-375.11 371.64,-376.38 362.35,-377.54 352.66,-378.6 342.6,-379.56 332.22,-380.42 321.55,-381.18 310.63,-381.84 299.5,-382.4 288.21,-382.86 276.79,-383.23 265.29,-383.5 253.74,-383.68 242.19,-383.77 230.66,-383.77 219.21,-383.69 207.85,-383.52 196.64,-383.26 185.6,-382.93 174.77,-382.51 164.16,-382.01 153.82,-381.43 143.76,-380.77 134.02,-380.04 124.61,-379.23 115.55,-378.34 106.87,-377.38 98.57,-376.34 90.68,-375.22 83.2,-374.04 76.15,-372.77 69.53,-371.44 63.36,-370.03 57.64,-368.55 52.37,-367 47.56,-365.37 43.22,-363.68 39.33,-361.92 35.9,-360.1 32.93,-358.21 30.43,-356.26 28.38,-354.25 26.78,-352.18 25.64,-350.06 24.94,-347.89 24.69,-345.68 24.88,-343.43 25.51,-341.15 26.56,-338.84 28.05,-336.5 29.96,-334.15 32.3,-331.79 35.05,-329.42 38.21,-327.06 41.78,-324.72 45.76,-322.39 50.13,-320.1 54.9,-317.84 60.06,-315.63 65.6,-313.47 71.52,-311.38 77.82,-309.36 84.48,-307.42 91.5,-305.57 98.87,-303.82 106.59,-302.17 114.63,-300.64 123,-299.23 131.67,-297.95 140.63,-296.8 149.88,-295.79 159.38,-294.93 169.14,-294.22 179.11,-293.66 189.29,-293.27 199.66,-293.03 210.18,-292.96 220.83,-293.05 231.59,-293.3 242.43,-293.72 253.31,-294.3 264.21,-295.04 275.1,-295.95 285.93,-297 296.69,-298.21 307.32,-299.56 317.81,-301.06 328.1,-302.68 338.17,-304.44 347.97,-306.31 357.47,-308.29 366.64,-310.38 375.44,-312.57 383.84,-314.83 391.79,-317.18 399.27,-319.59"/>
<text text-anchor="middle" x="221.41" y="-338.09" font-family="sans-serif" font-size="16.00">CustomerManagementContext</text>
</g>
<!-- PolicyManagementContext -->
<g id="node2" class="node">
<title>PolicyManagementContext</title>
<polygon fill="none" stroke="black" stroke-width="2" points="846.59,-216.99 840.79,-219.5 834.59,-221.93 828,-224.28 821.05,-226.53 813.77,-228.68 806.18,-230.71 798.31,-232.62 790.18,-234.41 781.82,-236.05 773.26,-237.56 764.52,-238.91 755.63,-240.11 746.62,-241.16 737.51,-242.04 728.32,-242.77 719.08,-243.33 709.81,-243.72 700.54,-243.95 691.29,-244.01 682.08,-243.91 672.94,-243.65 663.87,-243.23 654.91,-242.67 646.07,-241.95 637.38,-241.09 628.84,-240.09 620.47,-238.95 612.3,-237.7 604.33,-236.32 596.58,-234.84 589.07,-233.25 581.81,-231.57 574.81,-229.8 568.09,-227.95 561.66,-226.03 555.53,-224.05 549.71,-222.02 544.21,-219.94 539.05,-217.82 534.24,-215.67 529.78,-213.5 525.69,-211.31 521.97,-209.11 518.64,-206.91 515.71,-204.71 513.18,-202.52 511.06,-200.34 509.36,-198.19 508.08,-196.05 507.25,-193.95 506.85,-191.87 506.9,-189.83 507.39,-187.82 508.35,-185.86 509.76,-183.94 511.63,-182.06 513.97,-180.22 516.77,-178.43 520.02,-176.7 523.74,-175.01 527.92,-173.37 532.54,-171.78 537.61,-170.24 543.12,-168.76 549.06,-167.33 555.41,-165.95 562.17,-164.64 569.32,-163.37 576.85,-162.17 584.74,-161.03 592.96,-159.95 601.5,-158.93 610.34,-157.98 619.46,-157.09 628.82,-156.28 638.41,-155.53 648.19,-154.87 658.13,-154.28 668.21,-153.77 678.4,-153.35 688.66,-153.01 698.95,-152.77 709.26,-152.62 719.54,-152.57 729.75,-152.63 739.88,-152.78 749.87,-153.05 759.7,-153.42 769.33,-153.91 778.73,-154.51 787.86,-155.23 796.7,-156.07 805.22,-157.03 813.38,-158.11 821.16,-159.31 828.52,-160.63 835.45,-162.07 841.93,-163.63 847.92,-165.31 853.41,-167.1 858.38,-168.99 862.82,-171 866.7,-173.1 870.03,-175.31 872.8,-177.6 874.98,-179.97 876.59,-182.42 877.61,-184.94 878.05,-187.52 877.92,-190.14 877.2,-192.81 875.92,-195.51 874.08,-198.24 871.68,-200.97 868.75,-203.7 865.3,-206.42 861.34,-209.13 856.89,-211.8 851.97,-214.42 846.59,-216.99"/>
<text text-anchor="middle" x="686.41" y="-191.54" font-family="sans-serif" font-size="16.00">PolicyManagementContext</text>
</g>
<!-- CustomerManagementContext&#45;&gt;PolicyManagementContext -->
<g id="edge1" class="edge">
<title>CustomerManagementContext&#45;&gt;PolicyManagementContext</title>
<path fill="none" stroke="black" stroke-width="2" d="M338.75,-304.41C411.8,-281.7 505.13,-252.69 576.7,-230.44"/>
<text text-anchor="middle" x="482.91" y="-265.57" font-family="sans-serif" font-size="12.00"> &#160;&#160;&#160;&#160;&#160;&#160;&#160;</text>
<polygon fill="white" stroke="transparent" points="569.7,-221.44 569.7,-238.44 583.7,-238.44 583.7,-221.44 569.7,-221.44"/>
<text text-anchor="start" x="571.7" y="-226.84" font-family="sans-serif" font-size="12.00">D</text>
<polygon fill="white" stroke="transparent" points="331.75,-295.41 331.75,-312.41 345.75,-312.41 345.75,-295.41 331.75,-295.41"/>
<text text-anchor="start" x="333.75" y="-300.81" font-family="sans-serif" font-size="12.00">U</text>
</g>
<!-- CustomerSelfServiceContext -->
<g id="node4" class="node">
<title>CustomerSelfServiceContext</title>
<polygon fill="none" stroke="black" stroke-width="2" points="31.78,-206.27 28.42,-203.49 25.61,-200.7 23.36,-197.9 21.68,-195.12 20.57,-192.35 20.06,-189.62 20.13,-186.92 20.81,-184.28 22.08,-181.7 23.95,-179.18 26.41,-176.75 29.47,-174.4 33.11,-172.14 37.32,-169.99 42.1,-167.94 47.43,-166 53.29,-164.17 59.66,-162.47 66.53,-160.88 73.87,-159.42 81.67,-158.09 89.88,-156.88 98.5,-155.81 107.48,-154.86 116.8,-154.04 126.43,-153.34 136.34,-152.77 146.48,-152.32 156.84,-151.99 167.37,-151.78 178.04,-151.68 188.81,-151.7 199.65,-151.81 210.52,-152.04 221.39,-152.36 232.23,-152.77 242.99,-153.28 253.65,-153.87 264.18,-154.55 274.53,-155.31 284.68,-156.14 294.61,-157.05 304.27,-158.02 313.65,-159.07 322.72,-160.17 331.46,-161.34 339.83,-162.56 347.83,-163.84 355.43,-165.17 362.61,-166.56 369.36,-168 375.67,-169.49 381.51,-171.02 386.88,-172.6 391.78,-174.23 396.18,-175.91 400.1,-177.62 403.51,-179.38 406.42,-181.18 408.83,-183.03 410.73,-184.91 412.13,-186.83 413.02,-188.79 413.42,-190.78 413.32,-192.8 412.74,-194.85 411.67,-196.93 410.12,-199.03 408.11,-201.16 405.63,-203.29 402.71,-205.45 399.34,-207.6 395.55,-209.76 391.33,-211.92 386.71,-214.07 381.7,-216.2 376.29,-218.31 370.52,-220.39 364.4,-222.43 357.93,-224.43 351.13,-226.38 344.01,-228.26 336.6,-230.08 328.9,-231.83 320.94,-233.49 312.72,-235.06 304.27,-236.53 295.6,-237.89 286.73,-239.14 277.67,-240.27 268.46,-241.26 259.1,-242.12 249.61,-242.85 240.02,-243.42 230.35,-243.84 220.62,-244.11 210.85,-244.22 201.06,-244.16 191.28,-243.94 181.53,-243.56 171.84,-243.01 162.22,-242.3 152.71,-241.42 143.33,-240.38 134.11,-239.17 125.06,-237.82 116.23,-236.31 107.63,-234.66 99.29,-232.86 91.23,-230.94 83.49,-228.88 76.08,-226.71 69.03,-224.43 62.38,-222.06 56.13,-219.59 50.31,-217.04 44.94,-214.42 40.05,-211.75 35.66,-209.03 31.78,-206.27"/>
<text text-anchor="middle" x="221.41" y="-191.54" font-family="sans-serif" font-size="16.00">CustomerSelfServiceContext</text>
</g>
<!-- CustomerManagementContext&#45;&gt;CustomerSelfServiceContext -->
<g id="edge2" class="edge">
<title>CustomerManagementContext&#45;&gt;CustomerSelfServiceContext</title>
<path fill="none" stroke="black" stroke-width="2" d="M221.41,-293.16C221.41,-277.53 221.41,-260.17 221.41,-244.51"/>
<text text-anchor="middle" x="236.91" y="-265.57" font-family="sans-serif" font-size="12.00"> &#160;&#160;&#160;&#160;&#160;&#160;&#160;</text>
<polygon fill="white" stroke="transparent" points="214.41,-235.51 214.41,-252.51 228.41,-252.51 228.41,-235.51 214.41,-235.51"/>
<text text-anchor="start" x="216.41" y="-240.91" font-family="sans-serif" font-size="12.00">D</text>
<polygon fill="white" stroke="transparent" points="214.41,-284.16 214.41,-301.16 228.41,-301.16 228.41,-284.16 214.41,-284.16"/>
<text text-anchor="start" x="216.41" y="-289.56" font-family="sans-serif" font-size="12.00">U</text>
</g>
<!-- DebtCollection -->
<g id="node3" class="node">
<title>DebtCollection</title>
<polygon fill="none" stroke="black" stroke-width="2" points="712.38,-70.18 708.6,-67.71 705.13,-65.2 701.97,-62.65 699.14,-60.08 696.65,-57.5 694.52,-54.91 692.75,-52.33 691.35,-49.76 690.33,-47.21 689.7,-44.7 689.45,-42.23 689.6,-39.8 690.14,-37.43 691.08,-35.12 692.4,-32.88 694.11,-30.72 696.2,-28.63 698.66,-26.63 701.49,-24.72 704.66,-22.9 708.18,-21.17 712.02,-19.54 716.17,-18.01 720.62,-16.59 725.35,-15.26 730.33,-14.04 735.56,-12.92 741,-11.9 746.65,-10.99 752.47,-10.18 758.44,-9.47 764.55,-8.86 770.77,-8.35 777.08,-7.93 783.45,-7.61 789.87,-7.38 796.31,-7.24 802.75,-7.2 809.16,-7.24 815.54,-7.36 821.85,-7.57 828.08,-7.87 834.21,-8.24 840.22,-8.7 846.1,-9.23 851.84,-9.84 857.41,-10.53 862.8,-11.29 868,-12.13 873,-13.04 877.79,-14.03 882.36,-15.09 886.71,-16.22 890.82,-17.43 894.69,-18.7 898.31,-20.05 901.68,-21.47 904.8,-22.95 907.66,-24.51 910.27,-26.14 912.61,-27.83 914.69,-29.58 916.52,-31.4 918.09,-33.29 919.39,-35.23 920.44,-37.23 921.24,-39.28 921.78,-41.38 922.07,-43.53 922.11,-45.72 921.9,-47.95 921.45,-50.21 920.75,-52.5 919.82,-54.8 918.65,-57.13 917.24,-59.46 915.6,-61.79 913.73,-64.11 911.64,-66.42 909.32,-68.71 906.78,-70.97 904.02,-73.18 901.05,-75.36 897.87,-77.47 894.48,-79.52 890.88,-81.5 887.08,-83.39 883.09,-85.2 878.9,-86.91 874.54,-88.51 869.99,-89.99 865.27,-91.36 860.38,-92.6 855.34,-93.7 850.14,-94.67 844.81,-95.48 839.35,-96.15 833.77,-96.67 828.08,-97.02 822.3,-97.22 816.44,-97.25 810.52,-97.12 804.54,-96.83 798.52,-96.38 792.49,-95.76 786.46,-94.98 780.44,-94.05 774.45,-92.97 768.52,-91.73 762.66,-90.35 756.89,-88.83 751.23,-87.18 745.71,-85.41 740.33,-83.52 735.13,-81.52 730.12,-79.42 725.32,-77.22 720.75,-74.94 716.43,-72.59 712.38,-70.18"/>
<text text-anchor="middle" x="812.41" y="-44.95" font-family="sans-serif" font-size="16.00">DebtCollection</text>
</g>
<!-- PolicyManagementContext&#45;&gt;DebtCollection -->
<g id="edge3" class="edge">
<title>PolicyManagementContext&#45;&gt;DebtCollection</title>
<path fill="none" stroke="black" stroke-width="2" d="M722.86,-152.52C739.06,-133.92 758.14,-112.03 774.51,-93.24"/>
<text text-anchor="middle" x="794.41" y="-118.9" font-family="sans-serif" font-size="12.00">Shared Kernel</text>
</g>
<!-- PrintingContext -->
<g id="node5" class="node">
<title>PrintingContext</title>
<polygon fill="none" stroke="black" stroke-width="2" points="963.4,-455.29 969.17,-457.23 974.67,-459.25 979.88,-461.34 984.79,-463.49 989.36,-465.69 993.58,-467.94 997.43,-470.22 1000.9,-472.53 1003.97,-474.86 1006.62,-477.2 1008.86,-479.54 1010.66,-481.89 1012.02,-484.22 1012.94,-486.54 1013.42,-488.84 1013.44,-491.11 1013.03,-493.34 1012.17,-495.54 1010.88,-497.69 1009.16,-499.79 1007.03,-501.84 1004.49,-503.83 1001.56,-505.76 998.25,-507.63 994.58,-509.43 990.57,-511.16 986.23,-512.81 981.59,-514.4 976.67,-515.9 971.49,-517.33 966.08,-518.68 960.45,-519.95 954.63,-521.14 948.64,-522.24 942.52,-523.26 936.27,-524.2 929.93,-525.05 923.52,-525.81 917.06,-526.49 910.57,-527.08 904.08,-527.58 897.6,-528 891.15,-528.32 884.76,-528.56 878.44,-528.7 872.2,-528.76 866.07,-528.72 860.06,-528.59 854.17,-528.37 848.42,-528.05 842.83,-527.64 837.4,-527.13 832.13,-526.53 827.05,-525.84 822.15,-525.04 817.43,-524.16 812.91,-523.17 808.59,-522.09 804.47,-520.92 800.56,-519.65 796.85,-518.29 793.34,-516.84 790.05,-515.29 786.97,-513.66 784.1,-511.95 781.44,-510.15 778.99,-508.27 776.76,-506.31 774.74,-504.28 772.94,-502.18 771.35,-500.02 769.99,-497.8 768.85,-495.53 767.93,-493.21 767.23,-490.85 766.77,-488.46 766.53,-486.04 766.53,-483.6 766.78,-481.15 767.26,-478.7 767.99,-476.25 768.97,-473.81 770.2,-471.4 771.69,-469.01 773.44,-466.66 775.45,-464.37 777.73,-462.12 780.28,-459.94 783.1,-457.84 786.19,-455.81 789.55,-453.88 793.18,-452.04 797.08,-450.31 801.24,-448.69 805.67,-447.18 810.36,-445.8 815.29,-444.55 820.47,-443.43 825.88,-442.46 831.51,-441.62 837.36,-440.93 843.4,-440.4 849.62,-440.01 856.02,-439.77 862.56,-439.69 869.23,-439.76 876.01,-439.98 882.88,-440.36 889.82,-440.88 896.8,-441.55 903.8,-442.36 910.79,-443.31 917.76,-444.39 924.66,-445.61 931.48,-446.95 938.19,-448.41 944.77,-449.97 951.18,-451.65 957.4,-453.42 963.4,-455.29"/>
<text text-anchor="middle" x="880.41" y="-483.22" font-family="sans-serif" font-size="16.00">PrintingContext</text>
</g>
<!-- PrintingContext&#45;&gt;CustomerManagementContext -->
<g id="edge6" class="edge">
<title>PrintingContext&#45;&gt;CustomerManagementContext</title>
<path fill="none" stroke="black" stroke-width="2" d="M776.35,-463.42C668.18,-439.93 497.72,-402.9 374.25,-376.09"/>
<text text-anchor="middle" x="585.91" y="-412.01" font-family="sans-serif" font-size="12.00"> &#160;&#160;&#160;&#160;&#160;&#160;&#160;</text>
<polygon fill="white" stroke="transparent" points="367.25,-367.09 367.25,-384.09 381.25,-384.09 381.25,-367.09 367.25,-367.09"/>
<text text-anchor="start" x="369.25" y="-372.49" font-family="sans-serif" font-size="12.00">D</text>
<polygon fill="white" stroke="transparent" points="769.35,-454.42 769.35,-471.42 783.35,-471.42 783.35,-454.42 769.35,-454.42"/>
<text text-anchor="start" x="771.35" y="-459.82" font-family="sans-serif" font-size="12.00">U</text>
</g>
<!-- PrintingContext&#45;&gt;PolicyManagementContext -->
<g id="edge4" class="edge">
<title>PrintingContext&#45;&gt;PolicyManagementContext</title>
<path fill="none" stroke="black" stroke-width="2" d="M884.76,-440.36C886.41,-398.57 882.76,-336.79 853.41,-293.17 837.04,-268.84 812.35,-249.83 786.94,-235.34"/>
<text text-anchor="middle" x="898.91" y="-338.79" font-family="sans-serif" font-size="12.00"> &#160;&#160;&#160;&#160;&#160;&#160;&#160;</text>
<polygon fill="white" stroke="transparent" points="779.94,-226.34 779.94,-243.34 793.94,-243.34 793.94,-226.34 779.94,-226.34"/>
<text text-anchor="start" x="781.94" y="-231.74" font-family="sans-serif" font-size="12.00">D</text>
<polygon fill="white" stroke="transparent" points="877.76,-431.36 877.76,-448.36 891.76,-448.36 891.76,-431.36 877.76,-431.36"/>
<text text-anchor="start" x="879.76" y="-436.76" font-family="sans-serif" font-size="12.00">U</text>
</g>
<!-- PrintingContext&#45;&gt;DebtCollection -->
<g id="edge5" class="edge">
<title>PrintingContext&#45;&gt;DebtCollection</title>
<path fill="none" stroke="black" stroke-width="2" d="M902.01,-441.94C908.65,-426.14 915.09,-407.94 918.41,-390.61 926.57,-348.08 922.91,-336.24 918.41,-293.17 911.48,-226.91 915.42,-206.96 887.41,-146.5 878.83,-127.99 866.14,-109.76 853.63,-94.19"/>
<text text-anchor="middle" x="931.91" y="-265.57" font-family="sans-serif" font-size="12.00"> &#160;&#160;&#160;&#160;&#160;&#160;&#160;</text>
<polygon fill="white" stroke="transparent" points="846.63,-85.19 846.63,-102.19 860.63,-102.19 860.63,-85.19 846.63,-85.19"/>
<text text-anchor="start" x="848.63" y="-90.59" font-family="sans-serif" font-size="12.00">D</text>
<polygon fill="white" stroke="transparent" points="895.01,-432.94 895.01,-449.94 909.01,-449.94 909.01,-432.94 895.01,-432.94"/>
<text text-anchor="start" x="897.01" y="-438.34" font-family="sans-serif" font-size="12.00">U</text>
</g>
<!-- RiskManagementContext -->
<g id="node6" class="node">
<title>RiskManagementContext</title>
<polygon fill="none" stroke="black" stroke-width="2" points="590.97,-383.14 580.25,-382.16 569.77,-381.08 559.57,-379.89 549.7,-378.6 540.18,-377.22 531.06,-375.75 522.38,-374.19 514.17,-372.55 506.46,-370.84 499.28,-369.05 492.66,-367.2 486.61,-365.29 481.17,-363.33 476.34,-361.31 472.14,-359.26 468.58,-357.16 465.67,-355.03 463.4,-352.88 461.78,-350.71 460.81,-348.52 460.48,-346.31 460.77,-344.11 461.69,-341.9 463.2,-339.7 465.3,-337.51 467.97,-335.34 471.18,-333.18 474.91,-331.05 479.13,-328.95 483.83,-326.89 488.96,-324.87 494.5,-322.89 500.42,-320.96 506.69,-319.08 513.28,-317.26 520.16,-315.5 527.3,-313.8 534.66,-312.18 542.23,-310.62 549.97,-309.15 557.85,-307.75 565.85,-306.44 573.95,-305.22 582.11,-304.08 590.32,-303.04 598.55,-302.1 606.79,-301.26 615.02,-300.52 623.22,-299.88 631.38,-299.35 639.48,-298.93 647.51,-298.62 655.47,-298.42 663.33,-298.34 671.1,-298.37 678.77,-298.51 686.32,-298.78 693.76,-299.16 701.08,-299.65 708.28,-300.26 715.34,-300.99 722.27,-301.83 729.06,-302.79 735.7,-303.86 742.2,-305.04 748.55,-306.32 754.73,-307.71 760.75,-309.2 766.59,-310.79 772.25,-312.47 777.72,-314.24 782.99,-316.1 788.04,-318.04 792.87,-320.05 797.46,-322.14 801.79,-324.28 805.86,-326.49 809.65,-328.74 813.13,-331.05 816.3,-333.38 819.13,-335.76 821.61,-338.15 823.71,-340.56 825.43,-342.98 826.74,-345.4 827.62,-347.82 828.06,-350.22 828.05,-352.6 827.55,-354.95 826.58,-357.27 825.1,-359.54 823.11,-361.76 820.6,-363.92 817.56,-366.02 813.99,-368.04 809.88,-369.99 805.24,-371.86 800.07,-373.63 794.37,-375.31 788.14,-376.89 781.42,-378.36 774.19,-379.72 766.49,-380.97 758.33,-382.11 749.73,-383.12 740.72,-384.01 731.32,-384.78 721.58,-385.41 711.51,-385.92 701.16,-386.31 690.56,-386.56 679.75,-386.68 668.78,-386.67 657.68,-386.54 646.5,-386.28 635.28,-385.89 624.08,-385.38 612.92,-384.75 601.87,-384 590.97,-383.14"/>
<text text-anchor="middle" x="652.41" y="-338.09" font-family="sans-serif" font-size="16.00">RiskManagementContext</text>
</g>
<!-- RiskManagementContext&#45;&gt;PolicyManagementContext -->
<g id="edge7" class="edge">
<title>RiskManagementContext&#45;&gt;PolicyManagementContext</title>
<path fill="none" stroke="black" stroke-width="2" d="M662.43,-298.3C666.44,-281.23 671.09,-261.48 675.21,-243.94"/>
<text text-anchor="middle" x="712.41" y="-265.57" font-family="sans-serif" font-size="12.00">Shared Kernel</text>
</g>
</g>
</svg>
