<svg width="2000px" height="1116px"
 viewBox="0.00 0.00 976.95 544.53" xmlns="http://www.w3.org/2000/svg" xmlns:xlink="http://www.w3.org/1999/xlink">
<g id="graph0" class="graph" transform="scale(1.0 1.0) rotate(0) translate(4 540.53)">
<title>ContextMapGraph</title>
<polygon fill="white" stroke="transparent" points="-4,4 -4,-540.53 972.95,-540.53 972.95,4 -4,4"/>
<!-- CustomerManagementContext -->
<g id="node1" class="node">
<title>CustomerManagementContext</title>
<polygon fill="none" stroke="black" stroke-width="2" points="405.02,-322.27 410.97,-324.84 416.38,-327.44 421.2,-330.07 425.43,-332.72 429.04,-335.37 432.02,-338.01 434.34,-340.64 436,-343.25 436.99,-345.82 437.3,-348.35 436.92,-350.83 435.86,-353.25 434.1,-355.61 431.67,-357.89 428.56,-360.09 424.78,-362.21 420.35,-364.24 415.27,-366.18 409.58,-368.01 403.29,-369.75 396.41,-371.38 388.99,-372.91 381.04,-374.33 372.59,-375.64 363.68,-376.83 354.34,-377.92 344.6,-378.9 334.5,-379.77 324.09,-380.54 313.38,-381.19 302.43,-381.74 291.28,-382.19 279.96,-382.54 268.51,-382.79 256.98,-382.94 245.4,-383 233.81,-382.96 222.25,-382.84 210.76,-382.63 199.37,-382.33 188.12,-381.95 177.05,-381.49 166.18,-380.95 155.54,-380.34 145.17,-379.65 135.1,-378.88 125.34,-378.05 115.92,-377.14 106.87,-376.17 98.2,-375.12 89.94,-374.01 82.09,-372.83 74.67,-371.58 67.7,-370.26 61.18,-368.89 55.13,-367.44 49.55,-365.94 44.45,-364.37 39.83,-362.73 35.7,-361.04 32.05,-359.29 28.89,-357.47 26.22,-355.6 24.03,-353.68 22.32,-351.7 21.1,-349.68 20.35,-347.6 20.07,-345.49 20.26,-343.33 20.91,-341.14 22.02,-338.92 23.57,-336.67 25.57,-334.4 28.01,-332.12 30.87,-329.83 34.16,-327.54 37.87,-325.25 41.98,-322.98 46.5,-320.72 51.41,-318.5 56.7,-316.31 62.38,-314.16 68.42,-312.07 74.83,-310.04 81.59,-308.08 88.69,-306.2 96.12,-304.41 103.87,-302.71 111.94,-301.11 120.3,-299.63 128.94,-298.26 137.86,-297.02 147.02,-295.91 156.43,-294.95 166.06,-294.12 175.89,-293.44 185.9,-292.92 196.08,-292.56 206.39,-292.35 216.82,-292.31 227.34,-292.43 237.92,-292.72 248.55,-293.17 259.18,-293.78 269.8,-294.56 280.36,-295.5 290.85,-296.59 301.22,-297.84 311.45,-299.23 321.51,-300.76 331.35,-302.44 340.95,-304.23 350.27,-306.16 359.28,-308.19 367.95,-310.33 376.24,-312.56 384.13,-314.89 391.57,-317.28 398.55,-319.75 405.02,-322.27"/>
<text text-anchor="middle" x="218.6" y="-337.23" font-family="sans-serif" font-size="16.00">CustomerManagementContext</text>
</g>
<!-- PolicyManagementContext -->
<g id="node2" class="node">
<title>PolicyManagementContext</title>
<polygon fill="none" stroke="black" stroke-width="2" points="501.34,-170.65 507.69,-168.22 514.42,-165.86 521.52,-163.6 528.96,-161.43 536.71,-159.38 544.74,-157.44 553.02,-155.63 561.54,-153.95 570.25,-152.41 579.13,-151.01 588.16,-149.76 597.31,-148.67 606.55,-147.74 615.85,-146.97 625.19,-146.36 634.54,-145.92 643.88,-145.64 653.2,-145.53 662.45,-145.58 671.63,-145.79 680.71,-146.16 689.67,-146.69 698.5,-147.37 707.17,-148.2 715.67,-149.17 723.98,-150.28 732.09,-151.51 739.98,-152.87 747.64,-154.34 755.05,-155.92 762.21,-157.6 769.09,-159.38 775.69,-161.23 782,-163.16 788,-165.16 793.69,-167.22 799.06,-169.32 804.09,-171.47 808.78,-173.65 813.11,-175.86 817.09,-178.09 820.69,-180.33 823.92,-182.57 826.76,-184.81 829.21,-187.05 831.25,-189.27 832.89,-191.47 834.12,-193.65 834.92,-195.79 835.29,-197.91 835.23,-199.99 834.74,-202.03 833.8,-204.03 832.41,-205.98 830.57,-207.88 828.29,-209.74 825.55,-211.54 822.36,-213.3 818.72,-214.99 814.64,-216.64 810.1,-218.22 805.13,-219.75 799.73,-221.23 793.9,-222.64 787.65,-223.99 781,-225.29 773.96,-226.52 766.53,-227.7 758.75,-228.8 750.62,-229.85 742.16,-230.83 733.4,-231.74 724.36,-232.58 715.06,-233.35 705.53,-234.05 695.79,-234.67 685.87,-235.22 675.8,-235.68 665.62,-236.06 655.35,-236.36 645.03,-236.57 634.69,-236.68 624.36,-236.7 614.08,-236.62 603.88,-236.44 593.81,-236.16 583.88,-235.77 574.15,-235.28 564.63,-234.67 555.37,-233.95 546.4,-233.12 537.76,-232.17 529.46,-231.1 521.54,-229.92 514.04,-228.63 506.97,-227.21 500.36,-225.69 494.24,-224.05 488.62,-222.3 483.53,-220.44 478.99,-218.48 474.99,-216.42 471.57,-214.27 468.73,-212.03 466.48,-209.7 464.82,-207.3 463.75,-204.83 463.28,-202.3 463.41,-199.72 464.13,-197.1 465.43,-194.44 467.31,-191.76 469.75,-189.06 472.74,-186.36 476.27,-183.66 480.32,-180.98 484.87,-178.33 489.91,-175.72 495.4,-173.15 501.34,-170.65"/>
<text text-anchor="middle" x="656.6" y="-190.49" font-family="sans-serif" font-size="16.00">PolicyManagementContext</text>
</g>
<!-- CustomerManagementContext&#45;&gt;PolicyManagementContext -->
<g id="edge1" class="edge">
<title>CustomerManagementContext&#45;&gt;PolicyManagementContext</title>
<path fill="none" stroke="black" stroke-width="2" d="M332.25,-302.48C397.14,-281.03 478.23,-254.24 543.09,-232.8"/>
<text text-anchor="middle" x="466.1" y="-264.57" font-family="sans-serif" font-size="12.00"> &#160;&#160;&#160;&#160;&#160;&#160;&#160;</text>
<polygon fill="white" stroke="transparent" points="536.09,-223.8 536.09,-240.8 550.09,-240.8 550.09,-223.8 536.09,-223.8"/>
<text text-anchor="start" x="538.09" y="-229.2" font-family="sans-serif" font-size="12.00">D</text>
<polygon fill="white" stroke="transparent" points="325.25,-293.48 325.25,-310.48 339.25,-310.48 339.25,-293.48 325.25,-293.48"/>
<text text-anchor="start" x="327.25" y="-298.88" font-family="sans-serif" font-size="12.00">U</text>
</g>
<!-- CustomerSelfServiceContext -->
<g id="node4" class="node">
<title>CustomerSelfServiceContext</title>
<polygon fill="none" stroke="black" stroke-width="2" points="52.14,-171.31 58.68,-168.85 65.64,-166.47 72.99,-164.18 80.71,-161.98 88.76,-159.9 97.13,-157.93 105.77,-156.08 114.67,-154.37 123.78,-152.79 133.09,-151.36 142.57,-150.07 152.18,-148.94 161.9,-147.97 171.71,-147.16 181.56,-146.52 191.44,-146.04 201.33,-145.72 211.19,-145.57 221.01,-145.58 230.76,-145.76 240.42,-146.09 249.96,-146.58 259.37,-147.23 268.63,-148.02 277.72,-148.95 286.62,-150.02 295.31,-151.22 303.78,-152.55 312.02,-153.99 320,-155.54 327.72,-157.19 335.15,-158.93 342.3,-160.76 349.13,-162.66 355.65,-164.63 361.85,-166.66 367.7,-168.75 373.2,-170.87 378.34,-173.03 383.11,-175.22 387.5,-177.43 391.5,-179.66 395.09,-181.88 398.28,-184.11 401.05,-186.34 403.39,-188.55 405.3,-190.74 406.77,-192.91 407.78,-195.05 408.35,-197.17 408.44,-199.25 408.08,-201.29 407.24,-203.29 405.92,-205.24 404.12,-207.16 401.84,-209.02 399.08,-210.83 395.84,-212.6 392.11,-214.31 387.9,-215.97 383.22,-217.57 378.07,-219.12 372.45,-220.62 366.38,-222.05 359.86,-223.43 352.91,-224.76 345.54,-226.02 337.76,-227.22 329.59,-228.36 321.06,-229.44 312.17,-230.45 302.95,-231.4 293.43,-232.28 283.63,-233.09 273.57,-233.82 263.29,-234.49 252.82,-235.07 242.18,-235.58 231.42,-236 220.55,-236.34 209.62,-236.59 198.67,-236.75 187.72,-236.81 176.81,-236.77 165.99,-236.64 155.28,-236.4 144.73,-236.05 134.37,-235.59 124.23,-235.03 114.36,-234.35 104.78,-233.55 95.54,-232.64 86.66,-231.61 78.18,-230.46 70.12,-229.2 62.51,-227.81 55.39,-226.32 48.77,-224.7 42.68,-222.98 37.14,-221.14 32.16,-219.2 27.77,-217.16 23.98,-215.02 20.79,-212.8 18.22,-210.48 16.27,-208.09 14.95,-205.63 14.25,-203.1 14.19,-200.52 14.74,-197.89 15.92,-195.23 17.7,-192.54 20.08,-189.84 23.04,-187.12 26.57,-184.41 30.66,-181.72 35.28,-179.05 40.41,-176.42 46.04,-173.83 52.14,-171.31"/>
<text text-anchor="middle" x="218.6" y="-190.49" font-family="sans-serif" font-size="16.00">CustomerSelfServiceContext</text>
</g>
<!-- CustomerManagementContext&#45;&gt;CustomerSelfServiceContext -->
<g id="edge2" class="edge">
<title>CustomerManagementContext&#45;&gt;CustomerSelfServiceContext</title>
<path fill="none" stroke="black" stroke-width="2" d="M218.6,-292.24C218.6,-274.29 218.6,-254.05 218.6,-236.72"/>
<text text-anchor="middle" x="234.1" y="-264.57" font-family="sans-serif" font-size="12.00"> &#160;&#160;&#160;&#160;&#160;&#160;&#160;</text>
<polygon fill="white" stroke="transparent" points="211.6,-227.72 211.6,-244.72 225.6,-244.72 225.6,-227.72 211.6,-227.72"/>
<text text-anchor="start" x="213.6" y="-233.12" font-family="sans-serif" font-size="12.00">D</text>
<polygon fill="white" stroke="transparent" points="211.6,-283.24 211.6,-300.24 225.6,-300.24 225.6,-283.24 211.6,-283.24"/>
<text text-anchor="start" x="213.6" y="-288.64" font-family="sans-serif" font-size="12.00">U</text>
</g>
<!-- DebtCollection -->
<g id="node3" class="node">
<title>DebtCollection</title>
<polygon fill="none" stroke="black" stroke-width="2" points="851.91,-81.83 846.27,-83.72 840.46,-85.52 834.5,-87.2 828.41,-88.76 822.23,-90.2 815.97,-91.5 809.65,-92.67 803.29,-93.69 796.93,-94.57 790.57,-95.29 784.24,-95.86 777.96,-96.27 771.75,-96.52 765.63,-96.61 759.6,-96.55 753.7,-96.32 747.92,-95.93 742.3,-95.39 736.83,-94.69 731.53,-93.84 726.41,-92.85 721.48,-91.71 716.75,-90.44 712.22,-89.03 707.9,-87.51 703.8,-85.86 699.92,-84.1 696.27,-82.25 692.83,-80.29 689.63,-78.25 686.66,-76.13 683.92,-73.95 681.41,-71.7 679.14,-69.4 677.09,-67.06 675.28,-64.68 673.7,-62.27 672.35,-59.85 671.23,-57.43 670.34,-55 669.68,-52.57 669.25,-50.17 669.05,-47.78 669.07,-45.42 669.32,-43.1 669.81,-40.82 670.52,-38.59 671.46,-36.41 672.62,-34.28 674.02,-32.22 675.65,-30.22 677.51,-28.29 679.59,-26.43 681.91,-24.65 684.46,-22.95 687.24,-21.32 690.25,-19.77 693.49,-18.31 696.96,-16.93 700.65,-15.63 704.56,-14.42 708.69,-13.3 713.04,-12.26 717.59,-11.31 722.34,-10.44 727.29,-9.66 732.43,-8.96 737.74,-8.35 743.23,-7.83 748.86,-7.39 754.65,-7.04 760.56,-6.78 766.58,-6.6 772.71,-6.51 778.92,-6.5 785.19,-6.59 791.51,-6.75 797.86,-7.01 804.21,-7.36 810.55,-7.79 816.85,-8.31 823.09,-8.93 829.26,-9.63 835.31,-10.43 841.24,-11.31 847.03,-12.29 852.64,-13.36 858.05,-14.51 863.25,-15.76 868.21,-17.1 872.91,-18.53 877.33,-20.05 881.45,-21.66 885.26,-23.35 888.73,-25.12 891.86,-26.98 894.62,-28.91 897.01,-30.92 899.01,-32.99 900.62,-35.14 901.83,-37.34 902.63,-39.6 903.02,-41.91 902.99,-44.27 902.55,-46.67 901.7,-49.09 900.45,-51.54 898.79,-54.01 896.74,-56.49 894.3,-58.97 891.49,-61.43 888.32,-63.89 884.8,-66.31 880.95,-68.71 876.79,-71.05 872.33,-73.35 867.59,-75.58 862.59,-77.75 857.36,-79.83 851.91,-81.83"/>
<text text-anchor="middle" x="777.6" y="-44.4" font-family="sans-serif" font-size="16.00">DebtCollection</text>
</g>
<!-- PolicyManagementContext&#45;&gt;DebtCollection -->
<g id="edge3" class="edge">
<title>PolicyManagementContext&#45;&gt;DebtCollection</title>
<path fill="none" stroke="black" stroke-width="2" d="M695.55,-146.91C709.51,-130.29 725.22,-111.58 739.14,-95.01"/>
<text text-anchor="middle" x="762.6" y="-117.81" font-family="sans-serif" font-size="12.00">Shared Kernel</text>
</g>
<!-- PrintingContext -->
<g id="node5" class="node">
<title>PrintingContext</title>
<polygon fill="none" stroke="black" stroke-width="2" points="947.46,-467.6 951.18,-470.12 954.58,-472.68 957.64,-475.27 960.36,-477.88 962.72,-480.5 964.7,-483.12 966.31,-485.73 967.53,-488.32 968.35,-490.88 968.78,-493.4 968.79,-495.88 968.4,-498.3 967.61,-500.67 966.41,-502.97 964.8,-505.19 962.81,-507.33 960.42,-509.39 957.65,-511.36 954.5,-513.24 951,-515.02 947.15,-516.7 942.97,-518.28 938.47,-519.75 933.67,-521.12 928.59,-522.39 923.25,-523.54 917.67,-524.59 911.87,-525.54 905.87,-526.38 899.69,-527.11 893.37,-527.74 886.91,-528.27 880.34,-528.7 873.69,-529.04 866.99,-529.27 860.24,-529.42 853.48,-529.47 846.73,-529.43 840.02,-529.3 833.35,-529.09 826.76,-528.8 820.26,-528.42 813.87,-527.96 807.61,-527.43 801.5,-526.81 795.56,-526.13 789.79,-525.36 784.21,-524.53 778.84,-523.62 773.69,-522.64 768.77,-521.59 764.08,-520.47 759.64,-519.28 755.45,-518.02 751.52,-516.69 747.85,-515.29 744.45,-513.83 741.33,-512.3 738.48,-510.7 735.91,-509.04 733.61,-507.32 731.6,-505.53 729.86,-503.69 728.4,-501.78 727.22,-499.82 726.31,-497.81 725.68,-495.74 725.31,-493.63 725.21,-491.48 725.38,-489.29 725.82,-487.06 726.51,-484.8 727.45,-482.52 728.65,-480.23 730.11,-477.92 731.8,-475.6 733.74,-473.29 735.92,-470.99 738.34,-468.71 740.99,-466.45 743.86,-464.22 746.97,-462.04 750.29,-459.91 753.83,-457.83 757.58,-455.83 761.54,-453.9 765.7,-452.05 770.06,-450.3 774.6,-448.64 779.33,-447.1 784.24,-445.67 789.32,-444.37 794.56,-443.19 799.95,-442.15 805.48,-441.26 811.14,-440.51 816.93,-439.92 822.82,-439.48 828.82,-439.19 834.89,-439.08 841.03,-439.12 847.23,-439.33 853.47,-439.7 859.72,-440.23 865.99,-440.93 872.23,-441.79 878.45,-442.8 884.62,-443.97 890.71,-445.28 896.72,-446.74 902.62,-448.34 908.39,-450.06 914,-451.91 919.45,-453.88 924.71,-455.95 929.76,-458.12 934.57,-460.38 939.14,-462.72 943.45,-465.13 947.46,-467.6"/>
<text text-anchor="middle" x="840.6" y="-483.91" font-family="sans-serif" font-size="16.00">PrintingContext</text>
</g>
<!-- PrintingContext&#45;&gt;CustomerManagementContext -->
<g id="edge4" class="edge">
<title>PrintingContext&#45;&gt;CustomerManagementContext</title>
<path fill="none" stroke="black" stroke-width="2" d="M743.75,-464.19C642.85,-440.72 483.49,-403.65 366.76,-376.5"/>
<text text-anchor="middle" x="563.1" y="-411.29" font-family="sans-serif" font-size="12.00"> &#160;&#160;&#160;&#160;&#160;&#160;&#160;</text>
<polygon fill="white" stroke="transparent" points="359.76,-367.5 359.76,-384.5 373.76,-384.5 373.76,-367.5 359.76,-367.5"/>
<text text-anchor="start" x="361.76" y="-372.9" font-family="sans-serif" font-size="12.00">D</text>
<polygon fill="white" stroke="transparent" points="736.75,-455.19 736.75,-472.19 750.75,-472.19 750.75,-455.19 736.75,-455.19"/>
<text text-anchor="start" x="738.75" y="-460.59" font-family="sans-serif" font-size="12.00">U</text>
</g>
<!-- PrintingContext&#45;&gt;PolicyManagementContext -->
<g id="edge6" class="edge">
<title>PrintingContext&#45;&gt;PolicyManagementContext</title>
<path fill="none" stroke="black" stroke-width="2" d="M844.83,-439.21C846.2,-397.22 842.19,-336.01 813.6,-292.17 796.63,-266.15 769.98,-245.94 743.42,-230.87"/>
<text text-anchor="middle" x="858.1" y="-337.93" font-family="sans-serif" font-size="12.00"> &#160;&#160;&#160;&#160;&#160;&#160;&#160;</text>
<polygon fill="white" stroke="transparent" points="736.42,-221.87 736.42,-238.87 750.42,-238.87 750.42,-221.87 736.42,-221.87"/>
<text text-anchor="start" x="738.42" y="-227.27" font-family="sans-serif" font-size="12.00">D</text>
<polygon fill="white" stroke="transparent" points="837.83,-430.21 837.83,-447.21 851.83,-447.21 851.83,-430.21 837.83,-430.21"/>
<text text-anchor="start" x="839.83" y="-435.61" font-family="sans-serif" font-size="12.00">U</text>
</g>
<!-- PrintingContext&#45;&gt;DebtCollection -->
<g id="edge5" class="edge">
<title>PrintingContext&#45;&gt;DebtCollection</title>
<path fill="none" stroke="black" stroke-width="2" d="M862.22,-440.44C868.48,-424.74 874.46,-406.88 877.6,-389.89 897.38,-282.72 902.47,-245.18 858.6,-145.41 849.81,-125.42 835.53,-106.37 821.39,-90.57"/>
<text text-anchor="middle" x="907.1" y="-264.57" font-family="sans-serif" font-size="12.00"> &#160;&#160;&#160;&#160;&#160;&#160;&#160;</text>
<polygon fill="white" stroke="transparent" points="814.39,-81.57 814.39,-98.57 828.39,-98.57 828.39,-81.57 814.39,-81.57"/>
<text text-anchor="start" x="816.39" y="-86.97" font-family="sans-serif" font-size="12.00">D</text>
<polygon fill="white" stroke="transparent" points="855.22,-431.44 855.22,-448.44 869.22,-448.44 869.22,-431.44 855.22,-431.44"/>
<text text-anchor="start" x="857.22" y="-436.84" font-family="sans-serif" font-size="12.00">U</text>
</g>
<!-- RiskManagementContext -->
<g id="node6" class="node">
<title>RiskManagementContext</title>
<polygon fill="none" stroke="black" stroke-width="2" points="799.89,-350.67 797.56,-353.49 794.77,-356.26 791.54,-358.98 787.87,-361.63 783.78,-364.2 779.28,-366.69 774.38,-369.07 769.09,-371.36 763.44,-373.52 757.45,-375.57 751.11,-377.48 744.46,-379.26 737.52,-380.89 730.3,-382.38 722.82,-383.72 715.1,-384.9 707.17,-385.93 699.04,-386.79 690.74,-387.5 682.28,-388.05 673.7,-388.44 665.01,-388.67 656.23,-388.75 647.39,-388.67 638.51,-388.45 629.61,-388.09 620.72,-387.59 611.85,-386.95 603.03,-386.18 594.29,-385.3 585.64,-384.29 577.1,-383.18 568.7,-381.97 560.46,-380.66 552.4,-379.27 544.54,-377.79 536.9,-376.24 529.5,-374.62 522.36,-372.95 515.5,-371.21 508.93,-369.44 502.67,-367.62 496.74,-365.76 491.16,-363.88 485.94,-361.97 481.1,-360.04 476.64,-358.1 472.59,-356.14 468.95,-354.18 465.74,-352.21 462.96,-350.24 460.62,-348.27 458.74,-346.31 457.31,-344.36 456.35,-342.41 455.85,-340.47 455.83,-338.54 456.28,-336.63 457.21,-334.73 458.61,-332.84 460.48,-330.98 462.81,-329.12 465.62,-327.29 468.87,-325.48 472.59,-323.69 476.74,-321.93 481.32,-320.19 486.33,-318.47 491.74,-316.79 497.55,-315.14 503.74,-313.53 510.29,-311.95 517.18,-310.42 524.4,-308.93 531.93,-307.49 539.75,-306.11 547.82,-304.78 556.14,-303.52 564.68,-302.33 573.41,-301.21 582.31,-300.18 591.36,-299.22 600.52,-298.36 609.76,-297.59 619.08,-296.93 628.42,-296.37 637.78,-295.93 647.11,-295.6 656.4,-295.4 665.62,-295.32 674.73,-295.38 683.71,-295.57 692.54,-295.89 701.19,-296.36 709.63,-296.97 717.84,-297.73 725.8,-298.63 733.48,-299.68 740.85,-300.87 747.91,-302.21 754.62,-303.69 760.98,-305.31 766.95,-307.06 772.54,-308.94 777.71,-310.95 782.45,-313.08 786.76,-315.33 790.62,-317.68 794.03,-320.12 796.96,-322.66 799.43,-325.28 801.41,-327.97 802.92,-330.71 803.93,-333.51 804.47,-336.34 804.51,-339.2 804.07,-342.08 803.15,-344.95 801.76,-347.82 799.89,-350.67"/>
<text text-anchor="middle" x="629.6" y="-337.23" font-family="sans-serif" font-size="16.00">RiskManagementContext</text>
</g>
<!-- RiskManagementContext&#45;&gt;PolicyManagementContext -->
<g id="edge7" class="edge">
<title>RiskManagementContext&#45;&gt;PolicyManagementContext</title>
<path fill="none" stroke="black" stroke-width="2" d="M637.85,-295.82C641.35,-277.03 645.42,-255.24 648.86,-236.76"/>
<text text-anchor="middle" x="685.6" y="-264.57" font-family="sans-serif" font-size="12.00">Shared Kernel</text>
</g>
</g>
</svg>
