<svg width="2000px" height="1065px"
 viewBox="0.00 0.00 1006.83 535.52" xmlns="http://www.w3.org/2000/svg" xmlns:xlink="http://www.w3.org/1999/xlink">
<g id="graph0" class="graph" transform="scale(1.0 1.0) rotate(0) translate(4 531.52)">
<title>ContextMapGraph</title>
<polygon fill="white" stroke="transparent" points="-4,4 -4,-531.52 1002.83,-531.52 1002.83,4 -4,4"/>
<!-- CustomerManagementContext -->
<g id="node1" class="node">
<title>CustomerManagementContext</title>
<polygon fill="none" stroke="black" stroke-width="2" points="74.6,-363.73 65.38,-361.64 56.63,-359.49 48.41,-357.27 40.73,-355.01 33.63,-352.7 27.15,-350.36 21.31,-347.99 16.14,-345.6 11.65,-343.2 7.88,-340.8 4.83,-338.41 2.52,-336.03 0.95,-333.67 0.14,-331.34 0.08,-329.04 0.77,-326.78 2.22,-324.56 4.4,-322.4 7.32,-320.29 10.94,-318.24 15.26,-316.25 20.26,-314.33 25.91,-312.48 32.18,-310.71 39.04,-309.01 46.47,-307.39 54.42,-305.85 62.87,-304.39 71.78,-303.01 81.11,-301.72 90.81,-300.52 100.85,-299.39 111.19,-298.36 121.79,-297.41 132.6,-296.55 143.59,-295.78 154.71,-295.09 165.92,-294.49 177.19,-293.98 188.48,-293.56 199.75,-293.22 210.97,-292.98 222.09,-292.82 233.1,-292.74 243.96,-292.76 254.64,-292.86 265.11,-293.06 275.36,-293.34 285.35,-293.71 295.07,-294.17 304.5,-294.72 313.63,-295.37 322.43,-296.1 330.9,-296.92 339.02,-297.83 346.79,-298.84 354.19,-299.93 361.23,-301.12 367.89,-302.39 374.17,-303.75 380.07,-305.2 385.58,-306.74 390.7,-308.36 395.44,-310.06 399.79,-311.85 403.75,-313.71 407.31,-315.64 410.49,-317.65 413.27,-319.72 415.67,-321.85 417.67,-324.05 419.27,-326.29 420.48,-328.58 421.3,-330.92 421.71,-333.28 421.72,-335.68 421.33,-338.09 420.53,-340.52 419.31,-342.96 417.68,-345.39 415.63,-347.81 413.16,-350.21 410.26,-352.59 406.93,-354.92 403.17,-357.22 398.97,-359.46 394.34,-361.63 389.27,-363.74 383.76,-365.76 377.81,-367.7 371.43,-369.54 364.62,-371.28 357.38,-372.91 349.72,-374.42 341.66,-375.8 333.2,-377.06 324.35,-378.18 315.13,-379.16 305.56,-380 295.65,-380.68 285.43,-381.22 274.92,-381.6 264.15,-381.83 253.14,-381.9 241.93,-381.82 230.55,-381.58 219.02,-381.19 207.4,-380.64 195.7,-379.94 183.99,-379.1 172.28,-378.11 160.63,-376.99 149.08,-375.73 137.67,-374.35 126.45,-372.84 115.45,-371.22 104.72,-369.49 94.31,-367.66 84.25,-365.73 74.6,-363.73"/>
<text text-anchor="middle" x="226.92" y="-330.43" font-family="sans-serif" font-size="16.00">CustomerManagementContext</text>
</g>
<!-- CustomerSelfServiceContext -->
<g id="node2" class="node">
<title>CustomerSelfServiceContext</title>
<polygon fill="none" stroke="black" stroke-width="2" points="185.02,-148.52 197.47,-147.86 209.97,-147.33 222.45,-146.92 234.87,-146.64 247.18,-146.49 259.33,-146.47 271.28,-146.58 282.98,-146.82 294.4,-147.2 305.48,-147.7 316.2,-148.34 326.51,-149.11 336.39,-150 345.81,-151.02 354.75,-152.16 363.17,-153.42 371.06,-154.8 378.41,-156.29 385.19,-157.88 391.41,-159.58 397.05,-161.37 402.11,-163.25 406.59,-165.22 410.48,-167.27 413.8,-169.39 416.55,-171.57 418.74,-173.81 420.38,-176.1 421.47,-178.43 422.05,-180.8 422.11,-183.19 421.68,-185.61 420.77,-188.03 419.41,-190.46 417.61,-192.89 415.38,-195.3 412.76,-197.7 409.75,-200.06 406.38,-202.4 402.66,-204.69 398.6,-206.94 394.24,-209.13 389.57,-211.27 384.62,-213.33 379.41,-215.33 373.93,-217.24 368.21,-219.08 362.25,-220.83 356.06,-222.48 349.66,-224.05 343.04,-225.51 336.22,-226.87 329.21,-228.13 322,-229.28 314.61,-230.32 307.03,-231.25 299.27,-232.06 291.35,-232.77 283.25,-233.36 274.99,-233.83 266.57,-234.19 258.01,-234.44 249.3,-234.57 240.45,-234.59 231.48,-234.5 222.4,-234.3 213.21,-233.99 203.94,-233.57 194.59,-233.04 185.19,-232.41 175.75,-231.68 166.29,-230.85 156.84,-229.93 147.42,-228.91 138.05,-227.8 128.77,-226.6 119.6,-225.31 110.58,-223.95 101.73,-222.5 93.08,-220.98 84.68,-219.39 76.55,-217.73 68.74,-216.01 61.27,-214.22 54.17,-212.38 47.5,-210.48 41.27,-208.54 35.53,-206.55 30.3,-204.52 25.62,-202.45 21.52,-200.35 18.02,-198.22 15.16,-196.07 12.95,-193.9 11.41,-191.72 10.56,-189.53 10.43,-187.33 11.01,-185.14 12.32,-182.96 14.36,-180.78 17.13,-178.63 20.64,-176.5 24.88,-174.4 29.82,-172.33 35.47,-170.31 41.81,-168.33 48.81,-166.4 56.45,-164.53 64.7,-162.72 73.53,-160.98 82.91,-159.32 92.79,-157.73 103.15,-156.23 113.93,-154.83 125.1,-153.51 136.6,-152.29 148.4,-151.18 160.43,-150.18 172.66,-149.29 185.02,-148.52"/>
<text text-anchor="middle" x="226.92" y="-187.6" font-family="sans-serif" font-size="16.00">CustomerSelfServiceContext</text>
</g>
<!-- CustomerManagementContext&#45;&gt;CustomerSelfServiceContext -->
<g id="edge1" class="edge">
<title>CustomerManagementContext&#45;&gt;CustomerSelfServiceContext</title>
<path fill="none" stroke="black" stroke-width="2" d="M226.92,-292.49C226.92,-274.3 226.92,-252.86 226.92,-234.51"/>
<text text-anchor="middle" x="242.42" y="-257.76" font-family="sans-serif" font-size="12.00"> &#160;&#160;&#160;&#160;&#160;&#160;&#160;</text>
<polygon fill="white" stroke="transparent" points="219.92,-225.51 219.92,-242.51 233.92,-242.51 233.92,-225.51 219.92,-225.51"/>
<text text-anchor="start" x="221.92" y="-230.91" font-family="sans-serif" font-size="12.00">D</text>
<polygon fill="white" stroke="transparent" points="219.92,-283.49 219.92,-300.49 233.92,-300.49 233.92,-283.49 219.92,-283.49"/>
<text text-anchor="start" x="221.92" y="-288.89" font-family="sans-serif" font-size="12.00">U</text>
</g>
<!-- PolicyManagementContext -->
<g id="node3" class="node">
<title>PolicyManagementContext</title>
<polygon fill="none" stroke="black" stroke-width="2" points="709.42,-147.99 721.37,-148.33 733.17,-148.78 744.79,-149.36 756.17,-150.04 767.27,-150.84 778.05,-151.75 788.45,-152.77 798.44,-153.9 808,-155.12 817.07,-156.44 825.62,-157.86 833.64,-159.37 841.09,-160.96 847.96,-162.64 854.21,-164.39 859.85,-166.22 864.85,-168.11 869.21,-170.07 872.92,-172.08 875.98,-174.15 878.39,-176.26 880.16,-178.42 881.3,-180.6 881.8,-182.82 881.7,-185.06 881,-187.32 879.72,-189.58 877.88,-191.86 875.5,-194.13 872.61,-196.39 869.23,-198.64 865.39,-200.87 861.11,-203.07 856.41,-205.25 851.34,-207.38 845.91,-209.48 840.15,-211.52 834.1,-213.51 827.76,-215.44 821.18,-217.31 814.38,-219.1 807.37,-220.83 800.19,-222.47 792.85,-224.03 785.37,-225.5 777.78,-226.88 770.09,-228.16 762.31,-229.34 754.47,-230.42 746.56,-231.4 738.62,-232.26 730.64,-233.02 722.63,-233.66 714.61,-234.18 706.58,-234.59 698.55,-234.88 690.52,-235.06 682.51,-235.11 674.5,-235.04 666.52,-234.86 658.56,-234.55 650.64,-234.13 642.75,-233.59 634.9,-232.93 627.1,-232.16 619.37,-231.27 611.69,-230.28 604.1,-229.17 596.59,-227.96 589.18,-226.66 581.88,-225.25 574.71,-223.75 567.68,-222.16 560.82,-220.48 554.14,-218.72 547.65,-216.89 541.39,-214.98 535.37,-213.01 529.62,-210.98 524.16,-208.9 519.02,-206.76 514.22,-204.58 509.78,-202.37 505.74,-200.12 502.12,-197.85 498.94,-195.56 496.22,-193.26 494,-190.96 492.3,-188.65 491.13,-186.36 490.52,-184.07 490.48,-181.81 491.03,-179.58 492.19,-177.37 493.96,-175.21 496.36,-173.09 499.38,-171.02 503.04,-169.01 507.34,-167.07 512.26,-165.19 517.8,-163.38 523.96,-161.65 530.72,-160 538.06,-158.45 545.96,-156.98 554.4,-155.61 563.35,-154.34 572.79,-153.17 582.67,-152.1 592.97,-151.15 603.65,-150.31 614.66,-149.58 625.97,-148.96 637.53,-148.47 649.28,-148.09 661.2,-147.83 673.22,-147.69 685.29,-147.67 697.38,-147.77 709.42,-147.99"/>
<text text-anchor="middle" x="684.92" y="-187.6" font-family="sans-serif" font-size="16.00">PolicyManagementContext</text>
</g>
<!-- CustomerManagementContext&#45;&gt;PolicyManagementContext -->
<g id="edge2" class="edge">
<title>CustomerManagementContext&#45;&gt;PolicyManagementContext</title>
<path fill="none" stroke="black" stroke-width="2" d="M341.31,-298.05C414.31,-275.61 508.23,-246.73 579.43,-224.83"/>
<text text-anchor="middle" x="499.42" y="-257.76" font-family="sans-serif" font-size="12.00"> &#160;&#160;&#160;&#160;&#160;&#160;&#160;</text>
<polygon fill="white" stroke="transparent" points="572.43,-215.83 572.43,-232.83 586.43,-232.83 586.43,-215.83 572.43,-215.83"/>
<text text-anchor="start" x="574.43" y="-221.23" font-family="sans-serif" font-size="12.00">D</text>
<polygon fill="white" stroke="transparent" points="334.31,-289.05 334.31,-306.05 348.31,-306.05 348.31,-289.05 334.31,-289.05"/>
<text text-anchor="start" x="336.31" y="-294.45" font-family="sans-serif" font-size="12.00">U</text>
</g>
<!-- DebtCollection -->
<g id="node4" class="node">
<title>DebtCollection</title>
<polygon fill="none" stroke="black" stroke-width="2" points="909.78,-26.41 913.66,-28.88 917.24,-31.39 920.51,-33.94 923.45,-36.52 926.05,-39.11 928.3,-41.71 930.19,-44.3 931.7,-46.89 932.84,-49.45 933.58,-51.98 933.94,-54.48 933.9,-56.93 933.47,-59.32 932.64,-61.66 931.42,-63.93 929.82,-66.12 927.83,-68.24 925.46,-70.28 922.73,-72.23 919.64,-74.09 916.21,-75.86 912.45,-77.53 908.38,-79.1 904,-80.57 899.35,-81.94 894.43,-83.2 889.26,-84.37 883.87,-85.43 878.28,-86.39 872.51,-87.25 866.58,-88.01 860.51,-88.66 854.33,-89.22 848.05,-89.69 841.7,-90.05 835.31,-90.33 828.89,-90.51 822.47,-90.6 816.06,-90.6 809.69,-90.52 803.38,-90.34 797.15,-90.09 791.02,-89.75 784.99,-89.33 779.1,-88.83 773.35,-88.26 767.76,-87.6 762.34,-86.86 757.11,-86.05 752.08,-85.17 747.25,-84.2 742.64,-83.16 738.25,-82.05 734.1,-80.86 730.18,-79.6 726.5,-78.27 723.07,-76.86 719.89,-75.38 716.96,-73.82 714.29,-72.2 711.87,-70.51 709.71,-68.75 707.81,-66.92 706.16,-65.03 704.76,-63.08 703.62,-61.07 702.74,-59.01 702.1,-56.89 701.71,-54.72 701.57,-52.51 701.68,-50.26 702.03,-47.98 702.62,-45.66 703.44,-43.33 704.51,-40.97 705.8,-38.61 707.33,-36.25 709.09,-33.89 711.07,-31.54 713.28,-29.22 715.71,-26.92 718.37,-24.67 721.23,-22.45 724.31,-20.3 727.61,-18.21 731.11,-16.19 734.81,-14.25 738.71,-12.4 742.81,-10.65 747.1,-9 751.57,-7.47 756.22,-6.06 761.04,-4.78 766.02,-3.63 771.16,-2.62 776.44,-1.76 781.86,-1.05 787.41,-0.49 793.07,-0.09 798.83,0.14 804.68,0.22 810.6,0.13 816.58,-0.13 822.6,-0.55 828.65,-1.13 834.71,-1.87 840.76,-2.77 846.78,-3.83 852.76,-5.04 858.67,-6.39 864.5,-7.88 870.22,-9.51 875.82,-11.26 881.27,-13.14 886.55,-15.12 891.65,-17.21 896.54,-19.39 901.2,-21.66 905.62,-24 909.78,-26.41"/>
<text text-anchor="middle" x="810.92" y="-44.92" font-family="sans-serif" font-size="16.00">DebtCollection</text>
</g>
<!-- PolicyManagementContext&#45;&gt;DebtCollection -->
<g id="edge3" class="edge">
<title>PolicyManagementContext&#45;&gt;DebtCollection</title>
<path fill="none" stroke="black" stroke-width="2" d="M722.72,-148.19C739.54,-129.41 759.23,-107.43 775.73,-89.01"/>
<text text-anchor="middle" x="792.92" y="-118.83" font-family="sans-serif" font-size="12.00">Shared Kernel</text>
</g>
<!-- PrintingContext -->
<g id="node5" class="node">
<title>PrintingContext</title>
<polygon fill="none" stroke="black" stroke-width="2" points="760.95,-469.39 762.69,-466.58 764.74,-463.82 767.1,-461.11 769.76,-458.47 772.7,-455.91 775.93,-453.44 779.42,-451.06 783.17,-448.8 787.17,-446.65 791.41,-444.63 795.86,-442.74 800.53,-440.99 805.4,-439.38 810.45,-437.92 815.67,-436.61 821.05,-435.46 826.57,-434.47 832.22,-433.64 837.98,-432.97 843.83,-432.46 849.77,-432.1 855.78,-431.91 861.83,-431.87 867.93,-431.98 874.04,-432.24 880.16,-432.65 886.27,-433.19 892.35,-433.87 898.39,-434.67 904.38,-435.6 910.3,-436.64 916.13,-437.79 921.87,-439.05 927.49,-440.39 932.98,-441.83 938.33,-443.34 943.52,-444.93 948.55,-446.58 953.4,-448.3 958.05,-450.06 962.49,-451.87 966.72,-453.72 970.72,-455.61 974.48,-457.52 977.98,-459.46 981.23,-461.41 984.21,-463.38 986.91,-465.36 989.33,-467.34 991.45,-469.33 993.28,-471.31 994.79,-473.29 996,-475.27 996.89,-477.23 997.46,-479.19 997.71,-481.14 997.63,-483.07 997.23,-484.98 996.5,-486.88 995.45,-488.77 994.07,-490.63 992.37,-492.47 990.35,-494.3 988.01,-496.1 985.37,-497.87 982.42,-499.63 979.18,-501.35 975.64,-503.04 971.83,-504.71 967.75,-506.33 963.4,-507.92 958.81,-509.48 953.98,-510.98 948.93,-512.44 943.67,-513.85 938.22,-515.2 932.58,-516.49 926.79,-517.72 920.84,-518.88 914.77,-519.96 908.58,-520.96 902.3,-521.87 895.94,-522.7 889.53,-523.42 883.07,-524.05 876.6,-524.56 870.13,-524.97 863.67,-525.25 857.26,-525.42 850.9,-525.45 844.62,-525.36 838.43,-525.13 832.36,-524.76 826.42,-524.26 820.63,-523.61 815,-522.81 809.56,-521.87 804.31,-520.79 799.28,-519.56 794.48,-518.19 789.92,-516.68 785.62,-515.03 781.58,-513.25 777.82,-511.33 774.35,-509.29 771.18,-507.14 768.32,-504.87 765.76,-502.5 763.53,-500.03 761.63,-497.48 760.06,-494.84 758.81,-492.14 757.91,-489.38 757.34,-486.58 757.11,-483.73 757.21,-480.87 757.65,-477.99 758.42,-475.11 759.52,-472.24 760.95,-469.39"/>
<text text-anchor="middle" x="877.92" y="-476" font-family="sans-serif" font-size="16.00">PrintingContext</text>
</g>
<!-- PrintingContext&#45;&gt;CustomerManagementContext -->
<g id="edge6" class="edge">
<title>PrintingContext&#45;&gt;CustomerManagementContext</title>
<path fill="none" stroke="black" stroke-width="2" d="M772.96,-455.66C665.52,-431.96 497.55,-394.91 376.27,-368.17"/>
<text text-anchor="middle" x="588.42" y="-404.49" font-family="sans-serif" font-size="12.00"> &#160;&#160;&#160;&#160;&#160;&#160;&#160;</text>
<polygon fill="white" stroke="transparent" points="369.27,-359.17 369.27,-376.17 383.27,-376.17 383.27,-359.17 369.27,-359.17"/>
<text text-anchor="start" x="371.27" y="-364.57" font-family="sans-serif" font-size="12.00">D</text>
<polygon fill="white" stroke="transparent" points="765.96,-446.66 765.96,-463.66 779.96,-463.66 779.96,-446.66 765.96,-446.66"/>
<text text-anchor="start" x="767.96" y="-452.06" font-family="sans-serif" font-size="12.00">U</text>
</g>
<!-- PrintingContext&#45;&gt;PolicyManagementContext -->
<g id="edge4" class="edge">
<title>PrintingContext&#45;&gt;PolicyManagementContext</title>
<path fill="none" stroke="black" stroke-width="2" d="M882.48,-432.5C884.22,-390.52 880.57,-328.76 850.92,-285.36 833.59,-260 806.94,-240.8 780.03,-226.62"/>
<text text-anchor="middle" x="896.42" y="-331.13" font-family="sans-serif" font-size="12.00"> &#160;&#160;&#160;&#160;&#160;&#160;&#160;</text>
<polygon fill="white" stroke="transparent" points="773.03,-217.62 773.03,-234.62 787.03,-234.62 787.03,-217.62 773.03,-217.62"/>
<text text-anchor="start" x="775.03" y="-223.02" font-family="sans-serif" font-size="12.00">D</text>
<polygon fill="white" stroke="transparent" points="875.48,-423.5 875.48,-440.5 889.48,-440.5 889.48,-423.5 875.48,-423.5"/>
<text text-anchor="start" x="877.48" y="-428.9" font-family="sans-serif" font-size="12.00">U</text>
</g>
<!-- PrintingContext&#45;&gt;DebtCollection -->
<g id="edge5" class="edge">
<title>PrintingContext&#45;&gt;DebtCollection</title>
<path fill="none" stroke="black" stroke-width="2" d="M899.52,-434.58C906.16,-418.73 912.6,-400.47 915.92,-383.09 935.79,-279.2 935.45,-242.37 890.92,-146.43 881.38,-125.88 866.39,-106.06 851.95,-89.78"/>
<text text-anchor="middle" x="943.42" y="-257.76" font-family="sans-serif" font-size="12.00"> &#160;&#160;&#160;&#160;&#160;&#160;&#160;</text>
<polygon fill="white" stroke="transparent" points="844.95,-80.78 844.95,-97.78 858.95,-97.78 858.95,-80.78 844.95,-80.78"/>
<text text-anchor="start" x="846.95" y="-86.18" font-family="sans-serif" font-size="12.00">D</text>
<polygon fill="white" stroke="transparent" points="892.52,-425.58 892.52,-442.58 906.52,-442.58 906.52,-425.58 892.52,-425.58"/>
<text text-anchor="start" x="894.52" y="-430.98" font-family="sans-serif" font-size="12.00">U</text>
</g>
<!-- RiskManagementContext -->
<g id="node6" class="node">
<title>RiskManagementContext</title>
<polygon fill="none" stroke="black" stroke-width="2" points="499.57,-352.99 494.55,-350.42 489.99,-347.81 485.92,-345.18 482.35,-342.54 479.3,-339.89 476.79,-337.25 474.83,-334.62 473.42,-332.01 472.59,-329.44 472.33,-326.91 472.65,-324.43 473.55,-322.01 475.03,-319.65 477.08,-317.37 479.71,-315.17 482.9,-313.05 486.64,-311.02 490.92,-309.08 495.73,-307.24 501.04,-305.51 506.84,-303.88 513.11,-302.35 519.82,-300.93 526.95,-299.62 534.47,-298.42 542.35,-297.33 550.57,-296.35 559.09,-295.48 567.89,-294.72 576.92,-294.06 586.16,-293.51 595.58,-293.07 605.13,-292.72 614.79,-292.47 624.53,-292.32 634.3,-292.26 644.08,-292.3 653.84,-292.42 663.54,-292.63 673.15,-292.93 682.64,-293.31 691.99,-293.77 701.17,-294.3 710.14,-294.92 718.89,-295.61 727.4,-296.37 735.64,-297.21 743.58,-298.12 751.22,-299.09 758.54,-300.14 765.52,-301.25 772.14,-302.43 778.4,-303.68 784.29,-304.99 789.79,-306.37 794.89,-307.82 799.6,-309.32 803.91,-310.89 807.81,-312.53 811.3,-314.22 814.38,-315.97 817.04,-317.79 819.3,-319.65 821.15,-321.58 822.58,-323.55 823.62,-325.58 824.25,-327.65 824.49,-329.77 824.33,-331.93 823.78,-334.12 822.84,-336.34 821.53,-338.59 819.84,-340.85 817.79,-343.14 815.37,-345.43 812.59,-347.72 809.47,-350.01 805.99,-352.28 802.18,-354.54 798.04,-356.76 793.57,-358.95 788.78,-361.09 783.68,-363.19 778.27,-365.22 772.57,-367.18 766.57,-369.06 760.3,-370.85 753.75,-372.55 746.95,-374.15 739.89,-375.63 732.6,-377 725.07,-378.24 717.33,-379.34 709.39,-380.31 701.27,-381.14 692.97,-381.81 684.52,-382.34 675.93,-382.7 667.23,-382.91 658.42,-382.95 649.55,-382.83 640.61,-382.54 631.64,-382.09 622.67,-381.47 613.71,-380.7 604.79,-379.76 595.94,-378.67 587.18,-377.42 578.55,-376.03 570.06,-374.49 561.76,-372.82 553.65,-371.02 545.78,-369.1 538.18,-367.07 530.86,-364.93 523.86,-362.69 517.21,-360.37 510.93,-357.97 505.04,-355.51 499.57,-352.99"/>
<text text-anchor="middle" x="656.92" y="-330.43" font-family="sans-serif" font-size="16.00">RiskManagementContext</text>
</g>
<!-- RiskManagementContext&#45;&gt;PolicyManagementContext -->
<g id="edge7" class="edge">
<title>RiskManagementContext&#45;&gt;PolicyManagementContext</title>
<path fill="none" stroke="black" stroke-width="2" d="M665.02,-292.49C668.57,-274.62 672.75,-253.63 676.35,-235.49"/>
<text text-anchor="middle" x="713.92" y="-257.76" font-family="sans-serif" font-size="12.00">Shared Kernel</text>
</g>
</g>
</svg>
