<svg width="2000px" height="1071px"
 viewBox="0.00 0.00 1008.09 539.95" xmlns="http://www.w3.org/2000/svg" xmlns:xlink="http://www.w3.org/1999/xlink">
<g id="graph0" class="graph" transform="scale(1.0 1.0) rotate(0) translate(4 535.95)">
<title>ContextMapGraph</title>
<polygon fill="white" stroke="transparent" points="-4,4 -4,-535.95 1004.09,-535.95 1004.09,4 -4,4"/>
<!-- CustomerManagementContext -->
<g id="node1" class="node">
<title>CustomerManagementContext</title>
<polygon fill="none" stroke="black" stroke-width="2" points="299.81,-295.66 312.49,-296.63 324.89,-297.72 336.96,-298.9 348.65,-300.19 359.92,-301.57 370.71,-303.04 380.98,-304.6 390.7,-306.24 399.83,-307.96 408.32,-309.74 416.16,-311.59 423.31,-313.5 429.76,-315.47 435.47,-317.48 440.44,-319.54 444.65,-321.63 448.1,-323.76 450.79,-325.91 452.7,-328.09 453.85,-330.28 454.25,-332.48 453.9,-334.69 452.82,-336.89 451.02,-339.09 448.54,-341.28 445.38,-343.46 441.58,-345.61 437.17,-347.74 432.17,-349.84 426.61,-351.9 420.54,-353.93 413.99,-355.91 406.98,-357.84 399.56,-359.72 391.76,-361.54 383.61,-363.3 375.16,-364.99 366.44,-366.62 357.49,-368.17 348.33,-369.65 339,-371.04 329.53,-372.35 319.95,-373.58 310.29,-374.71 300.57,-375.75 290.83,-376.69 281.08,-377.54 271.34,-378.28 261.63,-378.91 251.98,-379.44 242.39,-379.87 232.88,-380.18 223.47,-380.37 214.16,-380.46 204.96,-380.43 195.89,-380.28 186.94,-380.02 178.14,-379.64 169.48,-379.14 160.96,-378.53 152.6,-377.8 144.4,-376.96 136.37,-376 128.5,-374.94 120.81,-373.76 113.3,-372.47 105.98,-371.09 98.86,-369.59 91.95,-368.01 85.25,-366.32 78.77,-364.55 72.54,-362.69 66.56,-360.76 60.84,-358.74 55.41,-356.66 50.28,-354.51 45.46,-352.31 40.98,-350.05 36.86,-347.75 33.11,-345.41 29.76,-343.04 26.83,-340.65 24.34,-338.23 22.3,-335.81 20.76,-333.39 19.71,-330.98 19.19,-328.58 19.21,-326.2 19.79,-323.84 20.95,-321.53 22.7,-319.26 25.05,-317.04 28.03,-314.87 31.62,-312.78 35.85,-310.75 40.71,-308.8 46.2,-306.94 52.32,-305.16 59.07,-303.49 66.43,-301.91 74.4,-300.43 82.95,-299.07 92.07,-297.82 101.73,-296.69 111.9,-295.67 122.57,-294.78 133.69,-294.02 145.22,-293.38 157.14,-292.87 169.39,-292.49 181.93,-292.24 194.72,-292.11 207.71,-292.12 220.85,-292.26 234.08,-292.52 247.35,-292.9 260.62,-293.41 273.82,-294.05 286.9,-294.79 299.81,-295.66"/>
<text text-anchor="middle" x="227.08" y="-333.11" font-family="sans-serif" font-size="16.00">CustomerManagementContext</text>
</g>
<!-- CustomerSelfServiceContext -->
<g id="node2" class="node">
<title>CustomerSelfServiceContext</title>
<polygon fill="none" stroke="black" stroke-width="2" points="32.16,-188.04 33.23,-185.17 34.83,-182.33 36.96,-179.53 39.61,-176.78 42.77,-174.1 46.44,-171.49 50.61,-168.96 55.25,-166.53 60.37,-164.2 65.95,-161.98 71.96,-159.88 78.4,-157.91 85.25,-156.07 92.49,-154.37 100.1,-152.81 108.06,-151.4 116.34,-150.13 124.92,-149.02 133.79,-148.06 142.91,-147.26 152.26,-146.61 161.82,-146.11 171.55,-145.76 181.44,-145.56 191.45,-145.51 201.56,-145.59 211.74,-145.82 221.96,-146.18 232.2,-146.67 242.42,-147.28 252.6,-148.01 262.71,-148.85 272.73,-149.8 282.61,-150.85 292.35,-151.99 301.91,-153.21 311.26,-154.52 320.38,-155.9 329.24,-157.35 337.83,-158.86 346.11,-160.42 354.07,-162.04 361.67,-163.7 368.91,-165.4 375.76,-167.14 382.2,-168.91 388.22,-170.71 393.79,-172.52 398.91,-174.36 403.56,-176.22 407.72,-178.09 411.39,-179.98 414.55,-181.87 417.2,-183.77 419.33,-185.68 420.93,-187.59 422,-189.51 422.54,-191.42 422.54,-193.34 422,-195.26 420.93,-197.17 419.33,-199.09 417.2,-200.99 414.55,-202.89 411.39,-204.79 407.72,-206.67 403.56,-208.54 398.91,-210.4 393.79,-212.24 388.22,-214.06 382.2,-215.85 375.76,-217.62 368.91,-219.36 361.67,-221.06 354.07,-222.72 346.11,-224.34 337.83,-225.91 329.24,-227.42 320.38,-228.86 311.26,-230.24 301.91,-231.55 292.35,-232.78 282.61,-233.92 272.73,-234.96 262.71,-235.91 252.6,-236.75 242.42,-237.48 232.2,-238.09 221.96,-238.58 211.74,-238.94 201.56,-239.17 191.45,-239.26 181.44,-239.2 171.55,-239 161.82,-238.66 152.26,-238.16 142.91,-237.51 133.79,-236.7 124.92,-235.74 116.34,-234.63 108.06,-233.37 100.1,-231.95 92.49,-230.39 85.25,-228.69 78.4,-226.85 71.96,-224.88 65.95,-222.78 60.37,-220.56 55.25,-218.24 50.61,-215.8 46.44,-213.28 42.77,-210.67 39.61,-207.98 36.96,-205.23 34.83,-202.43 33.23,-199.59 32.16,-196.72 31.63,-193.83 31.63,-190.93 32.16,-188.04"/>
<text text-anchor="middle" x="227.08" y="-188.58" font-family="sans-serif" font-size="16.00">CustomerSelfServiceContext</text>
</g>
<!-- CustomerManagementContext&#45;&gt;CustomerSelfServiceContext -->
<g id="edge1" class="edge">
<title>CustomerManagementContext&#45;&gt;CustomerSelfServiceContext</title>
<path fill="none" stroke="black" stroke-width="2" d="M227.08,-292.37C227.08,-275.34 227.08,-255.81 227.08,-238.62"/>
<text text-anchor="middle" x="242.58" y="-260.47" font-family="sans-serif" font-size="12.00"> &#160;&#160;&#160;&#160;&#160;&#160;&#160;</text>
<polygon fill="white" stroke="transparent" points="220.08,-229.62 220.08,-246.62 234.08,-246.62 234.08,-229.62 220.08,-229.62"/>
<text text-anchor="start" x="222.08" y="-235.02" font-family="sans-serif" font-size="12.00">D</text>
<polygon fill="white" stroke="transparent" points="220.08,-283.37 220.08,-300.37 234.08,-300.37 234.08,-283.37 220.08,-283.37"/>
<text text-anchor="start" x="222.08" y="-288.77" font-family="sans-serif" font-size="12.00">U</text>
</g>
<!-- PolicyManagementContext -->
<g id="node3" class="node">
<title>PolicyManagementContext</title>
<polygon fill="none" stroke="black" stroke-width="2" points="748.12,-232.55 737.14,-233.73 726.03,-234.78 714.83,-235.71 703.58,-236.51 692.33,-237.19 681.12,-237.73 670,-238.13 659,-238.39 648.16,-238.51 637.51,-238.49 627.11,-238.32 616.97,-238.01 607.12,-237.56 597.61,-236.96 588.44,-236.22 579.65,-235.35 571.26,-234.34 563.29,-233.2 555.74,-231.92 548.64,-230.53 542,-229.02 535.82,-227.39 530.11,-225.65 524.87,-223.82 520.11,-221.89 515.82,-219.87 512.01,-217.77 508.66,-215.6 505.78,-213.37 503.36,-211.07 501.38,-208.73 499.84,-206.35 498.74,-203.94 498.05,-201.51 497.77,-199.06 497.9,-196.6 498.4,-194.14 499.28,-191.7 500.53,-189.27 502.13,-186.87 504.07,-184.5 506.35,-182.16 508.95,-179.88 511.87,-177.65 515.09,-175.47 518.61,-173.36 522.43,-171.32 526.53,-169.36 530.92,-167.47 535.59,-165.67 540.52,-163.96 545.73,-162.34 551.2,-160.81 556.94,-159.38 562.94,-158.04 569.19,-156.81 575.7,-155.68 582.46,-154.65 589.46,-153.73 596.71,-152.91 604.19,-152.2 611.91,-151.6 619.84,-151.09 628,-150.7 636.36,-150.4 644.91,-150.22 653.64,-150.13 662.54,-150.14 671.6,-150.26 680.79,-150.47 690.09,-150.79 699.49,-151.19 708.96,-151.7 718.48,-152.29 728.01,-152.98 737.54,-153.76 747.04,-154.62 756.47,-155.57 765.8,-156.61 775,-157.73 784.03,-158.93 792.87,-160.2 801.47,-161.56 809.8,-162.99 817.83,-164.49 825.51,-166.06 832.82,-167.7 839.72,-169.4 846.17,-171.16 852.15,-172.99 857.62,-174.87 862.55,-176.8 866.92,-178.78 870.7,-180.81 873.87,-182.88 876.4,-184.99 878.29,-187.13 879.51,-189.3 880.04,-191.49 879.9,-193.7 879.06,-195.93 877.52,-198.16 875.3,-200.4 872.38,-202.63 868.79,-204.85 864.52,-207.06 859.6,-209.25 854.04,-211.4 847.87,-213.52 841.1,-215.6 833.78,-217.63 825.91,-219.6 817.55,-221.51 808.72,-223.35 799.46,-225.11 789.81,-226.79 779.81,-228.38 769.49,-229.88 758.92,-231.27 748.12,-232.55"/>
<text text-anchor="middle" x="675.08" y="-188.58" font-family="sans-serif" font-size="16.00">PolicyManagementContext</text>
</g>
<!-- CustomerManagementContext&#45;&gt;PolicyManagementContext -->
<g id="edge2" class="edge">
<title>CustomerManagementContext&#45;&gt;PolicyManagementContext</title>
<path fill="none" stroke="black" stroke-width="2" d="M341.87,-299.39C406.94,-278.69 488.3,-252.81 554.33,-231.8"/>
<text text-anchor="middle" x="480.58" y="-260.47" font-family="sans-serif" font-size="12.00"> &#160;&#160;&#160;&#160;&#160;&#160;&#160;</text>
<polygon fill="white" stroke="transparent" points="547.33,-222.8 547.33,-239.8 561.33,-239.8 561.33,-222.8 547.33,-222.8"/>
<text text-anchor="start" x="549.33" y="-228.2" font-family="sans-serif" font-size="12.00">D</text>
<polygon fill="white" stroke="transparent" points="334.87,-290.39 334.87,-307.39 348.87,-307.39 348.87,-290.39 334.87,-290.39"/>
<text text-anchor="start" x="336.87" y="-295.79" font-family="sans-serif" font-size="12.00">U</text>
</g>
<!-- DebtCollection -->
<g id="node4" class="node">
<title>DebtCollection</title>
<polygon fill="none" stroke="black" stroke-width="2" points="709.63,-74.31 705.1,-72.03 700.85,-69.69 696.9,-67.31 693.27,-64.88 689.97,-62.43 687.02,-59.96 684.44,-57.47 682.22,-54.98 680.4,-52.5 678.97,-50.03 677.93,-47.58 677.3,-45.16 677.08,-42.78 677.27,-40.44 677.87,-38.15 678.87,-35.92 680.28,-33.74 682.08,-31.64 684.28,-29.61 686.85,-27.65 689.78,-25.77 693.08,-23.97 696.71,-22.26 700.67,-20.63 704.94,-19.09 709.49,-17.64 714.32,-16.29 719.4,-15.03 724.71,-13.85 730.23,-12.78 735.94,-11.79 741.81,-10.9 747.82,-10.1 753.94,-9.39 760.17,-8.78 766.47,-8.25 772.81,-7.82 779.19,-7.47 785.57,-7.21 791.94,-7.04 798.27,-6.96 804.55,-6.96 810.76,-7.05 816.87,-7.22 822.88,-7.48 828.77,-7.82 834.52,-8.25 840.11,-8.75 845.55,-9.35 850.8,-10.02 855.88,-10.78 860.75,-11.62 865.43,-12.54 869.89,-13.55 874.14,-14.64 878.17,-15.81 881.97,-17.06 885.54,-18.4 888.88,-19.81 891.99,-21.31 894.85,-22.88 897.49,-24.53 899.88,-26.26 902.04,-28.06 903.96,-29.93 905.64,-31.86 907.08,-33.87 908.29,-35.93 909.27,-38.06 910.01,-40.23 910.52,-42.46 910.79,-44.73 910.83,-47.03 910.64,-49.37 910.22,-51.74 909.57,-54.12 908.69,-56.51 907.58,-58.91 906.24,-61.31 904.67,-63.69 902.88,-66.05 900.85,-68.39 898.59,-70.68 896.11,-72.94 893.4,-75.13 890.46,-77.27 887.3,-79.33 883.91,-81.31 880.3,-83.2 876.48,-85 872.44,-86.69 868.19,-88.26 863.74,-89.72 859.08,-91.06 854.24,-92.25 849.21,-93.32 844,-94.23 838.62,-95 833.09,-95.62 827.42,-96.09 821.61,-96.39 815.68,-96.54 809.66,-96.53 803.54,-96.36 797.35,-96.02 791.11,-95.53 784.84,-94.89 778.55,-94.08 772.27,-93.13 766.01,-92.03 759.79,-90.79 753.65,-89.41 747.6,-87.91 741.66,-86.27 735.86,-84.53 730.21,-82.67 724.74,-80.71 719.48,-78.66 714.43,-76.52 709.63,-74.31"/>
<text text-anchor="middle" x="802.08" y="-44.55" font-family="sans-serif" font-size="16.00">DebtCollection</text>
</g>
<!-- PolicyManagementContext&#45;&gt;DebtCollection -->
<g id="edge3" class="edge">
<title>PolicyManagementContext&#45;&gt;DebtCollection</title>
<path fill="none" stroke="black" stroke-width="2" d="M710.8,-151.44C727.45,-132.81 747.28,-110.64 764.2,-91.72"/>
<text text-anchor="middle" x="784.08" y="-118.09" font-family="sans-serif" font-size="12.00">Shared Kernel</text>
</g>
<!-- PrintingContext -->
<g id="node5" class="node">
<title>PrintingContext</title>
<polygon fill="none" stroke="black" stroke-width="2" points="971.85,-459.78 976.16,-462.19 980.16,-464.65 983.84,-467.14 987.18,-469.67 990.16,-472.22 992.77,-474.78 995,-477.34 996.84,-479.9 998.27,-482.44 999.3,-484.96 999.91,-487.44 1000.1,-489.88 999.88,-492.28 999.23,-494.62 998.17,-496.89 996.69,-499.11 994.8,-501.25 992.5,-503.31 989.82,-505.29 986.75,-507.19 983.32,-508.99 979.52,-510.71 975.39,-512.33 970.93,-513.85 966.17,-515.28 961.12,-516.61 955.81,-517.84 950.25,-518.97 944.46,-520 938.48,-520.94 932.32,-521.77 926,-522.51 919.56,-523.15 913,-523.7 906.37,-524.15 899.68,-524.51 892.95,-524.77 886.21,-524.95 879.48,-525.04 872.78,-525.04 866.13,-524.95 859.56,-524.78 853.08,-524.53 846.71,-524.19 840.47,-523.77 834.37,-523.27 828.43,-522.69 822.67,-522.03 817.1,-521.29 811.72,-520.48 806.56,-519.58 801.61,-518.61 796.9,-517.56 792.41,-516.43 788.18,-515.22 784.18,-513.94 780.45,-512.58 776.96,-511.15 773.74,-509.64 770.77,-508.06 768.07,-506.4 765.63,-504.68 763.46,-502.88 761.54,-501.02 759.89,-499.09 758.5,-497.1 757.38,-495.06 756.51,-492.95 755.89,-490.8 755.54,-488.59 755.43,-486.35 755.58,-484.07 755.98,-481.75 756.62,-479.41 757.52,-477.05 758.66,-474.68 760.04,-472.3 761.66,-469.93 763.52,-467.56 765.62,-465.21 767.96,-462.89 770.53,-460.61 773.33,-458.36 776.36,-456.17 779.62,-454.04 783.11,-451.98 786.82,-450 790.74,-448.1 794.88,-446.3 799.23,-444.6 803.78,-443.01 808.53,-441.54 813.48,-440.2 818.6,-438.99 823.91,-437.92 829.38,-436.99 835.01,-436.21 840.78,-435.58 846.69,-435.1 852.72,-434.79 858.86,-434.64 865.09,-434.65 871.4,-434.82 877.77,-435.16 884.18,-435.66 890.62,-436.32 897.06,-437.14 903.5,-438.11 909.89,-439.23 916.23,-440.5 922.5,-441.91 928.67,-443.46 934.71,-445.13 940.62,-446.93 946.36,-448.83 951.91,-450.85 957.26,-452.96 962.38,-455.16 967.25,-457.43 971.85,-459.78"/>
<text text-anchor="middle" x="870.08" y="-479.54" font-family="sans-serif" font-size="16.00">PrintingContext</text>
</g>
<!-- PrintingContext&#45;&gt;CustomerManagementContext -->
<g id="edge5" class="edge">
<title>PrintingContext&#45;&gt;CustomerManagementContext</title>
<path fill="none" stroke="black" stroke-width="2" d="M771.02,-460.09C660.85,-435.34 482.31,-395.24 360.04,-367.77"/>
<text text-anchor="middle" x="583.58" y="-407.14" font-family="sans-serif" font-size="12.00"> &#160;&#160;&#160;&#160;&#160;&#160;&#160;</text>
<polygon fill="white" stroke="transparent" points="353.04,-358.77 353.04,-375.77 367.04,-375.77 367.04,-358.77 353.04,-358.77"/>
<text text-anchor="start" x="355.04" y="-364.17" font-family="sans-serif" font-size="12.00">D</text>
<polygon fill="white" stroke="transparent" points="764.02,-451.09 764.02,-468.09 778.02,-468.09 778.02,-451.09 764.02,-451.09"/>
<text text-anchor="start" x="766.02" y="-456.49" font-family="sans-serif" font-size="12.00">U</text>
</g>
<!-- PrintingContext&#45;&gt;PolicyManagementContext -->
<g id="edge6" class="edge">
<title>PrintingContext&#45;&gt;PolicyManagementContext</title>
<path fill="none" stroke="black" stroke-width="2" d="M874.71,-434.63C876.35,-392.51 872.5,-331.27 843.08,-288.07 826.03,-263.02 800.04,-243.85 773.56,-229.53"/>
<text text-anchor="middle" x="888.58" y="-333.81" font-family="sans-serif" font-size="12.00"> &#160;&#160;&#160;&#160;&#160;&#160;&#160;</text>
<polygon fill="white" stroke="transparent" points="766.56,-220.53 766.56,-237.53 780.56,-237.53 780.56,-220.53 766.56,-220.53"/>
<text text-anchor="start" x="768.56" y="-225.93" font-family="sans-serif" font-size="12.00">D</text>
<polygon fill="white" stroke="transparent" points="867.71,-425.63 867.71,-442.63 881.71,-442.63 881.71,-425.63 867.71,-425.63"/>
<text text-anchor="start" x="869.71" y="-431.03" font-family="sans-serif" font-size="12.00">U</text>
</g>
<!-- PrintingContext&#45;&gt;DebtCollection -->
<g id="edge4" class="edge">
<title>PrintingContext&#45;&gt;DebtCollection</title>
<path fill="none" stroke="black" stroke-width="2" d="M892.28,-436.23C898.71,-420.57 904.86,-402.74 908.08,-385.74 928.02,-280.59 934.04,-242.81 889.08,-145.69 880.18,-126.47 866.09,-108.37 851.81,-93.17"/>
<text text-anchor="middle" x="938.58" y="-260.47" font-family="sans-serif" font-size="12.00"> &#160;&#160;&#160;&#160;&#160;&#160;&#160;</text>
<polygon fill="white" stroke="transparent" points="844.81,-84.17 844.81,-101.17 858.81,-101.17 858.81,-84.17 844.81,-84.17"/>
<text text-anchor="start" x="846.81" y="-89.57" font-family="sans-serif" font-size="12.00">D</text>
<polygon fill="white" stroke="transparent" points="885.28,-427.23 885.28,-444.23 899.28,-444.23 899.28,-427.23 885.28,-427.23"/>
<text text-anchor="start" x="887.28" y="-432.63" font-family="sans-serif" font-size="12.00">U</text>
</g>
<!-- RiskManagementContext -->
<g id="node6" class="node">
<title>RiskManagementContext</title>
<polygon fill="none" stroke="black" stroke-width="2" points="804.38,-358.56 798.9,-361.07 793.04,-363.5 786.82,-365.85 780.25,-368.1 773.38,-370.25 766.21,-372.28 758.77,-374.19 751.1,-375.97 743.2,-377.62 735.12,-379.12 726.86,-380.48 718.47,-381.68 709.95,-382.73 701.34,-383.61 692.66,-384.34 683.94,-384.89 675.18,-385.29 666.43,-385.51 657.69,-385.58 648.99,-385.48 640.36,-385.22 631.8,-384.8 623.33,-384.23 614.98,-383.52 606.77,-382.65 598.7,-381.65 590.8,-380.52 583.08,-379.27 575.55,-377.89 568.24,-376.41 561.14,-374.82 554.28,-373.14 547.67,-371.37 541.33,-369.52 535.25,-367.6 529.46,-365.62 523.96,-363.59 518.77,-361.51 513.9,-359.39 509.35,-357.24 505.14,-355.06 501.28,-352.87 497.77,-350.68 494.62,-348.47 491.85,-346.28 489.46,-344.09 487.46,-341.91 485.85,-339.75 484.65,-337.62 483.86,-335.51 483.48,-333.44 483.52,-331.4 484,-329.39 484.9,-327.43 486.23,-325.5 488,-323.62 490.2,-321.79 492.85,-320 495.93,-318.26 499.44,-316.57 503.38,-314.93 507.75,-313.35 512.54,-311.81 517.74,-310.33 523.35,-308.9 529.35,-307.52 535.74,-306.2 542.49,-304.94 549.6,-303.74 557.05,-302.6 564.82,-301.52 572.88,-300.5 581.24,-299.54 589.84,-298.66 598.69,-297.84 607.74,-297.1 616.98,-296.43 626.37,-295.85 635.89,-295.34 645.51,-294.92 655.2,-294.58 664.93,-294.34 674.66,-294.19 684.37,-294.14 694.02,-294.19 703.58,-294.35 713.02,-294.61 722.3,-294.99 731.4,-295.48 740.28,-296.08 748.91,-296.8 757.26,-297.64 765.3,-298.6 773.01,-299.68 780.35,-300.88 787.31,-302.2 793.86,-303.64 799.97,-305.2 805.63,-306.87 810.82,-308.66 815.51,-310.56 819.7,-312.57 823.38,-314.67 826.52,-316.87 829.13,-319.17 831.19,-321.54 832.71,-323.99 833.68,-326.51 834.1,-329.08 833.97,-331.71 833.29,-334.38 832.08,-337.08 830.34,-339.8 828.08,-342.54 825.31,-345.27 822.05,-347.99 818.31,-350.69 814.1,-353.36 809.45,-355.99 804.38,-358.56"/>
<text text-anchor="middle" x="653.08" y="-333.11" font-family="sans-serif" font-size="16.00">RiskManagementContext</text>
</g>
<!-- RiskManagementContext&#45;&gt;PolicyManagementContext -->
<g id="edge7" class="edge">
<title>RiskManagementContext&#45;&gt;PolicyManagementContext</title>
<path fill="none" stroke="black" stroke-width="2" d="M659.51,-294.3C662.22,-276.72 665.39,-256.2 668.15,-238.28"/>
<text text-anchor="middle" x="706.08" y="-260.47" font-family="sans-serif" font-size="12.00">Shared Kernel</text>
</g>
</g>
</svg>
