<svg width="2000px" height="1052px"
 viewBox="0.00 0.00 1032.42 543.04" xmlns="http://www.w3.org/2000/svg" xmlns:xlink="http://www.w3.org/1999/xlink">
<g id="graph0" class="graph" transform="scale(1.0 1.0) rotate(0) translate(4 539.04)">
<title>ContextMapGraph</title>
<polygon fill="white" stroke="transparent" points="-4,4 -4,-539.04 1028.42,-539.04 1028.42,4 -4,4"/>
<!-- CustomerManagementContext -->
<g id="node1" class="node">
<title>CustomerManagementContext</title>
<polygon fill="none" stroke="black" stroke-width="2" points="117.7,-303.95 128.98,-302.38 140.5,-300.93 152.2,-299.59 164.05,-298.37 175.99,-297.29 187.99,-296.34 200,-295.53 211.98,-294.86 223.88,-294.33 235.67,-293.96 247.31,-293.74 258.75,-293.67 269.97,-293.75 280.94,-293.99 291.62,-294.37 301.99,-294.91 312.01,-295.6 321.68,-296.43 330.96,-297.41 339.85,-298.53 348.31,-299.78 356.35,-301.16 363.94,-302.66 371.09,-304.29 377.78,-306.02 384.01,-307.86 389.78,-309.79 395.08,-311.82 399.91,-313.92 404.29,-316.1 408.2,-318.34 411.65,-320.64 414.66,-322.99 417.21,-325.37 419.32,-327.79 421,-330.23 422.25,-332.68 423.08,-335.13 423.49,-337.58 423.5,-340.02 423.1,-342.44 422.3,-344.83 421.11,-347.19 419.53,-349.51 417.57,-351.78 415.23,-354 412.51,-356.16 409.42,-358.26 405.96,-360.29 402.12,-362.24 397.93,-364.12 393.36,-365.92 388.44,-367.64 383.15,-369.27 377.5,-370.82 371.49,-372.27 365.12,-373.63 358.41,-374.9 351.34,-376.07 343.92,-377.15 336.17,-378.13 328.09,-379.02 319.67,-379.81 310.95,-380.51 301.92,-381.11 292.6,-381.62 283,-382.03 273.14,-382.34 263.04,-382.57 252.72,-382.7 242.2,-382.74 231.5,-382.68 220.66,-382.54 209.69,-382.3 198.63,-381.98 187.52,-381.56 176.38,-381.06 165.25,-380.47 154.16,-379.79 143.16,-379.03 132.28,-378.18 121.57,-377.24 111.05,-376.22 100.78,-375.12 90.8,-373.93 81.14,-372.66 71.85,-371.31 62.96,-369.88 54.52,-368.38 46.57,-366.79 39.13,-365.13 32.25,-363.41 25.95,-361.61 20.27,-359.74 15.24,-357.81 10.89,-355.82 7.22,-353.77 4.28,-351.67 2.06,-349.51 0.59,-347.32 -0.12,-345.08 -0.07,-342.82 0.74,-340.52 2.32,-338.2 4.66,-335.87 7.75,-333.52 11.58,-331.18 16.14,-328.84 21.4,-326.51 27.35,-324.2 33.96,-321.92 41.2,-319.67 49.05,-317.47 57.46,-315.32 66.4,-313.23 75.84,-311.21 85.73,-309.26 96.03,-307.4 106.71,-305.63 117.7,-303.95"/>
<text text-anchor="middle" x="228.12" y="-337.2" font-family="sans-serif" font-size="16.00">CustomerManagementContext</text>
</g>
<!-- PolicyManagementContext -->
<g id="node2" class="node">
<title>PolicyManagementContext</title>
<polygon fill="none" stroke="black" stroke-width="2" points="593.75,-232.29 583.52,-230.78 573.62,-229.17 564.11,-227.48 555.01,-225.7 546.38,-223.85 538.23,-221.94 530.61,-219.96 523.54,-217.93 517.06,-215.85 511.19,-213.73 505.95,-211.58 501.36,-209.4 497.44,-207.19 494.2,-204.97 491.64,-202.75 489.78,-200.51 488.62,-198.28 488.15,-196.06 488.36,-193.86 489.26,-191.67 490.83,-189.5 493.05,-187.36 495.91,-185.25 499.39,-183.19 503.47,-181.16 508.12,-179.17 513.31,-177.24 519.01,-175.36 525.2,-173.53 531.85,-171.76 538.91,-170.06 546.36,-168.41 554.16,-166.84 562.28,-165.33 570.67,-163.9 579.32,-162.54 588.17,-161.26 597.2,-160.06 606.37,-158.94 615.66,-157.91 625.02,-156.96 634.43,-156.1 643.86,-155.33 653.29,-154.65 662.68,-154.07 672.01,-153.58 681.26,-153.19 690.41,-152.9 699.44,-152.71 708.34,-152.62 717.08,-152.63 725.66,-152.75 734.05,-152.98 742.26,-153.31 750.27,-153.74 758.07,-154.29 765.65,-154.94 773.01,-155.7 780.15,-156.57 787.05,-157.55 793.72,-158.63 800.16,-159.81 806.35,-161.1 812.29,-162.49 817.98,-163.98 823.43,-165.57 828.61,-167.25 833.54,-169.02 838.2,-170.88 842.59,-172.82 846.7,-174.84 850.54,-176.93 854.08,-179.08 857.32,-181.3 860.25,-183.58 862.87,-185.9 865.16,-188.27 867.11,-190.67 868.72,-193.1 869.96,-195.55 870.83,-198.01 871.31,-200.48 871.39,-202.94 871.06,-205.4 870.31,-207.83 869.12,-210.23 867.49,-212.6 865.41,-214.92 862.86,-217.19 859.83,-219.4 856.33,-221.54 852.34,-223.61 847.87,-225.58 842.9,-227.47 837.45,-229.26 831.51,-230.95 825.09,-232.53 818.2,-233.99 810.85,-235.33 803.05,-236.54 794.81,-237.63 786.15,-238.58 777.1,-239.39 767.68,-240.07 757.91,-240.61 747.82,-241.01 737.44,-241.26 726.81,-241.37 715.96,-241.34 704.92,-241.17 693.75,-240.86 682.47,-240.41 671.13,-239.83 659.77,-239.12 648.44,-238.27 637.18,-237.31 626.03,-236.22 615.05,-235.02 604.27,-233.71 593.75,-232.29"/>
<text text-anchor="middle" x="693.12" y="-191.45" font-family="sans-serif" font-size="16.00">PolicyManagementContext</text>
</g>
<!-- CustomerManagementContext&#45;&gt;PolicyManagementContext -->
<g id="edge1" class="edge">
<title>CustomerManagementContext&#45;&gt;PolicyManagementContext</title>
<path fill="none" stroke="black" stroke-width="2" d="M354.88,-300.81C425.87,-278.87 513.58,-251.75 581.89,-230.64"/>
<text text-anchor="middle" x="489.62" y="-265.47" font-family="sans-serif" font-size="12.00"> &#160;&#160;&#160;&#160;&#160;&#160;&#160;</text>
<polygon fill="white" stroke="transparent" points="574.89,-221.64 574.89,-238.64 588.89,-238.64 588.89,-221.64 574.89,-221.64"/>
<text text-anchor="start" x="576.89" y="-227.04" font-family="sans-serif" font-size="12.00">D</text>
<polygon fill="white" stroke="transparent" points="347.88,-291.81 347.88,-308.81 361.88,-308.81 361.88,-291.81 347.88,-291.81"/>
<text text-anchor="start" x="349.88" y="-297.21" font-family="sans-serif" font-size="12.00">U</text>
</g>
<!-- CustomerSelfServiceContext -->
<g id="node4" class="node">
<title>CustomerSelfServiceContext</title>
<polygon fill="none" stroke="black" stroke-width="2" points="54.52,-215.36 48.49,-212.84 42.97,-210.28 37.99,-207.69 33.58,-205.08 29.74,-202.47 26.51,-199.85 23.9,-197.24 21.92,-194.65 20.59,-192.09 19.9,-189.56 19.87,-187.09 20.5,-184.66 21.8,-182.3 23.75,-180 26.35,-177.77 29.6,-175.63 33.48,-173.57 37.98,-171.6 43.09,-169.72 48.78,-167.94 55.03,-166.26 61.82,-164.68 69.13,-163.21 76.92,-161.84 85.17,-160.58 93.85,-159.42 102.92,-158.37 112.34,-157.43 122.09,-156.59 132.12,-155.85 142.4,-155.22 152.9,-154.69 163.56,-154.26 174.36,-153.93 185.26,-153.69 196.21,-153.55 207.19,-153.5 218.16,-153.54 229.07,-153.66 239.9,-153.87 250.61,-154.17 261.17,-154.54 271.54,-155 281.71,-155.54 291.63,-156.15 301.29,-156.84 310.66,-157.6 319.72,-158.44 328.44,-159.34 336.81,-160.32 344.81,-161.37 352.43,-162.5 359.65,-163.69 366.45,-164.95 372.84,-166.27 378.79,-167.67 384.31,-169.13 389.38,-170.66 394.01,-172.26 398.19,-173.92 401.92,-175.64 405.19,-177.43 408.01,-179.28 410.38,-181.18 412.31,-183.14 413.78,-185.16 414.81,-187.22 415.41,-189.33 415.56,-191.49 415.29,-193.68 414.59,-195.91 413.46,-198.16 411.92,-200.44 409.97,-202.74 407.62,-205.05 404.86,-207.36 401.71,-209.67 398.17,-211.97 394.24,-214.26 389.94,-216.52 385.27,-218.74 380.23,-220.92 374.83,-223.06 369.08,-225.13 362.99,-227.14 356.56,-229.07 349.8,-230.92 342.72,-232.67 335.33,-234.32 327.65,-235.87 319.67,-237.29 311.43,-238.6 302.92,-239.77 294.16,-240.81 285.17,-241.7 275.97,-242.45 266.57,-243.05 257,-243.49 247.26,-243.77 237.4,-243.89 227.42,-243.85 217.35,-243.64 207.22,-243.27 197.05,-242.73 186.88,-242.03 176.73,-241.18 166.63,-240.16 156.61,-239 146.71,-237.68 136.95,-236.22 127.37,-234.63 118,-232.9 108.88,-231.05 100.03,-229.09 91.49,-227.01 83.29,-224.84 75.46,-222.58 68.04,-220.24 61.05,-217.83 54.52,-215.36"/>
<text text-anchor="middle" x="228.12" y="-191.45" font-family="sans-serif" font-size="16.00">CustomerSelfServiceContext</text>
</g>
<!-- CustomerManagementContext&#45;&gt;CustomerSelfServiceContext -->
<g id="edge2" class="edge">
<title>CustomerManagementContext&#45;&gt;CustomerSelfServiceContext</title>
<path fill="none" stroke="black" stroke-width="2" d="M228.12,-294.12C228.12,-278.18 228.12,-260.27 228.12,-244.17"/>
<text text-anchor="middle" x="243.62" y="-265.47" font-family="sans-serif" font-size="12.00"> &#160;&#160;&#160;&#160;&#160;&#160;&#160;</text>
<polygon fill="white" stroke="transparent" points="221.12,-235.17 221.12,-252.17 235.12,-252.17 235.12,-235.17 221.12,-235.17"/>
<text text-anchor="start" x="223.12" y="-240.57" font-family="sans-serif" font-size="12.00">D</text>
<polygon fill="white" stroke="transparent" points="221.12,-285.12 221.12,-302.12 235.12,-302.12 235.12,-285.12 221.12,-285.12"/>
<text text-anchor="start" x="223.12" y="-290.52" font-family="sans-serif" font-size="12.00">U</text>
</g>
<!-- DebtCollection -->
<g id="node3" class="node">
<title>DebtCollection</title>
<polygon fill="none" stroke="black" stroke-width="2" points="908.74,-78.04 903.85,-80.22 898.75,-82.31 893.47,-84.3 888.02,-86.17 882.42,-87.92 876.7,-89.55 870.87,-91.04 864.96,-92.4 858.99,-93.6 852.96,-94.66 846.91,-95.56 840.85,-96.3 834.8,-96.89 828.78,-97.3 822.8,-97.56 816.88,-97.65 811.03,-97.58 805.27,-97.34 799.61,-96.94 794.06,-96.38 788.64,-95.67 783.36,-94.81 778.22,-93.8 773.24,-92.66 768.42,-91.37 763.77,-89.96 759.3,-88.43 755.01,-86.79 750.91,-85.04 747.01,-83.19 743.31,-81.25 739.81,-79.23 736.51,-77.13 733.43,-74.98 730.57,-72.77 727.92,-70.51 725.48,-68.21 723.27,-65.89 721.29,-63.54 719.53,-61.18 718,-58.82 716.71,-56.46 715.64,-54.11 714.82,-51.77 714.23,-49.46 713.88,-47.17 713.77,-44.92 713.91,-42.71 714.3,-40.54 714.94,-38.43 715.82,-36.36 716.96,-34.35 718.36,-32.4 720.01,-30.51 721.91,-28.68 724.07,-26.92 726.49,-25.23 729.16,-23.61 732.09,-22.06 735.27,-20.58 738.7,-19.17 742.38,-17.83 746.3,-16.57 750.45,-15.38 754.84,-14.27 759.45,-13.23 764.28,-12.27 769.31,-11.38 774.55,-10.57 779.96,-9.83 785.55,-9.18 791.3,-8.6 797.19,-8.1 803.22,-7.68 809.35,-7.34 815.59,-7.09 821.89,-6.92 828.26,-6.83 834.67,-6.83 841.09,-6.93 847.51,-7.11 853.9,-7.38 860.25,-7.75 866.53,-8.21 872.71,-8.77 878.78,-9.43 884.71,-10.18 890.48,-11.04 896.08,-12 901.46,-13.06 906.63,-14.23 911.55,-15.5 916.2,-16.86 920.58,-18.34 924.65,-19.91 928.41,-21.58 931.84,-23.34 934.93,-25.2 937.66,-27.15 940.03,-29.19 942.02,-31.31 943.62,-33.5 944.84,-35.77 945.67,-38.11 946.1,-40.51 946.14,-42.96 945.78,-45.45 945.04,-47.98 943.9,-50.55 942.39,-53.13 940.5,-55.73 938.26,-58.32 935.65,-60.92 932.71,-63.49 929.44,-66.04 925.86,-68.55 921.98,-71.02 917.82,-73.43 913.4,-75.77 908.74,-78.04"/>
<text text-anchor="middle" x="823.12" y="-44.92" font-family="sans-serif" font-size="16.00">DebtCollection</text>
</g>
<!-- PolicyManagementContext&#45;&gt;DebtCollection -->
<g id="edge3" class="edge">
<title>PolicyManagementContext&#45;&gt;DebtCollection</title>
<path fill="none" stroke="black" stroke-width="2" d="M730.37,-152.83C746.73,-134.65 765.97,-113.25 782.68,-94.68"/>
<text text-anchor="middle" x="803.12" y="-118.83" font-family="sans-serif" font-size="12.00">Shared Kernel</text>
</g>
<!-- PrintingContext -->
<g id="node5" class="node">
<title>PrintingContext</title>
<polygon fill="none" stroke="black" stroke-width="2" points="979.7,-517.39 974.26,-519.46 968.62,-521.44 962.8,-523.31 956.82,-525.06 950.7,-526.7 944.47,-528.2 938.15,-529.57 931.76,-530.8 925.32,-531.88 918.85,-532.81 912.38,-533.58 905.92,-534.2 899.5,-534.66 893.12,-534.96 886.82,-535.09 880.59,-535.06 874.47,-534.87 868.47,-534.52 862.59,-534.01 856.86,-533.34 851.28,-532.53 845.86,-531.56 840.62,-530.46 835.56,-529.21 830.68,-527.84 826.01,-526.34 821.54,-524.73 817.28,-523 813.24,-521.18 809.41,-519.26 805.8,-517.26 802.42,-515.18 799.27,-513.03 796.35,-510.82 793.66,-508.56 791.2,-506.26 788.98,-503.93 786.99,-501.57 785.25,-499.19 783.74,-496.81 782.48,-494.43 781.45,-492.05 780.67,-489.69 780.14,-487.35 779.85,-485.03 779.81,-482.75 780.02,-480.51 780.49,-478.31 781.2,-476.16 782.17,-474.07 783.39,-472.03 784.87,-470.05 786.61,-468.14 788.61,-466.29 790.87,-464.51 793.39,-462.8 796.16,-461.17 799.2,-459.61 802.49,-458.12 806.03,-456.71 809.83,-455.38 813.88,-454.12 818.17,-452.94 822.69,-451.84 827.45,-450.82 832.43,-449.88 837.63,-449.02 843.04,-448.24 848.64,-447.54 854.42,-446.92 860.37,-446.37 866.48,-445.91 872.73,-445.53 879.11,-445.24 885.59,-445.03 892.16,-444.9 898.8,-444.86 905.49,-444.9 912.2,-445.03 918.92,-445.25 925.63,-445.56 932.29,-445.96 938.89,-446.45 945.41,-447.04 951.81,-447.72 958.08,-448.5 964.19,-449.37 970.12,-450.34 975.84,-451.41 981.34,-452.57 986.59,-453.83 991.56,-455.19 996.25,-456.65 1000.63,-458.2 1004.68,-459.85 1008.38,-461.59 1011.73,-463.41 1014.7,-465.32 1017.28,-467.32 1019.47,-469.4 1021.25,-471.54 1022.63,-473.76 1023.58,-476.05 1024.11,-478.39 1024.23,-480.78 1023.92,-483.22 1023.19,-485.7 1022.04,-488.2 1020.49,-490.73 1018.53,-493.27 1016.19,-495.82 1013.46,-498.36 1010.36,-500.89 1006.91,-503.39 1003.12,-505.86 999,-508.29 994.59,-510.67 989.88,-512.98 984.91,-515.22 979.7,-517.39"/>
<text text-anchor="middle" x="894.12" y="-482.68" font-family="sans-serif" font-size="16.00">PrintingContext</text>
</g>
<!-- PrintingContext&#45;&gt;CustomerManagementContext -->
<g id="edge4" class="edge">
<title>PrintingContext&#45;&gt;CustomerManagementContext</title>
<path fill="none" stroke="black" stroke-width="2" d="M792.24,-463.53C679.47,-439.24 496.9,-399.9 370.13,-372.59"/>
<text text-anchor="middle" x="595.62" y="-410.33" font-family="sans-serif" font-size="12.00"> &#160;&#160;&#160;&#160;&#160;&#160;&#160;</text>
<polygon fill="white" stroke="transparent" points="363.13,-363.59 363.13,-380.59 377.13,-380.59 377.13,-363.59 363.13,-363.59"/>
<text text-anchor="start" x="365.13" y="-368.99" font-family="sans-serif" font-size="12.00">D</text>
<polygon fill="white" stroke="transparent" points="785.24,-454.53 785.24,-471.53 799.24,-471.53 799.24,-454.53 785.24,-454.53"/>
<text text-anchor="start" x="787.24" y="-459.93" font-family="sans-serif" font-size="12.00">U</text>
</g>
<!-- PrintingContext&#45;&gt;PolicyManagementContext -->
<g id="edge6" class="edge">
<title>PrintingContext&#45;&gt;PolicyManagementContext</title>
<path fill="none" stroke="black" stroke-width="2" d="M898.4,-444.55C900.62,-402.81 897.94,-337.99 867.12,-293.07 850.89,-269.41 826.89,-250.91 801.87,-236.72"/>
<text text-anchor="middle" x="912.62" y="-337.9" font-family="sans-serif" font-size="12.00"> &#160;&#160;&#160;&#160;&#160;&#160;&#160;</text>
<polygon fill="white" stroke="transparent" points="794.87,-227.72 794.87,-244.72 808.87,-244.72 808.87,-227.72 794.87,-227.72"/>
<text text-anchor="start" x="796.87" y="-233.12" font-family="sans-serif" font-size="12.00">D</text>
<polygon fill="white" stroke="transparent" points="891.4,-435.55 891.4,-452.55 905.4,-452.55 905.4,-435.55 891.4,-435.55"/>
<text text-anchor="start" x="893.4" y="-440.95" font-family="sans-serif" font-size="12.00">U</text>
</g>
<!-- PrintingContext&#45;&gt;DebtCollection -->
<g id="edge5" class="edge">
<title>PrintingContext&#45;&gt;DebtCollection</title>
<path fill="none" stroke="black" stroke-width="2" d="M914.1,-444.68C921.3,-427.84 928.53,-407.87 932.12,-388.93 952.31,-282.48 953.47,-244.37 907.12,-146.43 897.7,-126.53 883.01,-107.56 868.52,-91.77"/>
<text text-anchor="middle" x="960.62" y="-265.47" font-family="sans-serif" font-size="12.00"> &#160;&#160;&#160;&#160;&#160;&#160;&#160;</text>
<polygon fill="white" stroke="transparent" points="861.52,-82.77 861.52,-99.77 875.52,-99.77 875.52,-82.77 861.52,-82.77"/>
<text text-anchor="start" x="863.52" y="-88.17" font-family="sans-serif" font-size="12.00">D</text>
<polygon fill="white" stroke="transparent" points="907.1,-435.68 907.1,-452.68 921.1,-452.68 921.1,-435.68 907.1,-435.68"/>
<text text-anchor="start" x="909.1" y="-441.08" font-family="sans-serif" font-size="12.00">U</text>
</g>
<!-- RiskManagementContext -->
<g id="node6" class="node">
<title>RiskManagementContext</title>
<polygon fill="none" stroke="black" stroke-width="2" points="560.32,-306.13 569.27,-304.36 578.46,-302.69 587.85,-301.14 597.41,-299.71 607.09,-298.41 616.86,-297.24 626.69,-296.21 636.54,-295.32 646.38,-294.58 656.18,-293.99 665.9,-293.55 675.51,-293.27 684.99,-293.14 694.3,-293.17 703.43,-293.36 712.34,-293.7 721.02,-294.2 729.45,-294.86 737.6,-295.66 745.47,-296.61 753.03,-297.7 760.27,-298.92 767.19,-300.28 773.77,-301.76 780,-303.37 785.88,-305.08 791.41,-306.91 796.57,-308.83 801.37,-310.83 805.81,-312.92 809.88,-315.09 813.59,-317.31 816.93,-319.6 819.9,-321.92 822.52,-324.29 824.78,-326.69 826.68,-329.11 828.23,-331.54 829.42,-333.97 830.27,-336.4 830.77,-338.82 830.93,-341.22 830.75,-343.59 830.22,-345.93 829.36,-348.23 828.15,-350.49 826.61,-352.69 824.74,-354.84 822.53,-356.92 819.98,-358.95 817.1,-360.9 813.88,-362.78 810.33,-364.58 806.44,-366.3 802.22,-367.94 797.66,-369.5 792.77,-370.98 787.56,-372.36 782.01,-373.67 776.14,-374.88 769.96,-376 763.46,-377.04 756.65,-377.98 749.55,-378.84 742.15,-379.6 734.48,-380.28 726.54,-380.87 718.35,-381.37 709.93,-381.78 701.28,-382.1 692.44,-382.33 683.41,-382.47 674.23,-382.53 664.92,-382.5 655.5,-382.38 645.99,-382.17 636.44,-381.88 626.86,-381.5 617.29,-381.03 607.77,-380.47 598.31,-379.82 588.97,-379.09 579.76,-378.27 570.74,-377.36 561.92,-376.36 553.35,-375.27 545.06,-374.1 537.08,-372.84 529.45,-371.5 522.2,-370.07 515.37,-368.55 508.97,-366.96 503.05,-365.28 497.62,-363.53 492.72,-361.69 488.36,-359.79 484.57,-357.82 481.36,-355.78 478.75,-353.67 476.75,-351.51 475.38,-349.3 474.63,-347.04 474.52,-344.74 475.05,-342.4 476.21,-340.03 478,-337.63 480.41,-335.22 483.43,-332.81 487.06,-330.39 491.27,-327.98 496.04,-325.58 501.36,-323.21 507.2,-320.87 513.54,-318.57 520.34,-316.33 527.59,-314.14 535.24,-312.01 543.27,-309.97 551.64,-308 560.32,-306.13"/>
<text text-anchor="middle" x="666.12" y="-337.2" font-family="sans-serif" font-size="16.00">RiskManagementContext</text>
</g>
<!-- RiskManagementContext&#45;&gt;PolicyManagementContext -->
<g id="edge7" class="edge">
<title>RiskManagementContext&#45;&gt;PolicyManagementContext</title>
<path fill="none" stroke="black" stroke-width="2" d="M674.96,-292.93C678.1,-276.23 681.62,-257.49 684.72,-240.98"/>
<text text-anchor="middle" x="722.12" y="-265.47" font-family="sans-serif" font-size="12.00">Shared Kernel</text>
</g>
</g>
</svg>
