<svg width="2000px" height="1092px"
 viewBox="0.00 0.00 986.77 538.77" xmlns="http://www.w3.org/2000/svg" xmlns:xlink="http://www.w3.org/1999/xlink">
<g id="graph0" class="graph" transform="scale(1.0 1.0) rotate(0) translate(4 534.77)">
<title>ContextMapGraph</title>
<polygon fill="white" stroke="transparent" points="-4,4 -4,-534.77 982.77,-534.77 982.77,4 -4,4"/>
<!-- CustomerManagementContext -->
<g id="node1" class="node">
<title>CustomerManagementContext</title>
<polygon fill="none" stroke="black" stroke-width="2" points="415.51,-336.38 416.26,-339.26 416.44,-342.12 416.05,-344.96 415.07,-347.77 413.52,-350.53 411.4,-353.23 408.7,-355.86 405.44,-358.42 401.62,-360.89 397.25,-363.26 392.34,-365.53 386.91,-367.68 380.97,-369.72 374.53,-371.63 367.62,-373.42 360.24,-375.07 352.43,-376.58 344.21,-377.95 335.59,-379.18 326.61,-380.26 317.29,-381.2 307.65,-381.99 297.73,-382.64 287.55,-383.15 277.15,-383.52 266.56,-383.75 255.8,-383.84 244.91,-383.81 233.92,-383.64 222.87,-383.36 211.78,-382.95 200.69,-382.44 189.64,-381.81 178.66,-381.08 167.77,-380.26 157.01,-379.35 146.41,-378.34 136.01,-377.26 125.83,-376.11 115.89,-374.88 106.24,-373.59 96.9,-372.24 87.89,-370.83 79.24,-369.37 70.97,-367.86 63.11,-366.31 55.67,-364.72 48.67,-363.09 42.14,-361.43 36.09,-359.74 30.53,-358.01 25.48,-356.26 20.95,-354.49 16.95,-352.68 13.5,-350.86 10.58,-349.02 8.22,-347.15 6.42,-345.27 5.17,-343.37 4.48,-341.45 4.35,-339.52 4.77,-337.58 5.75,-335.62 7.28,-333.66 9.34,-331.68 11.94,-329.7 15.06,-327.71 18.7,-325.73 22.84,-323.74 27.47,-321.77 32.57,-319.8 38.13,-317.84 44.14,-315.91 50.58,-314 57.43,-312.11 64.67,-310.26 72.28,-308.45 80.25,-306.68 88.55,-304.97 97.15,-303.32 106.05,-301.73 115.22,-300.22 124.62,-298.78 134.25,-297.43 144.07,-296.18 154.06,-295.03 164.2,-293.99 174.45,-293.06 184.8,-292.26 195.22,-291.58 205.69,-291.03 216.17,-290.63 226.64,-290.37 237.08,-290.26 247.45,-290.3 257.73,-290.49 267.91,-290.84 277.94,-291.36 287.8,-292.03 297.47,-292.86 306.93,-293.85 316.14,-295 325.08,-296.31 333.73,-297.77 342.07,-299.38 350.06,-301.13 357.7,-303.02 364.95,-305.04 371.8,-307.19 378.23,-309.45 384.21,-311.82 389.73,-314.29 394.78,-316.85 399.33,-319.49 403.37,-322.2 406.89,-324.97 409.87,-327.78 412.31,-330.63 414.19,-333.5 415.51,-336.38"/>
<text text-anchor="middle" x="209.52" y="-334.39" font-family="sans-serif" font-size="16.00">CustomerManagementContext</text>
</g>
<!-- PolicyManagementContext -->
<g id="node2" class="node">
<title>PolicyManagementContext</title>
<polygon fill="none" stroke="black" stroke-width="2" points="508.97,-168.3 515.5,-165.89 522.41,-163.57 529.68,-161.33 537.28,-159.2 545.18,-157.18 553.35,-155.27 561.77,-153.49 570.41,-151.85 579.23,-150.34 588.22,-148.98 597.34,-147.78 606.57,-146.72 615.88,-145.83 625.24,-145.09 634.62,-144.53 644.01,-144.12 653.38,-143.88 662.7,-143.81 671.95,-143.9 681.11,-144.15 690.17,-144.56 699.09,-145.13 707.87,-145.85 716.48,-146.71 724.91,-147.71 733.15,-148.85 741.17,-150.12 748.96,-151.51 756.51,-153.02 763.81,-154.63 770.84,-156.34 777.59,-158.14 784.06,-160.02 790.22,-161.98 796.08,-164 801.62,-166.08 806.83,-168.21 811.71,-170.38 816.23,-172.58 820.41,-174.81 824.22,-177.05 827.66,-179.3 830.72,-181.56 833.4,-183.82 835.69,-186.06 837.57,-188.29 839.05,-190.5 840.11,-192.68 840.75,-194.83 840.97,-196.95 840.76,-199.03 840.11,-201.07 839.03,-203.06 837.5,-205.01 835.52,-206.9 833.1,-208.75 830.23,-210.54 826.91,-212.28 823.15,-213.96 818.94,-215.59 814.29,-217.16 809.2,-218.67 803.69,-220.12 797.76,-221.51 791.41,-222.83 784.66,-224.1 777.53,-225.31 770.02,-226.45 762.15,-227.52 753.94,-228.53 745.41,-229.48 736.59,-230.35 727.48,-231.16 718.12,-231.89 708.53,-232.55 698.75,-233.13 688.79,-233.64 678.69,-234.06 668.47,-234.4 658.18,-234.65 647.84,-234.81 637.49,-234.88 627.16,-234.86 616.88,-234.74 606.7,-234.52 596.64,-234.2 586.74,-233.77 577.04,-233.23 567.57,-232.58 558.37,-231.83 549.46,-230.96 540.88,-229.97 532.66,-228.87 524.83,-227.66 517.42,-226.33 510.45,-224.89 503.95,-223.33 497.95,-221.67 492.46,-219.9 487.51,-218.02 483.1,-216.04 479.26,-213.96 476,-211.8 473.32,-209.54 471.24,-207.21 469.75,-204.8 468.87,-202.33 468.59,-199.8 468.9,-197.22 469.81,-194.6 471.31,-191.94 473.38,-189.27 476.02,-186.58 479.22,-183.89 482.94,-181.21 487.19,-178.55 491.94,-175.91 497.17,-173.32 502.85,-170.78 508.97,-168.3"/>
<text text-anchor="middle" x="662.52" y="-188.79" font-family="sans-serif" font-size="16.00">PolicyManagementContext</text>
</g>
<!-- CustomerManagementContext&#45;&gt;PolicyManagementContext -->
<g id="edge1" class="edge">
<title>CustomerManagementContext&#45;&gt;PolicyManagementContext</title>
<path fill="none" stroke="black" stroke-width="2" d="M333.9,-297.76C400.04,-276.79 480.87,-251.17 545.81,-230.58"/>
<text text-anchor="middle" x="465.02" y="-262.87" font-family="sans-serif" font-size="12.00"> &#160;&#160;&#160;&#160;&#160;&#160;&#160;</text>
<polygon fill="white" stroke="transparent" points="538.81,-221.58 538.81,-238.58 552.81,-238.58 552.81,-221.58 538.81,-221.58"/>
<text text-anchor="start" x="540.81" y="-226.98" font-family="sans-serif" font-size="12.00">D</text>
<polygon fill="white" stroke="transparent" points="326.9,-288.76 326.9,-305.76 340.9,-305.76 340.9,-288.76 326.9,-288.76"/>
<text text-anchor="start" x="328.9" y="-294.16" font-family="sans-serif" font-size="12.00">U</text>
</g>
<!-- CustomerSelfServiceContext -->
<g id="node4" class="node">
<title>CustomerSelfServiceContext</title>
<polygon fill="none" stroke="black" stroke-width="2" points="380,-171.16 386.43,-173.63 392.34,-176.14 397.73,-178.68 402.55,-181.25 406.79,-183.84 410.43,-186.43 413.45,-189.01 415.83,-191.58 417.57,-194.12 418.65,-196.64 419.06,-199.11 418.81,-201.54 417.88,-203.91 416.29,-206.21 414.03,-208.45 411.12,-210.62 407.56,-212.7 403.37,-214.71 398.55,-216.62 393.14,-218.44 387.15,-220.17 380.6,-221.79 373.52,-223.32 365.94,-224.75 357.89,-226.07 349.39,-227.3 340.49,-228.42 331.21,-229.43 321.59,-230.35 311.67,-231.16 301.49,-231.87 291.08,-232.48 280.48,-232.99 269.73,-233.41 258.87,-233.73 247.93,-233.96 236.96,-234.09 225.99,-234.14 215.06,-234.1 204.19,-233.97 193.44,-233.76 182.82,-233.47 172.37,-233.09 162.12,-232.64 152.1,-232.11 142.33,-231.49 132.84,-230.81 123.65,-230.04 114.79,-229.2 106.26,-228.29 98.1,-227.31 90.31,-226.25 82.9,-225.11 75.9,-223.91 69.31,-222.63 63.14,-221.29 57.39,-219.87 52.08,-218.38 47.2,-216.83 42.76,-215.2 38.77,-213.51 35.21,-211.75 32.1,-209.93 29.43,-208.05 27.21,-206.11 25.42,-204.11 24.06,-202.06 23.14,-199.95 22.65,-197.81 22.58,-195.62 22.93,-193.39 23.71,-191.13 24.89,-188.84 26.48,-186.53 28.48,-184.21 30.88,-181.88 33.67,-179.55 36.85,-177.22 40.42,-174.91 44.37,-172.63 48.7,-170.37 53.4,-168.15 58.46,-165.98 63.89,-163.87 69.67,-161.82 75.8,-159.84 82.27,-157.94 89.08,-156.14 96.2,-154.43 103.65,-152.83 111.4,-151.34 119.45,-149.98 127.77,-148.74 136.37,-147.63 145.22,-146.67 154.3,-145.85 163.61,-145.18 173.12,-144.67 182.81,-144.31 192.66,-144.12 202.65,-144.08 212.75,-144.21 222.94,-144.5 233.19,-144.96 243.47,-145.58 253.75,-146.35 264.01,-147.29 274.21,-148.37 284.32,-149.61 294.31,-150.99 304.14,-152.5 313.78,-154.15 323.19,-155.93 332.35,-157.82 341.21,-159.82 349.75,-161.92 357.93,-164.12 365.72,-166.39 373.09,-168.74 380,-171.16"/>
<text text-anchor="middle" x="209.52" y="-188.79" font-family="sans-serif" font-size="16.00">CustomerSelfServiceContext</text>
</g>
<!-- CustomerManagementContext&#45;&gt;CustomerSelfServiceContext -->
<g id="edge2" class="edge">
<title>CustomerManagementContext&#45;&gt;CustomerSelfServiceContext</title>
<path fill="none" stroke="black" stroke-width="2" d="M209.52,-290.57C209.52,-272.39 209.52,-251.74 209.52,-234.18"/>
<text text-anchor="middle" x="225.02" y="-262.87" font-family="sans-serif" font-size="12.00"> &#160;&#160;&#160;&#160;&#160;&#160;&#160;</text>
<polygon fill="white" stroke="transparent" points="202.52,-225.18 202.52,-242.18 216.52,-242.18 216.52,-225.18 202.52,-225.18"/>
<text text-anchor="start" x="204.52" y="-230.58" font-family="sans-serif" font-size="12.00">D</text>
<polygon fill="white" stroke="transparent" points="202.52,-281.57 202.52,-298.57 216.52,-298.57 216.52,-281.57 202.52,-281.57"/>
<text text-anchor="start" x="204.52" y="-286.97" font-family="sans-serif" font-size="12.00">U</text>
</g>
<!-- DebtCollection -->
<g id="node3" class="node">
<title>DebtCollection</title>
<polygon fill="none" stroke="black" stroke-width="2" points="902.16,-55.44 900.88,-58.26 899.3,-61.04 897.43,-63.77 895.26,-66.43 892.81,-69.03 890.08,-71.54 887.08,-73.95 883.82,-76.27 880.31,-78.47 876.56,-80.56 872.58,-82.51 868.38,-84.34 863.97,-86.02 859.36,-87.57 854.58,-88.96 849.62,-90.2 844.51,-91.29 839.25,-92.22 833.87,-93 828.37,-93.62 822.77,-94.08 817.09,-94.39 811.33,-94.54 805.52,-94.55 799.67,-94.41 793.8,-94.12 787.92,-93.7 782.04,-93.14 776.19,-92.46 770.37,-91.65 764.6,-90.73 758.89,-89.7 753.27,-88.57 747.75,-87.35 742.33,-86.03 737.04,-84.63 731.88,-83.16 726.88,-81.61 722.04,-80.01 717.38,-78.35 712.9,-76.64 708.63,-74.88 704.57,-73.09 700.74,-71.27 697.14,-69.42 693.79,-67.54 690.69,-65.65 687.85,-63.74 685.28,-61.82 682.99,-59.89 680.99,-57.96 679.28,-56.03 677.86,-54.09 676.75,-52.16 675.94,-50.23 675.44,-48.31 675.25,-46.4 675.37,-44.49 675.81,-42.59 676.55,-40.71 677.61,-38.83 678.98,-36.97 680.65,-35.13 682.63,-33.3 684.9,-31.49 687.46,-29.7 690.31,-27.93 693.44,-26.18 696.84,-24.46 700.5,-22.77 704.42,-21.11 708.57,-19.49 712.96,-17.9 717.56,-16.36 722.37,-14.86 727.38,-13.42 732.56,-12.03 737.91,-10.71 743.4,-9.45 749.03,-8.26 754.78,-7.15 760.62,-6.13 766.56,-5.19 772.56,-4.35 778.61,-3.6 784.69,-2.97 790.79,-2.45 796.89,-2.04 802.97,-1.76 809.01,-1.6 814.99,-1.57 820.9,-1.68 826.73,-1.93 832.45,-2.32 838.04,-2.85 843.5,-3.53 848.8,-4.36 853.94,-5.33 858.89,-6.46 863.64,-7.72 868.18,-9.13 872.5,-10.69 876.58,-12.38 880.41,-14.2 883.99,-16.15 887.3,-18.23 890.33,-20.42 893.08,-22.72 895.53,-25.13 897.69,-27.62 899.55,-30.2 901.09,-32.86 902.33,-35.57 903.25,-38.34 903.86,-41.15 904.15,-44 904.12,-46.86 903.78,-49.73 903.12,-52.59 902.16,-55.44"/>
<text text-anchor="middle" x="789.52" y="-43.55" font-family="sans-serif" font-size="16.00">DebtCollection</text>
</g>
<!-- PolicyManagementContext&#45;&gt;DebtCollection -->
<g id="edge3" class="edge">
<title>PolicyManagementContext&#45;&gt;DebtCollection</title>
<path fill="none" stroke="black" stroke-width="2" d="M703.4,-145.48C719.5,-127.32 737.83,-106.65 753.43,-89.06"/>
<text text-anchor="middle" x="771.52" y="-116.1" font-family="sans-serif" font-size="12.00">Shared Kernel</text>
</g>
<!-- PrintingContext -->
<g id="node5" class="node">
<title>PrintingContext</title>
<polygon fill="none" stroke="black" stroke-width="2" points="741.28,-471.01 743.3,-468.24 745.62,-465.52 748.24,-462.86 751.16,-460.27 754.35,-457.76 757.82,-455.35 761.55,-453.04 765.52,-450.83 769.74,-448.75 774.17,-446.8 778.82,-444.98 783.67,-443.3 788.7,-441.76 793.9,-440.37 799.26,-439.14 804.76,-438.07 810.38,-437.15 816.12,-436.4 821.96,-435.8 827.88,-435.37 833.86,-435.09 839.9,-434.98 845.97,-435.02 852.07,-435.2 858.17,-435.54 864.26,-436.02 870.33,-436.64 876.37,-437.39 882.35,-438.27 888.26,-439.26 894.09,-440.38 899.83,-441.59 905.45,-442.91 910.96,-444.32 916.33,-445.81 921.54,-447.39 926.6,-449.03 931.48,-450.74 936.17,-452.5 940.66,-454.31 944.94,-456.17 949,-458.06 952.83,-459.98 956.42,-461.93 959.75,-463.9 962.82,-465.88 965.61,-467.88 968.13,-469.87 970.36,-471.88 972.3,-473.87 973.94,-475.87 975.27,-477.86 976.29,-479.83 977,-481.8 977.38,-483.75 977.44,-485.69 977.18,-487.6 976.6,-489.5 975.69,-491.38 974.45,-493.24 972.89,-495.07 971.01,-496.88 968.81,-498.67 966.3,-500.43 963.48,-502.16 960.36,-503.86 956.94,-505.53 953.24,-507.17 949.26,-508.77 945.01,-510.34 940.51,-511.86 935.76,-513.34 930.78,-514.78 925.57,-516.16 920.17,-517.5 914.57,-518.77 908.8,-519.98 902.87,-521.13 896.81,-522.2 890.61,-523.2 884.32,-524.11 877.94,-524.94 871.49,-525.68 864.99,-526.32 858.46,-526.86 851.93,-527.29 845.4,-527.61 838.91,-527.81 832.46,-527.89 826.09,-527.85 819.8,-527.67 813.62,-527.37 807.57,-526.92 801.66,-526.34 795.92,-525.62 790.36,-524.76 784.99,-523.76 779.84,-522.62 774.92,-521.33 770.23,-519.91 765.81,-518.35 761.65,-516.66 757.78,-514.83 754.19,-512.89 750.91,-510.82 747.94,-508.64 745.28,-506.35 742.95,-503.96 740.95,-501.48 739.29,-498.92 737.96,-496.28 736.97,-493.58 736.33,-490.83 736.03,-488.03 736.07,-485.21 736.45,-482.36 737.16,-479.51 738.21,-476.66 739.59,-473.82 741.28,-471.01"/>
<text text-anchor="middle" x="857.52" y="-479.04" font-family="sans-serif" font-size="16.00">PrintingContext</text>
</g>
<!-- PrintingContext&#45;&gt;CustomerManagementContext -->
<g id="edge6" class="edge">
<title>PrintingContext&#45;&gt;CustomerManagementContext</title>
<path fill="none" stroke="black" stroke-width="2" d="M752.69,-458.76C648.18,-435.76 486.41,-400.14 366.57,-373.76"/>
<text text-anchor="middle" x="568.02" y="-407.31" font-family="sans-serif" font-size="12.00"> &#160;&#160;&#160;&#160;&#160;&#160;&#160;</text>
<polygon fill="white" stroke="transparent" points="359.57,-364.76 359.57,-381.76 373.57,-381.76 373.57,-364.76 359.57,-364.76"/>
<text text-anchor="start" x="361.57" y="-370.16" font-family="sans-serif" font-size="12.00">D</text>
<polygon fill="white" stroke="transparent" points="745.69,-449.76 745.69,-466.76 759.69,-466.76 759.69,-449.76 745.69,-449.76"/>
<text text-anchor="start" x="747.69" y="-455.16" font-family="sans-serif" font-size="12.00">U</text>
</g>
<!-- PrintingContext&#45;&gt;PolicyManagementContext -->
<g id="edge5" class="edge">
<title>PrintingContext&#45;&gt;PolicyManagementContext</title>
<path fill="none" stroke="black" stroke-width="2" d="M861.83,-435.71C863.36,-394.24 859.53,-333.44 830.52,-290.47 812.43,-263.69 784.29,-243.36 756.17,-228.43"/>
<text text-anchor="middle" x="876.02" y="-335.09" font-family="sans-serif" font-size="12.00"> &#160;&#160;&#160;&#160;&#160;&#160;&#160;</text>
<polygon fill="white" stroke="transparent" points="749.17,-219.43 749.17,-236.43 763.17,-236.43 763.17,-219.43 749.17,-219.43"/>
<text text-anchor="start" x="751.17" y="-224.83" font-family="sans-serif" font-size="12.00">D</text>
<polygon fill="white" stroke="transparent" points="854.83,-426.71 854.83,-443.71 868.83,-443.71 868.83,-426.71 854.83,-426.71"/>
<text text-anchor="start" x="856.83" y="-432.11" font-family="sans-serif" font-size="12.00">U</text>
</g>
<!-- PrintingContext&#45;&gt;DebtCollection -->
<g id="edge4" class="edge">
<title>PrintingContext&#45;&gt;DebtCollection</title>
<path fill="none" stroke="black" stroke-width="2" d="M879.12,-437.51C885.76,-421.62 892.2,-403.33 895.52,-385.91 903.47,-344.25 899.79,-332.67 895.52,-290.47 888.82,-224.23 893.72,-204.02 865.52,-143.7 857.18,-125.86 844.87,-108.4 832.58,-93.4"/>
<text text-anchor="middle" x="909.02" y="-262.87" font-family="sans-serif" font-size="12.00"> &#160;&#160;&#160;&#160;&#160;&#160;&#160;</text>
<polygon fill="white" stroke="transparent" points="825.58,-84.4 825.58,-101.4 839.58,-101.4 839.58,-84.4 825.58,-84.4"/>
<text text-anchor="start" x="827.58" y="-89.8" font-family="sans-serif" font-size="12.00">D</text>
<polygon fill="white" stroke="transparent" points="872.12,-428.51 872.12,-445.51 886.12,-445.51 886.12,-428.51 872.12,-428.51"/>
<text text-anchor="start" x="874.12" y="-433.91" font-family="sans-serif" font-size="12.00">U</text>
</g>
<!-- RiskManagementContext -->
<g id="node6" class="node">
<title>RiskManagementContext</title>
<polygon fill="none" stroke="black" stroke-width="2" points="544.72,-299.58 554.66,-298.18 564.77,-296.89 575.01,-295.73 585.33,-294.69 595.7,-293.79 606.08,-293.02 616.43,-292.38 626.71,-291.89 636.89,-291.55 646.93,-291.35 656.8,-291.3 666.47,-291.4 675.9,-291.65 685.08,-292.05 693.98,-292.59 702.57,-293.29 710.83,-294.12 718.75,-295.1 726.3,-296.21 733.48,-297.46 740.27,-298.83 746.66,-300.33 752.65,-301.94 758.22,-303.67 763.38,-305.5 768.12,-307.42 772.45,-309.44 776.35,-311.54 779.85,-313.71 782.93,-315.95 785.6,-318.25 787.88,-320.6 789.76,-322.98 791.25,-325.4 792.36,-327.84 793.1,-330.3 793.48,-332.76 793.49,-335.22 793.16,-337.68 792.49,-340.11 791.48,-342.52 790.14,-344.9 788.49,-347.23 786.51,-349.53 784.23,-351.76 781.64,-353.94 778.75,-356.06 775.56,-358.11 772.08,-360.08 768.31,-361.98 764.25,-363.79 759.9,-365.52 755.27,-367.16 750.36,-368.71 745.17,-370.17 739.7,-371.53 733.96,-372.79 727.95,-373.96 721.66,-375.03 715.11,-375.99 708.31,-376.86 701.24,-377.63 693.93,-378.29 686.39,-378.86 678.61,-379.32 670.61,-379.69 662.41,-379.96 654.01,-380.13 645.43,-380.2 636.69,-380.18 627.82,-380.06 618.81,-379.85 609.71,-379.54 600.53,-379.14 591.3,-378.66 582.05,-378.08 572.79,-377.41 563.57,-376.66 554.42,-375.81 545.36,-374.89 536.42,-373.88 527.65,-372.78 519.07,-371.61 510.72,-370.36 502.63,-369.02 494.84,-367.61 487.38,-366.13 480.29,-364.57 473.59,-362.94 467.32,-361.24 461.51,-359.48 456.19,-357.65 451.38,-355.76 447.12,-353.81 443.41,-351.81 440.29,-349.76 437.77,-347.66 435.87,-345.52 434.6,-343.34 433.97,-341.12 433.99,-338.88 434.66,-336.62 435.98,-334.34 437.95,-332.05 440.57,-329.75 443.83,-327.46 447.71,-325.17 452.2,-322.91 457.28,-320.66 462.94,-318.44 469.14,-316.26 475.87,-314.13 483.09,-312.05 490.78,-310.03 498.9,-308.08 507.41,-306.2 516.29,-304.4 525.49,-302.69 534.98,-301.08 544.72,-299.58"/>
<text text-anchor="middle" x="627.52" y="-334.39" font-family="sans-serif" font-size="16.00">RiskManagementContext</text>
</g>
<!-- RiskManagementContext&#45;&gt;PolicyManagementContext -->
<g id="edge7" class="edge">
<title>RiskManagementContext&#45;&gt;PolicyManagementContext</title>
<path fill="none" stroke="black" stroke-width="2" d="M638.69,-291.36C643.09,-273.3 648.11,-252.71 652.4,-235.1"/>
<text text-anchor="middle" x="687.52" y="-262.87" font-family="sans-serif" font-size="12.00">Shared Kernel</text>
</g>
</g>
</svg>
