<svg width="2000px" height="1096px"
 viewBox="0.00 0.00 987.47 541.44" xmlns="http://www.w3.org/2000/svg" xmlns:xlink="http://www.w3.org/1999/xlink">
<g id="graph0" class="graph" transform="scale(1.0 1.0) rotate(0) translate(4 537.44)">
<title>ContextMapGraph</title>
<polygon fill="white" stroke="transparent" points="-4,4 -4,-537.44 983.47,-537.44 983.47,4 -4,4"/>
<!-- CustomerManagementContext -->
<g id="node1" class="node">
<title>CustomerManagementContext</title>
<polygon fill="none" stroke="black" stroke-width="2" points="411.36,-350.4 408.6,-353.22 405.31,-355.99 401.49,-358.7 397.15,-361.35 392.31,-363.93 386.99,-366.41 381.19,-368.8 374.95,-371.08 368.27,-373.25 361.17,-375.3 353.68,-377.21 345.82,-378.99 337.61,-380.62 329.07,-382.11 320.23,-383.45 311.1,-384.63 301.72,-385.65 292.11,-386.52 282.29,-387.23 272.3,-387.78 262.14,-388.17 251.87,-388.4 241.49,-388.48 231.03,-388.4 220.53,-388.18 210.01,-387.82 199.49,-387.31 189.01,-386.68 178.58,-385.91 168.24,-385.02 158.01,-384.02 147.92,-382.91 137.99,-381.7 128.25,-380.39 118.71,-379 109.42,-377.52 100.39,-375.97 91.63,-374.35 83.19,-372.67 75.07,-370.94 67.31,-369.16 59.91,-367.35 52.9,-365.49 46.3,-363.61 40.13,-361.7 34.4,-359.77 29.13,-357.82 24.34,-355.87 20.04,-353.91 16.24,-351.94 12.95,-349.97 10.19,-348 7.96,-346.04 6.27,-344.08 5.13,-342.14 4.55,-340.2 4.52,-338.27 5.05,-336.36 6.15,-334.46 7.8,-332.57 10.01,-330.7 12.78,-328.85 16.09,-327.02 19.94,-325.21 24.33,-323.42 29.24,-321.65 34.66,-319.91 40.58,-318.2 46.98,-316.52 53.85,-314.87 61.17,-313.25 68.91,-311.68 77.07,-310.15 85.61,-308.66 94.51,-307.22 103.75,-305.84 113.3,-304.51 123.14,-303.25 133.24,-302.06 143.56,-300.94 154.08,-299.9 164.78,-298.95 175.61,-298.09 186.54,-297.32 197.55,-296.66 208.61,-296.1 219.67,-295.66 230.71,-295.33 241.69,-295.13 252.59,-295.05 263.36,-295.1 273.99,-295.29 284.43,-295.62 294.65,-296.09 304.63,-296.7 314.34,-297.46 323.75,-298.36 332.83,-299.41 341.55,-300.6 349.9,-301.94 357.84,-303.42 365.35,-305.03 372.42,-306.79 379.01,-308.67 385.13,-310.68 390.74,-312.81 395.84,-315.06 400.4,-317.41 404.43,-319.85 407.9,-322.39 410.81,-325.01 413.16,-327.69 414.94,-330.44 416.14,-333.24 416.77,-336.07 416.83,-338.93 416.31,-341.8 415.22,-344.68 413.57,-347.55 411.36,-350.4"/>
<text text-anchor="middle" x="210" y="-336.96" font-family="sans-serif" font-size="16.00">CustomerManagementContext</text>
</g>
<!-- CustomerSelfServiceContext -->
<g id="node2" class="node">
<title>CustomerSelfServiceContext</title>
<polygon fill="none" stroke="black" stroke-width="2" points="378.76,-173.14 385.38,-175.6 391.49,-178.11 397.07,-180.66 402.09,-183.24 406.53,-185.83 410.37,-188.43 413.59,-191.02 416.18,-193.61 418.11,-196.17 419.39,-198.7 419.99,-201.2 419.93,-203.65 419.19,-206.04 417.78,-208.38 415.7,-210.65 412.95,-212.85 409.56,-214.97 405.52,-217 400.86,-218.95 395.59,-220.81 389.73,-222.58 383.31,-224.25 376.36,-225.82 368.89,-227.29 360.94,-228.66 352.54,-229.93 343.73,-231.09 334.53,-232.15 324.99,-233.11 315.14,-233.97 305.01,-234.73 294.65,-235.39 284.09,-235.94 273.38,-236.41 262.55,-236.77 251.63,-237.05 240.67,-237.23 229.71,-237.32 218.77,-237.32 207.91,-237.24 197.14,-237.07 186.5,-236.81 176.02,-236.47 165.74,-236.06 155.68,-235.56 145.87,-234.98 136.33,-234.32 127.08,-233.59 118.15,-232.78 109.56,-231.89 101.32,-230.92 93.44,-229.89 85.96,-228.77 78.86,-227.58 72.17,-226.32 65.89,-224.99 60.04,-223.58 54.61,-222.1 49.61,-220.55 45.05,-218.92 40.92,-217.23 37.23,-215.47 33.98,-213.65 31.17,-211.76 28.79,-209.8 26.84,-207.79 25.33,-205.73 24.24,-203.61 23.58,-201.44 23.34,-199.23 23.52,-196.98 24.12,-194.7 25.12,-192.38 26.53,-190.05 28.35,-187.7 30.56,-185.33 33.17,-182.97 36.17,-180.61 39.56,-178.27 43.33,-175.94 47.48,-173.65 52.01,-171.39 56.9,-169.18 62.16,-167.02 67.78,-164.93 73.75,-162.91 80.08,-160.97 86.74,-159.12 93.73,-157.37 101.05,-155.72 108.68,-154.19 116.62,-152.78 124.85,-151.5 133.35,-150.35 142.13,-149.34 151.15,-148.48 160.4,-147.77 169.86,-147.21 179.52,-146.82 189.36,-146.58 199.34,-146.5 209.45,-146.59 219.66,-146.85 229.94,-147.27 240.27,-147.85 250.61,-148.59 260.94,-149.49 271.22,-150.55 281.42,-151.76 291.51,-153.11 301.46,-154.6 311.23,-156.23 320.78,-157.98 330.08,-159.86 339.1,-161.84 347.8,-163.93 356.15,-166.11 364.11,-168.38 371.66,-170.73 378.76,-173.14"/>
<text text-anchor="middle" x="210" y="-191.64" font-family="sans-serif" font-size="16.00">CustomerSelfServiceContext</text>
</g>
<!-- CustomerManagementContext&#45;&gt;CustomerSelfServiceContext -->
<g id="edge1" class="edge">
<title>CustomerManagementContext&#45;&gt;CustomerSelfServiceContext</title>
<path fill="none" stroke="black" stroke-width="2" d="M210,-295.98C210,-277.38 210,-255.8 210,-237.5"/>
<text text-anchor="middle" x="225.5" y="-265.55" font-family="sans-serif" font-size="12.00"> &#160;&#160;&#160;&#160;&#160;&#160;&#160;</text>
<polygon fill="white" stroke="transparent" points="203,-228.5 203,-245.5 217,-245.5 217,-228.5 203,-228.5"/>
<text text-anchor="start" x="205" y="-233.9" font-family="sans-serif" font-size="12.00">D</text>
<polygon fill="white" stroke="transparent" points="203,-286.98 203,-303.98 217,-303.98 217,-286.98 203,-286.98"/>
<text text-anchor="start" x="205" y="-292.38" font-family="sans-serif" font-size="12.00">U</text>
</g>
<!-- PolicyManagementContext -->
<g id="node3" class="node">
<title>PolicyManagementContext</title>
<polygon fill="none" stroke="black" stroke-width="2" points="746.55,-156.33 757.37,-157.57 767.91,-158.92 778.1,-160.36 787.92,-161.89 797.31,-163.5 806.25,-165.19 814.68,-166.96 822.59,-168.79 829.94,-170.69 836.7,-172.64 842.85,-174.64 848.37,-176.68 853.23,-178.77 857.42,-180.88 860.93,-183.02 863.76,-185.18 865.89,-187.36 867.33,-189.55 868.08,-191.74 868.15,-193.92 867.54,-196.11 866.26,-198.28 864.34,-200.43 861.79,-202.56 858.62,-204.67 854.87,-206.75 850.56,-208.79 845.71,-210.79 840.36,-212.75 834.53,-214.67 828.26,-216.53 821.58,-218.34 814.52,-220.09 807.11,-221.78 799.39,-223.41 791.4,-224.97 783.16,-226.45 774.71,-227.86 766.08,-229.2 757.31,-230.45 748.42,-231.62 739.44,-232.71 730.41,-233.7 721.34,-234.61 712.26,-235.42 703.2,-236.13 694.18,-236.75 685.21,-237.26 676.32,-237.68 667.52,-237.99 658.83,-238.19 650.25,-238.28 641.81,-238.27 633.51,-238.15 625.37,-237.91 617.38,-237.57 609.55,-237.11 601.9,-236.54 594.43,-235.86 587.14,-235.07 580.04,-234.16 573.13,-233.15 566.42,-232.03 559.9,-230.8 553.59,-229.46 547.49,-228.03 541.6,-226.5 535.93,-224.87 530.49,-223.15 525.28,-221.34 520.31,-219.44 515.58,-217.47 511.12,-215.43 506.93,-213.31 503.02,-211.13 499.4,-208.9 496.09,-206.62 493.1,-204.29 490.44,-201.93 488.14,-199.53 486.2,-197.12 484.64,-194.69 483.48,-192.25 482.74,-189.82 482.42,-187.4 482.54,-184.99 483.13,-182.61 484.19,-180.26 485.73,-177.95 487.77,-175.69 490.31,-173.48 493.37,-171.34 496.95,-169.27 501.06,-167.28 505.7,-165.38 510.86,-163.56 516.55,-161.84 522.76,-160.23 529.48,-158.72 536.7,-157.32 544.41,-156.05 552.6,-154.89 561.23,-153.86 570.3,-152.95 579.78,-152.18 589.63,-151.54 599.83,-151.03 610.35,-150.65 621.14,-150.41 632.18,-150.31 643.43,-150.34 654.83,-150.5 666.36,-150.8 677.96,-151.22 689.58,-151.77 701.2,-152.45 712.75,-153.25 724.19,-154.16 735.47,-155.19 746.55,-156.33"/>
<text text-anchor="middle" x="664" y="-191.64" font-family="sans-serif" font-size="16.00">PolicyManagementContext</text>
</g>
<!-- CustomerManagementContext&#45;&gt;PolicyManagementContext -->
<g id="edge2" class="edge">
<title>CustomerManagementContext&#45;&gt;PolicyManagementContext</title>
<path fill="none" stroke="black" stroke-width="2" d="M336.46,-299.84C405.86,-277.93 490.97,-251.06 557.03,-230.21"/>
<text text-anchor="middle" x="466.5" y="-265.55" font-family="sans-serif" font-size="12.00"> &#160;&#160;&#160;&#160;&#160;&#160;&#160;</text>
<polygon fill="white" stroke="transparent" points="550.03,-221.21 550.03,-238.21 564.03,-238.21 564.03,-221.21 550.03,-221.21"/>
<text text-anchor="start" x="552.03" y="-226.61" font-family="sans-serif" font-size="12.00">D</text>
<polygon fill="white" stroke="transparent" points="329.46,-290.84 329.46,-307.84 343.46,-307.84 343.46,-290.84 329.46,-290.84"/>
<text text-anchor="start" x="331.46" y="-296.24" font-family="sans-serif" font-size="12.00">U</text>
</g>
<!-- DebtCollection -->
<g id="node4" class="node">
<title>DebtCollection</title>
<polygon fill="none" stroke="black" stroke-width="2" points="696.83,-23.33 701.11,-20.98 705.61,-18.72 710.33,-16.54 715.24,-14.48 720.34,-12.52 725.59,-10.69 730.98,-8.98 736.5,-7.41 742.12,-5.98 747.82,-4.69 753.6,-3.56 759.43,-2.59 765.29,-1.77 771.17,-1.12 777.05,-0.63 782.92,-0.3 788.76,-0.14 794.56,-0.14 800.3,-0.31 805.97,-0.64 811.56,-1.12 817.05,-1.76 822.44,-2.55 827.71,-3.48 832.85,-4.56 837.86,-5.77 842.73,-7.1 847.44,-8.55 851.99,-10.12 856.38,-11.79 860.59,-13.55 864.62,-15.41 868.47,-17.34 872.12,-19.35 875.57,-21.42 878.82,-23.54 881.87,-25.71 884.7,-27.92 887.31,-30.15 889.7,-32.41 891.86,-34.68 893.79,-36.96 895.49,-39.24 896.95,-41.52 898.16,-43.78 899.13,-46.02 899.85,-48.24 900.31,-50.43 900.51,-52.58 900.45,-54.7 900.13,-56.77 899.54,-58.8 898.69,-60.78 897.56,-62.72 896.16,-64.59 894.49,-66.42 892.54,-68.19 890.32,-69.89 887.83,-71.54 885.06,-73.13 882.03,-74.66 878.74,-76.13 875.18,-77.53 871.37,-78.87 867.3,-80.14 862.99,-81.35 858.45,-82.5 853.68,-83.57 848.7,-84.58 843.51,-85.52 838.12,-86.4 832.56,-87.2 826.83,-87.93 820.95,-88.58 814.93,-89.16 808.8,-89.66 802.57,-90.08 796.25,-90.42 789.88,-90.67 783.46,-90.84 777.03,-90.92 770.59,-90.9 764.17,-90.79 757.8,-90.59 751.5,-90.28 745.28,-89.88 739.17,-89.37 733.19,-88.75 727.37,-88.02 721.72,-87.19 716.26,-86.25 711.02,-85.19 706.02,-84.03 701.26,-82.75 696.78,-81.36 692.58,-79.86 688.69,-78.26 685.11,-76.55 681.87,-74.73 678.96,-72.81 676.4,-70.8 674.21,-68.7 672.38,-66.5 670.92,-64.23 669.84,-61.88 669.14,-59.47 668.81,-56.99 668.87,-54.46 669.3,-51.88 670.11,-49.27 671.28,-46.63 672.81,-43.98 674.7,-41.31 676.93,-38.65 679.49,-36.01 682.37,-33.38 685.56,-30.79 689.04,-28.25 692.8,-25.76 696.83,-23.33"/>
<text text-anchor="middle" x="790" y="-45.06" font-family="sans-serif" font-size="16.00">DebtCollection</text>
</g>
<!-- PolicyManagementContext&#45;&gt;DebtCollection -->
<g id="edge3" class="edge">
<title>PolicyManagementContext&#45;&gt;DebtCollection</title>
<path fill="none" stroke="black" stroke-width="2" d="M700.78,-152.23C717.63,-132.89 737.53,-110.06 754.25,-90.87"/>
<text text-anchor="middle" x="772" y="-119.12" font-family="sans-serif" font-size="12.00">Shared Kernel</text>
</g>
<!-- PrintingContext -->
<g id="node5" class="node">
<title>PrintingContext</title>
<polygon fill="none" stroke="black" stroke-width="2" points="977.91,-481.3 978.76,-484.16 979.28,-487 979.45,-489.84 979.28,-492.64 978.77,-495.4 977.92,-498.11 976.72,-500.76 975.18,-503.34 973.31,-505.84 971.1,-508.25 968.56,-510.56 965.7,-512.76 962.52,-514.86 959.04,-516.83 955.26,-518.68 951.19,-520.41 946.85,-522 942.25,-523.45 937.4,-524.77 932.31,-525.95 927.01,-526.99 921.5,-527.88 915.81,-528.64 909.94,-529.26 903.93,-529.74 897.78,-530.09 891.51,-530.3 885.16,-530.39 878.72,-530.35 872.23,-530.19 865.71,-529.91 859.17,-529.52 852.63,-529.02 846.12,-528.42 839.65,-527.72 833.24,-526.93 826.92,-526.05 820.69,-525.09 814.59,-524.06 808.62,-522.95 802.8,-521.77 797.16,-520.53 791.7,-519.23 786.45,-517.87 781.41,-516.47 776.6,-515.01 772.03,-513.51 767.72,-511.97 763.67,-510.39 759.9,-508.77 756.41,-507.12 753.21,-505.44 750.32,-503.72 747.73,-501.97 745.45,-500.2 743.49,-498.39 741.84,-496.57 740.52,-494.71 739.52,-492.84 738.85,-490.94 738.49,-489.02 738.47,-487.08 738.76,-485.12 739.36,-483.15 740.29,-481.16 741.52,-479.16 743.06,-477.15 744.9,-475.13 747.03,-473.12 749.44,-471.1 752.14,-469.08 755.11,-467.08 758.34,-465.08 761.82,-463.11 765.54,-461.16 769.5,-459.23 773.69,-457.35 778.08,-455.5 782.68,-453.71 787.46,-451.96 792.43,-450.29 797.56,-448.68 802.84,-447.15 808.26,-445.7 813.81,-444.34 819.48,-443.09 825.24,-441.94 831.09,-440.9 837.02,-439.98 843,-439.19 849.03,-438.53 855.08,-438.01 861.15,-437.64 867.23,-437.41 873.28,-437.33 879.31,-437.41 885.3,-437.65 891.22,-438.05 897.07,-438.61 902.83,-439.33 908.49,-440.21 914.03,-441.25 919.43,-442.45 924.69,-443.8 929.78,-445.31 934.7,-446.96 939.42,-448.76 943.94,-450.69 948.24,-452.75 952.32,-454.93 956.14,-457.22 959.72,-459.62 963.03,-462.11 966.06,-464.69 968.8,-467.34 971.25,-470.05 973.39,-472.81 975.22,-475.62 976.73,-478.45 977.91,-481.3"/>
<text text-anchor="middle" x="858" y="-481.6" font-family="sans-serif" font-size="16.00">PrintingContext</text>
</g>
<!-- PrintingContext&#45;&gt;CustomerManagementContext -->
<g id="edge4" class="edge">
<title>PrintingContext&#45;&gt;CustomerManagementContext</title>
<path fill="none" stroke="black" stroke-width="2" d="M761.34,-463.13C655.76,-439.88 485.25,-402.35 361.78,-375.17"/>
<text text-anchor="middle" x="569.5" y="-409.77" font-family="sans-serif" font-size="12.00"> &#160;&#160;&#160;&#160;&#160;&#160;&#160;</text>
<polygon fill="white" stroke="transparent" points="354.78,-366.17 354.78,-383.17 368.78,-383.17 368.78,-366.17 354.78,-366.17"/>
<text text-anchor="start" x="356.78" y="-371.57" font-family="sans-serif" font-size="12.00">D</text>
<polygon fill="white" stroke="transparent" points="754.34,-454.13 754.34,-471.13 768.34,-471.13 768.34,-454.13 754.34,-454.13"/>
<text text-anchor="start" x="756.34" y="-459.53" font-family="sans-serif" font-size="12.00">U</text>
</g>
<!-- PrintingContext&#45;&gt;PolicyManagementContext -->
<g id="edge5" class="edge">
<title>PrintingContext&#45;&gt;PolicyManagementContext</title>
<path fill="none" stroke="black" stroke-width="2" d="M862.31,-437.5C863.74,-396.09 859.77,-335.84 831,-293.15 812.83,-266.2 784.46,-245.79 756.22,-230.83"/>
<text text-anchor="middle" x="875.5" y="-337.66" font-family="sans-serif" font-size="12.00"> &#160;&#160;&#160;&#160;&#160;&#160;&#160;</text>
<polygon fill="white" stroke="transparent" points="749.22,-221.83 749.22,-238.83 763.22,-238.83 763.22,-221.83 749.22,-221.83"/>
<text text-anchor="start" x="751.22" y="-227.23" font-family="sans-serif" font-size="12.00">D</text>
<polygon fill="white" stroke="transparent" points="855.31,-428.5 855.31,-445.5 869.31,-445.5 869.31,-428.5 855.31,-428.5"/>
<text text-anchor="start" x="857.31" y="-433.9" font-family="sans-serif" font-size="12.00">U</text>
</g>
<!-- PrintingContext&#45;&gt;DebtCollection -->
<g id="edge6" class="edge">
<title>PrintingContext&#45;&gt;DebtCollection</title>
<path fill="none" stroke="black" stroke-width="2" d="M880.2,-437.05C886.25,-421.85 891.96,-404.71 895,-388.37 914.69,-282.49 921.61,-244.75 877,-146.72 866.89,-124.5 849.82,-103.79 833.47,-87.27"/>
<text text-anchor="middle" x="925.5" y="-265.55" font-family="sans-serif" font-size="12.00"> &#160;&#160;&#160;&#160;&#160;&#160;&#160;</text>
<polygon fill="white" stroke="transparent" points="826.47,-78.27 826.47,-95.27 840.47,-95.27 840.47,-78.27 826.47,-78.27"/>
<text text-anchor="start" x="828.47" y="-83.67" font-family="sans-serif" font-size="12.00">D</text>
<polygon fill="white" stroke="transparent" points="873.2,-428.05 873.2,-445.05 887.2,-445.05 887.2,-428.05 873.2,-428.05"/>
<text text-anchor="start" x="875.2" y="-433.45" font-family="sans-serif" font-size="12.00">U</text>
</g>
<!-- RiskManagementContext -->
<g id="node6" class="node">
<title>RiskManagementContext</title>
<polygon fill="none" stroke="black" stroke-width="2" points="705.31,-380.29 695.19,-381.61 684.92,-382.81 674.54,-383.89 664.09,-384.84 653.61,-385.66 643.15,-386.34 632.73,-386.88 622.39,-387.29 612.19,-387.54 602.14,-387.65 592.28,-387.62 582.64,-387.43 573.25,-387.1 564.14,-386.62 555.34,-385.99 546.86,-385.22 538.73,-384.31 530.96,-383.26 523.57,-382.07 516.58,-380.76 509.99,-379.32 503.82,-377.75 498.06,-376.08 492.74,-374.3 487.84,-372.41 483.37,-370.43 479.34,-368.37 475.73,-366.23 472.54,-364.01 469.77,-361.73 467.42,-359.4 465.48,-357.02 463.93,-354.61 462.77,-352.17 462,-349.7 461.6,-347.23 461.57,-344.75 461.89,-342.28 462.57,-339.82 463.58,-337.38 464.92,-334.96 466.58,-332.59 468.56,-330.25 470.85,-327.97 473.44,-325.74 476.32,-323.57 479.5,-321.47 482.97,-319.44 486.72,-317.49 490.74,-315.62 495.05,-313.83 499.63,-312.13 504.47,-310.52 509.59,-309.01 514.98,-307.59 520.62,-306.27 526.53,-305.05 532.7,-303.93 539.12,-302.92 545.79,-302 552.71,-301.19 559.86,-300.49 567.25,-299.88 574.87,-299.38 582.69,-298.98 590.73,-298.68 598.96,-298.49 607.36,-298.39 615.94,-298.39 624.65,-298.49 633.5,-298.69 642.46,-298.98 651.5,-299.37 660.61,-299.85 669.76,-300.42 678.92,-301.09 688.06,-301.84 697.16,-302.68 706.19,-303.6 715.11,-304.62 723.88,-305.71 732.49,-306.88 740.89,-308.14 749.06,-309.47 756.94,-310.89 764.53,-312.37 771.77,-313.93 778.63,-315.56 785.09,-317.25 791.12,-319.01 796.67,-320.84 801.73,-322.72 806.27,-324.66 810.26,-326.66 813.68,-328.7 816.51,-330.79 818.74,-332.92 820.34,-335.09 821.3,-337.29 821.63,-339.52 821.3,-341.78 820.32,-344.04 818.68,-346.32 816.39,-348.61 813.46,-350.89 809.89,-353.17 805.7,-355.43 800.9,-357.67 795.52,-359.88 789.57,-362.06 783.07,-364.19 776.06,-366.28 768.56,-368.3 760.61,-370.27 752.23,-372.16 743.47,-373.97 734.36,-375.7 724.94,-377.33 715.24,-378.86 705.31,-380.29"/>
<text text-anchor="middle" x="628" y="-336.96" font-family="sans-serif" font-size="16.00">RiskManagementContext</text>
</g>
<!-- RiskManagementContext&#45;&gt;PolicyManagementContext -->
<g id="edge7" class="edge">
<title>RiskManagementContext&#45;&gt;PolicyManagementContext</title>
<path fill="none" stroke="black" stroke-width="2" d="M638.31,-298.69C643.05,-279.83 648.66,-257.49 653.43,-238.51"/>
<text text-anchor="middle" x="689" y="-265.55" font-family="sans-serif" font-size="12.00">Shared Kernel</text>
</g>
</g>
</svg>
