<svg width="2000px" height="1132px"
 viewBox="0.00 0.00 955.97 541.07" xmlns="http://www.w3.org/2000/svg" xmlns:xlink="http://www.w3.org/1999/xlink">
<g id="graph0" class="graph" transform="scale(1.0 1.0) rotate(0) translate(4 537.07)">
<title>ContextMapGraph</title>
<polygon fill="white" stroke="transparent" points="-4,4 -4,-537.07 951.97,-537.07 951.97,4 -4,4"/>
<!-- CustomerManagementContext -->
<g id="node1" class="node">
<title>CustomerManagementContext</title>
<polygon fill="none" stroke="black" stroke-width="2" points="412.52,-329.67 415.6,-332.47 418.1,-335.28 420.02,-338.08 421.34,-340.88 422.05,-343.64 422.14,-346.37 421.62,-349.06 420.48,-351.69 418.72,-354.25 416.34,-356.74 413.35,-359.15 409.75,-361.47 405.55,-363.69 400.76,-365.81 395.39,-367.82 389.47,-369.71 383,-371.48 376.01,-373.13 368.52,-374.66 360.54,-376.06 352.12,-377.32 343.27,-378.46 334.03,-379.47 324.41,-380.34 314.46,-381.09 304.21,-381.71 293.69,-382.2 282.93,-382.57 271.97,-382.81 260.85,-382.94 249.6,-382.96 238.26,-382.86 226.86,-382.66 215.45,-382.35 204.05,-381.94 192.71,-381.44 181.46,-380.85 170.33,-380.18 159.36,-379.42 148.58,-378.58 138.02,-377.67 127.72,-376.69 117.7,-375.64 108,-374.53 98.63,-373.36 89.62,-372.13 81,-370.84 72.79,-369.5 65,-368.11 57.66,-366.67 50.79,-365.19 44.4,-363.65 38.49,-362.08 33.09,-360.46 28.2,-358.8 23.84,-357.09 20,-355.35 16.69,-353.57 13.92,-351.75 11.69,-349.89 9.99,-348 8.83,-346.08 8.21,-344.12 8.11,-342.13 8.55,-340.11 9.5,-338.07 10.96,-336.01 12.93,-333.92 15.4,-331.82 18.36,-329.71 21.79,-327.59 25.68,-325.46 30.03,-323.34 34.82,-321.22 40.04,-319.12 45.67,-317.03 51.7,-314.97 58.12,-312.94 64.9,-310.95 72.04,-309.01 79.52,-307.12 87.32,-305.3 95.42,-303.54 103.81,-301.86 112.47,-300.27 121.38,-298.77 130.52,-297.37 139.87,-296.08 149.42,-294.9 159.14,-293.85 169,-292.93 179,-292.14 189.11,-291.5 199.3,-291 209.55,-290.66 219.84,-290.47 230.15,-290.43 240.44,-290.57 250.71,-290.86 260.91,-291.32 271.03,-291.94 281.04,-292.73 290.91,-293.68 300.62,-294.79 310.14,-296.06 319.44,-297.49 328.49,-299.06 337.28,-300.78 345.77,-302.63 353.94,-304.62 361.76,-306.72 369.2,-308.95 376.25,-311.27 382.88,-313.7 389.05,-316.21 394.76,-318.79 399.99,-321.44 404.7,-324.15 408.88,-326.89 412.52,-329.67"/>
<text text-anchor="middle" x="211.05" y="-335.29" font-family="sans-serif" font-size="16.00">CustomerManagementContext</text>
</g>
<!-- PolicyManagementContext -->
<g id="node2" class="node">
<title>PolicyManagementContext</title>
<polygon fill="none" stroke="black" stroke-width="2" points="810.57,-211.24 805.71,-213.88 800.42,-216.44 794.71,-218.93 788.62,-221.34 782.15,-223.64 775.34,-225.84 768.2,-227.92 760.75,-229.87 753.03,-231.7 745.06,-233.38 736.85,-234.92 728.43,-236.32 719.84,-237.55 711.08,-238.63 702.19,-239.54 693.19,-240.3 684.11,-240.88 674.96,-241.3 665.77,-241.56 656.56,-241.65 647.35,-241.58 638.17,-241.36 629.03,-240.97 619.96,-240.44 610.98,-239.75 602.11,-238.93 593.36,-237.97 584.76,-236.88 576.31,-235.67 568.05,-234.34 559.99,-232.91 552.14,-231.37 544.52,-229.74 537.14,-228.03 530.03,-226.24 523.2,-224.38 516.65,-222.47 510.42,-220.49 504.5,-218.48 498.92,-216.42 493.68,-214.34 488.8,-212.23 484.29,-210.1 480.17,-207.96 476.44,-205.82 473.11,-203.68 470.2,-201.54 467.72,-199.42 465.66,-197.3 464.06,-195.21 462.9,-193.14 462.2,-191.09 461.96,-189.07 462.19,-187.08 462.89,-185.12 464.06,-183.2 465.72,-181.31 467.85,-179.46 470.46,-177.65 473.54,-175.88 477.1,-174.15 481.13,-172.46 485.61,-170.81 490.56,-169.21 495.95,-167.66 501.77,-166.15 508.02,-164.68 514.68,-163.27 521.74,-161.91 529.17,-160.6 536.97,-159.34 545.11,-158.14 553.57,-157 562.32,-155.93 571.35,-154.91 580.62,-153.97 590.12,-153.1 599.81,-152.3 609.67,-151.58 619.66,-150.95 629.76,-150.4 639.93,-149.94 650.14,-149.58 660.36,-149.31 670.56,-149.15 680.7,-149.1 690.75,-149.15 700.68,-149.32 710.45,-149.61 720.03,-150.02 729.4,-150.55 738.51,-151.21 747.35,-151.99 755.87,-152.91 764.06,-153.95 771.89,-155.12 779.32,-156.42 786.34,-157.85 792.92,-159.4 799.05,-161.08 804.7,-162.88 809.85,-164.8 814.5,-166.83 818.62,-168.96 822.21,-171.2 825.26,-173.54 827.76,-175.96 829.71,-178.46 831.09,-181.04 831.92,-183.67 832.19,-186.37 831.9,-189.1 831.06,-191.87 829.68,-194.66 827.76,-197.46 825.32,-200.26 822.37,-203.05 818.91,-205.82 814.97,-208.55 810.57,-211.24"/>
<text text-anchor="middle" x="643.05" y="-189.07" font-family="sans-serif" font-size="16.00">PolicyManagementContext</text>
</g>
<!-- CustomerManagementContext&#45;&gt;PolicyManagementContext -->
<g id="edge1" class="edge">
<title>CustomerManagementContext&#45;&gt;PolicyManagementContext</title>
<path fill="none" stroke="black" stroke-width="2" d="M328.24,-298.97C394.08,-276.99 475.53,-249.79 539.09,-228.58"/>
<text text-anchor="middle" x="454.55" y="-262.91" font-family="sans-serif" font-size="12.00"> &#160;&#160;&#160;&#160;&#160;&#160;&#160;</text>
<polygon fill="white" stroke="transparent" points="532.09,-219.58 532.09,-236.58 546.09,-236.58 546.09,-219.58 532.09,-219.58"/>
<text text-anchor="start" x="534.09" y="-224.98" font-family="sans-serif" font-size="12.00">D</text>
<polygon fill="white" stroke="transparent" points="321.24,-289.97 321.24,-306.97 335.24,-306.97 335.24,-289.97 321.24,-289.97"/>
<text text-anchor="start" x="323.24" y="-295.37" font-family="sans-serif" font-size="12.00">U</text>
</g>
<!-- CustomerSelfServiceContext -->
<g id="node4" class="node">
<title>CustomerSelfServiceContext</title>
<polygon fill="none" stroke="black" stroke-width="2" points="29.04,-176.68 33.58,-174 38.59,-171.38 44.07,-168.84 49.98,-166.37 56.3,-164 63.02,-161.73 70.11,-159.57 77.55,-157.53 85.32,-155.62 93.39,-153.84 101.74,-152.21 110.35,-150.72 119.18,-149.38 128.22,-148.2 137.44,-147.18 146.81,-146.32 156.32,-145.62 165.93,-145.09 175.62,-144.72 185.37,-144.51 195.15,-144.47 204.95,-144.58 214.73,-144.85 224.48,-145.27 234.16,-145.84 243.77,-146.55 253.28,-147.39 262.66,-148.37 271.9,-149.47 280.97,-150.68 289.86,-152.01 298.55,-153.44 307.01,-154.96 315.24,-156.58 323.2,-158.27 330.88,-160.03 338.27,-161.86 345.35,-163.74 352.09,-165.67 358.5,-167.65 364.54,-169.66 370.21,-171.69 375.48,-173.75 380.36,-175.83 384.81,-177.91 388.84,-180 392.43,-182.09 395.56,-184.18 398.22,-186.25 400.42,-188.31 402.13,-190.36 403.35,-192.39 404.07,-194.4 404.29,-196.38 404,-198.33 403.2,-200.26 401.89,-202.16 400.06,-204.03 397.71,-205.86 394.85,-207.66 391.48,-209.43 387.6,-211.16 383.22,-212.85 378.35,-214.5 372.99,-216.12 367.16,-217.69 360.87,-219.23 354.13,-220.72 346.96,-222.16 339.38,-223.56 331.4,-224.9 323.04,-226.2 314.33,-227.43 305.3,-228.62 295.95,-229.73 286.33,-230.79 276.45,-231.78 266.36,-232.69 256.07,-233.53 245.61,-234.28 235.03,-234.95 224.34,-235.54 213.59,-236.03 202.81,-236.42 192.03,-236.7 181.28,-236.88 170.61,-236.95 160.03,-236.91 149.6,-236.74 139.33,-236.46 129.27,-236.04 119.45,-235.5 109.89,-234.83 100.63,-234.03 91.7,-233.1 83.13,-232.03 74.94,-230.83 67.16,-229.5 59.81,-228.03 52.92,-226.44 46.51,-224.72 40.6,-222.88 35.19,-220.91 30.32,-218.84 25.99,-216.66 22.21,-214.37 19,-211.99 16.35,-209.53 14.28,-206.99 12.79,-204.37 11.88,-201.7 11.55,-198.98 11.8,-196.21 12.61,-193.42 13.99,-190.61 15.93,-187.79 18.42,-184.98 21.44,-182.18 24.98,-179.41 29.04,-176.68"/>
<text text-anchor="middle" x="211.05" y="-189.07" font-family="sans-serif" font-size="16.00">CustomerSelfServiceContext</text>
</g>
<!-- CustomerManagementContext&#45;&gt;CustomerSelfServiceContext -->
<g id="edge2" class="edge">
<title>CustomerManagementContext&#45;&gt;CustomerSelfServiceContext</title>
<path fill="none" stroke="black" stroke-width="2" d="M211.05,-290.47C211.05,-273.07 211.05,-253.52 211.05,-236.58"/>
<text text-anchor="middle" x="226.55" y="-262.91" font-family="sans-serif" font-size="12.00"> &#160;&#160;&#160;&#160;&#160;&#160;&#160;</text>
<polygon fill="white" stroke="transparent" points="204.05,-227.58 204.05,-244.58 218.05,-244.58 218.05,-227.58 204.05,-227.58"/>
<text text-anchor="start" x="206.05" y="-232.98" font-family="sans-serif" font-size="12.00">D</text>
<polygon fill="white" stroke="transparent" points="204.05,-281.47 204.05,-298.47 218.05,-298.47 218.05,-281.47 204.05,-281.47"/>
<text text-anchor="start" x="206.05" y="-286.87" font-family="sans-serif" font-size="12.00">U</text>
</g>
<!-- DebtCollection -->
<g id="node3" class="node">
<title>DebtCollection</title>
<polygon fill="none" stroke="black" stroke-width="2" points="846.27,-16.83 851.6,-18.85 856.68,-20.95 861.47,-23.12 865.95,-25.34 870.12,-27.6 873.95,-29.91 877.42,-32.25 880.53,-34.61 883.25,-36.99 885.57,-39.37 887.49,-41.75 889,-44.13 890.09,-46.49 890.75,-48.83 891,-51.14 890.82,-53.42 890.21,-55.65 889.2,-57.85 887.77,-59.99 885.93,-62.08 883.7,-64.1 881.09,-66.07 878.12,-67.97 874.78,-69.8 871.11,-71.56 867.12,-73.25 862.82,-74.85 858.25,-76.38 853.41,-77.83 848.33,-79.2 843.03,-80.48 837.53,-81.69 831.86,-82.8 826.04,-83.83 820.09,-84.78 814.03,-85.64 807.9,-86.41 801.7,-87.1 795.46,-87.69 789.21,-88.2 782.95,-88.63 776.72,-88.96 770.53,-89.2 764.4,-89.36 758.35,-89.42 752.39,-89.4 746.53,-89.28 740.79,-89.07 735.18,-88.77 729.72,-88.38 724.41,-87.9 719.27,-87.32 714.29,-86.65 709.5,-85.89 704.88,-85.03 700.46,-84.08 696.23,-83.03 692.2,-81.9 688.37,-80.67 684.74,-79.34 681.32,-77.93 678.11,-76.43 675.1,-74.84 672.31,-73.16 669.72,-71.4 667.34,-69.56 665.17,-67.64 663.22,-65.65 661.48,-63.59 659.95,-61.46 658.63,-59.27 657.53,-57.02 656.64,-54.73 655.98,-52.39 655.53,-50.01 655.3,-47.61 655.3,-45.18 655.53,-42.73 655.98,-40.27 656.67,-37.82 657.59,-35.37 658.75,-32.93 660.14,-30.53 661.79,-28.15 663.67,-25.82 665.81,-23.54 668.19,-21.31 670.83,-19.16 673.71,-17.08 676.85,-15.09 680.24,-13.19 683.88,-11.4 687.77,-9.7 691.89,-8.13 696.26,-6.68 700.87,-5.35 705.7,-4.16 710.75,-3.1 716.01,-2.19 721.47,-1.43 727.12,-0.81 732.94,-0.35 738.93,-0.04 745.06,0.12 751.32,0.11 757.69,-0.04 764.15,-0.35 770.68,-0.81 777.26,-1.43 783.87,-2.19 790.49,-3.09 797.09,-4.14 803.64,-5.31 810.13,-6.62 816.53,-8.05 822.81,-9.6 828.95,-11.26 834.92,-13.02 840.7,-14.88 846.27,-16.83"/>
<text text-anchor="middle" x="764.05" y="-43.82" font-family="sans-serif" font-size="16.00">DebtCollection</text>
</g>
<!-- PolicyManagementContext&#45;&gt;DebtCollection -->
<g id="edge3" class="edge">
<title>PolicyManagementContext&#45;&gt;DebtCollection</title>
<path fill="none" stroke="black" stroke-width="2" d="M679.35,-148.89C695.5,-129.77 714.41,-107.39 730.25,-88.63"/>
<text text-anchor="middle" x="749.05" y="-116.63" font-family="sans-serif" font-size="12.00">Shared Kernel</text>
</g>
<!-- PrintingContext -->
<g id="node5" class="node">
<title>PrintingContext</title>
<polygon fill="none" stroke="black" stroke-width="2" points="711.98,-470.76 714.38,-468.02 717.08,-465.33 720.08,-462.71 723.35,-460.17 726.89,-457.71 730.69,-455.35 734.74,-453.1 739.01,-450.97 743.51,-448.96 748.21,-447.08 753.1,-445.34 758.17,-443.74 763.4,-442.3 768.78,-441 774.29,-439.87 779.93,-438.9 785.66,-438.09 791.49,-437.44 797.38,-436.95 803.34,-436.63 809.34,-436.47 815.37,-436.47 821.41,-436.62 827.46,-436.93 833.49,-437.38 839.49,-437.98 845.45,-438.72 851.35,-439.59 857.18,-440.58 862.92,-441.7 868.57,-442.92 874.11,-444.25 879.53,-445.69 884.81,-447.21 889.94,-448.81 894.91,-450.49 899.71,-452.23 904.32,-454.04 908.74,-455.9 912.95,-457.81 916.95,-459.75 920.73,-461.73 924.26,-463.74 927.55,-465.76 930.59,-467.8 933.36,-469.85 935.86,-471.91 938.08,-473.96 940.02,-476.02 941.66,-478.06 943,-480.09 944.04,-482.12 944.78,-484.12 945.2,-486.11 945.3,-488.08 945.08,-490.02 944.55,-491.94 943.69,-493.84 942.52,-495.7 941.02,-497.55 939.2,-499.36 937.07,-501.14 934.62,-502.89 931.87,-504.61 928.81,-506.29 925.46,-507.94 921.82,-509.56 917.89,-511.13 913.7,-512.67 909.24,-514.16 904.54,-515.6 899.59,-517 894.42,-518.34 889.04,-519.64 883.47,-520.87 877.71,-522.04 871.79,-523.15 865.72,-524.18 859.52,-525.15 853.21,-526.03 846.81,-526.83 840.34,-527.54 833.81,-528.16 827.24,-528.67 820.66,-529.09 814.09,-529.4 807.55,-529.59 801.05,-529.67 794.62,-529.63 788.27,-529.46 782.04,-529.17 775.93,-528.74 769.97,-528.18 764.17,-527.49 758.55,-526.66 753.13,-525.68 747.93,-524.58 742.96,-523.33 738.24,-521.95 733.79,-520.43 729.6,-518.78 725.7,-517 722.11,-515.09 718.82,-513.07 715.84,-510.93 713.2,-508.68 710.88,-506.33 708.9,-503.88 707.27,-501.36 705.98,-498.75 705.04,-496.08 704.44,-493.35 704.2,-490.57 704.3,-487.76 704.74,-484.92 705.53,-482.07 706.65,-479.22 708.1,-476.37 709.88,-473.55 711.98,-470.76"/>
<text text-anchor="middle" x="826.05" y="-481.07" font-family="sans-serif" font-size="16.00">PrintingContext</text>
</g>
<!-- PrintingContext&#45;&gt;CustomerManagementContext -->
<g id="edge5" class="edge">
<title>PrintingContext&#45;&gt;CustomerManagementContext</title>
<path fill="none" stroke="black" stroke-width="2" d="M723.46,-459.88C625.12,-436.89 475.47,-401.91 363.24,-375.67"/>
<text text-anchor="middle" x="551.55" y="-409.07" font-family="sans-serif" font-size="12.00"> &#160;&#160;&#160;&#160;&#160;&#160;&#160;</text>
<polygon fill="white" stroke="transparent" points="356.24,-366.67 356.24,-383.67 370.24,-383.67 370.24,-366.67 356.24,-366.67"/>
<text text-anchor="start" x="358.24" y="-372.07" font-family="sans-serif" font-size="12.00">D</text>
<polygon fill="white" stroke="transparent" points="716.46,-450.88 716.46,-467.88 730.46,-467.88 730.46,-450.88 716.46,-450.88"/>
<text text-anchor="start" x="718.46" y="-456.28" font-family="sans-serif" font-size="12.00">U</text>
</g>
<!-- PrintingContext&#45;&gt;PolicyManagementContext -->
<g id="edge4" class="edge">
<title>PrintingContext&#45;&gt;PolicyManagementContext</title>
<path fill="none" stroke="black" stroke-width="2" d="M830.18,-437.07C831.52,-395.33 827.54,-334.25 799.05,-290.51 784.09,-267.56 761.58,-249.12 738.27,-234.75"/>
<text text-anchor="middle" x="843.55" y="-335.99" font-family="sans-serif" font-size="12.00"> &#160;&#160;&#160;&#160;&#160;&#160;&#160;</text>
<polygon fill="white" stroke="transparent" points="731.27,-225.75 731.27,-242.75 745.27,-242.75 745.27,-225.75 731.27,-225.75"/>
<text text-anchor="start" x="733.27" y="-231.15" font-family="sans-serif" font-size="12.00">D</text>
<polygon fill="white" stroke="transparent" points="823.18,-428.07 823.18,-445.07 837.18,-445.07 837.18,-428.07 823.18,-428.07"/>
<text text-anchor="start" x="825.18" y="-433.47" font-family="sans-serif" font-size="12.00">U</text>
</g>
<!-- PrintingContext&#45;&gt;DebtCollection -->
<g id="edge6" class="edge">
<title>PrintingContext&#45;&gt;DebtCollection</title>
<path fill="none" stroke="black" stroke-width="2" d="M847.27,-438.87C853.67,-423.05 859.85,-404.91 863.05,-387.67 882.88,-280.86 884.71,-243.7 841.05,-144.23 831.97,-123.54 817.21,-103.59 803.02,-87.32"/>
<text text-anchor="middle" x="891.55" y="-262.91" font-family="sans-serif" font-size="12.00"> &#160;&#160;&#160;&#160;&#160;&#160;&#160;</text>
<polygon fill="white" stroke="transparent" points="796.02,-78.32 796.02,-95.32 810.02,-95.32 810.02,-78.32 796.02,-78.32"/>
<text text-anchor="start" x="798.02" y="-83.72" font-family="sans-serif" font-size="12.00">D</text>
<polygon fill="white" stroke="transparent" points="840.27,-429.87 840.27,-446.87 854.27,-446.87 854.27,-429.87 840.27,-429.87"/>
<text text-anchor="start" x="842.27" y="-435.27" font-family="sans-serif" font-size="12.00">U</text>
</g>
<!-- RiskManagementContext -->
<g id="node6" class="node">
<title>RiskManagementContext</title>
<polygon fill="none" stroke="black" stroke-width="2" points="785.83,-347.95 783.69,-350.77 781.1,-353.55 778.06,-356.27 774.58,-358.93 770.67,-361.51 766.34,-364.01 761.61,-366.42 756.49,-368.72 751,-370.9 745.15,-372.97 738.95,-374.9 732.44,-376.71 725.61,-378.37 718.5,-379.88 711.12,-381.25 703.49,-382.46 695.64,-383.52 687.58,-384.42 679.33,-385.16 670.93,-385.74 662.38,-386.17 653.71,-386.44 644.95,-386.56 636.11,-386.52 627.23,-386.34 618.31,-386.01 609.39,-385.55 600.49,-384.96 591.63,-384.23 582.83,-383.39 574.12,-382.42 565.52,-381.35 557.04,-380.18 548.72,-378.91 540.57,-377.56 532.62,-376.12 524.88,-374.61 517.37,-373.03 510.12,-371.38 503.15,-369.69 496.46,-367.94 490.09,-366.16 484.04,-364.33 478.33,-362.48 472.99,-360.6 468.01,-358.7 463.43,-356.78 459.25,-354.84 455.47,-352.9 452.13,-350.95 449.21,-349 446.74,-347.05 444.73,-345.1 443.17,-343.16 442.07,-341.22 441.44,-339.29 441.29,-337.37 441.6,-335.46 442.4,-333.56 443.66,-331.67 445.4,-329.8 447.61,-327.95 450.28,-326.11 453.41,-324.29 457,-322.49 461.02,-320.71 465.48,-318.95 470.36,-317.22 475.66,-315.52 481.34,-313.85 487.41,-312.21 493.85,-310.61 500.63,-309.05 507.74,-307.54 515.16,-306.07 522.87,-304.65 530.85,-303.3 539.08,-302 547.52,-300.78 556.17,-299.63 564.99,-298.55 573.95,-297.56 583.04,-296.66 592.23,-295.86 601.49,-295.15 610.79,-294.56 620.1,-294.07 629.4,-293.71 638.67,-293.46 647.87,-293.35 656.98,-293.36 665.96,-293.51 674.81,-293.8 683.48,-294.23 691.95,-294.8 700.21,-295.52 708.22,-296.38 715.96,-297.39 723.41,-298.55 730.55,-299.85 737.36,-301.3 743.82,-302.88 749.91,-304.61 755.62,-306.46 760.92,-308.44 765.81,-310.55 770.27,-312.76 774.29,-315.09 777.86,-317.52 780.97,-320.03 783.61,-322.63 785.78,-325.3 787.47,-328.04 788.68,-330.82 789.41,-333.64 789.65,-336.49 789.41,-339.36 788.69,-342.24 787.5,-345.1 785.83,-347.95"/>
<text text-anchor="middle" x="615.05" y="-335.29" font-family="sans-serif" font-size="16.00">RiskManagementContext</text>
</g>
<!-- RiskManagementContext&#45;&gt;PolicyManagementContext -->
<g id="edge7" class="edge">
<title>RiskManagementContext&#45;&gt;PolicyManagementContext</title>
<path fill="none" stroke="black" stroke-width="2" d="M623.68,-293.64C626.89,-277.09 630.55,-258.24 633.82,-241.42"/>
<text text-anchor="middle" x="671.05" y="-262.91" font-family="sans-serif" font-size="12.00">Shared Kernel</text>
</g>
</g>
</svg>
