<svg width="2000px" height="1057px"
 viewBox="0.00 0.00 1012.12 534.89" xmlns="http://www.w3.org/2000/svg" xmlns:xlink="http://www.w3.org/1999/xlink">
<g id="graph0" class="graph" transform="scale(1.0 1.0) rotate(0) translate(4 530.89)">
<title>ContextMapGraph</title>
<polygon fill="white" stroke="transparent" points="-4,4 -4,-530.89 1008.12,-530.89 1008.12,4 -4,4"/>
<!-- CustomerManagementContext -->
<g id="node1" class="node">
<title>CustomerManagementContext</title>
<polygon fill="none" stroke="black" stroke-width="2" points="34.98,-314.7 41.04,-312.15 47.58,-309.67 54.55,-307.28 61.94,-304.97 69.72,-302.77 77.87,-300.68 86.35,-298.7 95.13,-296.86 104.2,-295.15 113.51,-293.57 123.05,-292.15 132.78,-290.88 142.68,-289.76 152.71,-288.8 162.86,-288 173.09,-287.37 183.37,-286.9 193.69,-286.6 204.01,-286.46 214.31,-286.48 224.57,-286.66 234.76,-287 244.86,-287.5 254.85,-288.14 264.71,-288.93 274.41,-289.85 283.94,-290.91 293.28,-292.1 302.4,-293.41 311.3,-294.82 319.95,-296.34 328.34,-297.96 336.44,-299.67 344.25,-301.46 351.75,-303.32 358.93,-305.25 365.76,-307.23 372.24,-309.26 378.35,-311.33 384.08,-313.44 389.42,-315.57 394.35,-317.72 398.86,-319.88 402.94,-322.05 406.58,-324.22 409.76,-326.39 412.49,-328.54 414.74,-330.68 416.51,-332.8 417.8,-334.89 418.58,-336.96 418.86,-339 418.64,-341 417.89,-342.97 416.63,-344.9 414.85,-346.79 412.54,-348.64 409.71,-350.45 406.36,-352.21 402.48,-353.93 398.09,-355.6 393.18,-357.22 387.77,-358.8 381.86,-360.33 375.46,-361.8 368.59,-363.23 361.26,-364.6 353.48,-365.91 345.27,-367.18 336.65,-368.38 327.64,-369.53 318.26,-370.62 308.55,-371.64 298.51,-372.6 288.19,-373.49 277.6,-374.31 266.79,-375.06 255.78,-375.73 244.6,-376.32 233.29,-376.82 221.89,-377.24 210.43,-377.57 198.94,-377.8 187.47,-377.94 176.05,-377.97 164.72,-377.9 153.52,-377.72 142.48,-377.43 131.64,-377.02 121.04,-376.5 110.72,-375.85 100.71,-375.09 91.04,-374.2 81.74,-373.19 72.86,-372.06 64.42,-370.8 56.44,-369.42 48.95,-367.92 41.99,-366.29 35.56,-364.55 29.7,-362.7 24.41,-360.74 19.72,-358.67 15.64,-356.5 12.18,-354.23 9.35,-351.88 7.15,-349.45 5.59,-346.95 4.68,-344.38 4.4,-341.76 4.76,-339.09 5.75,-336.38 7.36,-333.65 9.59,-330.9 12.41,-328.15 15.82,-325.4 19.8,-322.67 24.33,-319.97 29.4,-317.31 34.98,-314.7"/>
<text text-anchor="middle" x="217.45" y="-331.19" font-family="sans-serif" font-size="16.00">CustomerManagementContext</text>
</g>
<!-- PolicyManagementContext -->
<g id="node2" class="node">
<title>PolicyManagementContext</title>
<polygon fill="none" stroke="black" stroke-width="2" points="594.9,-229.63 584.07,-228.39 573.54,-227.05 563.34,-225.61 553.53,-224.08 544.14,-222.46 535.2,-220.77 526.76,-219 518.85,-217.17 511.5,-215.28 504.74,-213.32 498.6,-211.32 493.08,-209.28 488.22,-207.2 484.03,-205.08 480.52,-202.94 477.69,-200.78 475.56,-198.6 474.12,-196.42 473.37,-194.23 473.3,-192.04 473.91,-189.86 475.19,-187.69 477.11,-185.53 479.66,-183.4 482.82,-181.29 486.57,-179.22 490.89,-177.17 495.73,-175.17 501.09,-173.21 506.91,-171.3 513.19,-169.43 519.87,-167.62 526.93,-165.87 534.34,-164.18 542.06,-162.56 550.05,-161 558.29,-159.51 566.74,-158.1 575.37,-156.77 584.14,-155.51 593.03,-154.34 602,-153.26 611.04,-152.26 620.11,-151.36 629.18,-150.55 638.24,-149.83 647.27,-149.22 656.24,-148.7 665.13,-148.29 673.93,-147.98 682.62,-147.78 691.19,-147.68 699.64,-147.69 707.93,-147.82 716.08,-148.05 724.07,-148.4 731.89,-148.85 739.54,-149.42 747.01,-150.11 754.3,-150.9 761.4,-151.8 768.31,-152.82 775.03,-153.94 781.54,-155.17 787.86,-156.5 793.96,-157.93 799.85,-159.47 805.52,-161.1 810.96,-162.82 816.17,-164.63 821.14,-166.52 825.86,-168.49 830.33,-170.54 834.52,-172.65 838.43,-174.83 842.05,-177.06 845.36,-179.35 848.35,-181.68 851,-184.04 853.31,-186.43 855.25,-188.85 856.81,-191.27 857.97,-193.71 858.71,-196.14 859.03,-198.57 858.9,-200.98 858.32,-203.36 857.26,-205.71 855.72,-208.02 853.68,-210.28 851.14,-212.48 848.08,-214.62 844.49,-216.69 840.39,-218.68 835.75,-220.59 830.59,-222.4 824.9,-224.12 818.69,-225.74 811.97,-227.24 804.75,-228.64 797.03,-229.92 788.85,-231.07 780.21,-232.11 771.15,-233.01 761.67,-233.79 751.82,-234.43 741.62,-234.94 731.1,-235.31 720.3,-235.55 709.26,-235.66 698.02,-235.63 686.62,-235.46 675.09,-235.17 663.49,-234.74 651.86,-234.19 640.25,-233.52 628.7,-232.72 617.26,-231.8 605.98,-230.77 594.9,-229.63"/>
<text text-anchor="middle" x="677.45" y="-186.73" font-family="sans-serif" font-size="16.00">PolicyManagementContext</text>
</g>
<!-- CustomerManagementContext&#45;&gt;PolicyManagementContext -->
<g id="edge1" class="edge">
<title>CustomerManagementContext&#45;&gt;PolicyManagementContext</title>
<path fill="none" stroke="black" stroke-width="2" d="M331.75,-298.59C403.33,-276.42 495.12,-247.99 566.12,-226"/>
<text text-anchor="middle" x="475.95" y="-258.62" font-family="sans-serif" font-size="12.00"> &#160;&#160;&#160;&#160;&#160;&#160;&#160;</text>
<polygon fill="white" stroke="transparent" points="559.12,-217 559.12,-234 573.12,-234 573.12,-217 559.12,-217"/>
<text text-anchor="start" x="561.12" y="-222.4" font-family="sans-serif" font-size="12.00">D</text>
<polygon fill="white" stroke="transparent" points="324.75,-289.59 324.75,-306.59 338.75,-306.59 338.75,-289.59 324.75,-289.59"/>
<text text-anchor="start" x="326.75" y="-294.99" font-family="sans-serif" font-size="12.00">U</text>
</g>
<!-- CustomerSelfServiceContext -->
<g id="node4" class="node">
<title>CustomerSelfServiceContext</title>
<polygon fill="none" stroke="black" stroke-width="2" points="304.26,-230.06 292.89,-231.38 281.36,-232.58 269.71,-233.65 257.98,-234.61 246.21,-235.42 234.46,-236.11 222.76,-236.65 211.16,-237.05 199.7,-237.31 188.41,-237.42 177.34,-237.38 166.52,-237.2 155.98,-236.86 145.75,-236.38 135.87,-235.76 126.35,-234.98 117.22,-234.07 108.5,-233.02 100.2,-231.84 92.35,-230.52 84.95,-229.08 78.02,-227.52 71.56,-225.84 65.58,-224.06 60.09,-222.18 55.07,-220.2 50.54,-218.13 46.48,-215.99 42.91,-213.78 39.8,-211.5 37.16,-209.17 34.98,-206.79 33.24,-204.38 31.94,-201.93 31.08,-199.47 30.63,-196.99 30.59,-194.52 30.95,-192.04 31.71,-189.58 32.84,-187.14 34.35,-184.73 36.21,-182.35 38.44,-180.02 41.01,-177.73 43.91,-175.51 47.15,-173.34 50.72,-171.24 54.61,-169.21 58.82,-167.25 63.35,-165.38 68.18,-163.59 73.32,-161.9 78.76,-160.29 84.51,-158.77 90.55,-157.36 96.89,-156.04 103.53,-154.82 110.45,-153.7 117.66,-152.68 125.15,-151.77 132.91,-150.96 140.95,-150.25 149.25,-149.65 157.79,-149.14 166.59,-148.75 175.61,-148.45 184.84,-148.25 194.28,-148.16 203.91,-148.16 213.7,-148.26 223.63,-148.46 233.69,-148.75 243.84,-149.14 254.07,-149.62 264.34,-150.19 274.62,-150.85 284.89,-151.6 295.11,-152.44 305.24,-153.37 315.25,-154.38 325.11,-155.47 334.77,-156.65 344.21,-157.91 353.37,-159.24 362.23,-160.65 370.74,-162.14 378.87,-163.69 386.58,-165.32 393.83,-167.02 400.59,-168.78 406.83,-170.6 412.51,-172.49 417.61,-174.43 422.09,-176.42 425.93,-178.47 429.11,-180.56 431.61,-182.69 433.4,-184.86 434.49,-187.06 434.85,-189.29 434.48,-191.54 433.38,-193.81 431.54,-196.09 428.97,-198.37 425.68,-200.66 421.67,-202.93 416.97,-205.19 411.58,-207.43 405.54,-209.65 398.85,-211.82 391.56,-213.96 383.69,-216.04 375.27,-218.07 366.34,-220.03 356.94,-221.92 347.1,-223.73 336.87,-225.46 326.29,-227.09 315.4,-228.63 304.26,-230.06"/>
<text text-anchor="middle" x="217.45" y="-186.73" font-family="sans-serif" font-size="16.00">CustomerSelfServiceContext</text>
</g>
<!-- CustomerManagementContext&#45;&gt;CustomerSelfServiceContext -->
<g id="edge2" class="edge">
<title>CustomerManagementContext&#45;&gt;CustomerSelfServiceContext</title>
<path fill="none" stroke="black" stroke-width="2" d="M217.45,-286.15C217.45,-270.31 217.45,-252.73 217.45,-237.06"/>
<text text-anchor="middle" x="232.95" y="-258.62" font-family="sans-serif" font-size="12.00"> &#160;&#160;&#160;&#160;&#160;&#160;&#160;</text>
<polygon fill="white" stroke="transparent" points="210.45,-228.06 210.45,-245.06 224.45,-245.06 224.45,-228.06 210.45,-228.06"/>
<text text-anchor="start" x="212.45" y="-233.46" font-family="sans-serif" font-size="12.00">D</text>
<polygon fill="white" stroke="transparent" points="210.45,-277.15 210.45,-294.15 224.45,-294.15 224.45,-277.15 210.45,-277.15"/>
<text text-anchor="start" x="212.45" y="-282.55" font-family="sans-serif" font-size="12.00">U</text>
</g>
<!-- DebtCollection -->
<g id="node3" class="node">
<title>DebtCollection</title>
<polygon fill="none" stroke="black" stroke-width="2" points="864.88,-84.46 858.61,-86.03 852.2,-87.49 845.69,-88.83 839.1,-90.04 832.45,-91.13 825.78,-92.08 819.09,-92.89 812.43,-93.56 805.81,-94.08 799.25,-94.45 792.78,-94.68 786.41,-94.75 780.16,-94.66 774.06,-94.43 768.12,-94.04 762.35,-93.5 756.77,-92.81 751.4,-91.98 746.23,-91 741.29,-89.89 736.58,-88.64 732.11,-87.26 727.88,-85.75 723.9,-84.13 720.18,-82.39 716.71,-80.56 713.51,-78.62 710.56,-76.6 707.87,-74.49 705.43,-72.31 703.26,-70.07 701.34,-67.77 699.66,-65.43 698.24,-63.04 697.07,-60.63 696.13,-58.19 695.44,-55.74 694.98,-53.29 694.75,-50.84 694.75,-48.4 694.97,-45.98 695.41,-43.58 696.08,-41.22 696.95,-38.91 698.05,-36.63 699.35,-34.41 700.86,-32.25 702.58,-30.16 704.51,-28.13 706.64,-26.17 708.97,-24.29 711.51,-22.49 714.25,-20.77 717.2,-19.14 720.34,-17.6 723.68,-16.15 727.22,-14.79 730.96,-13.52 734.89,-12.34 739.02,-11.26 743.33,-10.28 747.83,-9.39 752.51,-8.6 757.37,-7.9 762.39,-7.3 767.58,-6.8 772.92,-6.39 778.4,-6.07 784.02,-5.85 789.76,-5.72 795.62,-5.68 801.57,-5.73 807.6,-5.88 813.7,-6.11 819.86,-6.44 826.04,-6.85 832.24,-7.36 838.43,-7.95 844.6,-8.62 850.72,-9.39 856.77,-10.24 862.74,-11.17 868.58,-12.2 874.3,-13.3 879.85,-14.49 885.23,-15.75 890.4,-17.1 895.34,-18.53 900.04,-20.04 904.46,-21.62 908.6,-23.28 912.43,-25.01 915.93,-26.81 919.09,-28.68 921.89,-30.61 924.32,-32.6 926.35,-34.65 927.99,-36.75 929.23,-38.9 930.04,-41.1 930.44,-43.33 930.41,-45.6 929.96,-47.89 929.08,-50.21 927.78,-52.55 926.06,-54.89 923.93,-57.24 921.39,-59.58 918.46,-61.91 915.15,-64.22 911.48,-66.5 907.45,-68.74 903.08,-70.94 898.4,-73.09 893.43,-75.18 888.18,-77.2 882.67,-79.15 876.94,-81.01 871,-82.79 864.88,-84.46"/>
<text text-anchor="middle" x="803.45" y="-43.62" font-family="sans-serif" font-size="16.00">DebtCollection</text>
</g>
<!-- PolicyManagementContext&#45;&gt;DebtCollection -->
<g id="edge3" class="edge">
<title>PolicyManagementContext&#45;&gt;DebtCollection</title>
<path fill="none" stroke="black" stroke-width="2" d="M714.57,-147.95C729.82,-130.88 747.51,-111.07 763.07,-93.63"/>
<text text-anchor="middle" x="785.45" y="-116.23" font-family="sans-serif" font-size="12.00">Shared Kernel</text>
</g>
<!-- PrintingContext -->
<g id="node5" class="node">
<title>PrintingContext</title>
<polygon fill="none" stroke="black" stroke-width="2" points="929.58,-518.16 922.77,-519.61 915.84,-520.94 908.81,-522.15 901.72,-523.24 894.59,-524.19 887.45,-525.01 880.32,-525.69 873.23,-526.23 866.21,-526.62 859.27,-526.86 852.45,-526.95 845.75,-526.89 839.21,-526.69 832.85,-526.33 826.67,-525.82 820.69,-525.17 814.94,-524.36 809.41,-523.42 804.13,-522.34 799.11,-521.12 794.35,-519.77 789.85,-518.3 785.63,-516.71 781.69,-515 778.04,-513.19 774.67,-511.28 771.58,-509.28 768.77,-507.19 766.25,-505.03 764.01,-502.8 762.05,-500.51 760.37,-498.16 758.95,-495.78 757.8,-493.36 756.92,-490.92 756.29,-488.46 755.91,-485.99 755.78,-483.52 755.89,-481.06 756.24,-478.62 756.82,-476.2 757.63,-473.81 758.67,-471.46 759.93,-469.16 761.4,-466.9 763.08,-464.71 764.98,-462.57 767.09,-460.51 769.4,-458.51 771.92,-456.59 774.64,-454.76 777.56,-453 780.69,-451.34 784.01,-449.76 787.53,-448.28 791.25,-446.89 795.16,-445.6 799.27,-444.41 803.56,-443.31 808.04,-442.31 812.71,-441.41 817.56,-440.61 822.59,-439.91 827.78,-439.31 833.14,-438.81 838.65,-438.41 844.31,-438.1 850.12,-437.9 856.04,-437.79 862.09,-437.77 868.24,-437.85 874.47,-438.02 880.79,-438.29 887.15,-438.65 893.56,-439.1 899.99,-439.64 906.43,-440.26 912.84,-440.98 919.21,-441.78 925.53,-442.67 931.76,-443.64 937.88,-444.7 943.87,-445.84 949.7,-447.06 955.36,-448.36 960.82,-449.74 966.05,-451.2 971.03,-452.73 975.74,-454.33 980.16,-456.01 984.26,-457.75 988.03,-459.56 991.45,-461.43 994.49,-463.36 997.15,-465.36 999.41,-467.4 1001.25,-469.49 1002.67,-471.63 1003.66,-473.81 1004.2,-476.03 1004.29,-478.27 1003.94,-480.55 1003.13,-482.84 1001.88,-485.14 1000.17,-487.46 998.03,-489.77 995.46,-492.08 992.46,-494.37 989.05,-496.64 985.25,-498.89 981.06,-501.1 976.51,-503.27 971.61,-505.39 966.39,-507.45 960.87,-509.44 955.07,-511.36 949.01,-513.2 942.73,-514.95 936.24,-516.61 929.58,-518.16"/>
<text text-anchor="middle" x="870.45" y="-476.02" font-family="sans-serif" font-size="16.00">PrintingContext</text>
</g>
<!-- PrintingContext&#45;&gt;CustomerManagementContext -->
<g id="edge6" class="edge">
<title>PrintingContext&#45;&gt;CustomerManagementContext</title>
<path fill="none" stroke="black" stroke-width="2" d="M770.92,-457.05C659.61,-432.7 478.66,-393.12 354.14,-365.89"/>
<text text-anchor="middle" x="578.95" y="-405.15" font-family="sans-serif" font-size="12.00"> &#160;&#160;&#160;&#160;&#160;&#160;&#160;</text>
<polygon fill="white" stroke="transparent" points="347.14,-356.89 347.14,-373.89 361.14,-373.89 361.14,-356.89 347.14,-356.89"/>
<text text-anchor="start" x="349.14" y="-362.29" font-family="sans-serif" font-size="12.00">D</text>
<polygon fill="white" stroke="transparent" points="763.92,-448.05 763.92,-465.05 777.92,-465.05 777.92,-448.05 763.92,-448.05"/>
<text text-anchor="start" x="765.92" y="-453.45" font-family="sans-serif" font-size="12.00">U</text>
</g>
<!-- PrintingContext&#45;&gt;PolicyManagementContext -->
<g id="edge5" class="edge">
<title>PrintingContext&#45;&gt;PolicyManagementContext</title>
<path fill="none" stroke="black" stroke-width="2" d="M874.64,-437.91C876.79,-396.19 874.05,-331.35 843.45,-286.22 828.18,-263.7 805.66,-245.9 782.11,-232.09"/>
<text text-anchor="middle" x="888.95" y="-331.89" font-family="sans-serif" font-size="12.00"> &#160;&#160;&#160;&#160;&#160;&#160;&#160;</text>
<polygon fill="white" stroke="transparent" points="775.11,-223.09 775.11,-240.09 789.11,-240.09 789.11,-223.09 775.11,-223.09"/>
<text text-anchor="start" x="777.11" y="-228.49" font-family="sans-serif" font-size="12.00">D</text>
<polygon fill="white" stroke="transparent" points="867.64,-428.91 867.64,-445.91 881.64,-445.91 881.64,-428.91 867.64,-428.91"/>
<text text-anchor="start" x="869.64" y="-434.31" font-family="sans-serif" font-size="12.00">U</text>
</g>
<!-- PrintingContext&#45;&gt;DebtCollection -->
<g id="edge4" class="edge">
<title>PrintingContext&#45;&gt;DebtCollection</title>
<path fill="none" stroke="black" stroke-width="2" d="M890.43,-438.67C897.63,-422.1 904.86,-402.43 908.45,-383.75 928.66,-278.75 935.27,-240.92 890.45,-143.83 880.96,-123.27 865.42,-104.09 850.07,-88.39"/>
<text text-anchor="middle" x="938.95" y="-258.62" font-family="sans-serif" font-size="12.00"> &#160;&#160;&#160;&#160;&#160;&#160;&#160;</text>
<polygon fill="white" stroke="transparent" points="843.07,-79.39 843.07,-96.39 857.07,-96.39 857.07,-79.39 843.07,-79.39"/>
<text text-anchor="start" x="845.07" y="-84.79" font-family="sans-serif" font-size="12.00">D</text>
<polygon fill="white" stroke="transparent" points="883.43,-429.67 883.43,-446.67 897.43,-446.67 897.43,-429.67 883.43,-429.67"/>
<text text-anchor="start" x="885.43" y="-435.07" font-family="sans-serif" font-size="12.00">U</text>
</g>
<!-- RiskManagementContext -->
<g id="node6" class="node">
<title>RiskManagementContext</title>
<polygon fill="none" stroke="black" stroke-width="2" points="601.18,-292.16 612.22,-291.46 623.31,-290.87 634.39,-290.41 645.43,-290.08 656.37,-289.88 667.19,-289.82 677.83,-289.88 688.27,-290.08 698.45,-290.41 708.35,-290.87 717.93,-291.47 727.17,-292.2 736.03,-293.06 744.48,-294.04 752.51,-295.15 760.1,-296.38 767.22,-297.73 773.86,-299.19 780.01,-300.77 785.66,-302.44 790.81,-304.22 795.44,-306.09 799.56,-308.04 803.17,-310.08 806.27,-312.19 808.87,-314.36 810.97,-316.6 812.59,-318.89 813.73,-321.22 814.4,-323.6 814.62,-326 814.41,-328.42 813.77,-330.85 812.73,-333.29 811.29,-335.73 809.48,-338.16 807.31,-340.57 804.79,-342.96 801.95,-345.31 798.8,-347.63 795.35,-349.9 791.61,-352.11 787.61,-354.27 783.35,-356.36 778.84,-358.38 774.1,-360.32 769.13,-362.18 763.95,-363.96 758.56,-365.64 752.96,-367.24 747.18,-368.73 741.2,-370.12 735.04,-371.41 728.71,-372.59 722.2,-373.66 715.52,-374.62 708.67,-375.47 701.66,-376.21 694.5,-376.83 687.18,-377.34 679.71,-377.73 672.11,-378.01 664.36,-378.18 656.49,-378.24 648.5,-378.18 640.4,-378.01 632.2,-377.74 623.91,-377.35 615.56,-376.86 607.14,-376.27 598.69,-375.57 590.21,-374.78 581.74,-373.89 573.28,-372.9 564.87,-371.83 556.53,-370.66 548.28,-369.41 540.15,-368.08 532.17,-366.66 524.37,-365.17 516.78,-363.61 509.43,-361.98 502.35,-360.28 495.58,-358.52 489.14,-356.7 483.07,-354.82 477.39,-352.9 472.14,-350.93 467.35,-348.91 463.04,-346.85 459.24,-344.76 455.98,-342.65 453.28,-340.5 451.16,-338.33 449.64,-336.15 448.74,-333.96 448.46,-331.76 448.83,-329.56 449.84,-327.37 451.51,-325.18 453.83,-323.01 456.81,-320.86 460.43,-318.74 464.69,-316.65 469.58,-314.59 475.08,-312.59 481.18,-310.63 487.85,-308.72 495.07,-306.88 502.81,-305.1 511.04,-303.39 519.73,-301.77 528.84,-300.22 538.34,-298.77 548.19,-297.4 558.35,-296.14 568.77,-294.98 579.41,-293.93 590.23,-292.99 601.18,-292.16"/>
<text text-anchor="middle" x="641.45" y="-331.19" font-family="sans-serif" font-size="16.00">RiskManagementContext</text>
</g>
<!-- RiskManagementContext&#45;&gt;PolicyManagementContext -->
<g id="edge7" class="edge">
<title>RiskManagementContext&#45;&gt;PolicyManagementContext</title>
<path fill="none" stroke="black" stroke-width="2" d="M652.64,-289.69C657.02,-272.38 662.02,-252.57 666.39,-235.3"/>
<text text-anchor="middle" x="702.45" y="-258.62" font-family="sans-serif" font-size="12.00">Shared Kernel</text>
</g>
</g>
</svg>
