<svg width="2000px" height="1031px"
 viewBox="0.00 0.00 1030.13 530.74" xmlns="http://www.w3.org/2000/svg" xmlns:xlink="http://www.w3.org/1999/xlink">
<g id="graph0" class="graph" transform="scale(1.0 1.0) rotate(0) translate(4 526.74)">
<title>ContextMapGraph</title>
<polygon fill="white" stroke="transparent" points="-4,4 -4,-526.74 1026.13,-526.74 1026.13,4 -4,4"/>
<!-- CustomerManagementContext -->
<g id="node1" class="node">
<title>CustomerManagementContext</title>
<polygon fill="none" stroke="black" stroke-width="2" points="346.6,-300.64 357.79,-302.23 368.59,-303.91 378.95,-305.67 388.84,-307.51 398.19,-309.42 406.99,-311.39 415.19,-313.42 422.76,-315.5 429.67,-317.62 435.89,-319.78 441.39,-321.96 446.16,-324.17 450.19,-326.39 453.45,-328.62 455.94,-330.86 457.66,-333.09 458.6,-335.32 458.76,-337.53 458.16,-339.72 456.8,-341.89 454.69,-344.03 451.85,-346.14 448.31,-348.21 444.08,-350.24 439.19,-352.22 433.67,-354.15 427.55,-356.03 420.86,-357.86 413.64,-359.62 405.92,-361.33 397.74,-362.96 389.15,-364.53 380.17,-366.04 370.84,-367.46 361.22,-368.82 351.33,-370.1 341.22,-371.29 330.93,-372.41 320.49,-373.45 309.94,-374.4 299.31,-375.27 288.65,-376.04 277.98,-376.73 267.33,-377.33 256.73,-377.83 246.22,-378.24 235.8,-378.55 225.52,-378.76 215.39,-378.88 205.43,-378.89 195.66,-378.81 186.09,-378.62 176.74,-378.32 167.61,-377.93 158.73,-377.43 150.1,-376.82 141.73,-376.11 133.62,-375.29 125.78,-374.37 118.22,-373.34 110.93,-372.21 103.94,-370.98 97.23,-369.65 90.81,-368.21 84.68,-366.68 78.86,-365.06 73.33,-363.35 68.11,-361.55 63.2,-359.66 58.61,-357.7 54.34,-355.66 50.4,-353.55 46.79,-351.38 43.53,-349.14 40.62,-346.86 38.07,-344.53 35.9,-342.15 34.11,-339.75 32.71,-337.32 31.72,-334.88 31.16,-332.42 31.02,-329.96 31.33,-327.51 32.1,-325.08 33.34,-322.67 35.06,-320.29 37.27,-317.95 39.98,-315.66 43.2,-313.42 46.95,-311.25 51.21,-309.15 56.01,-307.13 61.34,-305.2 67.2,-303.37 73.59,-301.63 80.5,-300.01 87.94,-298.49 95.88,-297.1 104.33,-295.83 113.25,-294.68 122.64,-293.67 132.47,-292.8 142.73,-292.06 153.38,-291.47 164.39,-291.01 175.74,-290.7 187.38,-290.54 199.29,-290.51 211.42,-290.63 223.73,-290.89 236.18,-291.29 248.72,-291.83 261.31,-292.51 273.89,-293.31 286.43,-294.24 298.86,-295.3 311.14,-296.47 323.23,-297.75 335.06,-299.15 346.6,-300.64"/>
<text text-anchor="middle" x="229.42" y="-332.84" font-family="sans-serif" font-size="16.00">CustomerManagementContext</text>
</g>
<!-- CustomerSelfServiceContext -->
<g id="node2" class="node">
<title>CustomerSelfServiceContext</title>
<polygon fill="none" stroke="black" stroke-width="2" points="354.27,-158.4 364.24,-160.2 373.8,-162.08 382.91,-164.03 391.54,-166.05 399.64,-168.14 407.19,-170.27 414.16,-172.45 420.5,-174.66 426.21,-176.91 431.25,-179.18 435.61,-181.46 439.26,-183.76 442.2,-186.05 444.42,-188.34 445.9,-190.62 446.65,-192.89 446.67,-195.13 445.97,-197.34 444.54,-199.52 442.41,-201.66 439.58,-203.76 436.08,-205.81 431.92,-207.82 427.13,-209.76 421.73,-211.65 415.76,-213.48 409.23,-215.25 402.2,-216.95 394.68,-218.57 386.72,-220.13 378.35,-221.62 369.6,-223.03 360.52,-224.36 351.15,-225.61 341.52,-226.79 331.68,-227.88 321.65,-228.89 311.48,-229.82 301.2,-230.66 290.85,-231.41 280.46,-232.08 270.07,-232.66 259.71,-233.15 249.41,-233.55 239.19,-233.85 229.09,-234.06 219.12,-234.18 209.32,-234.21 199.69,-234.13 190.26,-233.96 181.05,-233.69 172.08,-233.33 163.35,-232.86 154.87,-232.3 146.67,-231.63 138.74,-230.86 131.1,-230 123.75,-229.03 116.7,-227.96 109.95,-226.8 103.5,-225.53 97.36,-224.17 91.54,-222.72 86.02,-221.17 80.83,-219.53 75.95,-217.8 71.39,-215.98 67.16,-214.09 63.25,-212.11 59.67,-210.06 56.43,-207.95 53.52,-205.77 50.96,-203.53 48.75,-201.24 46.88,-198.9 45.38,-196.52 44.25,-194.11 43.5,-191.68 43.12,-189.23 43.14,-186.77 43.56,-184.3 44.39,-181.85 45.64,-179.4 47.32,-176.99 49.43,-174.6 51.98,-172.25 54.98,-169.96 58.44,-167.72 62.36,-165.54 66.75,-163.44 71.6,-161.43 76.92,-159.5 82.72,-157.67 88.97,-155.95 95.69,-154.33 102.87,-152.83 110.49,-151.46 118.55,-150.21 127.02,-149.1 135.91,-148.12 145.18,-147.29 154.82,-146.6 164.81,-146.05 175.11,-145.65 185.71,-145.41 196.56,-145.31 207.64,-145.36 218.91,-145.55 230.33,-145.9 241.87,-146.39 253.49,-147.02 265.14,-147.79 276.78,-148.7 288.37,-149.73 299.86,-150.9 311.2,-152.18 322.36,-153.58 333.29,-155.09 343.94,-156.7 354.27,-158.4"/>
<text text-anchor="middle" x="229.42" y="-188.4" font-family="sans-serif" font-size="16.00">CustomerSelfServiceContext</text>
</g>
<!-- CustomerManagementContext&#45;&gt;CustomerSelfServiceContext -->
<g id="edge1" class="edge">
<title>CustomerManagementContext&#45;&gt;CustomerSelfServiceContext</title>
<path fill="none" stroke="black" stroke-width="2" d="M229.42,-290.96C229.42,-272.85 229.42,-252.06 229.42,-234.33"/>
<text text-anchor="middle" x="244.92" y="-260.54" font-family="sans-serif" font-size="12.00"> &#160;&#160;&#160;&#160;&#160;&#160;&#160;</text>
<polygon fill="white" stroke="transparent" points="222.42,-225.33 222.42,-242.33 236.42,-242.33 236.42,-225.33 222.42,-225.33"/>
<text text-anchor="start" x="224.42" y="-230.73" font-family="sans-serif" font-size="12.00">D</text>
<polygon fill="white" stroke="transparent" points="222.42,-281.96 222.42,-298.96 236.42,-298.96 236.42,-281.96 222.42,-281.96"/>
<text text-anchor="start" x="224.42" y="-287.36" font-family="sans-serif" font-size="12.00">U</text>
</g>
<!-- PolicyManagementContext -->
<g id="node3" class="node">
<title>PolicyManagementContext</title>
<polygon fill="none" stroke="black" stroke-width="2" points="710.62,-235.74 698.65,-236.05 686.72,-236.24 674.85,-236.3 663.11,-236.24 651.54,-236.06 640.19,-235.75 629.09,-235.31 618.28,-234.75 607.82,-234.07 597.73,-233.27 588.05,-232.35 578.81,-231.31 570.04,-230.15 561.77,-228.89 554.01,-227.52 546.79,-226.04 540.13,-224.46 534.03,-222.79 528.51,-221.03 523.57,-219.18 519.23,-217.26 515.47,-215.26 512.29,-213.19 509.7,-211.06 507.68,-208.87 506.23,-206.64 505.34,-204.37 504.98,-202.06 505.15,-199.72 505.82,-197.37 506.99,-195 508.62,-192.62 510.71,-190.25 513.22,-187.88 516.15,-185.53 519.46,-183.2 523.13,-180.91 527.15,-178.65 531.5,-176.43 536.14,-174.26 541.08,-172.15 546.27,-170.1 551.72,-168.12 557.4,-166.21 563.29,-164.38 569.38,-162.63 575.66,-160.97 582.12,-159.41 588.74,-157.94 595.52,-156.57 602.44,-155.3 609.51,-154.14 616.7,-153.09 624.02,-152.15 631.45,-151.32 639,-150.61 646.66,-150.01 654.42,-149.53 662.28,-149.17 670.24,-148.92 678.28,-148.8 686.4,-148.79 694.6,-148.89 702.87,-149.11 711.2,-149.45 719.58,-149.89 727.99,-150.45 736.44,-151.12 744.9,-151.89 753.36,-152.77 761.8,-153.75 770.2,-154.83 778.55,-156 786.83,-157.27 795,-158.62 803.05,-160.06 810.96,-161.58 818.69,-163.17 826.21,-164.84 833.5,-166.58 840.54,-168.38 847.28,-170.25 853.69,-172.16 859.76,-174.13 865.43,-176.15 870.7,-178.21 875.52,-180.3 879.86,-182.42 883.7,-184.58 887.01,-186.75 889.77,-188.94 891.94,-191.14 893.52,-193.34 894.48,-195.55 894.8,-197.75 894.47,-199.94 893.47,-202.11 891.81,-204.26 889.47,-206.39 886.45,-208.48 882.76,-210.53 878.4,-212.54 873.37,-214.51 867.69,-216.41 861.38,-218.26 854.45,-220.05 846.93,-221.76 838.85,-223.41 830.22,-224.97 821.08,-226.45 811.48,-227.84 801.44,-229.14 791,-230.34 780.21,-231.44 769.11,-232.43 757.75,-233.32 746.17,-234.1 734.42,-234.77 722.56,-235.31 710.62,-235.74"/>
<text text-anchor="middle" x="693.42" y="-188.4" font-family="sans-serif" font-size="16.00">PolicyManagementContext</text>
</g>
<!-- CustomerManagementContext&#45;&gt;PolicyManagementContext -->
<g id="edge2" class="edge">
<title>CustomerManagementContext&#45;&gt;PolicyManagementContext</title>
<path fill="none" stroke="black" stroke-width="2" d="M344.42,-300.34C413.66,-279.08 501.74,-252.04 572.09,-230.44"/>
<text text-anchor="middle" x="490.92" y="-260.54" font-family="sans-serif" font-size="12.00"> &#160;&#160;&#160;&#160;&#160;&#160;&#160;</text>
<polygon fill="white" stroke="transparent" points="565.09,-221.44 565.09,-238.44 579.09,-238.44 579.09,-221.44 565.09,-221.44"/>
<text text-anchor="start" x="567.09" y="-226.84" font-family="sans-serif" font-size="12.00">D</text>
<polygon fill="white" stroke="transparent" points="337.42,-291.34 337.42,-308.34 351.42,-308.34 351.42,-291.34 337.42,-291.34"/>
<text text-anchor="start" x="339.42" y="-296.74" font-family="sans-serif" font-size="12.00">U</text>
</g>
<!-- DebtCollection -->
<g id="node4" class="node">
<title>DebtCollection</title>
<polygon fill="none" stroke="black" stroke-width="2" points="935.45,-43.25 936.39,-46.1 937.01,-48.95 937.31,-51.79 937.28,-54.6 936.92,-57.37 936.23,-60.09 935.21,-62.75 933.86,-65.34 932.19,-67.86 930.19,-70.28 927.88,-72.62 925.25,-74.84 922.32,-76.96 919.1,-78.96 915.58,-80.84 911.79,-82.59 907.72,-84.21 903.41,-85.7 898.85,-87.05 894.06,-88.26 889.05,-89.34 883.84,-90.27 878.45,-91.07 872.9,-91.73 867.19,-92.25 861.35,-92.63 855.39,-92.89 849.34,-93.01 843.21,-93.01 837.02,-92.89 830.79,-92.66 824.54,-92.31 818.3,-91.85 812.06,-91.29 805.87,-90.63 799.73,-89.88 793.67,-89.04 787.69,-88.12 781.83,-87.12 776.1,-86.05 770.5,-84.91 765.07,-83.7 759.81,-82.43 754.75,-81.11 749.88,-79.73 745.23,-78.31 740.82,-76.83 736.64,-75.32 732.71,-73.76 729.04,-72.16 725.64,-70.53 722.52,-68.86 719.69,-67.16 717.14,-65.43 714.89,-63.66 712.94,-61.87 711.29,-60.05 709.95,-58.2 708.91,-56.33 708.18,-54.43 707.76,-52.51 707.64,-50.57 707.83,-48.6 708.32,-46.62 709.11,-44.63 710.19,-42.61 711.56,-40.59 713.22,-38.56 715.16,-36.52 717.37,-34.49 719.85,-32.45 722.58,-30.42 725.57,-28.4 728.79,-26.4 732.25,-24.43 735.94,-22.47 739.84,-20.56 743.94,-18.68 748.23,-16.85 752.71,-15.08 757.37,-13.37 762.18,-11.72 767.14,-10.15 772.24,-8.67 777.47,-7.28 782.8,-5.98 788.24,-4.79 793.77,-3.72 799.37,-2.76 805.03,-1.93 810.74,-1.23 816.49,-0.67 822.25,-0.26 828.03,0.01 833.79,0.13 839.54,0.08 845.25,-0.11 850.91,-0.47 856.51,-1 862.03,-1.68 867.46,-2.53 872.78,-3.54 877.98,-4.7 883.05,-6.03 887.97,-7.5 892.73,-9.13 897.31,-10.9 901.7,-12.8 905.89,-14.84 909.87,-17 913.62,-19.27 917.14,-21.65 920.4,-24.12 923.41,-26.68 926.14,-29.32 928.6,-32.02 930.76,-34.77 932.63,-37.57 934.2,-40.4 935.45,-43.25"/>
<text text-anchor="middle" x="821.42" y="-44.33" font-family="sans-serif" font-size="16.00">DebtCollection</text>
</g>
<!-- PolicyManagementContext&#45;&gt;DebtCollection -->
<g id="edge3" class="edge">
<title>PolicyManagementContext&#45;&gt;DebtCollection</title>
<path fill="none" stroke="black" stroke-width="2" d="M730.1,-150.48C747.68,-130.97 768.65,-107.7 786.06,-88.37"/>
<text text-anchor="middle" x="802.42" y="-117.65" font-family="sans-serif" font-size="12.00">Shared Kernel</text>
</g>
<!-- PrintingContext -->
<g id="node5" class="node">
<title>PrintingContext</title>
<polygon fill="none" stroke="black" stroke-width="2" points="855.86,-520.35 848.28,-519.57 840.84,-518.68 833.56,-517.68 826.5,-516.58 819.66,-515.38 813.08,-514.08 806.79,-512.69 800.81,-511.22 795.16,-509.65 789.86,-508.01 784.93,-506.3 780.39,-504.51 776.26,-502.66 772.54,-500.75 769.25,-498.79 766.39,-496.78 763.97,-494.72 761.99,-492.63 760.46,-490.51 759.37,-488.36 758.72,-486.18 758.5,-483.99 758.71,-481.79 759.34,-479.59 760.37,-477.38 761.8,-475.18 763.6,-472.99 765.77,-470.82 768.29,-468.67 771.13,-466.55 774.29,-464.45 777.74,-462.4 781.46,-460.38 785.43,-458.41 789.63,-456.49 794.05,-454.63 798.65,-452.83 803.43,-451.09 808.36,-449.42 813.42,-447.82 818.6,-446.3 823.88,-444.87 829.23,-443.51 834.65,-442.25 840.12,-441.08 845.63,-440 851.16,-439.02 856.7,-438.14 862.24,-437.37 867.77,-436.7 873.29,-436.14 878.78,-435.69 884.23,-435.36 889.65,-435.14 895.02,-435.03 900.34,-435.04 905.61,-435.17 910.82,-435.42 915.97,-435.78 921.05,-436.26 926.07,-436.86 931.02,-437.57 935.89,-438.4 940.68,-439.34 945.39,-440.39 950.02,-441.55 954.55,-442.81 958.99,-444.18 963.33,-445.65 967.56,-447.22 971.68,-448.88 975.67,-450.63 979.53,-452.46 983.25,-454.37 986.82,-456.35 990.22,-458.4 993.45,-460.51 996.5,-462.68 999.34,-464.89 1001.98,-467.15 1004.38,-469.45 1006.55,-471.78 1008.47,-474.13 1010.11,-476.49 1011.48,-478.87 1012.55,-481.24 1013.32,-483.61 1013.76,-485.97 1013.87,-488.3 1013.63,-490.61 1013.05,-492.89 1012.1,-495.12 1010.77,-497.31 1009.08,-499.44 1007,-501.5 1004.53,-503.5 1001.69,-505.43 998.45,-507.28 994.84,-509.04 990.84,-510.71 986.47,-512.29 981.75,-513.76 976.66,-515.14 971.24,-516.4 965.5,-517.55 959.45,-518.59 953.11,-519.51 946.5,-520.32 939.64,-521 932.57,-521.56 925.3,-521.99 917.86,-522.3 910.28,-522.49 902.58,-522.55 894.81,-522.49 886.99,-522.3 879.16,-521.99 871.34,-521.56 863.56,-521.01 855.86,-520.35"/>
<text text-anchor="middle" x="890.42" y="-474.64" font-family="sans-serif" font-size="16.00">PrintingContext</text>
</g>
<!-- PrintingContext&#45;&gt;CustomerManagementContext -->
<g id="edge4" class="edge">
<title>PrintingContext&#45;&gt;CustomerManagementContext</title>
<path fill="none" stroke="black" stroke-width="2" d="M790.03,-456.21C678.25,-432.57 496.76,-394.18 370.68,-367.52"/>
<text text-anchor="middle" x="615.92" y="-406.54" font-family="sans-serif" font-size="12.00"> &#160;&#160;&#160;&#160;&#160;&#160;&#160;</text>
<polygon fill="white" stroke="transparent" points="363.68,-358.52 363.68,-375.52 377.68,-375.52 377.68,-358.52 363.68,-358.52"/>
<text text-anchor="start" x="365.68" y="-363.92" font-family="sans-serif" font-size="12.00">D</text>
<polygon fill="white" stroke="transparent" points="783.03,-447.21 783.03,-464.21 797.03,-464.21 797.03,-447.21 783.03,-447.21"/>
<text text-anchor="start" x="785.03" y="-452.61" font-family="sans-serif" font-size="12.00">U</text>
</g>
<!-- PrintingContext&#45;&gt;PolicyManagementContext -->
<g id="edge6" class="edge">
<title>PrintingContext&#45;&gt;PolicyManagementContext</title>
<path fill="none" stroke="black" stroke-width="2" d="M894.61,-434.86C896.45,-393.75 893.2,-331.52 863.42,-288.14 846.39,-263.33 820.66,-244.3 794.33,-230.03"/>
<text text-anchor="middle" x="908.92" y="-333.54" font-family="sans-serif" font-size="12.00"> &#160;&#160;&#160;&#160;&#160;&#160;&#160;</text>
<polygon fill="white" stroke="transparent" points="787.33,-221.03 787.33,-238.03 801.33,-238.03 801.33,-221.03 787.33,-221.03"/>
<text text-anchor="start" x="789.33" y="-226.43" font-family="sans-serif" font-size="12.00">D</text>
<polygon fill="white" stroke="transparent" points="887.61,-425.86 887.61,-442.86 901.61,-442.86 901.61,-425.86 887.61,-425.86"/>
<text text-anchor="start" x="889.61" y="-431.26" font-family="sans-serif" font-size="12.00">U</text>
</g>
<!-- PrintingContext&#45;&gt;DebtCollection -->
<g id="edge5" class="edge">
<title>PrintingContext&#45;&gt;DebtCollection</title>
<path fill="none" stroke="black" stroke-width="2" d="M911.81,-435.33C918.52,-419.94 925.06,-402.14 928.42,-385.14 949.22,-279.98 949.05,-242.25 903.42,-145.25 894.46,-126.2 880.68,-107.91 866.97,-92.51"/>
<text text-anchor="middle" x="955.92" y="-260.54" font-family="sans-serif" font-size="12.00"> &#160;&#160;&#160;&#160;&#160;&#160;&#160;</text>
<polygon fill="white" stroke="transparent" points="859.97,-83.51 859.97,-100.51 873.97,-100.51 873.97,-83.51 859.97,-83.51"/>
<text text-anchor="start" x="861.97" y="-88.91" font-family="sans-serif" font-size="12.00">D</text>
<polygon fill="white" stroke="transparent" points="904.81,-426.33 904.81,-443.33 918.81,-443.33 918.81,-426.33 904.81,-426.33"/>
<text text-anchor="start" x="906.81" y="-431.73" font-family="sans-serif" font-size="12.00">U</text>
</g>
<!-- RiskManagementContext -->
<g id="node6" class="node">
<title>RiskManagementContext</title>
<polygon fill="none" stroke="black" stroke-width="2" points="521.57,-361.43 515.01,-359.09 508.88,-356.69 503.22,-354.24 498.05,-351.76 493.39,-349.26 489.26,-346.74 485.68,-344.21 482.68,-341.69 480.25,-339.17 478.42,-336.68 477.19,-334.21 476.58,-331.78 476.57,-329.38 477.18,-327.04 478.41,-324.76 480.24,-322.53 482.68,-320.37 485.7,-318.29 489.31,-316.28 493.48,-314.35 498.2,-312.5 503.44,-310.74 509.2,-309.07 515.43,-307.5 522.11,-306.01 529.23,-304.62 536.74,-303.33 544.62,-302.13 552.84,-301.03 561.36,-300.02 570.15,-299.11 579.18,-298.29 588.41,-297.57 597.8,-296.94 607.33,-296.41 616.96,-295.97 626.65,-295.62 636.37,-295.35 646.08,-295.18 655.77,-295.09 665.39,-295.1 674.91,-295.18 684.32,-295.35 693.57,-295.61 702.65,-295.95 711.53,-296.37 720.19,-296.87 728.61,-297.45 736.77,-298.12 744.65,-298.87 752.24,-299.69 759.52,-300.6 766.49,-301.59 773.12,-302.66 779.41,-303.81 785.36,-305.04 790.95,-306.34 796.19,-307.73 801.05,-309.19 805.56,-310.73 809.69,-312.35 813.46,-314.04 816.85,-315.8 819.87,-317.63 822.52,-319.53 824.8,-321.5 826.72,-323.53 828.27,-325.61 829.45,-327.75 830.27,-329.95 830.73,-332.18 830.83,-334.46 830.58,-336.77 829.97,-339.12 829,-341.48 827.68,-343.86 826.02,-346.25 824,-348.64 821.63,-351.02 818.92,-353.39 815.87,-355.74 812.47,-358.05 808.73,-360.32 804.64,-362.55 800.23,-364.71 795.47,-366.81 790.39,-368.84 784.98,-370.78 779.24,-372.63 773.19,-374.37 766.83,-376.02 760.16,-377.54 753.2,-378.94 745.96,-380.22 738.44,-381.35 730.66,-382.35 722.63,-383.2 714.37,-383.9 705.9,-384.45 697.22,-384.84 688.37,-385.07 679.36,-385.14 670.22,-385.05 660.97,-384.79 651.63,-384.37 642.23,-383.8 632.8,-383.06 623.37,-382.18 613.97,-381.14 604.63,-379.95 595.38,-378.63 586.25,-377.16 577.28,-375.57 568.49,-373.86 559.93,-372.03 551.62,-370.09 543.6,-368.05 535.9,-365.92 528.55,-363.71 521.57,-361.43"/>
<text text-anchor="middle" x="665.42" y="-332.84" font-family="sans-serif" font-size="16.00">RiskManagementContext</text>
</g>
<!-- RiskManagementContext&#45;&gt;PolicyManagementContext -->
<g id="edge7" class="edge">
<title>RiskManagementContext&#45;&gt;PolicyManagementContext</title>
<path fill="none" stroke="black" stroke-width="2" d="M673.44,-294.82C677.05,-276.49 681.3,-254.85 684.96,-236.26"/>
<text text-anchor="middle" x="721.42" y="-260.54" font-family="sans-serif" font-size="12.00">Shared Kernel</text>
</g>
</g>
</svg>
