<svg width="2000px" height="1052px"
 viewBox="0.00 0.00 1015.08 533.59" xmlns="http://www.w3.org/2000/svg" xmlns:xlink="http://www.w3.org/1999/xlink">
<g id="graph0" class="graph" transform="scale(1.0 1.0) rotate(0) translate(4 529.59)">
<title>ContextMapGraph</title>
<polygon fill="white" stroke="transparent" points="-4,4 -4,-529.59 1011.08,-529.59 1011.08,4 -4,4"/>
<!-- CustomerManagementContext -->
<g id="node1" class="node">
<title>CustomerManagementContext</title>
<polygon fill="none" stroke="black" stroke-width="2" points="260.62,-381.47 247.35,-381.98 234.08,-382.37 220.85,-382.63 207.71,-382.76 194.72,-382.77 181.93,-382.65 169.39,-382.4 157.14,-382.02 145.22,-381.51 133.69,-380.87 122.57,-380.1 111.9,-379.21 101.73,-378.2 92.07,-377.07 82.95,-375.82 74.4,-374.45 66.43,-372.98 59.07,-371.4 52.32,-369.72 46.2,-367.95 40.71,-366.08 35.85,-364.13 31.62,-362.11 28.03,-360.01 25.05,-357.85 22.7,-355.63 20.95,-353.36 19.79,-351.04 19.21,-348.69 19.19,-346.31 19.71,-343.91 20.76,-341.49 22.3,-339.07 24.34,-336.65 26.83,-334.24 29.76,-331.85 33.11,-329.48 36.86,-327.14 40.98,-324.83 45.46,-322.58 50.28,-320.37 55.41,-318.23 60.84,-316.14 66.56,-314.13 72.54,-312.19 78.77,-310.33 85.25,-308.56 91.95,-306.88 98.86,-305.29 105.98,-303.8 113.3,-302.41 120.81,-301.13 128.5,-299.95 136.37,-298.88 144.4,-297.93 152.6,-297.08 160.96,-296.36 169.48,-295.74 178.14,-295.25 186.94,-294.87 195.89,-294.6 204.96,-294.46 214.16,-294.43 223.47,-294.51 232.88,-294.71 242.39,-295.02 251.98,-295.44 261.63,-295.97 271.34,-296.61 281.08,-297.35 290.83,-298.19 300.57,-299.14 310.29,-300.17 319.95,-301.31 329.53,-302.53 339,-303.84 348.33,-305.24 357.49,-306.71 366.44,-308.27 375.16,-309.89 383.61,-311.59 391.76,-313.35 399.56,-315.17 406.98,-317.05 413.99,-318.98 420.54,-320.96 426.61,-322.98 432.17,-325.05 437.17,-327.14 441.58,-329.27 445.38,-331.43 448.54,-333.6 451.02,-335.79 452.82,-337.99 453.9,-340.2 454.25,-342.41 453.85,-344.61 452.7,-346.8 450.79,-348.97 448.1,-351.13 444.65,-353.25 440.44,-355.35 435.47,-357.4 429.76,-359.42 423.31,-361.38 416.16,-363.29 408.32,-365.14 399.83,-366.93 390.7,-368.64 380.98,-370.28 370.71,-371.84 359.92,-373.31 348.65,-374.69 336.96,-375.98 324.89,-377.17 312.49,-378.25 299.81,-379.23 286.9,-380.09 273.82,-380.84 260.62,-381.47"/>
<text text-anchor="middle" x="227.08" y="-334.18" font-family="sans-serif" font-size="16.00">CustomerManagementContext</text>
</g>
<!-- CustomerSelfServiceContext -->
<g id="node2" class="node">
<title>CustomerSelfServiceContext</title>
<polygon fill="none" stroke="black" stroke-width="2" points="32.23,-195.49 31.07,-192.64 30.45,-189.79 30.39,-186.97 30.88,-184.17 31.92,-181.42 33.52,-178.72 35.67,-176.08 38.36,-173.52 41.6,-171.04 45.37,-168.65 49.67,-166.36 54.48,-164.18 59.8,-162.11 65.6,-160.17 71.87,-158.34 78.6,-156.65 85.77,-155.09 93.35,-153.67 101.32,-152.38 109.66,-151.24 118.35,-150.24 127.36,-149.38 136.65,-148.66 146.21,-148.08 156.01,-147.63 166.01,-147.33 176.19,-147.15 186.51,-147.11 196.95,-147.19 207.46,-147.39 218.03,-147.71 228.61,-148.14 239.17,-148.68 249.69,-149.32 260.14,-150.06 270.47,-150.89 280.66,-151.8 290.68,-152.8 300.51,-153.87 310.11,-155.02 319.45,-156.23 328.51,-157.5 337.26,-158.84 345.68,-160.22 353.75,-161.66 361.44,-163.14 368.73,-164.66 375.61,-166.23 382.05,-167.83 388.05,-169.47 393.58,-171.14 398.63,-172.84 403.2,-174.57 407.26,-176.33 410.82,-178.12 413.86,-179.93 416.39,-181.76 418.39,-183.62 419.87,-185.5 420.81,-187.4 421.24,-189.31 421.13,-191.25 420.51,-193.2 419.37,-195.17 417.72,-197.14 415.56,-199.13 412.91,-201.13 409.77,-203.12 406.16,-205.13 402.08,-207.12 397.55,-209.12 392.58,-211.1 387.19,-213.07 381.39,-215.02 375.19,-216.94 368.62,-218.83 361.69,-220.69 354.41,-222.5 346.82,-224.26 338.92,-225.97 330.73,-227.61 322.29,-229.19 313.6,-230.68 304.69,-232.09 295.58,-233.41 286.29,-234.62 276.85,-235.74 267.28,-236.73 257.6,-237.61 247.83,-238.36 238,-238.98 228.13,-239.46 218.26,-239.8 208.39,-239.98 198.55,-240.02 188.78,-239.91 179.09,-239.63 169.51,-239.2 160.06,-238.6 150.77,-237.85 141.66,-236.93 132.76,-235.86 124.08,-234.63 115.66,-233.24 107.52,-231.7 99.67,-230.02 92.15,-228.2 84.96,-226.25 78.14,-224.17 71.7,-221.96 65.67,-219.65 60.06,-217.24 54.88,-214.73 50.17,-212.14 45.92,-209.48 42.16,-206.76 38.9,-203.99 36.15,-201.18 33.92,-198.34 32.23,-195.49"/>
<text text-anchor="middle" x="227.08" y="-188.36" font-family="sans-serif" font-size="16.00">CustomerSelfServiceContext</text>
</g>
<!-- CustomerManagementContext&#45;&gt;CustomerSelfServiceContext -->
<g id="edge1" class="edge">
<title>CustomerManagementContext&#45;&gt;CustomerSelfServiceContext</title>
<path fill="none" stroke="black" stroke-width="2" d="M227.08,-294.22C227.08,-277 227.08,-257.09 227.08,-239.52"/>
<text text-anchor="middle" x="242.58" y="-261.49" font-family="sans-serif" font-size="12.00"> &#160;&#160;&#160;&#160;&#160;&#160;&#160;</text>
<polygon fill="white" stroke="transparent" points="220.08,-230.52 220.08,-247.52 234.08,-247.52 234.08,-230.52 220.08,-230.52"/>
<text text-anchor="start" x="222.08" y="-235.92" font-family="sans-serif" font-size="12.00">D</text>
<polygon fill="white" stroke="transparent" points="220.08,-285.22 220.08,-302.22 234.08,-302.22 234.08,-285.22 220.08,-285.22"/>
<text text-anchor="start" x="222.08" y="-290.62" font-family="sans-serif" font-size="12.00">U</text>
</g>
<!-- PolicyManagementContext -->
<g id="node3" class="node">
<title>PolicyManagementContext</title>
<polygon fill="none" stroke="black" stroke-width="2" points="638.62,-149.28 650.35,-148.62 662.12,-148.09 673.87,-147.68 685.57,-147.4 697.17,-147.25 708.61,-147.23 719.87,-147.34 730.89,-147.58 741.64,-147.96 752.08,-148.46 762.17,-149.1 771.89,-149.87 781.2,-150.76 790.07,-151.78 798.49,-152.92 806.42,-154.19 813.85,-155.56 820.77,-157.05 827.17,-158.64 833.02,-160.34 838.33,-162.13 843.1,-164.02 847.32,-165.99 850.99,-168.03 854.11,-170.15 856.7,-172.33 858.76,-174.57 860.3,-176.86 861.34,-179.19 861.88,-181.56 861.94,-183.96 861.53,-186.37 860.68,-188.8 859.39,-191.22 857.7,-193.65 855.6,-196.06 853.13,-198.46 850.3,-200.83 847.12,-203.16 843.61,-205.46 839.8,-207.7 835.68,-209.9 831.29,-212.03 826.63,-214.1 821.71,-216.09 816.55,-218.01 811.16,-219.84 805.55,-221.59 799.72,-223.25 793.69,-224.81 787.46,-226.27 781.04,-227.63 774.43,-228.89 767.64,-230.04 760.68,-231.08 753.54,-232.01 746.23,-232.83 738.77,-233.53 731.14,-234.12 723.36,-234.59 715.43,-234.96 707.37,-235.2 699.16,-235.33 690.83,-235.35 682.38,-235.26 673.82,-235.06 665.17,-234.75 656.43,-234.33 647.63,-233.8 638.77,-233.17 629.88,-232.44 620.97,-231.62 612.07,-230.69 603.2,-229.67 594.38,-228.56 585.63,-227.36 577,-226.08 568.5,-224.71 560.16,-223.27 552.02,-221.75 544.1,-220.16 536.45,-218.5 529.09,-216.77 522.05,-214.99 515.37,-213.14 509.08,-211.25 503.22,-209.3 497.81,-207.31 492.88,-205.28 488.48,-203.21 484.61,-201.11 481.32,-198.98 478.62,-196.83 476.53,-194.66 475.09,-192.48 474.29,-190.29 474.16,-188.1 474.71,-185.9 475.94,-183.72 477.87,-181.55 480.48,-179.39 483.78,-177.26 487.77,-175.16 492.43,-173.1 497.75,-171.07 503.72,-169.09 510.31,-167.16 517.51,-165.29 525.28,-163.49 533.6,-161.75 542.43,-160.08 551.74,-158.5 561.5,-157 571.66,-155.59 582.17,-154.27 593.01,-153.06 604.12,-151.95 615.45,-150.94 626.97,-150.05 638.62,-149.28"/>
<text text-anchor="middle" x="678.08" y="-188.36" font-family="sans-serif" font-size="16.00">PolicyManagementContext</text>
</g>
<!-- CustomerManagementContext&#45;&gt;PolicyManagementContext -->
<g id="edge2" class="edge">
<title>CustomerManagementContext&#45;&gt;PolicyManagementContext</title>
<path fill="none" stroke="black" stroke-width="2" d="M333.68,-302.99C406.73,-279.69 503.11,-248.96 575.33,-225.93"/>
<text text-anchor="middle" x="482.58" y="-261.49" font-family="sans-serif" font-size="12.00"> &#160;&#160;&#160;&#160;&#160;&#160;&#160;</text>
<polygon fill="white" stroke="transparent" points="568.33,-216.93 568.33,-233.93 582.33,-233.93 582.33,-216.93 568.33,-216.93"/>
<text text-anchor="start" x="570.33" y="-222.33" font-family="sans-serif" font-size="12.00">D</text>
<polygon fill="white" stroke="transparent" points="326.68,-293.99 326.68,-310.99 340.68,-310.99 340.68,-293.99 326.68,-293.99"/>
<text text-anchor="start" x="328.68" y="-299.39" font-family="sans-serif" font-size="12.00">U</text>
</g>
<!-- DebtCollection -->
<g id="node4" class="node">
<title>DebtCollection</title>
<polygon fill="none" stroke="black" stroke-width="2" points="887.31,-16.83 892.64,-18.85 897.71,-20.95 902.5,-23.12 906.99,-25.34 911.16,-27.6 914.99,-29.91 918.46,-32.25 921.56,-34.61 924.28,-36.99 926.61,-39.37 928.52,-41.75 930.03,-44.13 931.12,-46.49 931.79,-48.83 932.03,-51.14 931.85,-53.42 931.25,-55.65 930.23,-57.85 928.8,-59.99 926.97,-62.08 924.74,-64.1 922.13,-66.07 919.15,-67.97 915.82,-69.8 912.14,-71.56 908.15,-73.25 903.86,-74.85 899.28,-76.38 894.44,-77.83 889.36,-79.2 884.06,-80.48 878.56,-81.69 872.89,-82.8 867.07,-83.83 861.12,-84.78 855.07,-85.64 848.93,-86.41 842.73,-87.1 836.5,-87.69 830.24,-88.2 823.99,-88.63 817.76,-88.96 811.57,-89.2 805.44,-89.36 799.38,-89.42 793.42,-89.4 787.56,-89.28 781.82,-89.07 776.22,-88.77 770.76,-88.38 765.45,-87.9 760.3,-87.32 755.33,-86.65 750.53,-85.89 745.92,-85.03 741.49,-84.08 737.27,-83.03 733.23,-81.9 729.4,-80.67 725.78,-79.34 722.36,-77.93 719.14,-76.43 716.14,-74.84 713.34,-73.16 710.75,-71.4 708.38,-69.56 706.21,-67.64 704.25,-65.65 702.51,-63.59 700.98,-61.46 699.67,-59.27 698.56,-57.02 697.68,-54.73 697.01,-52.39 696.56,-50.01 696.34,-47.61 696.34,-45.18 696.56,-42.73 697.02,-40.27 697.7,-37.82 698.62,-35.37 699.78,-32.93 701.18,-30.53 702.82,-28.15 704.71,-25.82 706.84,-23.54 709.23,-21.31 711.86,-19.16 714.75,-17.08 717.89,-15.09 721.28,-13.19 724.91,-11.4 728.8,-9.7 732.93,-8.13 737.3,-6.68 741.9,-5.35 746.73,-4.16 751.78,-3.1 757.04,-2.19 762.5,-1.43 768.15,-0.81 773.98,-0.35 779.96,-0.04 786.09,0.12 792.35,0.11 798.72,-0.04 805.18,-0.35 811.71,-0.81 818.3,-1.43 824.91,-2.19 831.52,-3.09 838.12,-4.14 844.68,-5.31 851.16,-6.62 857.56,-8.05 863.84,-9.6 869.98,-11.26 875.95,-13.02 881.74,-14.88 887.31,-16.83"/>
<text text-anchor="middle" x="805.08" y="-43.82" font-family="sans-serif" font-size="16.00">DebtCollection</text>
</g>
<!-- PolicyManagementContext&#45;&gt;DebtCollection -->
<g id="edge3" class="edge">
<title>PolicyManagementContext&#45;&gt;DebtCollection</title>
<path fill="none" stroke="black" stroke-width="2" d="M717.22,-147.23C733.84,-128.58 753.08,-106.98 769.31,-88.76"/>
<text text-anchor="middle" x="787.08" y="-116.63" font-family="sans-serif" font-size="12.00">Shared Kernel</text>
</g>
<!-- PrintingContext -->
<g id="node5" class="node">
<title>PrintingContext</title>
<polygon fill="none" stroke="black" stroke-width="2" points="920.46,-440.31 927.77,-441.37 934.9,-442.54 941.84,-443.81 948.54,-445.17 954.98,-446.63 961.14,-448.17 966.98,-449.79 972.5,-451.49 977.66,-453.26 982.45,-455.1 986.85,-456.99 990.84,-458.94 994.41,-460.94 997.56,-462.98 1000.26,-465.06 1002.52,-467.17 1004.33,-469.31 1005.69,-471.47 1006.6,-473.64 1007.06,-475.83 1007.09,-478.02 1006.67,-480.2 1005.83,-482.39 1004.57,-484.56 1002.91,-486.72 1000.86,-488.85 998.44,-490.96 995.66,-493.04 992.54,-495.09 989.1,-497.1 985.37,-499.06 981.35,-500.98 977.08,-502.85 972.57,-504.66 967.84,-506.41 962.92,-508.1 957.83,-509.72 952.58,-511.27 947.21,-512.74 941.72,-514.14 936.14,-515.45 930.49,-516.69 924.78,-517.83 919.04,-518.88 913.27,-519.84 907.49,-520.71 901.72,-521.47 895.97,-522.14 890.24,-522.7 884.55,-523.15 878.92,-523.5 873.34,-523.74 867.83,-523.86 862.38,-523.88 857.02,-523.78 851.74,-523.57 846.54,-523.24 841.44,-522.8 836.43,-522.24 831.52,-521.57 826.71,-520.79 822.01,-519.89 817.41,-518.88 812.92,-517.76 808.54,-516.54 804.28,-515.2 800.14,-513.77 796.13,-512.24 792.25,-510.61 788.5,-508.89 784.89,-507.08 781.43,-505.19 778.12,-503.22 774.98,-501.18 772.01,-499.07 769.22,-496.9 766.62,-494.68 764.22,-492.4 762.03,-490.09 760.07,-487.73 758.34,-485.36 756.85,-482.96 755.63,-480.54 754.67,-478.13 754,-475.71 753.62,-473.3 753.54,-470.92 753.78,-468.55 754.35,-466.22 755.24,-463.93 756.48,-461.69 758.07,-459.5 760.01,-457.38 762.31,-455.32 764.97,-453.34 767.99,-451.44 771.37,-449.63 775.12,-447.91 779.21,-446.3 783.66,-444.78 788.45,-443.38 793.57,-442.09 799.01,-440.91 804.76,-439.86 810.79,-438.93 817.1,-438.12 823.66,-437.45 830.46,-436.9 837.46,-436.48 844.65,-436.19 851.99,-436.04 859.47,-436.01 867.05,-436.11 874.7,-436.34 882.4,-436.7 890.11,-437.18 897.8,-437.79 905.45,-438.51 913.01,-439.35 920.46,-440.31"/>
<text text-anchor="middle" x="874.08" y="-476.93" font-family="sans-serif" font-size="16.00">PrintingContext</text>
</g>
<!-- PrintingContext&#45;&gt;CustomerManagementContext -->
<g id="edge4" class="edge">
<title>PrintingContext&#45;&gt;CustomerManagementContext</title>
<path fill="none" stroke="black" stroke-width="2" d="M762.12,-455.37C655.07,-432.08 492.97,-396.82 375.25,-371.21"/>
<text text-anchor="middle" x="605.58" y="-408.27" font-family="sans-serif" font-size="12.00"> &#160;&#160;&#160;&#160;&#160;&#160;&#160;</text>
<polygon fill="white" stroke="transparent" points="368.25,-362.21 368.25,-379.21 382.25,-379.21 382.25,-362.21 368.25,-362.21"/>
<text text-anchor="start" x="370.25" y="-367.61" font-family="sans-serif" font-size="12.00">D</text>
<polygon fill="white" stroke="transparent" points="755.12,-446.37 755.12,-463.37 769.12,-463.37 769.12,-446.37 755.12,-446.37"/>
<text text-anchor="start" x="757.12" y="-451.77" font-family="sans-serif" font-size="12.00">U</text>
</g>
<!-- PrintingContext&#45;&gt;PolicyManagementContext -->
<g id="edge5" class="edge">
<title>PrintingContext&#45;&gt;PolicyManagementContext</title>
<path fill="none" stroke="black" stroke-width="2" d="M878.31,-436.5C880.12,-395.14 876.8,-332.75 847.08,-289.09 829.52,-263.29 802.59,-243.61 775.35,-229"/>
<text text-anchor="middle" x="892.58" y="-334.88" font-family="sans-serif" font-size="12.00"> &#160;&#160;&#160;&#160;&#160;&#160;&#160;</text>
<polygon fill="white" stroke="transparent" points="768.35,-220 768.35,-237 782.35,-237 782.35,-220 768.35,-220"/>
<text text-anchor="start" x="770.35" y="-225.4" font-family="sans-serif" font-size="12.00">D</text>
<polygon fill="white" stroke="transparent" points="871.31,-427.5 871.31,-444.5 885.31,-444.5 885.31,-427.5 871.31,-427.5"/>
<text text-anchor="start" x="873.31" y="-432.9" font-family="sans-serif" font-size="12.00">U</text>
</g>
<!-- PrintingContext&#45;&gt;DebtCollection -->
<g id="edge6" class="edge">
<title>PrintingContext&#45;&gt;DebtCollection</title>
<path fill="none" stroke="black" stroke-width="2" d="M895.47,-437.35C902.19,-421.87 908.72,-403.96 912.08,-386.87 932.97,-280.66 937.01,-242.24 891.08,-144.23 881.04,-122.8 864.57,-102.72 848.72,-86.55"/>
<text text-anchor="middle" x="941.58" y="-261.49" font-family="sans-serif" font-size="12.00"> &#160;&#160;&#160;&#160;&#160;&#160;&#160;</text>
<polygon fill="white" stroke="transparent" points="841.72,-77.55 841.72,-94.55 855.72,-94.55 855.72,-77.55 841.72,-77.55"/>
<text text-anchor="start" x="843.72" y="-82.95" font-family="sans-serif" font-size="12.00">D</text>
<polygon fill="white" stroke="transparent" points="888.47,-428.35 888.47,-445.35 902.47,-445.35 902.47,-428.35 888.47,-428.35"/>
<text text-anchor="start" x="890.47" y="-433.75" font-family="sans-serif" font-size="12.00">U</text>
</g>
<!-- RiskManagementContext -->
<g id="node6" class="node">
<title>RiskManagementContext</title>
<polygon fill="none" stroke="black" stroke-width="2" points="800.03,-362.26 793.87,-364.67 787.35,-367 780.49,-369.23 773.31,-371.36 765.86,-373.39 758.14,-375.29 750.19,-377.07 742.04,-378.72 733.7,-380.22 725.22,-381.58 716.61,-382.79 707.9,-383.84 699.11,-384.74 690.28,-385.47 681.42,-386.04 672.56,-386.44 663.71,-386.68 654.92,-386.76 646.18,-386.67 637.53,-386.41 628.98,-386 620.56,-385.44 612.27,-384.72 604.14,-383.86 596.18,-382.85 588.41,-381.71 580.84,-380.44 573.49,-379.05 566.36,-377.55 559.47,-375.94 552.83,-374.23 546.46,-372.43 540.35,-370.54 534.53,-368.59 529,-366.56 523.77,-364.48 518.85,-362.36 514.25,-360.19 509.98,-357.99 506.04,-355.76 502.44,-353.52 499.19,-351.26 496.3,-349 493.77,-346.75 491.62,-344.51 489.84,-342.28 488.44,-340.07 487.44,-337.89 486.83,-335.74 486.62,-333.62 486.83,-331.54 487.44,-329.5 488.46,-327.51 489.91,-325.56 491.77,-323.66 494.06,-321.82 496.77,-320.02 499.9,-318.29 503.45,-316.6 507.42,-314.98 511.81,-313.41 516.61,-311.9 521.82,-310.45 527.42,-309.06 533.41,-307.73 539.78,-306.46 546.52,-305.26 553.61,-304.12 561.03,-303.04 568.78,-302.03 576.83,-301.09 585.17,-300.21 593.76,-299.41 602.6,-298.68 611.65,-298.02 620.88,-297.43 630.29,-296.93 639.82,-296.51 649.46,-296.17 659.18,-295.92 668.94,-295.75 678.71,-295.68 688.46,-295.7 698.16,-295.82 707.78,-296.05 717.27,-296.37 726.61,-296.8 735.77,-297.34 744.71,-297.98 753.4,-298.74 761.81,-299.61 769.91,-300.59 777.67,-301.69 785.06,-302.91 792.06,-304.24 798.64,-305.68 804.77,-307.23 810.43,-308.9 815.62,-310.67 820.29,-312.55 824.45,-314.53 828.08,-316.6 831.16,-318.77 833.68,-321.02 835.65,-323.36 837.05,-325.76 837.89,-328.24 838.15,-330.77 837.86,-333.35 837,-335.97 835.58,-338.62 833.63,-341.3 831.13,-343.99 828.12,-346.68 824.6,-349.36 820.59,-352.02 816.11,-354.65 811.17,-357.24 805.81,-359.79 800.03,-362.26"/>
<text text-anchor="middle" x="655.08" y="-334.18" font-family="sans-serif" font-size="16.00">RiskManagementContext</text>
</g>
<!-- RiskManagementContext&#45;&gt;PolicyManagementContext -->
<g id="edge7" class="edge">
<title>RiskManagementContext&#45;&gt;PolicyManagementContext</title>
<path fill="none" stroke="black" stroke-width="2" d="M661.67,-295.77C664.71,-276.76 668.32,-254.23 671.37,-235.13"/>
<text text-anchor="middle" x="709.08" y="-261.49" font-family="sans-serif" font-size="12.00">Shared Kernel</text>
</g>
</g>
</svg>
