<svg width="2000px" height="3876px"
 viewBox="0.00 0.00 128.72 249.61" xmlns="http://www.w3.org/2000/svg" xmlns:xlink="http://www.w3.org/1999/xlink">
<g id="graph0" class="graph" transform="scale(1.0 1.0) rotate(0) translate(4 245.61)">
<title>ContextMapGraph</title>
<polygon fill="white" stroke="transparent" points="-4,4 -4,-245.61 124.72,-245.61 124.72,4 -4,4"/>
<!-- bC1 -->
<g id="node1" class="node">
<title>bC1</title>
<polygon fill="none" stroke="black" stroke-width="2" points="89.5,-84.46 86.52,-86.03 83.48,-87.49 80.39,-88.83 77.27,-90.04 74.12,-91.13 70.95,-92.08 67.78,-92.89 64.62,-93.56 61.48,-94.08 58.37,-94.45 55.3,-94.68 52.28,-94.75 49.32,-94.66 46.42,-94.43 43.61,-94.04 40.87,-93.5 38.23,-92.81 35.68,-91.98 33.23,-91 30.88,-89.89 28.65,-88.64 26.53,-87.26 24.52,-85.75 22.64,-84.13 20.87,-82.39 19.23,-80.56 17.71,-78.62 16.31,-76.6 15.03,-74.49 13.88,-72.31 12.85,-70.07 11.93,-67.77 11.14,-65.43 10.47,-63.04 9.91,-60.63 9.47,-58.19 9.14,-55.74 8.92,-53.29 8.81,-50.84 8.81,-48.4 8.92,-45.98 9.13,-43.58 9.44,-41.22 9.86,-38.91 10.37,-36.63 10.99,-34.41 11.71,-32.25 12.52,-30.16 13.44,-28.13 14.45,-26.17 15.56,-24.29 16.76,-22.49 18.06,-20.77 19.46,-19.14 20.95,-17.6 22.53,-16.15 24.21,-14.79 25.98,-13.52 27.85,-12.34 29.81,-11.26 31.85,-10.28 33.99,-9.39 36.2,-8.6 38.51,-7.9 40.89,-7.3 43.35,-6.8 45.88,-6.39 48.48,-6.07 51.15,-5.85 53.87,-5.72 56.65,-5.68 59.47,-5.73 62.33,-5.88 65.22,-6.11 68.14,-6.44 71.07,-6.85 74.01,-7.36 76.95,-7.95 79.88,-8.62 82.78,-9.39 85.65,-10.24 88.48,-11.17 91.25,-12.2 93.96,-13.3 96.6,-14.49 99.14,-15.75 101.6,-17.1 103.94,-18.53 106.17,-20.04 108.27,-21.62 110.23,-23.28 112.05,-25.01 113.71,-26.81 115.2,-28.68 116.53,-30.61 117.68,-32.6 118.65,-34.65 119.43,-36.75 120.01,-38.9 120.4,-41.1 120.59,-43.33 120.57,-45.6 120.36,-47.89 119.94,-50.21 119.32,-52.55 118.51,-54.89 117.5,-57.24 116.3,-59.58 114.91,-61.91 113.34,-64.22 111.59,-66.5 109.68,-68.74 107.61,-70.94 105.39,-73.09 103.03,-75.18 100.54,-77.2 97.93,-79.15 95.21,-81.01 92.4,-82.79 89.5,-84.46"/>
<text text-anchor="middle" x="60.36" y="-43.62" font-family="sans-serif" font-size="16.00">bC1</text>
</g>
<!-- bC2 -->
<g id="node2" class="node">
<title>bC2</title>
<polygon fill="none" stroke="black" stroke-width="2" points="105.68,-217 103.76,-219.41 101.72,-221.74 99.57,-223.97 97.33,-226.1 95,-228.13 92.58,-230.03 90.1,-231.81 87.55,-233.46 84.94,-234.96 82.29,-236.32 79.6,-237.53 76.88,-238.58 74.13,-239.48 71.37,-240.21 68.6,-240.78 65.83,-241.18 63.06,-241.42 60.31,-241.5 57.58,-241.41 54.87,-241.15 52.2,-240.74 49.57,-240.18 46.98,-239.46 44.43,-238.6 41.95,-237.59 39.52,-236.45 37.15,-235.18 34.85,-233.79 32.62,-232.29 30.47,-230.68 28.39,-228.97 26.4,-227.17 24.49,-225.28 22.67,-223.33 20.94,-221.3 19.31,-219.22 17.77,-217.1 16.33,-214.93 14.99,-212.73 13.76,-210.5 12.64,-208.25 11.62,-206 10.72,-203.74 9.93,-201.49 9.25,-199.25 8.7,-197.02 8.26,-194.81 7.95,-192.63 7.76,-190.47 7.69,-188.36 7.75,-186.28 7.94,-184.24 8.27,-182.25 8.72,-180.3 9.3,-178.4 10.01,-176.56 10.86,-174.76 11.84,-173.03 12.95,-171.34 14.19,-169.72 15.57,-168.15 17.07,-166.64 18.69,-165.19 20.45,-163.8 22.32,-162.47 24.31,-161.2 26.42,-160 28.63,-158.86 30.96,-157.78 33.38,-156.77 35.9,-155.83 38.5,-154.95 41.19,-154.15 43.95,-153.41 46.78,-152.76 49.67,-152.17 52.61,-151.67 55.59,-151.25 58.6,-150.91 61.64,-150.66 64.69,-150.49 67.75,-150.42 70.8,-150.44 73.83,-150.56 76.84,-150.79 79.81,-151.11 82.73,-151.54 85.59,-152.07 88.39,-152.72 91.1,-153.48 93.73,-154.35 96.27,-155.33 98.69,-156.43 101,-157.65 103.19,-158.98 105.25,-160.42 107.16,-161.97 108.93,-163.64 110.55,-165.41 112.02,-167.29 113.32,-169.27 114.45,-171.34 115.41,-173.51 116.2,-175.76 116.82,-178.1 117.26,-180.5 117.52,-182.98 117.6,-185.51 117.51,-188.09 117.24,-190.71 116.8,-193.36 116.19,-196.04 115.41,-198.73 114.46,-201.42 113.36,-204.1 112.11,-206.76 110.71,-209.39 109.17,-211.98 107.49,-214.52 105.68,-217"/>
<text text-anchor="middle" x="60.36" y="-188.92" font-family="sans-serif" font-size="16.00">bC2</text>
</g>
<!-- bC2&#45;&gt;bC1 -->
<g id="edge1" class="edge">
<title>bC2&#45;&gt;bC1</title>
<path fill="none" stroke="black" stroke-width="2" d="M60.36,-150.65C60.36,-133.04 60.36,-112.38 60.36,-94.27"/>
<text text-anchor="middle" x="75.86" y="-116.23" font-family="sans-serif" font-size="12.00"> &#160;&#160;&#160;&#160;&#160;&#160;&#160;</text>
<polygon fill="white" stroke="transparent" points="53.36,-85.27 53.36,-102.27 67.36,-102.27 67.36,-85.27 53.36,-85.27"/>
<text text-anchor="start" x="55.36" y="-90.67" font-family="sans-serif" font-size="12.00">D</text>
<polygon fill="white" stroke="transparent" points="53.36,-141.65 53.36,-158.65 67.36,-158.65 67.36,-141.65 53.36,-141.65"/>
<text text-anchor="start" x="55.36" y="-147.05" font-family="sans-serif" font-size="12.00">U</text>
</g>
</g>
</svg>
