<svg width="2000px" height="3813px"
 viewBox="0.00 0.00 127.96 243.65" xmlns="http://www.w3.org/2000/svg" xmlns:xlink="http://www.w3.org/1999/xlink">
<g id="graph0" class="graph" transform="scale(1.0 1.0) rotate(0) translate(4 239.65)">
<title>ContextMapGraph</title>
<polygon fill="white" stroke="transparent" points="-4,4 -4,-239.65 123.96,-239.65 123.96,4 -4,4"/>
<!-- bC1 -->
<g id="node1" class="node">
<title>bC1</title>
<polygon fill="none" stroke="black" stroke-width="2" points="41.65,-85.99 38.27,-85.07 34.97,-84.03 31.75,-82.89 28.63,-81.65 25.63,-80.31 22.74,-78.88 19.99,-77.37 17.39,-75.77 14.94,-74.09 12.65,-72.34 10.54,-70.52 8.61,-68.64 6.86,-66.71 5.31,-64.72 3.95,-62.69 2.79,-60.61 1.83,-58.5 1.07,-56.36 0.52,-54.2 0.17,-52.02 0.02,-49.82 0.06,-47.62 0.3,-45.41 0.73,-43.21 1.34,-41.01 2.13,-38.83 3.08,-36.67 4.2,-34.53 5.48,-32.42 6.9,-30.34 8.47,-28.29 10.16,-26.29 11.97,-24.34 13.89,-22.44 15.91,-20.59 18.03,-18.8 20.22,-17.08 22.49,-15.43 24.83,-13.84 27.22,-12.34 29.66,-10.91 32.13,-9.57 34.64,-8.31 37.17,-7.14 39.71,-6.07 42.27,-5.09 44.83,-4.21 47.39,-3.44 49.94,-2.77 52.48,-2.2 55.01,-1.75 57.51,-1.4 60,-1.17 62.46,-1.05 64.89,-1.05 67.29,-1.16 69.66,-1.39 72,-1.73 74.3,-2.2 76.57,-2.77 78.79,-3.47 80.98,-4.28 83.12,-5.2 85.23,-6.24 87.28,-7.39 89.3,-8.64 91.26,-10 93.18,-11.46 95.04,-13.02 96.85,-14.67 98.6,-16.42 100.29,-18.25 101.91,-20.16 103.46,-22.15 104.94,-24.21 106.35,-26.33 107.67,-28.51 108.9,-30.75 110.04,-33.03 111.08,-35.35 112.02,-37.7 112.85,-40.08 113.56,-42.48 114.15,-44.89 114.61,-47.3 114.94,-49.7 115.13,-52.1 115.17,-54.47 115.07,-56.82 114.81,-59.14 114.4,-61.41 113.83,-63.63 113.09,-65.8 112.18,-67.91 111.11,-69.95 109.87,-71.91 108.45,-73.79 106.87,-75.58 105.12,-77.28 103.21,-78.89 101.14,-80.39 98.91,-81.78 96.52,-83.06 93.99,-84.23 91.33,-85.28 88.53,-86.21 85.6,-87.01 82.57,-87.69 79.43,-88.24 76.2,-88.67 72.88,-88.97 69.51,-89.14 66.07,-89.18 62.6,-89.09 59.09,-88.88 55.57,-88.54 52.05,-88.08 48.55,-87.5 45.08,-86.81 41.65,-85.99"/>
<text text-anchor="middle" x="59.98" y="-40.76" font-family="sans-serif" font-size="16.00">bC1</text>
</g>
<!-- bC2 -->
<g id="node2" class="node">
<title>bC2</title>
<polygon fill="none" stroke="black" stroke-width="2" points="7.69,-199.2 6.64,-196.47 5.73,-193.72 4.99,-190.97 4.4,-188.22 3.97,-185.49 3.71,-182.79 3.62,-180.12 3.69,-177.49 3.93,-174.92 4.34,-172.42 4.92,-169.99 5.67,-167.64 6.59,-165.37 7.67,-163.2 8.91,-161.14 10.31,-159.17 11.86,-157.32 13.56,-155.58 15.4,-153.96 17.38,-152.45 19.49,-151.07 21.73,-149.81 24.08,-148.68 26.54,-147.67 29.1,-146.78 31.74,-146.02 34.48,-145.38 37.28,-144.85 40.15,-144.45 43.07,-144.15 46.03,-143.97 49.03,-143.9 52.05,-143.94 55.09,-144.07 58.12,-144.3 61.16,-144.63 64.17,-145.05 67.17,-145.55 70.12,-146.14 73.04,-146.81 75.9,-147.56 78.7,-148.38 81.43,-149.27 84.08,-150.23 86.66,-151.25 89.14,-152.34 91.52,-153.49 93.8,-154.69 95.97,-155.96 98.03,-157.28 99.97,-158.65 101.79,-160.07 103.48,-161.55 105.04,-163.07 106.48,-164.65 107.77,-166.27 108.94,-167.94 109.96,-169.66 110.85,-171.42 111.6,-173.23 112.21,-175.08 112.68,-176.97 113.01,-178.9 113.21,-180.87 113.27,-182.87 113.2,-184.91 112.99,-186.98 112.65,-189.07 112.18,-191.19 111.58,-193.33 110.86,-195.49 110.02,-197.65 109.06,-199.82 107.98,-201.99 106.78,-204.15 105.48,-206.3 104.07,-208.43 102.55,-210.54 100.94,-212.61 99.22,-214.64 97.41,-216.63 95.52,-218.55 93.53,-220.41 91.46,-222.2 89.32,-223.91 87.1,-225.53 84.81,-227.05 82.46,-228.47 80.04,-229.77 77.57,-230.96 75.05,-232.02 72.49,-232.95 69.88,-233.73 67.23,-234.38 64.56,-234.87 61.87,-235.21 59.15,-235.39 56.43,-235.42 53.7,-235.28 50.97,-234.97 48.24,-234.5 45.54,-233.87 42.85,-233.07 40.2,-232.12 37.58,-231 35.01,-229.72 32.48,-228.3 30.02,-226.73 27.62,-225.01 25.3,-223.17 23.05,-221.19 20.9,-219.1 18.84,-216.9 16.88,-214.6 15.04,-212.2 13.31,-209.72 11.71,-207.17 10.23,-204.56 8.89,-201.9 7.69,-199.2"/>
<text text-anchor="middle" x="59.98" y="-183.08" font-family="sans-serif" font-size="16.00">bC2</text>
</g>
<!-- bC2&#45;&gt;bC1 -->
<g id="edge1" class="edge">
<title>bC2&#45;&gt;bC1</title>
<path fill="none" stroke="black" stroke-width="2" d="M59.98,-144.16C59.98,-126.87 59.98,-106.81 59.98,-89.31"/>
<text text-anchor="middle" x="75.48" y="-110.52" font-family="sans-serif" font-size="12.00"> &#160;&#160;&#160;&#160;&#160;&#160;&#160;</text>
<polygon fill="white" stroke="transparent" points="52.98,-80.31 52.98,-97.31 66.98,-97.31 66.98,-80.31 52.98,-80.31"/>
<text text-anchor="start" x="54.98" y="-85.71" font-family="sans-serif" font-size="12.00">D</text>
<polygon fill="white" stroke="transparent" points="52.98,-135.16 52.98,-152.16 66.98,-152.16 66.98,-135.16 52.98,-135.16"/>
<text text-anchor="start" x="54.98" y="-140.56" font-family="sans-serif" font-size="12.00">U</text>
</g>
</g>
</svg>
