<svg width="2000px" height="4032px"
 viewBox="0.00 0.00 124.91 251.51" xmlns="http://www.w3.org/2000/svg" xmlns:xlink="http://www.w3.org/1999/xlink">
<g id="graph0" class="graph" transform="scale(1.0 1.0) rotate(0) translate(4 247.51)">
<title>ContextMapGraph</title>
<polygon fill="white" stroke="transparent" points="-4,4 -4,-247.51 120.91,-247.51 120.91,4 -4,4"/>
<!-- bC1 -->
<g id="node1" class="node">
<title>bC1</title>
<polygon fill="none" stroke="black" stroke-width="2" points="17.09,-20.28 19.37,-18.09 21.75,-15.98 24.22,-13.98 26.77,-12.09 29.39,-10.32 32.08,-8.67 34.82,-7.15 37.6,-5.77 40.42,-4.54 43.26,-3.45 46.12,-2.52 48.99,-1.74 51.86,-1.12 54.71,-0.67 57.55,-0.38 60.37,-0.25 63.15,-0.28 65.9,-0.48 68.6,-0.84 71.25,-1.35 73.84,-2.02 76.38,-2.84 78.84,-3.8 81.24,-4.9 83.56,-6.14 85.8,-7.51 87.96,-8.99 90.04,-10.59 92.03,-12.3 93.92,-14.11 95.73,-16 97.43,-17.98 99.05,-20.03 100.56,-22.15 101.97,-24.32 103.28,-26.53 104.49,-28.79 105.59,-31.08 106.58,-33.39 107.47,-35.71 108.25,-38.04 108.92,-40.37 109.47,-42.7 109.92,-45.01 110.25,-47.29 110.46,-49.55 110.56,-51.78 110.54,-53.97 110.4,-56.12 110.15,-58.22 109.77,-60.27 109.27,-62.27 108.65,-64.21 107.91,-66.1 107.04,-67.92 106.05,-69.67 104.93,-71.37 103.7,-72.99 102.34,-74.55 100.86,-76.03 99.26,-77.45 97.53,-78.8 95.7,-80.08 93.75,-81.28 91.68,-82.41 89.51,-83.47 87.23,-84.46 84.86,-85.37 82.39,-86.21 79.83,-86.97 77.18,-87.66 74.46,-88.27 71.66,-88.8 68.81,-89.26 65.9,-89.63 62.94,-89.93 59.94,-90.14 56.91,-90.26 53.86,-90.31 50.8,-90.26 47.75,-90.12 44.7,-89.89 41.67,-89.57 38.67,-89.16 35.72,-88.64 32.82,-88.03 29.98,-87.32 27.21,-86.51 24.53,-85.6 21.95,-84.58 19.47,-83.46 17.1,-82.24 14.85,-80.91 12.74,-79.49 10.77,-77.96 8.94,-76.33 7.27,-74.6 5.76,-72.78 4.42,-70.87 3.25,-68.87 2.26,-66.78 1.45,-64.62 0.82,-62.38 0.38,-60.07 0.12,-57.7 0.05,-55.27 0.16,-52.8 0.46,-50.29 0.95,-47.74 1.61,-45.17 2.45,-42.59 3.47,-40 4.65,-37.42 5.99,-34.85 7.49,-32.3 9.14,-29.79 10.94,-27.32 12.86,-24.91 14.91,-22.56 17.09,-20.28"/>
<text text-anchor="middle" x="58.45" y="-44.95" font-family="sans-serif" font-size="16.00">bC1</text>
</g>
<!-- bC2 -->
<g id="node2" class="node">
<title>bC2</title>
<polygon fill="none" stroke="black" stroke-width="2" points="4.76,-203.66 4,-200.85 3.4,-198.04 2.95,-195.23 2.66,-192.44 2.53,-189.68 2.56,-186.95 2.76,-184.27 3.12,-181.65 3.64,-179.1 4.33,-176.62 5.18,-174.22 6.18,-171.92 7.35,-169.72 8.66,-167.63 10.13,-165.64 11.75,-163.77 13.5,-162.03 15.39,-160.4 17.42,-158.91 19.56,-157.54 21.83,-156.31 24.2,-155.21 26.68,-154.24 29.25,-153.4 31.91,-152.69 34.64,-152.11 37.45,-151.66 40.31,-151.33 43.23,-151.13 46.18,-151.04 49.17,-151.07 52.18,-151.21 55.2,-151.45 58.22,-151.8 61.24,-152.25 64.24,-152.79 67.22,-153.42 70.16,-154.14 73.05,-154.93 75.9,-155.81 78.68,-156.76 81.39,-157.78 84.03,-158.86 86.58,-160.01 89.05,-161.21 91.41,-162.47 93.67,-163.79 95.82,-165.16 97.86,-166.57 99.78,-168.04 101.57,-169.55 103.24,-171.1 104.77,-172.7 106.17,-174.34 107.43,-176.01 108.55,-177.73 109.53,-179.48 110.37,-181.27 111.07,-183.1 111.62,-184.96 112.03,-186.86 112.3,-188.78 112.42,-190.74 112.4,-192.73 112.24,-194.74 111.94,-196.77 111.51,-198.83 110.94,-200.9 110.24,-202.99 109.41,-205.09 108.45,-207.19 107.37,-209.3 106.17,-211.41 104.86,-213.5 103.42,-215.58 101.88,-217.64 100.24,-219.68 98.49,-221.68 96.65,-223.64 94.71,-225.55 92.68,-227.41 90.57,-229.21 88.38,-230.93 86.12,-232.58 83.78,-234.13 81.38,-235.6 78.93,-236.96 76.42,-238.22 73.86,-239.35 71.25,-240.37 68.61,-241.25 65.94,-242 63.25,-242.6 60.53,-243.06 57.8,-243.37 55.06,-243.52 52.33,-243.51 49.59,-243.34 46.88,-243.01 44.18,-242.52 41.5,-241.86 38.86,-241.03 36.26,-240.04 33.71,-238.9 31.21,-237.59 28.77,-236.14 26.4,-234.53 24.1,-232.79 21.89,-230.91 19.76,-228.89 17.73,-226.76 15.81,-224.51 13.99,-222.16 12.28,-219.72 10.69,-217.19 9.23,-214.59 7.9,-211.92 6.71,-209.21 5.66,-206.45 4.76,-203.66"/>
<text text-anchor="middle" x="58.45" y="-191.21" font-family="sans-serif" font-size="16.00">bC2</text>
</g>
<!-- bC2&#45;&gt;bC1 -->
<g id="edge1" class="edge">
<title>bC2&#45;&gt;bC1</title>
<path fill="none" stroke="black" stroke-width="2" d="M58.45,-151.51C58.45,-132.22 58.45,-109.52 58.45,-90.46"/>
<text text-anchor="middle" x="73.95" y="-118.9" font-family="sans-serif" font-size="12.00"> &#160;&#160;&#160;&#160;&#160;&#160;&#160;</text>
<polygon fill="white" stroke="transparent" points="51.45,-81.46 51.45,-98.46 65.45,-98.46 65.45,-81.46 51.45,-81.46"/>
<text text-anchor="start" x="53.45" y="-86.86" font-family="sans-serif" font-size="12.00">D</text>
<polygon fill="white" stroke="transparent" points="51.45,-142.51 51.45,-159.51 65.45,-159.51 65.45,-142.51 51.45,-142.51"/>
<text text-anchor="start" x="53.45" y="-147.91" font-family="sans-serif" font-size="12.00">U</text>
</g>
</g>
</svg>
