<svg width="2000px" height="4032px"
 viewBox="0.00 0.00 125.17 252.13" xmlns="http://www.w3.org/2000/svg" xmlns:xlink="http://www.w3.org/1999/xlink">
<g id="graph0" class="graph" transform="scale(1.0 1.0) rotate(0) translate(4 248.13)">
<title>ContextMapGraph</title>
<polygon fill="white" stroke="transparent" points="-4,4 -4,-248.13 121.17,-248.13 121.17,4 -4,4"/>
<!-- bC1 -->
<g id="node1" class="node">
<title>bC1</title>
<polygon fill="none" stroke="black" stroke-width="2" points="101.79,-75.6 99.65,-77.89 97.41,-80.09 95.07,-82.2 92.64,-84.2 90.14,-86.08 87.56,-87.85 84.92,-89.48 82.23,-90.98 79.49,-92.33 76.72,-93.54 73.93,-94.59 71.11,-95.49 68.29,-96.23 65.46,-96.8 62.65,-97.21 59.84,-97.46 57.06,-97.54 54.3,-97.46 51.58,-97.22 48.89,-96.82 46.26,-96.26 43.67,-95.54 41.15,-94.68 38.68,-93.68 36.28,-92.54 33.95,-91.27 31.69,-89.87 29.52,-88.36 27.42,-86.73 25.41,-85 23.48,-83.18 21.64,-81.28 19.9,-79.29 18.25,-77.24 16.7,-75.13 15.24,-72.96 13.89,-70.75 12.64,-68.51 11.49,-66.24 10.46,-63.95 9.53,-61.65 8.71,-59.35 8,-57.05 7.4,-54.76 6.92,-52.48 6.56,-50.23 6.32,-48.01 6.19,-45.81 6.19,-43.66 6.31,-41.54 6.55,-39.47 6.92,-37.45 7.41,-35.49 8.03,-33.57 8.78,-31.71 9.66,-29.91 10.66,-28.17 11.79,-26.5 13.05,-24.88 14.43,-23.33 15.94,-21.84 17.57,-20.42 19.32,-19.07 21.19,-17.78 23.18,-16.56 25.28,-15.41 27.49,-14.33 29.81,-13.32 32.22,-12.37 34.73,-11.5 37.33,-10.7 40.01,-9.98 42.77,-9.33 45.59,-8.75 48.48,-8.25 51.42,-7.83 54.4,-7.5 57.42,-7.24 60.46,-7.07 63.52,-6.99 66.58,-7 69.64,-7.1 72.69,-7.3 75.71,-7.59 78.7,-7.98 81.64,-8.46 84.52,-9.06 87.34,-9.75 90.07,-10.55 92.73,-11.46 95.28,-12.48 97.73,-13.6 100.06,-14.83 102.26,-16.17 104.33,-17.62 106.26,-19.17 108.04,-20.83 109.67,-22.59 111.14,-24.44 112.43,-26.4 113.56,-28.44 114.52,-30.57 115.29,-32.79 115.88,-35.08 116.3,-37.44 116.53,-39.86 116.57,-42.34 116.44,-44.87 116.12,-47.44 115.62,-50.04 114.95,-52.66 114.11,-55.29 113.09,-57.92 111.92,-60.55 110.59,-63.16 109.1,-65.75 107.47,-68.29 105.7,-70.79 103.81,-73.23 101.79,-75.6"/>
<text text-anchor="middle" x="58.59" y="-45.05" font-family="sans-serif" font-size="16.00">bC1</text>
</g>
<!-- bC2 -->
<g id="node2" class="node">
<title>bC2</title>
<polygon fill="none" stroke="black" stroke-width="2" points="105.74,-173.11 107.59,-175.58 109.3,-178.09 110.85,-180.64 112.26,-183.21 113.5,-185.8 114.57,-188.4 115.47,-191 116.19,-193.58 116.73,-196.14 117.09,-198.68 117.26,-201.17 117.24,-203.62 117.03,-206.02 116.64,-208.35 116.06,-210.62 115.29,-212.82 114.34,-214.94 113.22,-216.98 111.91,-218.93 110.44,-220.79 108.8,-222.55 107.01,-224.22 105.07,-225.79 102.98,-227.26 100.76,-228.63 98.41,-229.9 95.95,-231.06 93.38,-232.13 90.71,-233.09 87.96,-233.94 85.13,-234.7 82.24,-235.36 79.29,-235.92 76.3,-236.38 73.27,-236.75 70.22,-237.02 67.16,-237.2 64.09,-237.29 61.04,-237.3 58,-237.21 54.99,-237.04 52.02,-236.79 49.09,-236.45 46.22,-236.03 43.41,-235.53 40.67,-234.95 38,-234.29 35.42,-233.56 32.92,-232.75 30.52,-231.86 28.22,-230.9 26.02,-229.86 23.93,-228.75 21.95,-227.56 20.08,-226.3 18.32,-224.96 16.69,-223.55 15.17,-222.07 13.77,-220.52 12.5,-218.9 11.35,-217.2 10.32,-215.44 9.41,-213.62 8.62,-211.73 7.96,-209.78 7.41,-207.77 6.99,-205.7 6.69,-203.58 6.5,-201.42 6.44,-199.21 6.49,-196.96 6.65,-194.67 6.93,-192.36 7.33,-190.02 7.83,-187.67 8.45,-185.31 9.18,-182.94 10.02,-180.58 10.97,-178.24 12.02,-175.91 13.18,-173.62 14.44,-171.36 15.81,-169.15 17.28,-166.99 18.85,-164.9 20.52,-162.88 22.29,-160.94 24.15,-159.09 26.1,-157.34 28.15,-155.7 30.28,-154.16 32.5,-152.75 34.8,-151.47 37.17,-150.32 39.62,-149.32 42.14,-148.45 44.73,-147.74 47.37,-147.19 50.07,-146.79 52.82,-146.55 55.61,-146.48 58.43,-146.57 61.28,-146.82 64.16,-147.24 67.04,-147.82 69.93,-148.57 72.82,-149.47 75.69,-150.52 78.54,-151.73 81.36,-153.08 84.14,-154.58 86.87,-156.2 89.54,-157.96 92.14,-159.83 94.66,-161.82 97.09,-163.9 99.42,-166.09 101.65,-168.36 103.75,-170.7 105.74,-173.11"/>
<text text-anchor="middle" x="58.59" y="-191.61" font-family="sans-serif" font-size="16.00">bC2</text>
</g>
<!-- bC2&#45;&gt;bC1 -->
<g id="edge1" class="edge">
<title>bC2&#45;&gt;bC1</title>
<path fill="none" stroke="black" stroke-width="2" d="M58.59,-146.68C58.59,-130.88 58.59,-113.32 58.59,-97.53"/>
<text text-anchor="middle" x="74.09" y="-119.1" font-family="sans-serif" font-size="12.00"> &#160;&#160;&#160;&#160;&#160;&#160;&#160;</text>
<polygon fill="white" stroke="transparent" points="51.59,-88.53 51.59,-105.53 65.59,-105.53 65.59,-88.53 51.59,-88.53"/>
<text text-anchor="start" x="53.59" y="-93.93" font-family="sans-serif" font-size="12.00">D</text>
<polygon fill="white" stroke="transparent" points="51.59,-137.68 51.59,-154.68 65.59,-154.68 65.59,-137.68 51.59,-137.68"/>
<text text-anchor="start" x="53.59" y="-143.08" font-family="sans-serif" font-size="12.00">U</text>
</g>
</g>
</svg>
