<svg width="2000px" height="3721px"
 viewBox="0.00 0.00 129.15 240.01" xmlns="http://www.w3.org/2000/svg" xmlns:xlink="http://www.w3.org/1999/xlink">
<g id="graph0" class="graph" transform="scale(1.0 1.0) rotate(0) translate(4 236.01)">
<title>ContextMapGraph</title>
<polygon fill="white" stroke="transparent" points="-4,4 -4,-236.01 125.15,-236.01 125.15,4 -4,4"/>
<!-- bC1 -->
<g id="node1" class="node">
<title>bC1</title>
<polygon fill="none" stroke="black" stroke-width="2" points="34.63,-8.33 37.74,-6.93 40.91,-5.65 44.12,-4.48 47.35,-3.45 50.6,-2.54 53.86,-1.77 57.1,-1.14 60.32,-0.65 63.51,-0.3 66.66,-0.11 69.75,-0.06 72.78,-0.15 75.74,-0.4 78.61,-0.8 81.4,-1.35 84.09,-2.04 86.68,-2.87 89.16,-3.85 91.53,-4.96 93.78,-6.21 95.91,-7.58 97.91,-9.08 99.78,-10.69 101.53,-12.42 103.15,-14.25 104.63,-16.18 105.99,-18.19 107.21,-20.29 108.31,-22.47 109.27,-24.71 110.11,-27 110.82,-29.35 111.41,-31.74 111.88,-34.15 112.23,-36.6 112.46,-39.05 112.58,-41.52 112.58,-43.98 112.48,-46.43 112.27,-48.86 111.95,-51.27 111.53,-53.65 111.01,-55.99 110.4,-58.28 109.68,-60.52 108.87,-62.7 107.96,-64.81 106.96,-66.86 105.87,-68.84 104.69,-70.73 103.42,-72.55 102.06,-74.28 100.61,-75.92 99.07,-77.47 97.44,-78.92 95.73,-80.28 93.93,-81.55 92.04,-82.71 90.07,-83.78 88.02,-84.75 85.89,-85.61 83.68,-86.38 81.39,-87.05 79.02,-87.61 76.58,-88.08 74.08,-88.44 71.51,-88.71 68.88,-88.88 66.19,-88.95 63.45,-88.93 60.67,-88.81 57.85,-88.6 54.99,-88.29 52.12,-87.9 49.23,-87.41 46.33,-86.83 43.43,-86.16 40.54,-85.41 37.67,-84.57 34.83,-83.64 32.03,-82.63 29.28,-81.54 26.59,-80.36 23.97,-79.11 21.44,-77.78 19,-76.37 16.66,-74.88 14.44,-73.32 12.34,-71.69 10.38,-70 8.56,-68.23 6.89,-66.4 5.38,-64.51 4.04,-62.57 2.88,-60.56 1.91,-58.51 1.12,-56.41 0.52,-54.27 0.12,-52.09 -0.08,-49.88 -0.07,-47.64 0.14,-45.37 0.56,-43.09 1.17,-40.8 1.99,-38.51 3.01,-36.21 4.23,-33.93 5.64,-31.66 7.23,-29.41 9,-27.2 10.95,-25.02 13.05,-22.88 15.32,-20.8 17.73,-18.78 20.27,-16.83 22.94,-14.95 25.72,-13.15 28.6,-11.45 31.58,-9.84 34.63,-8.33"/>
<text text-anchor="middle" x="60.58" y="-43.14" font-family="sans-serif" font-size="16.00">bC1</text>
</g>
<!-- bC2 -->
<g id="node2" class="node">
<title>bC2</title>
<polygon fill="none" stroke="black" stroke-width="2" points="52.65,-143.92 56.17,-143.46 59.68,-143.13 63.19,-142.92 66.66,-142.83 70.1,-142.87 73.48,-143.04 76.79,-143.34 80.02,-143.76 83.16,-144.32 86.19,-145 89.12,-145.8 91.92,-146.73 94.59,-147.78 97.12,-148.95 99.5,-150.23 101.73,-151.62 103.81,-153.12 105.72,-154.72 107.47,-156.42 109.05,-158.22 110.46,-160.1 111.7,-162.06 112.77,-164.1 113.68,-166.2 114.42,-168.37 114.99,-170.6 115.41,-172.87 115.66,-175.19 115.77,-177.54 115.72,-179.91 115.53,-182.31 115.2,-184.71 114.74,-187.12 114.15,-189.53 113.44,-191.93 112.61,-194.3 111.68,-196.66 110.63,-198.98 109.49,-201.26 108.26,-203.49 106.94,-205.68 105.54,-207.8 104.06,-209.86 102.5,-211.85 100.88,-213.76 99.19,-215.59 97.44,-217.33 95.63,-218.99 93.77,-220.55 91.85,-222.01 89.89,-223.37 87.88,-224.62 85.82,-225.77 83.72,-226.8 81.57,-227.73 79.38,-228.54 77.16,-229.23 74.89,-229.81 72.59,-230.28 70.26,-230.62 67.89,-230.85 65.48,-230.96 63.05,-230.96 60.59,-230.84 58.11,-230.61 55.6,-230.26 53.07,-229.81 50.53,-229.24 47.98,-228.57 45.42,-227.79 42.86,-226.92 40.31,-225.94 37.76,-224.87 35.23,-223.7 32.72,-222.44 30.25,-221.1 27.81,-219.67 25.42,-218.17 23.09,-216.58 20.82,-214.93 18.62,-213.21 16.51,-211.42 14.48,-209.57 12.56,-207.67 10.75,-205.72 9.06,-203.72 7.5,-201.67 6.07,-199.59 4.8,-197.48 3.68,-195.34 2.72,-193.18 1.93,-190.99 1.32,-188.8 0.89,-186.6 0.66,-184.39 0.61,-182.19 0.76,-179.99 1.11,-177.81 1.67,-175.65 2.42,-173.51 3.38,-171.4 4.54,-169.32 5.9,-167.29 7.45,-165.3 9.2,-163.36 11.13,-161.48 13.24,-159.67 15.53,-157.92 17.98,-156.24 20.58,-154.64 23.33,-153.12 26.22,-151.69 29.23,-150.36 32.34,-149.12 35.56,-147.98 38.86,-146.94 42.24,-146.02 45.67,-145.2 49.14,-144.5 52.65,-143.92"/>
<text text-anchor="middle" x="60.58" y="-183.65" font-family="sans-serif" font-size="16.00">bC2</text>
</g>
<!-- bC2&#45;&gt;bC1 -->
<g id="edge1" class="edge">
<title>bC2&#45;&gt;bC1</title>
<path fill="none" stroke="black" stroke-width="2" d="M60.58,-143.01C60.58,-125.71 60.58,-105.91 60.58,-88.87"/>
<text text-anchor="middle" x="76.08" y="-115.29" font-family="sans-serif" font-size="12.00"> &#160;&#160;&#160;&#160;&#160;&#160;&#160;</text>
<polygon fill="white" stroke="transparent" points="53.58,-79.87 53.58,-96.87 67.58,-96.87 67.58,-79.87 53.58,-79.87"/>
<text text-anchor="start" x="55.58" y="-85.27" font-family="sans-serif" font-size="12.00">D</text>
<polygon fill="white" stroke="transparent" points="53.58,-134.01 53.58,-151.01 67.58,-151.01 67.58,-134.01 53.58,-134.01"/>
<text text-anchor="start" x="55.58" y="-139.41" font-family="sans-serif" font-size="12.00">U</text>
</g>
</g>
</svg>
