<svg width="2000px" height="3781px"
 viewBox="0.00 0.00 128.35 241.99" xmlns="http://www.w3.org/2000/svg" xmlns:xlink="http://www.w3.org/1999/xlink">
<g id="graph0" class="graph" transform="scale(1.0 1.0) rotate(0) translate(4 237.99)">
<title>ContextMapGraph</title>
<polygon fill="white" stroke="transparent" points="-4,4 -4,-237.99 124.35,-237.99 124.35,4 -4,4"/>
<!-- bC1 -->
<g id="node1" class="node">
<title>bC1</title>
<polygon fill="none" stroke="black" stroke-width="2" points="91.82,-83.74 88.94,-85.45 85.99,-87.04 82.98,-88.52 79.92,-89.87 76.83,-91.1 73.71,-92.19 70.59,-93.14 67.46,-93.94 64.34,-94.6 61.25,-95.11 58.18,-95.46 55.15,-95.66 52.18,-95.7 49.26,-95.59 46.41,-95.32 43.63,-94.9 40.93,-94.32 38.31,-93.59 35.79,-92.71 33.37,-91.68 31.04,-90.52 28.83,-89.22 26.72,-87.8 24.72,-86.25 22.83,-84.58 21.06,-82.8 19.41,-80.92 17.88,-78.94 16.46,-76.88 15.16,-74.74 13.98,-72.53 12.91,-70.26 11.96,-67.93 11.13,-65.56 10.41,-63.16 9.81,-60.73 9.32,-58.28 8.94,-55.82 8.67,-53.36 8.51,-50.91 8.46,-48.47 8.51,-46.06 8.68,-43.67 8.94,-41.32 9.31,-39.02 9.79,-36.76 10.37,-34.56 11.05,-32.41 11.83,-30.33 12.72,-28.32 13.71,-26.39 14.8,-24.53 15.99,-22.75 17.28,-21.05 18.68,-19.43 20.18,-17.9 21.77,-16.46 23.47,-15.11 25.26,-13.85 27.15,-12.69 29.14,-11.61 31.23,-10.63 33.4,-9.74 35.67,-8.94 38.02,-8.23 40.45,-7.62 42.97,-7.1 45.55,-6.67 48.21,-6.34 50.94,-6.09 53.72,-5.93 56.56,-5.87 59.44,-5.89 62.36,-6.01 65.31,-6.21 68.28,-6.5 71.26,-6.88 74.24,-7.35 77.22,-7.91 80.19,-8.55 83.12,-9.29 86.02,-10.11 88.87,-11.01 91.66,-12.01 94.38,-13.09 97.02,-14.26 99.57,-15.51 102.01,-16.85 104.35,-18.27 106.56,-19.77 108.63,-21.35 110.57,-23.02 112.35,-24.75 113.98,-26.57 115.44,-28.45 116.72,-30.4 117.82,-32.42 118.74,-34.5 119.47,-36.64 120,-38.83 120.33,-41.07 120.47,-43.35 120.4,-45.67 120.14,-48.02 119.67,-50.39 119.01,-52.78 118.14,-55.18 117.09,-57.59 115.85,-59.99 114.42,-62.38 112.82,-64.74 111.05,-67.08 109.12,-69.38 107.03,-71.64 104.8,-73.84 102.44,-75.98 99.94,-78.05 97.34,-80.03 94.63,-81.94 91.82,-83.74"/>
<text text-anchor="middle" x="60.17" y="-43.93" font-family="sans-serif" font-size="16.00">bC1</text>
</g>
<!-- bC2 -->
<g id="node2" class="node">
<title>bC2</title>
<polygon fill="none" stroke="black" stroke-width="2" points="70.01,-232.21 66.5,-232.77 62.99,-233.2 59.49,-233.51 56.01,-233.69 52.56,-233.75 49.17,-233.67 45.83,-233.47 42.58,-233.14 39.4,-232.68 36.33,-232.08 33.37,-231.37 30.52,-230.52 27.8,-229.56 25.21,-228.47 22.76,-227.26 20.47,-225.94 18.32,-224.51 16.34,-222.98 14.51,-221.34 12.85,-219.6 11.35,-217.77 10.02,-215.86 8.85,-213.87 7.85,-211.8 7.02,-209.67 6.35,-207.48 5.83,-205.23 5.48,-202.94 5.27,-200.61 5.21,-198.25 5.3,-195.87 5.52,-193.47 5.88,-191.07 6.37,-188.66 6.98,-186.26 7.7,-183.88 8.54,-181.51 9.49,-179.18 10.53,-176.89 11.67,-174.63 12.9,-172.43 14.21,-170.28 15.61,-168.2 17.08,-166.18 18.62,-164.24 20.24,-162.37 21.92,-160.59 23.66,-158.9 25.46,-157.3 27.31,-155.79 29.22,-154.39 31.19,-153.09 33.2,-151.89 35.27,-150.81 37.38,-149.83 39.53,-148.96 41.73,-148.21 43.98,-147.57 46.27,-147.05 48.59,-146.64 50.96,-146.35 53.36,-146.17 55.8,-146.1 58.27,-146.15 60.77,-146.31 63.3,-146.59 65.85,-146.97 68.43,-147.46 71.02,-148.05 73.61,-148.75 76.22,-149.55 78.82,-150.45 81.42,-151.45 84.01,-152.53 86.58,-153.71 89.12,-154.98 91.62,-156.32 94.08,-157.75 96.49,-159.26 98.84,-160.84 101.12,-162.49 103.32,-164.2 105.43,-165.98 107.43,-167.81 109.33,-169.7 111.12,-171.64 112.77,-173.62 114.29,-175.65 115.66,-177.71 116.88,-179.8 117.93,-181.93 118.82,-184.07 119.52,-186.23 120.05,-188.41 120.38,-190.59 120.52,-192.77 120.46,-194.96 120.21,-197.13 119.75,-199.3 119.08,-201.44 118.21,-203.56 117.14,-205.65 115.87,-207.71 114.39,-209.73 112.73,-211.7 110.87,-213.62 108.83,-215.48 106.62,-217.28 104.24,-219.02 101.69,-220.68 99,-222.26 96.17,-223.76 93.21,-225.17 90.14,-226.49 86.96,-227.71 83.7,-228.83 80.36,-229.84 76.95,-230.75 73.5,-231.54 70.01,-232.21"/>
<text text-anchor="middle" x="60.17" y="-185.43" font-family="sans-serif" font-size="16.00">bC2</text>
</g>
<!-- bC2&#45;&gt;bC1 -->
<g id="edge1" class="edge">
<title>bC2&#45;&gt;bC1</title>
<path fill="none" stroke="black" stroke-width="2" d="M60.17,-146C60.17,-130.12 60.17,-111.98 60.17,-95.69"/>
<text text-anchor="middle" x="75.67" y="-116.87" font-family="sans-serif" font-size="12.00"> &#160;&#160;&#160;&#160;&#160;&#160;&#160;</text>
<polygon fill="white" stroke="transparent" points="53.17,-86.69 53.17,-103.69 67.17,-103.69 67.17,-86.69 53.17,-86.69"/>
<text text-anchor="start" x="55.17" y="-92.09" font-family="sans-serif" font-size="12.00">D</text>
<polygon fill="white" stroke="transparent" points="53.17,-137 53.17,-154 67.17,-154 67.17,-137 53.17,-137"/>
<text text-anchor="start" x="55.17" y="-142.4" font-family="sans-serif" font-size="12.00">U</text>
</g>
</g>
</svg>
