<svg width="2000px" height="4203px"
 viewBox="0.00 0.00 118.22 248.22" xmlns="http://www.w3.org/2000/svg" xmlns:xlink="http://www.w3.org/1999/xlink">
<g id="graph0" class="graph" transform="scale(1.0 1.0) rotate(0) translate(4 244.22)">
<title>ContextMapGraph</title>
<polygon fill="white" stroke="transparent" points="-4,4 -4,-244.22 114.22,-244.22 114.22,4 -4,4"/>
<!-- bC1 -->
<g id="node1" class="node">
<title>bC1</title>
<polygon fill="none" stroke="black" stroke-width="2" points="109.44,-43.25 109.89,-46.1 110.19,-48.95 110.33,-51.79 110.31,-54.6 110.14,-57.37 109.81,-60.09 109.33,-62.75 108.68,-65.34 107.89,-67.86 106.94,-70.28 105.83,-72.62 104.58,-74.84 103.19,-76.96 101.65,-78.96 99.97,-80.84 98.17,-82.59 96.23,-84.21 94.17,-85.7 92,-87.05 89.72,-88.26 87.33,-89.34 84.85,-90.27 82.28,-91.07 79.64,-91.73 76.92,-92.25 74.13,-92.63 71.3,-92.89 68.41,-93.01 65.49,-93.01 62.54,-92.89 59.57,-92.66 56.6,-92.31 53.62,-91.85 50.65,-91.29 47.7,-90.63 44.77,-89.88 41.88,-89.04 39.04,-88.12 36.25,-87.12 33.51,-86.05 30.85,-84.91 28.26,-83.7 25.75,-82.43 23.34,-81.11 21.02,-79.73 18.81,-78.31 16.7,-76.83 14.71,-75.32 12.84,-73.76 11.09,-72.16 9.47,-70.53 7.99,-68.86 6.63,-67.16 5.42,-65.43 4.35,-63.66 3.42,-61.87 2.63,-60.05 1.99,-58.2 1.5,-56.33 1.15,-54.43 0.95,-52.51 0.89,-50.57 0.98,-48.6 1.22,-46.62 1.59,-44.63 2.11,-42.61 2.76,-40.59 3.55,-38.56 4.48,-36.52 5.53,-34.49 6.71,-32.45 8.01,-30.42 9.44,-28.4 10.97,-26.4 12.62,-24.43 14.38,-22.47 16.23,-20.56 18.19,-18.68 20.24,-16.85 22.37,-15.08 24.59,-13.37 26.88,-11.72 29.25,-10.15 31.68,-8.67 34.16,-7.28 36.71,-5.98 39.3,-4.79 41.93,-3.72 44.6,-2.76 47.3,-1.93 50.02,-1.23 52.76,-0.67 55.51,-0.26 58.26,0.01 61,0.13 63.74,0.08 66.46,-0.11 69.16,-0.47 71.83,-1 74.46,-1.68 77.04,-2.53 79.58,-3.54 82.06,-4.7 84.47,-6.03 86.82,-7.5 89.09,-9.13 91.27,-10.9 93.36,-12.8 95.36,-14.84 97.25,-17 99.04,-19.27 100.72,-21.65 102.27,-24.12 103.7,-26.68 105.01,-29.32 106.18,-32.02 107.21,-34.77 108.1,-37.57 108.85,-40.4 109.44,-43.25"/>
<text text-anchor="middle" x="55.11" y="-44.33" font-family="sans-serif" font-size="16.00">bC1</text>
</g>
<!-- bC2 -->
<g id="node2" class="node">
<title>bC2</title>
<polygon fill="none" stroke="black" stroke-width="2" points="109.81,-192.46 109.88,-195.33 109.81,-198.18 109.58,-201 109.2,-203.79 108.67,-206.52 107.99,-209.19 107.16,-211.79 106.18,-214.31 105.06,-216.73 103.8,-219.06 102.4,-221.28 100.87,-223.38 99.21,-225.36 97.42,-227.22 95.51,-228.94 93.48,-230.53 91.34,-231.97 89.1,-233.27 86.76,-234.43 84.34,-235.44 81.82,-236.31 79.23,-237.02 76.58,-237.6 73.85,-238.03 71.08,-238.31 68.26,-238.46 65.4,-238.48 62.52,-238.36 59.61,-238.12 56.69,-237.75 53.77,-237.26 50.86,-236.67 47.95,-235.97 45.07,-235.16 42.22,-234.26 39.41,-233.27 36.64,-232.2 33.93,-231.04 31.28,-229.82 28.7,-228.52 26.19,-227.17 23.78,-225.75 21.45,-224.29 19.22,-222.77 17.09,-221.21 15.07,-219.61 13.17,-217.97 11.38,-216.3 9.72,-214.6 8.19,-212.87 6.79,-211.12 5.53,-209.34 4.4,-207.54 3.42,-205.72 2.58,-203.88 1.89,-202.02 1.35,-200.15 0.95,-198.26 0.7,-196.37 0.6,-194.45 0.65,-192.53 0.85,-190.6 1.19,-188.66 1.68,-186.72 2.31,-184.77 3.09,-182.82 4,-180.87 5.05,-178.92 6.23,-176.98 7.55,-175.05 8.99,-173.13 10.54,-171.22 12.22,-169.34 14.01,-167.49 15.91,-165.67 17.91,-163.88 20.01,-162.13 22.19,-160.44 24.47,-158.8 26.82,-157.22 29.25,-155.7 31.75,-154.27 34.3,-152.91 36.91,-151.64 39.57,-150.47 42.27,-149.4 45,-148.44 47.76,-147.59 50.54,-146.87 53.33,-146.27 56.13,-145.81 58.93,-145.48 61.72,-145.3 64.49,-145.27 67.24,-145.38 69.96,-145.65 72.64,-146.08 75.28,-146.66 77.86,-147.41 80.39,-148.31 82.85,-149.36 85.25,-150.58 87.56,-151.94 89.79,-153.46 91.93,-155.12 93.98,-156.92 95.92,-158.86 97.76,-160.92 99.48,-163.11 101.09,-165.41 102.57,-167.81 103.93,-170.31 105.15,-172.89 106.25,-175.55 107.2,-178.27 108.01,-181.05 108.68,-183.87 109.21,-186.72 109.58,-189.59 109.81,-192.46"/>
<text text-anchor="middle" x="55.11" y="-188.93" font-family="sans-serif" font-size="16.00">bC2</text>
</g>
<!-- bC2&#45;&gt;bC1 -->
<g id="edge1" class="edge">
<title>bC2&#45;&gt;bC1</title>
<path fill="none" stroke="black" stroke-width="2" d="M55.11,-145.83C55.11,-128.73 55.11,-109.39 55.11,-92.52"/>
<text text-anchor="middle" x="70.61" y="-117.65" font-family="sans-serif" font-size="12.00"> &#160;&#160;&#160;&#160;&#160;&#160;&#160;</text>
<polygon fill="white" stroke="transparent" points="48.11,-83.52 48.11,-100.52 62.11,-100.52 62.11,-83.52 48.11,-83.52"/>
<text text-anchor="start" x="50.11" y="-88.92" font-family="sans-serif" font-size="12.00">D</text>
<polygon fill="white" stroke="transparent" points="48.11,-136.83 48.11,-153.83 62.11,-153.83 62.11,-136.83 48.11,-136.83"/>
<text text-anchor="start" x="50.11" y="-142.23" font-family="sans-serif" font-size="12.00">U</text>
</g>
</g>
</svg>
