<svg width="2000px" height="3814px"
 viewBox="0.00 0.00 129.30 245.70" xmlns="http://www.w3.org/2000/svg" xmlns:xlink="http://www.w3.org/1999/xlink">
<g id="graph0" class="graph" transform="scale(1.0 1.0) rotate(0) translate(4 241.7)">
<title>ContextMapGraph</title>
<polygon fill="white" stroke="transparent" points="-4,4 -4,-241.7 125.3,-241.7 125.3,4 -4,4"/>
<!-- bC1 -->
<g id="node1" class="node">
<title>bC1</title>
<polygon fill="none" stroke="black" stroke-width="2" points="100.95,-78.53 98.56,-80.68 96.08,-82.73 93.51,-84.68 90.87,-86.51 88.15,-88.23 85.38,-89.81 82.56,-91.27 79.71,-92.58 76.83,-93.74 73.92,-94.76 71.01,-95.62 68.1,-96.32 65.19,-96.86 62.3,-97.24 59.44,-97.45 56.61,-97.5 53.81,-97.39 51.06,-97.11 48.37,-96.68 45.73,-96.08 43.15,-95.34 40.64,-94.44 38.21,-93.4 35.85,-92.22 33.57,-90.91 31.38,-89.47 29.28,-87.91 27.26,-86.24 25.34,-84.46 23.52,-82.59 21.79,-80.62 20.16,-78.58 18.63,-76.47 17.2,-74.3 15.88,-72.07 14.66,-69.79 13.55,-67.49 12.54,-65.15 11.65,-62.79 10.86,-60.42 10.18,-58.05 9.61,-55.69 9.15,-53.33 8.81,-50.99 8.57,-48.68 8.46,-46.39 8.46,-44.14 8.57,-41.94 8.8,-39.77 9.15,-37.66 9.62,-35.6 10.21,-33.6 10.92,-31.66 11.75,-29.79 12.7,-27.98 13.77,-26.23 14.96,-24.56 16.27,-22.96 17.71,-21.43 19.26,-19.97 20.93,-18.59 22.72,-17.28 24.62,-16.04 26.63,-14.88 28.75,-13.8 30.98,-12.79 33.31,-11.86 35.74,-11.01 38.25,-10.24 40.86,-9.54 43.55,-8.92 46.31,-8.38 49.14,-7.92 52.02,-7.54 54.97,-7.25 57.95,-7.04 60.97,-6.91 64.02,-6.87 67.08,-6.91 70.15,-7.05 73.21,-7.27 76.26,-7.59 79.29,-7.99 82.28,-8.5 85.23,-9.1 88.11,-9.8 90.93,-10.59 93.67,-11.49 96.33,-12.48 98.88,-13.58 101.32,-14.78 103.65,-16.08 105.84,-17.48 107.9,-18.98 109.82,-20.57 111.58,-22.27 113.18,-24.05 114.62,-25.93 115.88,-27.9 116.97,-29.95 117.87,-32.08 118.59,-34.28 119.13,-36.56 119.47,-38.9 119.63,-41.29 119.59,-43.74 119.37,-46.23 118.95,-48.75 118.36,-51.31 117.58,-53.88 116.62,-56.46 115.49,-59.04 114.19,-61.61 112.73,-64.16 111.11,-66.68 109.34,-69.17 107.43,-71.61 105.39,-73.99 103.23,-76.3 100.95,-78.53"/>
<text text-anchor="middle" x="60.65" y="-44.87" font-family="sans-serif" font-size="16.00">bC1</text>
</g>
<!-- bC2 -->
<g id="node2" class="node">
<title>bC2</title>
<polygon fill="none" stroke="black" stroke-width="2" points="43.42,-150.15 46.8,-149.2 50.2,-148.38 53.62,-147.68 57.03,-147.1 60.43,-146.66 63.8,-146.35 67.14,-146.18 70.42,-146.15 73.64,-146.26 76.79,-146.5 79.85,-146.89 82.81,-147.41 85.67,-148.07 88.42,-148.87 91.06,-149.8 93.56,-150.86 95.93,-152.05 98.17,-153.36 100.26,-154.8 102.21,-156.35 104.01,-158.01 105.66,-159.77 107.16,-161.63 108.51,-163.58 109.71,-165.62 110.75,-167.74 111.65,-169.92 112.41,-172.17 113.01,-174.48 113.48,-176.83 113.81,-179.22 114.01,-181.64 114.07,-184.09 114.01,-186.55 113.82,-189.01 113.52,-191.48 113.1,-193.93 112.58,-196.37 111.94,-198.78 111.21,-201.16 110.37,-203.51 109.45,-205.8 108.43,-208.04 107.32,-210.22 106.13,-212.34 104.86,-214.38 103.51,-216.35 102.08,-218.24 100.58,-220.04 99,-221.75 97.36,-223.37 95.64,-224.89 93.85,-226.31 92,-227.63 90.08,-228.84 88.1,-229.95 86.05,-230.95 83.94,-231.84 81.77,-232.62 79.53,-233.29 77.24,-233.85 74.89,-234.29 72.49,-234.63 70.04,-234.86 67.53,-234.98 64.98,-234.99 62.39,-234.9 59.76,-234.7 57.09,-234.39 54.4,-233.98 51.68,-233.48 48.94,-232.87 46.2,-232.17 43.45,-231.37 40.7,-230.48 37.97,-229.5 35.25,-228.44 32.57,-227.28 29.92,-226.05 27.32,-224.73 24.78,-223.34 22.3,-221.87 19.91,-220.33 17.6,-218.73 15.39,-217.05 13.29,-215.31 11.3,-213.52 9.45,-211.66 7.73,-209.75 6.16,-207.8 4.75,-205.8 3.5,-203.75 2.43,-201.67 1.53,-199.55 0.82,-197.41 0.3,-195.24 -0.03,-193.05 -0.15,-190.85 -0.07,-188.63 0.21,-186.42 0.7,-184.2 1.4,-181.99 2.3,-179.79 3.41,-177.61 4.71,-175.45 6.22,-173.32 7.91,-171.23 9.79,-169.18 11.85,-167.18 14.07,-165.24 16.46,-163.35 19,-161.54 21.68,-159.79 24.5,-158.13 27.43,-156.55 30.47,-155.07 33.6,-153.68 36.81,-152.39 40.09,-151.22 43.42,-150.15"/>
<text text-anchor="middle" x="60.65" y="-188.22" font-family="sans-serif" font-size="16.00">bC2</text>
</g>
<!-- bC2&#45;&gt;bC1 -->
<g id="edge1" class="edge">
<title>bC2&#45;&gt;bC1</title>
<path fill="none" stroke="black" stroke-width="2" d="M60.65,-146.29C60.65,-130.76 60.65,-113.29 60.65,-97.52"/>
<text text-anchor="middle" x="76.15" y="-118.73" font-family="sans-serif" font-size="12.00"> &#160;&#160;&#160;&#160;&#160;&#160;&#160;</text>
<polygon fill="white" stroke="transparent" points="53.65,-88.52 53.65,-105.52 67.65,-105.52 67.65,-88.52 53.65,-88.52"/>
<text text-anchor="start" x="55.65" y="-93.92" font-family="sans-serif" font-size="12.00">D</text>
<polygon fill="white" stroke="transparent" points="53.65,-137.29 53.65,-154.29 67.65,-154.29 67.65,-137.29 53.65,-137.29"/>
<text text-anchor="start" x="55.65" y="-142.69" font-family="sans-serif" font-size="12.00">U</text>
</g>
</g>
</svg>
