<svg width="2000px" height="4016px"
 viewBox="0.00 0.00 125.47 251.35" xmlns="http://www.w3.org/2000/svg" xmlns:xlink="http://www.w3.org/1999/xlink">
<g id="graph0" class="graph" transform="scale(1.0 1.0) rotate(0) translate(4 247.35)">
<title>ContextMapGraph</title>
<polygon fill="white" stroke="transparent" points="-4,4 -4,-247.35 121.47,-247.35 121.47,4 -4,4"/>
<!-- bC1 -->
<g id="node1" class="node">
<title>bC1</title>
<polygon fill="none" stroke="black" stroke-width="2" points="11.95,-71.61 10.05,-69.17 8.28,-66.68 6.66,-64.16 5.2,-61.61 3.9,-59.04 2.77,-56.46 1.81,-53.88 1.03,-51.31 0.43,-48.75 0.02,-46.23 -0.2,-43.74 -0.24,-41.29 -0.08,-38.9 0.26,-36.56 0.8,-34.28 1.52,-32.08 2.42,-29.95 3.51,-27.9 4.77,-25.93 6.21,-24.05 7.81,-22.27 9.57,-20.57 11.49,-18.98 13.55,-17.48 15.74,-16.08 18.07,-14.78 20.51,-13.58 23.06,-12.48 25.71,-11.49 28.46,-10.59 31.27,-9.8 34.16,-9.1 37.11,-8.5 40.1,-7.99 43.12,-7.59 46.17,-7.27 49.24,-7.05 52.31,-6.91 55.37,-6.87 58.42,-6.91 61.44,-7.04 64.42,-7.25 67.36,-7.54 70.25,-7.92 73.08,-8.38 75.84,-8.92 78.53,-9.54 81.13,-10.24 83.65,-11.01 86.08,-11.86 88.41,-12.79 90.63,-13.8 92.76,-14.88 94.77,-16.04 96.67,-17.28 98.46,-18.59 100.13,-19.97 101.68,-21.43 103.11,-22.96 104.43,-24.56 105.62,-26.23 106.69,-27.98 107.64,-29.79 108.47,-31.66 109.18,-33.6 109.77,-35.6 110.24,-37.66 110.59,-39.77 110.82,-41.94 110.93,-44.14 110.93,-46.39 110.81,-48.68 110.58,-50.99 110.24,-53.33 109.78,-55.69 109.21,-58.05 108.53,-60.42 107.74,-62.79 106.84,-65.15 105.84,-67.49 104.73,-69.79 103.51,-72.07 102.18,-74.3 100.76,-76.47 99.23,-78.58 97.6,-80.62 95.87,-82.59 94.05,-84.46 92.12,-86.24 90.11,-87.91 88.01,-89.47 85.81,-90.91 83.54,-92.22 81.18,-93.4 78.74,-94.44 76.24,-95.34 73.66,-96.08 71.02,-96.68 68.32,-97.11 65.58,-97.39 62.78,-97.5 59.95,-97.45 57.08,-97.24 54.2,-96.86 51.29,-96.32 48.38,-95.62 45.47,-94.76 42.56,-93.74 39.68,-92.58 36.82,-91.27 34.01,-89.81 31.23,-88.23 28.52,-86.51 25.88,-84.68 23.31,-82.73 20.82,-80.68 18.44,-78.53 16.16,-76.3 14,-73.99 11.95,-71.61"/>
<text text-anchor="middle" x="58.74" y="-44.87" font-family="sans-serif" font-size="16.00">bC1</text>
</g>
<!-- bC2 -->
<g id="node2" class="node">
<title>bC2</title>
<polygon fill="none" stroke="black" stroke-width="2" points="112.43,-186.19 113.19,-188.99 113.79,-191.81 114.24,-194.61 114.53,-197.41 114.66,-200.17 114.63,-202.9 114.43,-205.58 114.07,-208.2 113.55,-210.75 112.86,-213.23 112.01,-215.62 111.01,-217.93 109.84,-220.13 108.53,-222.22 107.06,-224.21 105.44,-226.07 103.69,-227.82 101.8,-229.44 99.77,-230.94 97.63,-232.3 95.36,-233.54 92.99,-234.64 90.51,-235.61 87.94,-236.45 85.28,-237.16 82.55,-237.74 79.74,-238.19 76.88,-238.51 73.96,-238.72 71.01,-238.81 68.02,-238.78 65.01,-238.64 61.99,-238.4 58.96,-238.05 55.95,-237.6 52.95,-237.06 49.97,-236.43 47.03,-235.71 44.14,-234.91 41.29,-234.04 38.51,-233.09 35.8,-232.07 33.16,-230.99 30.6,-229.84 28.14,-228.64 25.78,-227.37 23.52,-226.06 21.37,-224.69 19.33,-223.27 17.41,-221.81 15.62,-220.3 13.95,-218.75 12.42,-217.15 11.02,-215.51 9.76,-213.83 8.64,-212.12 7.66,-210.36 6.82,-208.57 6.12,-206.75 5.57,-204.89 5.16,-202.99 4.89,-201.06 4.77,-199.11 4.79,-197.12 4.95,-195.11 5.24,-193.08 5.68,-191.02 6.25,-188.95 6.95,-186.86 7.78,-184.76 8.74,-182.65 9.82,-180.55 11.02,-178.44 12.33,-176.35 13.77,-174.26 15.31,-172.2 16.95,-170.17 18.7,-168.17 20.54,-166.21 22.48,-164.29 24.51,-162.44 26.62,-160.64 28.81,-158.92 31.07,-157.27 33.41,-155.71 35.81,-154.25 38.26,-152.89 40.77,-151.63 43.33,-150.5 45.94,-149.48 48.58,-148.6 51.25,-147.85 53.94,-147.24 56.66,-146.79 59.39,-146.48 62.13,-146.33 64.86,-146.34 67.6,-146.5 70.31,-146.84 73.01,-147.33 75.69,-147.99 78.33,-148.82 80.93,-149.8 83.48,-150.95 85.98,-152.25 88.42,-153.71 90.79,-155.31 93.09,-157.06 95.3,-158.94 97.43,-160.95 99.46,-163.09 101.38,-165.33 103.2,-167.68 104.91,-170.13 106.5,-172.66 107.96,-175.26 109.29,-177.92 110.48,-180.64 111.53,-183.4 112.43,-186.19"/>
<text text-anchor="middle" x="58.74" y="-191.04" font-family="sans-serif" font-size="16.00">bC2</text>
</g>
<!-- bC2&#45;&gt;bC1 -->
<g id="edge1" class="edge">
<title>bC2&#45;&gt;bC1</title>
<path fill="none" stroke="black" stroke-width="2" d="M58.74,-146.23C58.74,-130.65 58.74,-113.33 58.74,-97.72"/>
<text text-anchor="middle" x="74.24" y="-118.73" font-family="sans-serif" font-size="12.00"> &#160;&#160;&#160;&#160;&#160;&#160;&#160;</text>
<polygon fill="white" stroke="transparent" points="51.74,-88.72 51.74,-105.72 65.74,-105.72 65.74,-88.72 51.74,-88.72"/>
<text text-anchor="start" x="53.74" y="-94.12" font-family="sans-serif" font-size="12.00">D</text>
<polygon fill="white" stroke="transparent" points="51.74,-137.23 51.74,-154.23 65.74,-154.23 65.74,-137.23 51.74,-137.23"/>
<text text-anchor="start" x="53.74" y="-142.63" font-family="sans-serif" font-size="12.00">U</text>
</g>
</g>
</svg>
