<svg width="2000px" height="3814px"
 viewBox="0.00 0.00 129.15 245.86" xmlns="http://www.w3.org/2000/svg" xmlns:xlink="http://www.w3.org/1999/xlink">
<g id="graph0" class="graph" transform="scale(1.0 1.0) rotate(0) translate(4 241.86)">
<title>ContextMapGraph</title>
<polygon fill="white" stroke="transparent" points="-4,4 -4,-241.86 125.15,-241.86 125.15,4 -4,4"/>
<!-- bC1 -->
<g id="node1" class="node">
<title>bC1</title>
<polygon fill="none" stroke="black" stroke-width="2" points="7,-38.62 7.67,-35.8 8.48,-33.02 9.44,-30.3 10.53,-27.64 11.76,-25.06 13.11,-22.56 14.6,-20.16 16.2,-17.86 17.93,-15.67 19.76,-13.61 21.71,-11.67 23.75,-9.87 25.89,-8.21 28.12,-6.69 30.44,-5.32 32.83,-4.11 35.29,-3.05 37.82,-2.16 40.41,-1.41 43.05,-0.83 45.73,-0.4 48.45,-0.13 51.2,-0.02 53.97,-0.05 56.76,-0.23 59.55,-0.56 62.35,-1.02 65.14,-1.62 67.92,-2.34 70.68,-3.19 73.41,-4.15 76.11,-5.22 78.77,-6.39 81.38,-7.66 83.94,-9.02 86.43,-10.45 88.86,-11.97 91.22,-13.55 93.49,-15.19 95.68,-16.88 97.78,-18.63 99.78,-20.41 101.67,-22.24 103.46,-24.09 105.14,-25.97 106.7,-27.88 108.14,-29.8 109.45,-31.73 110.63,-33.67 111.68,-35.62 112.6,-37.57 113.37,-39.52 114,-41.47 114.49,-43.41 114.84,-45.35 115.03,-47.28 115.08,-49.2 114.98,-51.11 114.74,-53.01 114.34,-54.9 113.79,-56.77 113.1,-58.63 112.26,-60.47 111.28,-62.29 110.16,-64.09 108.89,-65.87 107.49,-67.62 105.96,-69.35 104.3,-71.05 102.52,-72.72 100.61,-74.36 98.6,-75.96 96.47,-77.52 94.24,-79.04 91.91,-80.5 89.49,-81.92 86.99,-83.27 84.41,-84.57 81.76,-85.79 79.05,-86.95 76.28,-88.02 73.47,-89.01 70.61,-89.91 67.73,-90.71 64.83,-91.42 61.91,-92.01 58.99,-92.5 56.07,-92.86 53.17,-93.11 50.28,-93.23 47.42,-93.21 44.6,-93.06 41.83,-92.78 39.11,-92.35 36.45,-91.77 33.86,-91.06 31.35,-90.19 28.92,-89.18 26.58,-88.02 24.34,-86.72 22.21,-85.27 20.18,-83.69 18.27,-81.97 16.48,-80.11 14.81,-78.13 13.28,-76.03 11.88,-73.81 10.62,-71.48 9.5,-69.06 8.53,-66.54 7.7,-63.94 7.02,-61.27 6.49,-58.54 6.11,-55.75 5.88,-52.93 5.8,-50.08 5.88,-47.21 6.1,-44.34 6.48,-41.47 7,-38.62"/>
<text text-anchor="middle" x="60.58" y="-43.68" font-family="sans-serif" font-size="16.00">bC1</text>
</g>
<!-- bC2 -->
<g id="node2" class="node">
<title>bC2</title>
<polygon fill="none" stroke="black" stroke-width="2" points="34.63,-152.29 37.74,-150.9 40.91,-149.61 44.12,-148.45 47.35,-147.41 50.6,-146.51 53.86,-145.74 57.1,-145.1 60.32,-144.61 63.51,-144.27 66.66,-144.07 69.75,-144.02 72.78,-144.12 75.74,-144.37 78.61,-144.77 81.4,-145.31 84.09,-146 86.68,-146.84 89.16,-147.82 91.53,-148.93 93.78,-150.17 95.91,-151.55 97.91,-153.05 99.78,-154.66 101.53,-156.39 103.15,-158.22 104.63,-160.14 105.99,-162.16 107.21,-164.26 108.31,-166.43 109.27,-168.67 110.11,-170.97 110.82,-173.31 111.41,-175.7 111.88,-178.12 112.23,-180.56 112.46,-183.02 112.58,-185.48 112.58,-187.94 112.48,-190.4 112.27,-192.83 111.95,-195.24 111.53,-197.62 111.01,-199.95 110.4,-202.24 109.68,-204.48 108.87,-206.66 107.96,-208.78 106.96,-210.83 105.87,-212.8 104.69,-214.7 103.42,-216.51 102.06,-218.24 100.61,-219.88 99.07,-221.43 97.44,-222.89 95.73,-224.25 93.93,-225.51 92.04,-226.68 90.07,-227.75 88.02,-228.71 85.89,-229.58 83.68,-230.35 81.39,-231.01 79.02,-231.58 76.58,-232.04 74.08,-232.41 71.51,-232.68 68.88,-232.85 66.19,-232.92 63.45,-232.9 60.67,-232.78 57.85,-232.57 54.99,-232.26 52.12,-231.86 49.23,-231.37 46.33,-230.8 43.43,-230.13 40.54,-229.37 37.67,-228.53 34.83,-227.61 32.03,-226.6 29.28,-225.5 26.59,-224.33 23.97,-223.08 21.44,-221.74 19,-220.33 16.66,-218.85 14.44,-217.29 12.34,-215.66 10.38,-213.96 8.56,-212.2 6.89,-210.37 5.38,-208.48 4.04,-206.53 2.88,-204.53 1.91,-202.48 1.12,-200.38 0.52,-198.24 0.12,-196.06 -0.08,-193.84 -0.07,-191.6 0.14,-189.34 0.56,-187.06 1.17,-184.77 1.99,-182.47 3.01,-180.18 4.23,-177.89 5.64,-175.62 7.23,-173.38 9,-171.16 10.95,-168.98 13.05,-166.85 15.32,-164.77 17.73,-162.75 20.27,-160.8 22.94,-158.92 25.72,-157.12 28.6,-155.41 31.58,-153.8 34.63,-152.29"/>
<text text-anchor="middle" x="60.58" y="-187.11" font-family="sans-serif" font-size="16.00">bC2</text>
</g>
<!-- bC2&#45;&gt;bC1 -->
<g id="edge1" class="edge">
<title>bC2&#45;&gt;bC1</title>
<path fill="none" stroke="black" stroke-width="2" d="M60.58,-144.38C60.58,-127.75 60.58,-108.98 60.58,-92.48"/>
<text text-anchor="middle" x="76.08" y="-116.37" font-family="sans-serif" font-size="12.00"> &#160;&#160;&#160;&#160;&#160;&#160;&#160;</text>
<polygon fill="white" stroke="transparent" points="53.58,-83.48 53.58,-100.48 67.58,-100.48 67.58,-83.48 53.58,-83.48"/>
<text text-anchor="start" x="55.58" y="-88.88" font-family="sans-serif" font-size="12.00">D</text>
<polygon fill="white" stroke="transparent" points="53.58,-135.38 53.58,-152.38 67.58,-152.38 67.58,-135.38 53.58,-135.38"/>
<text text-anchor="start" x="55.58" y="-140.78" font-family="sans-serif" font-size="12.00">U</text>
</g>
</g>
</svg>
