<svg width="2000px" height="3798px"
 viewBox="0.00 0.00 129.41 245.49" xmlns="http://www.w3.org/2000/svg" xmlns:xlink="http://www.w3.org/1999/xlink">
<g id="graph0" class="graph" transform="scale(1.0 1.0) rotate(0) translate(4 241.49)">
<title>ContextMapGraph</title>
<polygon fill="white" stroke="transparent" points="-4,4 -4,-241.49 125.41,-241.49 125.41,4 -4,4"/>
<!-- bC1 -->
<g id="node1" class="node">
<title>bC1</title>
<polygon fill="none" stroke="black" stroke-width="2" points="82.41,-86.48 79.15,-87.66 75.85,-88.71 72.52,-89.64 69.17,-90.45 65.83,-91.12 62.5,-91.66 59.19,-92.06 55.93,-92.32 52.7,-92.44 49.54,-92.42 46.45,-92.25 43.43,-91.94 40.51,-91.49 37.68,-90.89 34.96,-90.15 32.35,-89.28 29.85,-88.27 27.48,-87.13 25.24,-85.86 23.13,-84.46 21.15,-82.95 19.32,-81.32 17.62,-79.59 16.06,-77.75 14.65,-75.82 13.37,-73.8 12.24,-71.7 11.25,-69.53 10.39,-67.3 9.67,-65 9.08,-62.66 8.63,-60.28 8.3,-57.87 8.09,-55.44 8.01,-52.99 8.05,-50.53 8.2,-48.08 8.46,-45.63 8.83,-43.2 9.31,-40.8 9.88,-38.43 10.56,-36.09 11.33,-33.81 12.2,-31.58 13.16,-29.4 14.21,-27.29 15.34,-25.25 16.56,-23.29 17.86,-21.4 19.25,-19.6 20.72,-17.89 22.26,-16.27 23.89,-14.74 25.6,-13.31 27.38,-11.97 29.24,-10.74 31.17,-9.61 33.18,-8.58 35.26,-7.66 37.41,-6.84 39.64,-6.13 41.93,-5.53 44.29,-5.02 46.71,-4.63 49.2,-4.34 51.74,-4.15 54.33,-4.06 56.98,-4.07 59.67,-4.19 62.4,-4.4 65.17,-4.72 67.96,-5.12 70.77,-5.63 73.6,-6.22 76.44,-6.91 79.27,-7.69 82.09,-8.55 84.89,-9.5 87.67,-10.54 90.4,-11.66 93.09,-12.86 95.71,-14.13 98.27,-15.49 100.74,-16.92 103.13,-18.42 105.41,-19.99 107.58,-21.63 109.63,-23.33 111.55,-25.09 113.33,-26.92 114.95,-28.8 116.42,-30.73 117.72,-32.71 118.84,-34.74 119.78,-36.81 120.54,-38.92 121.1,-41.06 121.46,-43.23 121.62,-45.42 121.57,-47.63 121.33,-49.86 120.87,-52.09 120.21,-54.33 119.34,-56.56 118.27,-58.79 117,-60.99 115.54,-63.18 113.89,-65.33 112.06,-67.45 110.05,-69.53 107.87,-71.56 105.53,-73.53 103.05,-75.44 100.42,-77.28 97.67,-79.04 94.8,-80.72 91.83,-82.31 88.76,-83.81 85.62,-85.2 82.41,-86.48"/>
<text text-anchor="middle" x="60.71" y="-42.51" font-family="sans-serif" font-size="16.00">bC1</text>
</g>
<!-- bC2 -->
<g id="node2" class="node">
<title>bC2</title>
<polygon fill="none" stroke="black" stroke-width="2" points="93.79,-224.43 90.99,-226.2 88.12,-227.86 85.18,-229.42 82.19,-230.85 79.17,-232.15 76.11,-233.32 73.04,-234.35 69.95,-235.24 66.88,-235.98 63.82,-236.57 60.78,-237.01 57.77,-237.29 54.81,-237.42 51.89,-237.38 49.04,-237.2 46.25,-236.85 43.54,-236.35 40.9,-235.7 38.35,-234.9 35.89,-233.95 33.53,-232.86 31.26,-231.63 29.1,-230.27 27.04,-228.79 25.09,-227.19 23.26,-225.47 21.53,-223.65 19.91,-221.73 18.41,-219.72 17.02,-217.63 15.75,-215.47 14.59,-213.24 13.55,-210.96 12.62,-208.63 11.8,-206.26 11.09,-203.87 10.5,-201.45 10.01,-199.02 9.64,-196.58 9.38,-194.15 9.22,-191.74 9.17,-189.34 9.23,-186.96 9.39,-184.62 9.66,-182.32 10.04,-180.07 10.52,-177.86 11.11,-175.72 11.8,-173.63 12.59,-171.61 13.5,-169.66 14.5,-167.78 15.61,-165.98 16.83,-164.25 18.15,-162.61 19.57,-161.05 21.1,-159.58 22.73,-158.19 24.47,-156.89 26.3,-155.68 28.24,-154.55 30.27,-153.52 32.4,-152.57 34.62,-151.72 36.93,-150.95 39.33,-150.28 41.81,-149.69 44.37,-149.19 47.01,-148.78 49.71,-148.46 52.48,-148.23 55.3,-148.08 58.17,-148.03 61.08,-148.06 64.03,-148.18 67,-148.38 69.99,-148.68 72.98,-149.06 75.97,-149.53 78.95,-150.09 81.91,-150.73 84.83,-151.47 87.71,-152.29 90.53,-153.2 93.29,-154.2 95.97,-155.28 98.56,-156.45 101.06,-157.71 103.44,-159.06 105.71,-160.49 107.85,-162 109.85,-163.6 111.7,-165.27 113.39,-167.03 114.93,-168.86 116.29,-170.76 117.48,-172.74 118.48,-174.78 119.3,-176.88 119.92,-179.04 120.35,-181.25 120.58,-183.52 120.62,-185.82 120.46,-188.16 120.09,-190.53 119.53,-192.92 118.78,-195.33 117.83,-197.75 116.7,-200.17 115.38,-202.58 113.89,-204.97 112.23,-207.34 110.4,-209.68 108.42,-211.98 106.29,-214.23 104.02,-216.42 101.63,-218.54 99.12,-220.59 96.5,-222.55 93.79,-224.43"/>
<text text-anchor="middle" x="60.71" y="-185.76" font-family="sans-serif" font-size="16.00">bC2</text>
</g>
<!-- bC2&#45;&gt;bC1 -->
<g id="edge1" class="edge">
<title>bC2&#45;&gt;bC1</title>
<path fill="none" stroke="black" stroke-width="2" d="M60.71,-147.7C60.71,-130.27 60.71,-109.87 60.71,-92.03"/>
<text text-anchor="middle" x="76.21" y="-114.03" font-family="sans-serif" font-size="12.00"> &#160;&#160;&#160;&#160;&#160;&#160;&#160;</text>
<polygon fill="white" stroke="transparent" points="53.71,-83.03 53.71,-100.03 67.71,-100.03 67.71,-83.03 53.71,-83.03"/>
<text text-anchor="start" x="55.71" y="-88.43" font-family="sans-serif" font-size="12.00">D</text>
<polygon fill="white" stroke="transparent" points="53.71,-138.7 53.71,-155.7 67.71,-155.7 67.71,-138.7 53.71,-138.7"/>
<text text-anchor="start" x="55.71" y="-144.1" font-family="sans-serif" font-size="12.00">U</text>
</g>
</g>
</svg>
