<svg width="2000px" height="3814px"
 viewBox="0.00 0.00 129.36 246.29" xmlns="http://www.w3.org/2000/svg" xmlns:xlink="http://www.w3.org/1999/xlink">
<g id="graph0" class="graph" transform="scale(1.0 1.0) rotate(0) translate(4 242.29)">
<title>ContextMapGraph</title>
<polygon fill="white" stroke="transparent" points="-4,4 -4,-242.29 125.36,-242.29 125.36,4 -4,4"/>
<!-- bC1 -->
<g id="node1" class="node">
<title>bC1</title>
<polygon fill="none" stroke="black" stroke-width="2" points="19.85,-19.39 22.18,-17.21 24.61,-15.12 27.13,-13.14 29.73,-11.26 32.4,-9.51 35.13,-7.88 37.91,-6.39 40.72,-5.04 43.58,-3.83 46.45,-2.77 49.33,-1.87 52.22,-1.13 55.11,-0.55 57.98,-0.13 60.83,0.13 63.66,0.22 66.45,0.14 69.2,-0.09 71.89,-0.49 74.54,-1.05 77.12,-1.76 79.64,-2.62 82.1,-3.63 84.47,-4.78 86.77,-6.06 88.99,-7.47 91.12,-9 93.17,-10.65 95.12,-12.4 96.98,-14.25 98.75,-16.19 100.42,-18.21 101.99,-20.3 103.46,-22.45 104.82,-24.67 106.09,-26.92 107.25,-29.22 108.3,-31.54 109.25,-33.89 110.09,-36.25 110.82,-38.61 111.43,-40.97 111.94,-43.33 112.34,-45.66 112.62,-47.98 112.78,-50.26 112.83,-52.51 112.77,-54.72 112.58,-56.89 112.28,-59.01 111.85,-61.07 111.31,-63.08 110.65,-65.03 109.86,-66.92 108.95,-68.75 107.92,-70.51 106.77,-72.2 105.49,-73.82 104.1,-75.38 102.58,-76.86 100.94,-78.27 99.19,-79.6 97.32,-80.86 95.34,-82.05 93.25,-83.16 91.05,-84.2 88.74,-85.17 86.34,-86.05 83.85,-86.86 81.27,-87.6 78.6,-88.26 75.86,-88.83 73.05,-89.33 70.17,-89.75 67.25,-90.09 64.27,-90.34 61.27,-90.52 58.23,-90.6 55.17,-90.6 52.11,-90.51 49.05,-90.33 46,-90.05 42.97,-89.69 39.98,-89.22 37.03,-88.66 34.13,-88.01 31.31,-87.25 28.55,-86.39 25.89,-85.43 23.32,-84.37 20.85,-83.2 18.51,-81.94 16.29,-80.57 14.2,-79.1 12.26,-77.53 10.46,-75.86 8.83,-74.09 7.35,-72.23 6.05,-70.28 4.92,-68.24 3.98,-66.12 3.21,-63.93 2.63,-61.66 2.23,-59.32 2.03,-56.93 2.01,-54.48 2.18,-51.98 2.53,-49.45 3.07,-46.89 3.8,-44.3 4.7,-41.71 5.77,-39.11 7.01,-36.52 8.41,-33.94 9.97,-31.39 11.68,-28.88 13.53,-26.41 15.51,-24 17.62,-21.66 19.85,-19.39"/>
<text text-anchor="middle" x="60.68" y="-44.92" font-family="sans-serif" font-size="16.00">bC1</text>
</g>
<!-- bC2 -->
<g id="node2" class="node">
<title>bC2</title>
<polygon fill="none" stroke="black" stroke-width="2" points="89.39,-155.02 92.46,-156.48 95.44,-158.05 98.3,-159.7 101.04,-161.43 103.65,-163.23 106.11,-165.11 108.41,-167.05 110.56,-169.04 112.53,-171.09 114.32,-173.18 115.92,-175.3 117.33,-177.46 118.54,-179.64 119.55,-181.84 120.36,-184.05 120.96,-186.27 121.35,-188.49 121.54,-190.7 121.53,-192.9 121.31,-195.09 120.89,-197.26 120.27,-199.4 119.47,-201.51 118.48,-203.58 117.32,-205.62 115.98,-207.62 114.48,-209.57 112.82,-211.47 111.03,-213.32 109.09,-215.11 107.03,-216.84 104.85,-218.51 102.57,-220.11 100.19,-221.64 97.73,-223.11 95.19,-224.5 92.59,-225.81 89.93,-227.04 87.23,-228.2 84.5,-229.27 81.74,-230.25 78.96,-231.15 76.18,-231.95 73.39,-232.67 70.62,-233.29 67.86,-233.82 65.12,-234.24 62.4,-234.57 59.73,-234.8 57.09,-234.93 54.49,-234.95 51.94,-234.87 49.44,-234.68 47,-234.38 44.61,-233.98 42.28,-233.47 40.01,-232.85 37.81,-232.12 35.67,-231.29 33.6,-230.34 31.6,-229.29 29.66,-228.14 27.79,-226.88 26,-225.51 24.27,-224.05 22.62,-222.49 21.05,-220.84 19.54,-219.09 18.12,-217.26 16.77,-215.35 15.51,-213.35 14.32,-211.28 13.23,-209.15 12.21,-206.95 11.29,-204.69 10.47,-202.39 9.73,-200.04 9.1,-197.65 8.57,-195.24 8.15,-192.8 7.84,-190.35 7.64,-187.89 7.57,-185.43 7.61,-182.99 7.78,-180.56 8.08,-178.16 8.51,-175.79 9.08,-173.46 9.79,-171.19 10.64,-168.98 11.64,-166.83 12.77,-164.75 14.06,-162.76 15.49,-160.86 17.07,-159.05 18.8,-157.35 20.67,-155.75 22.69,-154.26 24.84,-152.9 27.14,-151.65 29.56,-150.54 32.11,-149.55 34.78,-148.7 37.56,-147.98 40.45,-147.41 43.44,-146.97 46.52,-146.67 49.67,-146.52 52.9,-146.5 56.18,-146.63 59.5,-146.89 62.86,-147.29 66.25,-147.82 69.63,-148.49 73.02,-149.28 76.38,-150.2 79.72,-151.24 83.01,-152.39 86.23,-153.65 89.39,-155.02"/>
<text text-anchor="middle" x="60.68" y="-188.56" font-family="sans-serif" font-size="16.00">bC2</text>
</g>
<!-- bC2&#45;&gt;bC1 -->
<g id="edge1" class="edge">
<title>bC2&#45;&gt;bC1</title>
<path fill="none" stroke="black" stroke-width="2" d="M60.68,-146.93C60.68,-128.92 60.68,-108.25 60.68,-90.62"/>
<text text-anchor="middle" x="76.18" y="-118.83" font-family="sans-serif" font-size="12.00"> &#160;&#160;&#160;&#160;&#160;&#160;&#160;</text>
<polygon fill="white" stroke="transparent" points="53.68,-81.62 53.68,-98.62 67.68,-98.62 67.68,-81.62 53.68,-81.62"/>
<text text-anchor="start" x="55.68" y="-87.02" font-family="sans-serif" font-size="12.00">D</text>
<polygon fill="white" stroke="transparent" points="53.68,-137.93 53.68,-154.93 67.68,-154.93 67.68,-137.93 53.68,-137.93"/>
<text text-anchor="start" x="55.68" y="-143.33" font-family="sans-serif" font-size="12.00">U</text>
</g>
</g>
</svg>
