<svg width="2000px" height="3705px"
 viewBox="0.00 0.00 129.33 238.56" xmlns="http://www.w3.org/2000/svg" xmlns:xlink="http://www.w3.org/1999/xlink">
<g id="graph0" class="graph" transform="scale(1.0 1.0) rotate(0) translate(4 234.56)">
<title>ContextMapGraph</title>
<polygon fill="white" stroke="transparent" points="-4,4 -4,-234.56 125.33,-234.56 125.33,4 -4,4"/>
<!-- bC1 -->
<g id="node1" class="node">
<title>bC1</title>
<polygon fill="none" stroke="black" stroke-width="2" points="38.85,-85.18 35.57,-84.07 32.37,-82.85 29.27,-81.54 26.27,-80.13 23.4,-78.63 20.65,-77.04 18.04,-75.38 15.59,-73.64 13.3,-71.83 11.17,-69.96 9.23,-68.04 7.47,-66.06 5.9,-64.03 4.52,-61.96 3.35,-59.86 2.37,-57.73 1.6,-55.58 1.03,-53.41 0.67,-51.22 0.51,-49.03 0.55,-46.84 0.78,-44.65 1.21,-42.46 1.82,-40.3 2.62,-38.14 3.59,-36.02 4.73,-33.92 6.03,-31.85 7.48,-29.82 9.08,-27.83 10.81,-25.88 12.66,-23.98 14.63,-22.14 16.71,-20.36 18.88,-18.63 21.14,-16.97 23.48,-15.38 25.88,-13.86 28.34,-12.41 30.85,-11.05 33.39,-9.77 35.97,-8.57 38.57,-7.46 41.19,-6.44 43.82,-5.51 46.45,-4.68 49.07,-3.95 51.68,-3.32 54.28,-2.8 56.86,-2.38 59.41,-2.07 61.94,-1.86 64.43,-1.77 66.89,-1.79 69.31,-1.92 71.69,-2.17 74.02,-2.53 76.32,-3.01 78.57,-3.6 80.77,-4.3 82.93,-5.12 85.03,-6.05 87.09,-7.09 89.09,-8.24 91.04,-9.49 92.94,-10.86 94.77,-12.32 96.55,-13.88 98.27,-15.54 99.93,-17.28 101.52,-19.12 103.04,-21.04 104.49,-23.03 105.87,-25.1 107.16,-27.23 108.37,-29.42 109.5,-31.67 110.53,-33.96 111.47,-36.3 112.31,-38.67 113.04,-41.06 113.66,-43.48 114.16,-45.9 114.54,-48.33 114.79,-50.76 114.91,-53.17 114.89,-55.57 114.73,-57.93 114.42,-60.26 113.97,-62.55 113.36,-64.79 112.6,-66.98 111.68,-69.09 110.59,-71.14 109.35,-73.11 107.94,-74.99 106.38,-76.79 104.65,-78.48 102.76,-80.08 100.72,-81.56 98.53,-82.94 96.19,-84.2 93.71,-85.34 91.09,-86.36 88.34,-87.26 85.48,-88.02 82.5,-88.66 79.42,-89.17 76.25,-89.54 72.99,-89.79 69.67,-89.9 66.3,-89.88 62.88,-89.72 59.42,-89.44 55.96,-89.04 52.48,-88.5 49.02,-87.85 45.59,-87.07 42.19,-86.18 38.85,-85.18"/>
<text text-anchor="middle" x="60.67" y="-41.17" font-family="sans-serif" font-size="16.00">bC1</text>
</g>
<!-- bC2 -->
<g id="node2" class="node">
<title>bC2</title>
<polygon fill="none" stroke="black" stroke-width="2" points="78.8,-226.02 75.45,-227.01 72.06,-227.88 68.66,-228.62 65.26,-229.24 61.87,-229.72 58.5,-230.07 55.17,-230.29 51.89,-230.37 48.67,-230.31 45.52,-230.11 42.45,-229.77 39.47,-229.29 36.59,-228.68 33.82,-227.93 31.17,-227.04 28.65,-226.02 26.25,-224.88 23.98,-223.6 21.86,-222.21 19.88,-220.7 18.04,-219.08 16.35,-217.36 14.81,-215.53 13.42,-213.61 12.18,-211.61 11.08,-209.52 10.14,-207.37 9.34,-205.15 8.68,-202.87 8.16,-200.54 7.78,-198.18 7.53,-195.78 7.41,-193.35 7.42,-190.91 7.55,-188.46 7.8,-186.01 8.17,-183.57 8.64,-181.15 9.22,-178.75 9.91,-176.38 10.69,-174.04 11.57,-171.76 12.54,-169.52 13.6,-167.34 14.74,-165.22 15.97,-163.18 17.28,-161.21 18.66,-159.32 20.13,-157.51 21.67,-155.79 23.28,-154.16 24.96,-152.63 26.72,-151.2 28.54,-149.86 30.44,-148.63 32.4,-147.51 34.42,-146.49 36.52,-145.57 38.67,-144.77 40.89,-144.08 43.17,-143.49 45.51,-143.01 47.9,-142.64 50.35,-142.38 52.85,-142.23 55.4,-142.18 58,-142.24 60.64,-142.4 63.31,-142.67 66.01,-143.03 68.74,-143.5 71.49,-144.06 74.25,-144.72 77.02,-145.47 79.79,-146.32 82.54,-147.25 85.28,-148.27 87.99,-149.37 90.66,-150.56 93.29,-151.83 95.86,-153.18 98.37,-154.6 100.8,-156.09 103.14,-157.65 105.39,-159.28 107.53,-160.98 109.55,-162.73 111.45,-164.55 113.21,-166.41 114.82,-168.33 116.28,-170.3 117.57,-172.31 118.69,-174.36 119.63,-176.44 120.39,-178.56 120.96,-180.7 121.33,-182.87 121.5,-185.05 121.47,-187.25 121.23,-189.45 120.79,-191.66 120.14,-193.86 119.29,-196.06 118.23,-198.24 116.97,-200.39 115.51,-202.52 113.86,-204.62 112.03,-206.68 110.02,-208.69 107.83,-210.65 105.48,-212.56 102.98,-214.39 100.34,-216.16 97.56,-217.85 94.66,-219.45 91.66,-220.97 88.55,-222.39 85.37,-223.71 82.11,-224.92 78.8,-226.02"/>
<text text-anchor="middle" x="60.67" y="-180.94" font-family="sans-serif" font-size="16.00">bC2</text>
</g>
<!-- bC2&#45;&gt;bC1 -->
<g id="edge1" class="edge">
<title>bC2&#45;&gt;bC1</title>
<path fill="none" stroke="black" stroke-width="2" d="M60.67,-142.41C60.67,-125.76 60.67,-106.55 60.67,-89.67"/>
<text text-anchor="middle" x="76.17" y="-111.33" font-family="sans-serif" font-size="12.00"> &#160;&#160;&#160;&#160;&#160;&#160;&#160;</text>
<polygon fill="white" stroke="transparent" points="53.67,-80.67 53.67,-97.67 67.67,-97.67 67.67,-80.67 53.67,-80.67"/>
<text text-anchor="start" x="55.67" y="-86.07" font-family="sans-serif" font-size="12.00">D</text>
<polygon fill="white" stroke="transparent" points="53.67,-133.41 53.67,-150.41 67.67,-150.41 67.67,-133.41 53.67,-133.41"/>
<text text-anchor="start" x="55.67" y="-138.81" font-family="sans-serif" font-size="12.00">U</text>
</g>
</g>
</svg>
